<svg width="197" height="45" viewBox="0 0 197 45" fill="none" xmlns="http://www.w3.org/2000/svg">
<g filter="url(#filter0_d_34_3801)">
<path d="M5.55 36V12.5H9.1V36H5.55ZM7.3 7.4C6.63333 7.4 6.06667 7.16667 5.6 6.7C5.13333 6.2 4.9 5.61667 4.9 4.95C4.9 4.25 5.13333 3.66667 5.6 3.2C6.06667 2.73333 6.63333 2.5 7.3 2.5C8.03333 2.5 8.61667 2.73333 9.05 3.2C9.51667 3.66667 9.75 4.25 9.75 4.95C9.75 5.61667 9.51667 6.2 9.05 6.7C8.61667 7.16667 8.03333 7.4 7.3 7.4ZM33.2945 36V22.2C33.2945 20.1333 32.6779 18.4667 31.4445 17.2C30.2445 15.9 28.6445 15.25 26.6445 15.25C25.2779 15.25 24.0779 15.55 23.0445 16.15C22.0112 16.75 21.1945 17.5667 20.5945 18.6C19.9945 19.6333 19.6945 20.8167 19.6945 22.15L18.0945 21.25C18.0945 19.4833 18.5112 17.9 19.3445 16.5C20.1779 15.1 21.2945 14 22.6945 13.2C24.1279 12.4 25.7612 12 27.5945 12C29.3945 12 30.9945 12.4333 32.3945 13.3C33.7945 14.1667 34.8779 15.3333 35.6445 16.8C36.4445 18.2667 36.8445 19.8667 36.8445 21.6V36H33.2945ZM16.1945 36V12.5H19.6945V36H16.1945Z" fill="#A0A0A0" shape-rendering="crispEdges"/>
<path d="M54.6918 36L40.8418 0.85H48.1918L58.8918 29.3H56.0418L66.8418 0.85H74.0918L60.0918 36H54.6918ZM78.6957 36V0.85H85.4957V36H78.6957ZM83.6957 36V30H103.146V36H83.6957ZM83.6957 20.95V15.15H101.396V20.95H83.6957ZM83.6957 6.85V0.85H102.896V6.85H83.6957ZM113.774 21.3V16H121.924C123.59 16 124.874 15.5833 125.774 14.75C126.707 13.8833 127.174 12.7 127.174 11.2C127.174 9.83333 126.707 8.7 125.774 7.8C124.874 6.86667 123.59 6.4 121.924 6.4H113.774V0.85H122.524C124.79 0.85 126.774 1.3 128.474 2.2C130.207 3.06666 131.54 4.26666 132.474 5.8C133.44 7.33333 133.924 9.1 133.924 11.1C133.924 13.1667 133.44 14.9667 132.474 16.5C131.54 18 130.207 19.1833 128.474 20.05C126.74 20.8833 124.724 21.3 122.424 21.3H113.774ZM108.774 36V0.85H115.574V36H108.774ZM127.974 36L116.374 20.8L122.624 18.85L136.224 36H127.974ZM149.345 36.5C146.512 36.5 144.078 36.0167 142.045 35.05C140.045 34.0833 138.228 32.6333 136.595 30.7L141.095 26.2C142.128 27.5667 143.328 28.6333 144.695 29.4C146.062 30.1333 147.728 30.5 149.695 30.5C151.462 30.5 152.862 30.15 153.895 29.45C154.962 28.75 155.495 27.7833 155.495 26.55C155.495 25.4833 155.195 24.6167 154.595 23.95C153.995 23.2833 153.195 22.7167 152.195 22.25C151.228 21.7833 150.145 21.3667 148.945 21C147.778 20.6 146.595 20.15 145.395 19.65C144.228 19.15 143.145 18.5333 142.145 17.8C141.178 17.0333 140.395 16.0667 139.795 14.9C139.195 13.7 138.895 12.2 138.895 10.4C138.895 8.26667 139.412 6.45 140.445 4.95C141.478 3.45 142.895 2.3 144.695 1.5C146.495 0.699998 148.528 0.299998 150.795 0.299998C153.195 0.299998 155.362 0.749998 157.295 1.65C159.228 2.55 160.812 3.71667 162.045 5.15L157.545 9.65C156.512 8.51666 155.445 7.68333 154.345 7.15C153.278 6.61666 152.062 6.35 150.695 6.35C149.128 6.35 147.895 6.65 146.995 7.25C146.095 7.85 145.645 8.71667 145.645 9.85C145.645 10.8167 145.945 11.6 146.545 12.2C147.145 12.8 147.928 13.3167 148.895 13.75C149.895 14.1833 150.978 14.6 152.145 15C153.345 15.4 154.528 15.85 155.695 16.35C156.895 16.85 157.978 17.5 158.945 18.3C159.945 19.1 160.745 20.1333 161.345 21.4C161.945 22.6333 162.245 24.1667 162.245 26C162.245 29.2667 161.095 31.8333 158.795 33.7C156.495 35.5667 153.345 36.5 149.345 36.5ZM167.612 36V0.85H174.412V36H167.612ZM172.612 36V30H192.062V36H172.612ZM172.612 20.95V15.15H190.312V20.95H172.612ZM172.612 6.85V0.85H191.812V6.85H172.612Z" fill="#5222D0" shape-rendering="crispEdges"/>
</g>
<defs>
<filter id="filter0_d_34_3801" x="0.899902" y="0.300049" width="195.162" height="44.2" filterUnits="userSpaceOnUse" color-interpolation-filters="sRGB">
<feFlood flood-opacity="0" result="BackgroundImageFix"/>
<feColorMatrix in="SourceAlpha" type="matrix" values="0 0 0 0 0 0 0 0 0 0 0 0 0 0 0 0 0 0 127 0" result="hardAlpha"/>
<feOffset dy="4"/>
<feGaussianBlur stdDeviation="2"/>
<feComposite in2="hardAlpha" operator="out"/>
<feColorMatrix type="matrix" values="0 0 0 0 0 0 0 0 0 0 0 0 0 0 0 0 0 0 0.05 0"/>
<feBlend mode="normal" in2="BackgroundImageFix" result="effect1_dropShadow_34_3801"/>
<feBlend mode="normal" in="SourceGraphic" in2="effect1_dropShadow_34_3801" result="shape"/>
</filter>
</defs>
</svg>
