<svg width="907" height="680" viewBox="0 0 907 680" fill="none" xmlns="http://www.w3.org/2000/svg">
<path d="M315.863 285.543C319.037 291.323 319.094 298.18 316.033 304.017C315.523 304.98 316.997 305.83 317.507 304.867C320.851 298.464 320.795 290.983 317.337 284.693C316.77 283.673 315.353 284.58 315.863 285.543Z" fill="#161616"/>
<path d="M317.96 285.827C319.888 284.863 322.155 283.673 324.366 284.183C327.654 284.863 327.767 287.527 327.994 290.247C328.221 293.873 328.051 297.727 325.67 300.673C324.989 301.523 326.18 302.713 326.86 301.863C330.148 297.84 330.545 291.55 329.298 286.62C327.71 280.67 321.248 282.313 317.167 284.353C316.146 284.807 316.997 286.28 317.96 285.827Z" fill="#161616"/>
<path d="M317.96 305.207C321.135 305.603 324.309 304.357 326.407 301.92C327.087 301.07 325.896 299.88 325.216 300.73C323.402 302.883 320.795 303.903 317.96 303.563C316.883 303.393 316.883 305.093 317.96 305.207Z" fill="#161616"/>
<path d="M317.45 210.913C318.187 209.497 320.227 205.643 322.495 209.213C322.892 209.78 322.892 211.367 323.005 211.933C323.232 213.123 323.629 214.37 324.479 215.277C327.313 218.223 329.297 213.407 332.245 214.993C335.987 216.977 331.111 221.17 334.173 223.493C334.91 224.06 335.76 224.06 336.61 223.72C337.177 223.493 337.63 222.983 338.197 222.7C340.295 221.793 341.032 223.663 341.202 225.307C341.259 225.817 341.542 226.1 342.052 226.157C342.676 226.213 343.243 226.27 343.866 226.327C344.943 226.44 344.943 224.74 343.866 224.627C343.243 224.57 342.676 224.513 342.052 224.457C342.336 224.74 342.619 225.023 342.902 225.307C342.732 223.777 342.449 221.793 341.032 220.887C339.501 219.867 338.481 220.773 337.064 221.453C336.383 221.793 335.817 222.927 334.853 221.567C334.513 221.057 335.25 219.47 335.363 218.903C335.59 217.997 335.703 217.203 335.42 216.297C334.966 214.88 333.719 213.69 332.302 213.237C330.545 212.613 329.694 213.35 328.107 213.803C326.69 214.2 325.273 214.087 324.762 212.557C324.592 211.99 324.536 211.31 324.479 210.743C324.309 209.837 324.196 208.873 323.742 208.023C321.418 203.773 317.393 207.343 315.976 210.233C315.466 211.027 316.94 211.877 317.45 210.913Z" fill="#161616"/>
<path d="M328.448 205.643C329.808 204.34 331.055 203.773 332.529 205.02C333.719 206.04 333.493 206.38 333.833 207.74C334.06 208.533 334.286 209.27 334.967 209.837C335.817 210.573 336.781 210.573 337.858 210.46C338.878 210.347 340.069 209.667 340.919 210.743C341.316 211.253 341.259 212.387 341.259 213.01C341.316 214.71 341.316 216.75 343.243 217.373C343.81 217.543 344.433 217.26 344.944 217.43C345.624 217.147 345.907 217.317 345.964 218.053C346.191 218.507 346.304 218.96 346.247 219.527C346.531 220.83 347.041 221.793 348.061 222.7C348.855 223.437 350.045 222.247 349.252 221.51C347.551 219.923 348.742 217.713 347.325 216.297C345.851 214.823 343.526 216.977 343.016 214.257C342.619 212.16 343.413 209.327 340.635 208.59C338.651 208.08 336.554 210.063 335.477 207.343C335.023 206.21 335.193 204.963 334.4 203.887C332.529 201.45 329.071 202.697 327.2 204.453C326.407 205.19 327.654 206.437 328.448 205.643Z" fill="#161616"/>
<path d="M537.284 310.987C535.584 310.817 538.134 307.473 538.645 307.19C540.005 306.453 541.592 306.85 542.613 307.927C544.824 310.307 542.953 313.82 539.948 314.16C538.871 314.273 538.871 315.973 539.948 315.86C542.443 315.577 544.654 313.933 545.22 311.44C545.787 309.003 544.313 306.397 542.046 305.433C539.835 304.527 537.398 305.377 536.094 307.36C534.96 309.06 534.677 312.46 537.341 312.687C538.361 312.8 538.361 311.1 537.284 310.987Z" fill="#161616"/>
<path d="M525.833 307.53C524.643 306.453 526.06 304.3 527.421 305.49C528.838 306.68 526.911 308.323 525.607 307.36C524.756 306.68 523.906 308.153 524.756 308.833C525.947 309.74 527.761 309.457 528.838 308.38C530.085 307.133 529.802 305.207 528.498 304.13C527.194 303.053 525.323 303.11 524.303 304.527C523.396 305.773 523.509 307.587 524.643 308.663C525.437 309.457 526.684 308.267 525.833 307.53Z" fill="#161616"/>
<path d="M722.482 234.714C723.049 245.254 717.777 255.397 708.877 261.064C707.97 261.63 708.82 263.103 709.727 262.537C719.137 256.587 724.75 245.877 724.183 234.714C724.126 233.637 722.425 233.637 722.482 234.714Z" fill="#161616"/>
<path d="M723.616 235.96C729.058 239.927 726.847 247.123 723.843 251.827C721.008 256.303 716.417 261.63 710.521 260.723C709.444 260.553 708.99 262.197 710.068 262.367C717.153 263.387 722.539 257.437 725.827 251.883C729.115 246.387 730.362 238.793 724.466 234.487C723.559 233.863 722.709 235.337 723.616 235.96Z" fill="#161616"/>
<path d="M246.421 185.527C249.992 191.42 252.146 197.937 252.656 204.793C252.77 205.87 254.47 205.87 254.357 204.793C253.79 197.597 251.636 190.853 247.895 184.677C247.271 183.713 245.797 184.563 246.421 185.527Z" fill="#E8E8E8"/>
<path d="M253.336 183.657C256.284 188.983 257.928 194.763 258.325 200.827C258.381 201.903 260.082 201.903 260.025 200.827C259.629 194.48 257.871 188.417 254.81 182.807C254.3 181.843 252.826 182.693 253.336 183.657Z" fill="#E8E8E8"/>
<path d="M245.967 196.407C250.899 193.177 256.454 191.477 262.406 191.363C263.484 191.363 263.484 189.663 262.406 189.663C256.228 189.777 250.332 191.59 245.117 194.99C244.21 195.557 245.06 197.03 245.967 196.407Z" fill="#E8E8E8"/>
<path d="M245.797 203.32C251.976 199.58 258.722 197.2 265.865 196.123C266.942 195.953 266.488 194.31 265.411 194.48C258.098 195.557 251.239 198.05 244.947 201.847C244.04 202.413 244.89 203.887 245.797 203.32Z" fill="#E8E8E8"/>
<path d="M578.666 231.257C576.058 232.56 575.038 235.96 577.249 238.17C578.439 239.36 579.46 239.02 580.877 239.473C581.784 239.757 582.804 240.323 582.634 241.23C582.521 241.853 581.897 242.363 581.557 242.873C580.99 243.61 580.31 244.46 580.083 245.367C579.857 246.443 580.14 247.52 580.99 248.257C582.237 249.333 583.881 248.653 585.242 249.333C588.076 250.693 582.918 256.643 587.283 257.777C588.36 258.06 588.813 256.417 587.736 256.133C585.922 255.68 588.19 252.223 588.36 251.147C588.473 250.183 588.303 249.22 587.566 248.54C585.639 246.67 579.97 248.653 582.861 243.893C583.768 242.42 585.412 240.607 584.335 238.68C583.995 238.057 583.428 237.717 582.748 237.547C582.067 237.433 580.99 237.547 580.31 237.49C577.306 237.32 576.965 233.977 579.516 232.673C580.48 232.277 579.63 230.803 578.666 231.257Z" fill="#E8E8E8"/>
<path d="M591.25 240.777C589.38 241.513 589.323 243.553 590.457 245.083C591.194 246.16 592.384 246.387 593.348 247.123C595.729 248.88 593.631 250.353 593.234 252.393C592.554 255.907 596.296 254.717 597.373 256.983C598.28 258.853 597.94 260.95 600.264 261.8C601.284 262.197 601.738 260.553 600.717 260.157C599.073 259.59 599.3 256.473 598.393 255.227C598.11 254.773 597.713 254.49 597.316 254.15C597.089 253.98 596.749 254.037 596.579 253.923C596.182 253.867 595.899 253.583 595.785 253.017C594.992 252.507 594.878 251.997 595.559 251.43C596.069 249.843 597.089 248.88 596.012 247.237C595.615 246.613 594.878 246.16 594.255 245.763C593.745 245.423 590.06 243.157 591.761 242.477C592.724 242.023 592.271 240.38 591.25 240.777Z" fill="#E8E8E8"/>
<path d="M700.771 355.187C696.633 352.24 697.313 346.063 701.791 343.797C705.193 342.097 709.841 343.683 711.598 347.027C713.356 350.37 711.825 355.073 708.48 356.83C704.966 358.643 700.601 357.057 698.617 353.827C698.05 352.92 696.576 353.77 697.143 354.677C699.694 358.927 705.589 360.797 709.954 357.963C714.093 355.243 715.396 348.953 712.335 344.987C709.331 341.133 703.322 340.227 699.524 343.343C695.102 346.913 695.442 353.43 699.977 356.717C700.828 357.283 701.678 355.81 700.771 355.187Z" fill="#E8E8E8"/>
<path d="M309.514 371.507C310.137 369.467 311.044 368.9 312.121 369.863C312.405 369.977 312.688 370.147 312.915 370.26C313.312 370.373 313.822 370.487 314.219 370.43C315.069 370.317 315.749 369.807 316.146 369.127C317.563 366.86 315.976 364.65 314.559 362.893C313.822 362.043 312.462 360.91 312.632 359.607C312.858 357.113 314.332 358.133 315.579 357.963C316.486 357.85 317.28 357.51 317.734 356.66C318.187 355.923 318.074 354.96 317.96 354.167C317.904 353.713 317.734 353.203 317.734 352.75C317.337 351.56 317.904 350.823 319.434 350.54C320.171 351.05 320.795 351.673 321.305 352.467C321.928 353.373 323.402 352.523 322.779 351.617C321.248 349.463 316.713 346.517 315.976 350.993C315.636 353.26 317.734 355.64 314.389 356.207C312.745 356.49 311.611 356.49 311.101 358.417C310.648 360.003 311.271 361.533 312.235 362.78C312.688 363.347 313.199 363.857 313.652 364.367C314.219 364.933 314.616 365.557 314.899 366.293C314.219 366.973 313.595 367.653 312.915 368.333C312.405 368.447 311.101 367.37 310.364 367.313C307.076 367.087 305.319 371.507 308.607 372.923C309.684 373.377 310.534 371.903 309.514 371.507Z" fill="#E8E8E8"/>
<path d="M323.345 369.07C322.438 367.597 321.021 365.33 321.645 363.46C322.098 362.043 324.026 361.42 324.876 360.287C326.18 358.53 326.01 356.207 324.819 354.45C324.592 354.903 324.309 355.3 324.082 355.753C327.314 355.98 330.035 354.053 330.998 350.937C331.338 349.86 329.694 349.463 329.354 350.483C328.617 352.863 326.577 354.223 324.082 354.053C323.459 353.997 323.005 354.79 323.345 355.357C324.082 356.433 324.366 357.963 323.629 359.153C322.949 360.173 322.042 360.23 321.305 360.967C320.624 361.647 320.171 362.327 320.001 363.347C319.547 365.67 320.794 367.993 321.928 369.92C322.438 370.883 323.912 370.033 323.345 369.07Z" fill="#E8E8E8"/>
<path d="M496.469 76.2735C499.474 79.7301 501.344 83.7535 502.138 88.2301C502.308 89.3068 503.952 88.8535 503.782 87.7768C502.932 83.0168 500.834 78.7101 497.66 75.0268C496.923 74.2335 495.732 75.4235 496.469 76.2735Z" fill="#E8E8E8"/>
<path d="M497.943 76.4433C499.87 74.6866 507.58 67.7733 510.414 69.7566C511.831 70.7766 513.078 73.0999 513.985 74.6299C515.119 76.5566 516.026 78.5966 516.763 80.6933C517.103 81.7133 518.747 81.2599 518.407 80.2399C517.443 77.5766 516.253 74.9699 514.722 72.5899C513.759 71.0599 512.285 68.4533 510.527 67.7166C508.543 66.8666 506.106 68.6233 504.462 69.5866C501.684 71.1733 499.133 73.0999 496.752 75.2533C495.959 75.9899 497.149 77.1799 497.943 76.4433Z" fill="#E8E8E8"/>
<path d="M503.952 89.3068C508.373 85.5668 513.192 82.5068 518.52 80.1834C519.541 79.7301 518.634 78.2568 517.67 78.7101C512.228 81.0901 507.296 84.2634 502.761 88.1168C501.911 88.7968 503.101 89.9868 503.952 89.3068Z" fill="#E8E8E8"/>
<path d="M513.815 73.3266C515.97 71.5133 520.788 66.9233 523.452 69.9266C525.38 72.0799 526.627 75.5933 527.761 78.1999C528.214 79.2199 529.688 78.3133 529.234 77.3499C528.157 74.9133 527.024 72.5899 525.663 70.3233C524.983 69.1333 524.132 67.3199 522.715 66.8099C521.071 66.2433 519.314 67.4333 518.01 68.2266C516.083 69.3599 514.326 70.6633 512.625 72.0799C511.775 72.8733 513.022 74.0633 513.815 73.3266Z" fill="#E8E8E8"/>
<path d="M509.62 83.6968C512.285 84.8868 514.552 86.4734 516.65 88.5134C517.046 88.9101 517.67 88.7968 518.01 88.3434C520.504 84.7734 523.792 82.0534 527.76 80.1834C528.781 79.7301 527.874 78.2568 526.91 78.7101C522.659 80.6934 519.201 83.6401 516.536 87.4368C516.99 87.3801 517.443 87.3234 517.897 87.2668C515.743 85.1134 513.305 83.4701 510.527 82.2234C509.45 81.8268 508.6 83.2434 509.62 83.6968Z" fill="#E8E8E8"/>
<path d="M521.978 146.71C521.865 146.087 521.695 145.463 521.581 144.84C522.092 144.33 522.602 143.877 523.225 143.537C523.566 143.31 523.962 143.083 524.303 142.8C524.983 142.233 525.436 141.667 525.776 140.873C526.173 139.853 526.06 138.89 525.946 137.813C525.89 137.473 525.833 137.077 525.776 136.737C525.72 136.34 525.946 131.75 527.76 133.223C528.611 133.903 529.801 132.713 528.951 132.033C527.704 131.013 526.4 131.183 525.266 132.26C523.339 134.13 524.246 136.34 524.359 138.607C524.529 142.007 520.108 142.177 519.711 145.293C519.541 146.71 520.108 148.013 521.581 148.297C522.602 148.523 523.055 146.88 521.978 146.71Z" fill="#EC615B"/>
<path d="M528.214 142.007C529.575 143.083 531.502 142.29 531.785 140.533C532.069 139.003 531.048 137.587 531.162 136.057C531.332 133.96 532.749 132.147 534.676 131.41C535.697 131.013 535.243 129.37 534.223 129.767C532.352 130.447 530.878 131.693 530.085 133.563C529.688 134.413 529.461 135.377 529.461 136.34C529.461 136.793 529.518 137.247 529.575 137.643C529.575 137.643 530.425 141.553 529.461 140.76C528.554 140.137 527.364 141.327 528.214 142.007Z" fill="#EC615B"/>
<path d="M381.961 329.007C380.94 328.44 380.827 327.137 381.564 326.287C382.301 325.437 383.661 325.097 384.738 325.267C385.645 325.437 386.666 325.89 387.062 326.797C387.516 327.817 386.836 329.573 385.475 329.403C384.398 329.233 383.945 330.877 385.022 331.047C386.949 331.33 388.65 330.027 388.933 328.043C389.273 325.947 387.573 324.247 385.645 323.737C383.661 323.17 381.167 323.793 379.976 325.607C378.899 327.25 379.353 329.573 381.167 330.48C382.074 330.99 382.924 329.517 381.961 329.007Z" fill="#EC615B"/>
<path d="M292.394 128.463C292.734 127.33 293.074 126.14 293.358 125.007C293.698 125.12 294.038 125.233 294.378 125.347C294.831 125.403 295.285 125.687 295.738 125.8C296.362 125.97 297.099 126.027 297.722 125.857C299.196 125.347 299.65 123.93 299.65 122.513C299.65 121.097 299.14 119.567 300.273 118.433C301.18 117.527 302.711 117.187 303.901 117.47C307.813 118.377 307.416 123.307 305.715 125.97C305.149 126.877 306.622 127.727 307.189 126.82C309.06 123.817 309.513 119.283 306.452 116.847C304.185 115.033 300.33 115.373 298.573 117.753C297.382 119.34 298.176 120.757 297.836 122.57C297.269 125.573 293.017 122.797 291.09 123.477C287.462 124.78 288.539 129.37 291.77 130.22C292.961 130.39 293.414 128.747 292.394 128.463Z" fill="#EC615B"/>
<path d="M661.09 377.003C662.28 376.097 663.584 376.04 665.001 376.777C665.625 377.117 666.475 376.55 666.248 375.814C665.738 374.794 665.851 373.887 666.702 373.094C667.099 371.337 668.006 371.224 669.366 372.697C669.763 373.49 670.897 373.037 670.953 372.244C670.953 371.507 671.01 370.714 671.123 369.977C671.293 368.164 672.484 367.71 674.581 368.56C675.035 369.58 676.452 368.674 676.055 367.71C675.375 366.124 673.561 365.613 671.974 366.237C669.593 367.2 669.309 370.034 669.253 372.244C669.763 372.074 670.33 371.96 670.84 371.79C670.046 370.09 668.006 369.467 666.305 370.317C664.151 371.45 664.037 374.114 664.604 376.21C665.001 375.87 665.455 375.587 665.851 375.247C663.924 374.284 662.11 374.34 660.239 375.473C659.332 376.097 660.183 377.57 661.09 377.003Z" fill="#EC615B"/>
<path d="M617.043 142.233C613.982 143.14 611.828 145.747 611.431 148.977C611.035 152.037 612.849 155.833 616.25 156.173C618.744 156.4 621.238 153.567 619.708 151.243C618.064 148.693 614.889 150.563 613.585 152.377C609.901 157.647 613.189 167.96 620.785 165.523C622.882 164.843 625.49 162.293 624.299 159.857C622.826 156.853 619.538 160.083 618.687 161.783C616.93 165.297 616.477 170.34 620.105 172.833C622.939 174.76 626.85 173.513 627.757 170.17C627.984 169.433 626.907 168.64 626.34 169.32C622.429 174.25 625.433 181.05 631.782 181.277C632.859 181.333 632.859 179.633 631.782 179.577C627.02 179.407 624.526 174.307 627.531 170.567C627.077 170.283 626.567 170 626.113 169.717C625.263 172.947 621.295 172.437 619.764 170.057C618.404 167.847 618.857 164.843 620.105 162.633C620.388 162.067 621.918 159.403 622.825 161.103C623.279 162.01 621.578 163.313 621.012 163.653C619.254 164.617 616.93 164.333 615.57 162.86C614.152 161.387 613.699 159.12 613.869 157.137C613.982 156.06 614.209 154.813 614.719 153.907C614.946 153.567 615.229 153.227 615.456 152.887C616.873 151.527 616.817 151.923 615.229 154.133C614.096 154.247 613.132 151.13 613.075 150.393C613.019 149.657 613.132 148.92 613.302 148.24C613.869 146.143 615.399 144.557 617.497 143.933C618.574 143.593 618.12 141.95 617.043 142.233Z" fill="#EC615B"/>
<path d="M312.065 176.857C311.611 175.497 311.838 174.193 312.858 173.117C313.992 171.927 315.353 172.097 316.77 172.323C317.79 172.493 318.584 172.607 319.547 172.04C320.284 171.587 320.795 170.737 321.135 170C321.361 169.433 321.532 168.867 321.645 168.3C321.702 167.903 321.815 167.507 321.872 167.167C321.985 165.807 322.949 165.24 324.706 165.467C324.649 166.487 326.067 166.543 326.35 165.693C326.803 164.39 327.37 163.03 328.561 162.237C330.318 161.047 332.812 161.273 333.152 163.71C333.323 164.787 334.91 164.333 334.796 163.257C334.456 160.933 332.245 159.46 329.921 159.8C327.087 160.197 325.556 162.86 324.763 165.297C325.33 165.353 325.896 165.467 326.407 165.523C326.52 163.823 324.933 162.747 323.289 162.973C320.625 163.313 320.511 166.317 319.944 168.3C319.547 169.717 319.207 170.793 317.223 170.737C316.656 170.737 315.976 170.34 315.353 170.34C314.276 170.34 313.198 170.737 312.348 171.36C310.477 172.777 309.684 175.157 310.421 177.367C310.761 178.33 312.405 177.933 312.065 176.857Z" fill="#5222D0"/>
<path d="M629.401 231.823C633.471 231.823 636.77 228.297 636.77 223.947C636.77 219.597 633.471 216.07 629.401 216.07C625.331 216.07 622.032 219.597 622.032 223.947C622.032 228.297 625.331 231.823 629.401 231.823Z" fill="#5222D0"/>
<path d="M230.775 233.58C233.467 233.58 235.65 231.424 235.65 228.763C235.65 226.103 233.467 223.947 230.775 223.947C228.082 223.947 225.899 226.103 225.899 228.763C225.899 231.424 228.082 233.58 230.775 233.58Z" fill="#5222D0"/>
<path d="M302.938 438.713C305.192 438.713 307.019 436.734 307.019 434.293C307.019 431.852 305.192 429.873 302.938 429.873C300.684 429.873 298.856 431.852 298.856 434.293C298.856 436.734 300.684 438.713 302.938 438.713Z" fill="#5222D0"/>
<path d="M620.842 241.627C625.569 241.627 629.401 237.999 629.401 233.523C629.401 229.048 625.569 225.42 620.842 225.42C616.114 225.42 612.282 229.048 612.282 233.523C612.282 237.999 616.114 241.627 620.842 241.627Z" fill="#EC615B"/>
<path d="M451.403 67.5467C453.813 67.5467 455.767 65.3648 455.767 62.6734C455.767 59.9819 453.813 57.8 451.403 57.8C448.992 57.8 447.038 59.9819 447.038 62.6734C447.038 65.3648 448.992 67.5467 451.403 67.5467Z" fill="#EC615B"/>
<path d="M690.964 327.307C694.345 327.307 697.086 324.262 697.086 320.507C697.086 316.751 694.345 313.707 690.964 313.707C687.583 313.707 684.842 316.751 684.842 320.507C684.842 324.262 687.583 327.307 690.964 327.307Z" fill="#EC615B"/>
<path d="M213.655 292.173C220.418 292.173 225.9 286.566 225.9 279.65C225.9 272.734 220.418 267.127 213.655 267.127C206.893 267.127 201.411 272.734 201.411 279.65C201.411 286.566 206.893 292.173 213.655 292.173Z" fill="#EC615B"/>
<path d="M298.97 613.19C287.972 596.643 273.234 578.623 275.161 557.543C274.877 557.827 274.594 558.11 274.311 558.393C276.011 558.337 277.485 558.62 279.072 559.3C279.696 559.583 280.603 559.13 280.319 558.337C279.753 556.75 278.732 555.843 277.598 554.653C275.501 552.443 275.331 550.177 275.444 547.287C275.614 542.697 274.821 538.503 272.893 534.31C272.723 534.707 272.553 535.16 272.383 535.557C273.857 535.047 275.331 534.537 276.805 534.027C277.202 533.857 277.542 533.46 277.372 533.007C273.744 522.467 275.558 510.623 276.351 499.8C277.202 488.24 278.335 476.737 279.696 465.233C279.242 465.46 278.846 465.743 278.392 465.97C285.988 470.843 290.07 479.173 293.244 487.277C296.872 496.513 299.99 505.92 302.598 515.497C308.04 535.217 311.328 555.56 312.461 576.017C313.085 587.407 313.028 598.853 312.291 610.243C312.235 611.32 313.935 611.32 313.992 610.243C316.656 568.31 310.25 525.527 294.718 486.427C291.374 477.983 287.065 469.54 279.242 464.497C278.619 464.1 278.052 464.61 277.939 465.233C276.521 477.133 275.388 489.033 274.537 500.933C273.744 511.643 272.156 523.09 275.671 533.46C275.841 533.12 276.068 532.78 276.238 532.44C274.764 532.95 273.29 533.46 271.816 533.97C271.249 534.14 271.079 534.707 271.306 535.217C272.44 537.71 273.29 540.317 273.574 543.093C273.8 545.417 273.46 547.683 273.63 550.007C273.744 551.593 274.027 553.067 274.991 554.427C276.125 556.013 277.939 557.033 278.619 558.903C279.016 558.563 279.469 558.28 279.866 557.94C278.052 557.147 276.238 556.75 274.254 556.807C273.744 556.807 273.46 557.203 273.404 557.657C271.476 579.077 286.328 597.38 297.496 614.153C298.119 614.947 299.593 614.097 298.97 613.19Z" fill="#E8E8E8"/>
<path d="M279.753 469.2C292.677 503.88 300.444 540.43 302.654 577.377C303.278 587.803 303.448 598.287 303.221 608.77C303.221 609.847 304.922 609.847 304.922 608.77C305.772 571.823 301.18 534.763 291.26 499.12C288.426 488.863 285.081 478.72 281.397 468.747C281.056 467.727 279.412 468.18 279.753 469.2Z" fill="#E8E8E8"/>
<path d="M275.161 505.013C283.551 510.227 290.41 517.423 295.229 526.093C295.739 527.057 297.213 526.207 296.702 525.243C291.771 516.347 284.685 508.923 276.012 503.54C275.105 502.973 274.254 504.447 275.161 505.013Z" fill="#E8E8E8"/>
<path d="M276.861 484.103C281.623 487.673 285.478 492.093 288.482 497.193C289.049 498.157 290.523 497.307 289.956 496.343C286.782 490.96 282.7 486.37 277.712 482.63C276.861 482.007 276.011 483.48 276.861 484.103Z" fill="#E8E8E8"/>
<path d="M301.804 551.593C302.825 544.567 304.809 537.71 307.756 531.25C308.21 530.287 306.736 529.38 306.283 530.4C303.278 537.03 301.237 543.943 300.16 551.197C299.99 552.217 301.634 552.67 301.804 551.593Z" fill="#E8E8E8"/>
<path d="M305.886 519.406C311.101 502.123 320.114 486.483 329.127 470.956C328.617 470.9 328.107 470.843 327.597 470.73C332.245 493.396 336.1 516.177 339.048 539.127C339.331 538.843 339.615 538.56 339.898 538.277C337.914 538.163 335.93 538.05 333.946 537.936C333.266 537.88 332.755 538.957 333.322 539.41C336.724 542.017 336.383 546.55 335.987 550.403C335.476 555.503 334.91 560.546 334.343 565.646C334.683 565.363 335.08 565.08 335.42 564.853C333.889 564.513 332.415 564.4 330.828 564.4C330.205 564.4 329.751 565.136 330.091 565.703C334.456 573.183 327.654 581.003 324.479 587.463C321.305 593.98 319.264 601.007 318.243 608.203C318.073 609.28 319.717 609.733 319.887 608.656C321.078 599.93 323.912 591.656 328.277 584.006C331.565 578.226 335.363 571.37 331.565 564.853C331.338 565.306 331.055 565.703 330.828 566.156C332.245 566.1 333.606 566.213 334.966 566.553C335.533 566.666 335.987 566.327 336.043 565.76C336.667 559.923 337.574 554.086 337.857 548.25C338.027 544.623 337.517 540.713 334.513 538.333C334.286 538.843 334.116 539.296 333.889 539.806C335.873 539.92 337.857 540.033 339.841 540.146C340.238 540.146 340.748 539.75 340.692 539.296C337.687 516.233 333.833 493.226 329.127 470.446C328.957 469.71 327.937 469.653 327.597 470.22C318.527 485.86 309.457 501.67 304.185 519.066C303.958 519.973 305.602 520.426 305.886 519.406Z" fill="#E8E8E8"/>
<path d="M327.54 472.827C321.815 506.6 317.904 540.713 315.806 574.94C315.749 576.017 317.45 576.017 317.507 574.94C319.547 540.883 323.459 506.94 329.128 473.28C329.354 472.203 327.71 471.75 327.54 472.827Z" fill="#E8E8E8"/>
<path d="M310.364 507.11C312.688 514.987 315.409 522.693 318.47 530.287C318.867 531.307 320.511 530.853 320.114 529.833C317.053 522.24 314.389 514.477 312.008 506.657C311.668 505.58 310.024 506.033 310.364 507.11Z" fill="#E8E8E8"/>
<path d="M116.606 540.543C136.05 534.14 157.364 529.947 177.885 531.023C188.542 531.59 198.69 534.877 208.78 537.937C218.587 540.883 228.394 543.943 238.257 546.777C249.368 549.95 260.592 552.5 272.1 553.293C273.177 553.35 273.177 551.65 272.1 551.593C250.899 550.233 230.435 542.753 210.254 536.633C200.674 533.743 191.15 530.513 181.116 529.55C170.799 528.587 160.312 529.55 150.108 530.967C138.544 532.61 127.15 535.273 116.096 538.9C115.132 539.24 115.586 540.883 116.606 540.543Z" fill="#E8E8E8"/>
<path d="M177.091 530.343C193.644 526.717 210.254 523.09 226.58 518.387C242.622 513.74 258.268 506.43 274.991 504.39C276.068 504.277 276.068 502.577 274.991 502.69C258.495 504.73 243.076 511.813 227.203 516.46C210.594 521.333 193.644 525.017 176.695 528.757C175.561 528.927 176.014 530.57 177.091 530.343Z" fill="#E8E8E8"/>
<path d="M299.537 500.537C304.072 500.253 308.663 500.197 313.198 500.367C314.276 500.423 314.276 498.723 313.198 498.667C308.607 498.497 304.072 498.553 299.537 498.837C298.46 498.95 298.46 500.65 299.537 500.537Z" fill="#E8E8E8"/>
<path d="M138.374 607.58C157.421 604.86 176.298 609.677 195.005 612.623C203.905 614.04 212.861 614.89 221.875 614.663C231.965 614.38 242.055 613.36 252.032 615.117C253.11 615.287 253.563 613.643 252.486 613.473C242.679 611.773 232.872 612.623 222.952 612.963C212.975 613.303 203.168 612.283 193.361 610.697C174.994 607.693 156.571 603.33 137.921 605.993C136.843 606.107 137.297 607.75 138.374 607.58Z" fill="#E8E8E8"/>
<path d="M251.636 629.793C251.862 628.037 258.608 628.83 259.799 628.83C261.272 628.83 266.714 627.98 267.451 629.567C267.565 629.17 267.678 628.773 267.735 628.377C264.957 630.247 261.896 631.04 258.552 630.813C257.474 630.757 257.474 632.457 258.552 632.513C262.18 632.74 265.524 631.833 268.585 629.85C268.982 629.567 269.095 629.113 268.869 628.66C268.358 627.583 267.508 627.3 266.374 627.13C263.71 626.733 260.762 627.073 258.098 627.073C255.547 627.073 250.275 626.11 249.878 629.737C249.765 630.87 251.522 630.87 251.636 629.793Z" fill="#E8E8E8"/>
<path d="M252.883 601.743C251.806 602.31 250.672 602.14 249.538 601.233C249.481 601.686 249.425 602.14 249.368 602.593C250.785 601.517 252.429 600.837 254.243 600.893C255.717 600.95 257.021 601.743 258.495 601.8C259.855 601.856 261.102 601.29 262.463 601.12C264.617 600.78 266.601 601.233 268.528 602.31C269.492 602.82 270.342 601.403 269.379 600.837C267.962 600.043 266.544 599.476 264.9 599.363C262.576 599.136 260.422 600.383 258.211 600.1C256.397 599.873 254.923 599.136 252.996 599.306C251.295 599.476 249.822 600.157 248.461 601.177C248.064 601.46 247.837 602.14 248.291 602.537C249.822 603.783 251.409 604.18 253.279 603.5C254.357 603.046 253.903 601.403 252.883 601.743Z" fill="#E8E8E8"/>
<path d="M166.944 625.77C169.836 629.34 173.69 625.997 176.921 625.317C179.586 624.75 181.683 626.337 184.291 626.337C187.069 626.337 190.073 625.033 192.511 626.79C193.418 627.413 194.268 625.94 193.361 625.317C191.887 624.24 190.3 624.07 188.486 624.183C185.765 624.41 183.611 624.75 180.89 623.9C179.019 623.277 177.432 623.277 175.561 623.957C173.293 624.807 170.062 627.073 168.022 624.58C167.455 623.73 166.208 624.977 166.944 625.77Z" fill="#E8E8E8"/>
<path d="M350.045 614.437C353.787 612.963 356.791 613.417 360.703 613.87C363.14 614.153 364.841 613.303 366.995 612.34C369.262 611.32 370.793 611.83 372.834 612.963C373.684 613.417 374.478 613.813 375.441 613.983C378.332 614.55 382.244 612.623 384.681 614.72C385.532 615.457 386.722 614.21 385.872 613.53C383.718 611.717 381.393 612.113 378.729 612.34C376.518 612.51 374.818 612.113 372.947 611.037C371.813 610.413 370.736 609.847 369.432 609.847C368.242 609.847 367.165 610.357 366.088 610.81C363.537 611.943 362.006 612.283 359.172 611.83C355.827 611.32 352.766 611.49 349.592 612.737C348.571 613.19 349.025 614.833 350.045 614.437Z" fill="#E8E8E8"/>
<path d="M723.106 523.43C743.23 514.193 763.467 504.9 784.668 498.44C806.039 491.98 828.261 488.807 850.596 489.317C863.294 489.6 875.992 491.073 888.463 493.623C889.54 493.85 889.994 492.207 888.917 491.98C866.695 487.39 843.85 486.37 821.345 489.033C799.01 491.64 777.639 498.213 756.835 506.657C745.157 511.417 733.65 516.687 722.199 521.957C721.292 522.41 722.142 523.883 723.106 523.43Z" fill="#E8E8E8"/>
<path d="M815.223 525.3C828.488 520.483 842.093 516.743 855.981 514.25C863.124 512.947 870.267 512.04 877.523 511.36C882.738 510.907 892.431 508.697 896.173 513.683C896.796 514.533 898.327 513.683 897.647 512.833C894.415 508.527 888.803 508.923 883.928 509.207C876.219 509.66 868.453 510.51 860.8 511.7C845.097 514.137 829.678 518.217 814.77 523.657C813.749 524.053 814.203 525.697 815.223 525.3Z" fill="#E8E8E8"/>
<path d="M723.162 488.92C738.694 485.52 754.964 487.333 769.306 494.19C770.269 494.643 771.176 493.17 770.156 492.717C755.361 485.69 738.695 483.763 722.709 487.277C721.632 487.503 722.085 489.147 723.162 488.92Z" fill="#E8E8E8"/>
<path d="M757.798 566.893C760.236 564.003 764.091 567.29 766.642 568.31C768.739 569.16 770.383 568.933 772.424 568.027C775.712 566.553 778.376 567.857 781.664 567.743C785.065 567.63 787.843 564.4 790.961 567.233C791.754 567.97 793.001 566.78 792.151 566.043C790.11 564.23 787.899 563.89 785.348 564.797C784.045 565.307 783.081 565.93 781.607 566.043C780.473 566.1 779.34 565.817 778.206 565.703C776.845 565.533 775.485 565.307 774.181 565.533C772.027 565.93 770.326 567.63 767.945 567.007C766.245 566.553 764.828 565.363 763.184 564.683C760.859 563.777 758.195 563.607 756.494 565.647C755.871 566.553 757.061 567.743 757.798 566.893Z" fill="#E8E8E8"/>
<path d="M823.159 610.413C819.531 598.853 817.887 586.84 818.341 574.713C817.887 574.94 817.49 575.223 817.037 575.45C818.284 576.073 819.588 576.697 820.835 577.32C821.458 577.603 822.082 577.263 822.139 576.583C822.932 564.91 825.54 553.52 829.792 542.583C829.395 542.753 828.941 542.923 828.544 543.093C829.225 543.433 829.905 543.773 830.642 544.17C830.925 544.34 831.435 544.34 831.662 544.057C836.084 538.503 840.959 533.403 846.401 528.813C845.947 528.757 845.494 528.7 845.04 528.643C849.065 534.253 848.782 541.62 848.498 548.193C848.158 555.503 847.195 562.7 845.551 569.84C842.319 583.667 836.707 596.813 828.941 608.713C828.318 609.62 829.792 610.47 830.415 609.563C838.635 597.04 844.53 583.043 847.648 568.367C849.179 561.227 850.086 553.973 850.312 546.72C850.482 540.26 850.539 533.233 846.571 527.737C846.231 527.283 845.664 527.17 845.211 527.567C839.769 532.157 834.893 537.2 830.472 542.81C830.812 542.753 831.152 542.697 831.492 542.697C830.812 542.357 830.132 542.017 829.395 541.62C828.885 541.337 828.374 541.62 828.148 542.13C823.839 553.18 821.288 564.74 820.438 576.583C820.892 576.357 821.288 576.073 821.742 575.847C820.495 575.223 819.191 574.6 817.944 573.977C817.377 573.693 816.697 574.033 816.64 574.713C816.187 586.953 817.83 599.137 821.515 610.81C821.855 611.887 823.499 611.433 823.159 610.413Z" fill="#E8E8E8"/>
<path d="M848.385 567.46C852.24 559.187 856.775 551.253 861.877 543.717C861.536 543.83 861.253 544 860.913 544.113C864.201 544.963 866.015 541.96 867.715 539.693C870.833 535.5 874.745 532.157 879.336 529.607C878.94 529.437 878.486 529.267 878.089 529.097C883.248 545.19 879.96 561.85 870.323 575.563C865.788 582.023 860.573 588.2 855.244 594.037C849.916 599.76 844.077 604.917 837.047 608.487C836.084 608.997 836.934 610.47 837.898 609.96C845.04 606.333 851.049 601.063 856.435 595.227C862.103 589.05 867.659 582.533 872.364 575.62C881.831 561.737 884.892 544.793 879.733 528.7C879.563 528.19 878.996 527.907 878.486 528.19C875.425 529.89 872.591 531.93 870.04 534.423C868.906 535.557 867.829 536.803 866.808 538.107C865.561 539.693 863.917 543.15 861.366 542.527C860.97 542.413 860.629 542.583 860.403 542.923C855.301 550.46 850.766 558.393 846.911 566.667C846.458 567.573 847.931 568.48 848.385 567.46Z" fill="#E8E8E8"/>
<path d="M840.392 538.73C836.48 549.383 831.719 560.093 829.168 571.2C826.56 582.533 824.973 594.15 823.046 605.596C822.875 606.673 824.519 607.127 824.689 606.05C826.674 594.603 828.204 582.93 830.812 571.653C833.363 560.547 838.124 549.893 842.036 539.183C842.433 538.163 840.789 537.71 840.392 538.73Z" fill="#E8E8E8"/>
<path d="M870.266 547.173C863.974 557.26 857.682 567.347 851.389 577.377C845.664 586.557 839.485 595.567 835.517 605.653C835.12 606.673 836.764 607.127 837.161 606.107C841.242 595.85 847.648 586.613 853.487 577.263C859.552 567.517 865.675 557.77 871.74 547.967C872.307 547.06 870.833 546.21 870.266 547.173Z" fill="#E8E8E8"/>
<path d="M825.426 549.27C825.993 554.993 827.354 560.49 829.451 565.817C829.848 566.837 831.492 566.383 831.095 565.363C829.054 560.207 827.694 554.823 827.127 549.27C827.014 548.193 825.313 548.137 825.426 549.27Z" fill="#E8E8E8"/>
<path d="M830.075 576.527C836.594 570.917 842.603 564.797 848.158 558.223C848.839 557.373 847.648 556.183 846.968 557.033C841.413 563.607 835.404 569.727 828.885 575.337C828.034 576.073 829.282 577.263 830.075 576.527Z" fill="#E8E8E8"/>
<path d="M855.981 549.61C855.471 555.333 855.584 561 856.321 566.667C856.435 567.743 858.135 567.743 858.022 566.667C857.285 561 857.171 555.277 857.682 549.61C857.795 548.477 856.094 548.477 855.981 549.61Z" fill="#E8E8E8"/>
<path d="M188.259 365.783C180.04 363.517 174.087 355.527 174.201 346.97C174.314 337.393 182.931 327.193 192.964 327.42C203.508 327.703 209.177 340.51 208.157 349.747C206.966 360.74 196.025 367.653 185.538 364.763C184.461 364.48 184.008 366.123 185.085 366.407C193.531 368.73 202.658 365.443 207.193 357.85C211.728 350.2 210.197 340.057 205.379 332.86C200.504 325.607 191.32 323.793 183.781 328.157C176.582 332.407 171.65 341.19 172.67 349.577C173.691 357.85 179.756 365.16 187.806 367.37C188.883 367.71 189.336 366.067 188.259 365.783Z" fill="#E8E8E8"/>
<path d="M171.14 408.793C172.897 410.833 175.221 412.193 177.942 412.477C179.359 412.647 180.776 412.477 182.137 411.967C184.291 411.23 186.048 409.643 188.543 410.097C191.66 410.607 193.985 412.76 197.273 412.363C200.844 411.967 203.962 409.417 207.703 409.7C211.104 409.983 213.995 412.307 217.34 412.987C220.288 413.61 222.158 412.533 224.653 411.23C231.058 407.83 238.371 412.137 245.06 409.87C246.08 409.53 245.627 407.887 244.607 408.227C238.598 410.21 232.305 406.923 226.24 408.68C222.895 409.643 220.798 412.137 217 411.173C214.109 410.437 211.614 408.68 208.667 408.17C205.889 407.66 203.451 408.623 200.901 409.587C199.427 410.153 197.839 410.777 196.195 410.777C194.155 410.777 192.454 409.643 190.64 408.963C188.032 408 186.105 408.34 183.611 409.473C179.529 411.343 175.391 411.287 172.33 407.603C171.65 406.753 170.403 407.943 171.14 408.793Z" fill="#E8E8E8"/>
<path d="M214.959 394.003C219.437 396.497 224.596 392.813 229.017 395.137C230.775 396.043 231.908 397.517 234.063 397.233C235.82 397.007 237.18 395.647 238.541 394.627C241.602 392.247 244.096 392.813 247.441 394.173C249.935 395.193 252.316 395.817 254.98 395.76C260.989 395.647 266.941 393.04 272.893 395.023C273.914 395.363 274.367 393.72 273.347 393.38C268.245 391.68 263.143 393.153 257.985 393.777C254.924 394.173 252.032 394.117 249.141 392.983C246.761 392.077 244.38 390.717 241.715 391.057C239.958 391.283 238.654 392.303 237.294 393.38C236.16 394.287 235.083 395.42 233.552 395.42C232.022 395.477 231.115 394.287 229.811 393.607C225.389 391.17 220.117 394.91 215.752 392.473C214.845 391.963 213.995 393.437 214.959 394.003Z" fill="#E8E8E8"/>
<path d="M717.947 358.643C721.348 357.737 723.786 357.737 726.79 359.72C728.264 360.683 729.795 361.42 731.552 361.76C734.67 362.327 737.901 361.59 740.906 360.797C744.59 359.777 748.332 358.417 752.187 358.417C756.268 358.417 759.613 361.25 763.751 360.91C771.46 360.23 776.279 352.58 784.555 353.487C791.754 354.28 798.897 358.813 805.983 355.357C806.947 354.903 806.096 353.43 805.133 353.883C797.763 357.453 789.77 351.447 782.174 351.73C778.716 351.843 775.769 353.317 772.821 355.017C769.249 357.17 765.338 360.117 760.86 359.04C758.819 358.587 757.062 357.453 755.021 357C753.434 356.66 751.846 356.66 750.259 356.83C746.744 357.17 743.4 358.36 740.055 359.267C736.144 360.287 732.062 361.023 728.378 358.813C726.847 357.85 725.487 356.717 723.673 356.377C721.575 355.98 719.478 356.547 717.494 357.057C716.473 357.283 716.87 358.927 717.947 358.643Z" fill="#E8E8E8"/>
<path d="M779.68 373.603C782.911 371.733 786.652 371.393 790.054 372.98C792.094 373.887 793.682 375.076 796.006 374.906C801.278 374.51 804.906 369.863 810.404 372.356C812.048 373.093 813.636 373.886 815.506 373.603C817.83 373.206 819.474 371.337 821.572 370.543C826.73 368.56 832.569 371.45 837.955 370.26C839.032 370.033 838.578 368.39 837.501 368.617C832.172 369.75 826.674 367.03 821.402 368.786C818.964 369.58 817.094 371.903 814.429 371.903C811.765 371.903 809.668 369.75 806.89 369.806C801.788 369.92 797.706 375.02 792.491 372.527C787.843 370.26 783.421 369.58 778.716 372.3C777.866 372.64 778.716 374.113 779.68 373.603Z" fill="#E8E8E8"/>
<path d="M735.52 458.263C739.148 457.13 741.699 458.036 744.987 459.453C746.801 460.19 748.502 460.36 750.429 460.02C752.81 459.51 754.964 458.376 757.288 457.753C760.803 456.846 762.787 458.773 765.848 459.963C770.383 461.72 774.068 458.49 778.262 457.47C783.591 456.166 788.466 459.963 793.852 459.17C794.929 459 794.475 457.357 793.398 457.527C788.183 458.32 783.478 454.58 778.206 455.77C775.712 456.336 773.557 457.696 771.12 458.433C767.549 459.51 765.508 457.583 762.39 456.336C758.138 454.693 754.397 457.413 750.315 458.32C747.368 459 745.384 457.526 742.719 456.62C740.168 455.77 737.561 455.883 735.067 456.677C733.989 456.96 734.443 458.603 735.52 458.263Z" fill="#E8E8E8"/>
<path opacity="0.22" d="M844.417 630.247C768.512 644.753 692.551 659.203 616.646 673.71C525.776 645.377 434.963 617.043 344.093 588.71C465.234 589.163 586.375 589.56 707.46 590.013C753.15 603.443 798.783 616.873 844.417 630.247Z" fill="#666666"/>
<path opacity="0.19" d="M756.211 608.827C692.211 624.183 628.154 639.54 564.154 654.897C491.934 632.853 419.657 610.81 347.438 588.71C445.393 580.493 543.406 572.277 641.362 564.06C679.626 579.02 717.89 593.923 756.211 608.827Z" fill="#666666"/>
<path d="M343.81 417.35C344.66 473.847 345.567 530.343 346.417 586.897C418.184 603.103 489.893 619.253 561.66 635.46C561.546 570.067 561.376 504.673 561.263 439.28C488.759 431.913 416.256 424.603 343.81 417.35Z" fill="white" stroke="#161616" stroke-width="2" stroke-miterlimit="10"/>
<path d="M719.648 402.447C719.364 464.78 719.081 527.113 718.797 589.447C666.588 604.803 614.322 620.103 562.113 635.46C561.943 569.33 561.773 503.257 561.603 437.127C614.266 425.623 666.985 414.063 719.648 402.447Z" fill="white" stroke="#161616" stroke-width="2" stroke-miterlimit="10"/>
<path d="M559.789 438.713C488.079 431.29 416.426 423.867 344.773 416.443C391.994 404.43 439.215 392.417 486.435 380.403C563.644 387.827 640.909 395.25 718.117 402.73C665.341 414.687 612.565 426.7 559.789 438.713Z" fill="white" stroke="#161616" stroke-width="2" stroke-miterlimit="10"/>
<path d="M612.281 392.587C593.858 391.34 575.491 390.093 557.068 388.847C520.788 402.107 484.508 415.367 448.285 428.627C447.944 488.75 447.604 548.873 447.208 608.997C463.477 612.907 479.746 616.76 496.015 620.67C495.335 558.393 494.598 496.173 493.918 433.897C533.372 420.183 572.827 406.357 612.281 392.587Z" fill="#161616" stroke="#161616" stroke-width="2" stroke-miterlimit="10"/>
<path d="M628.154 615.4C643.176 610.81 658.255 606.22 673.277 601.63C672.767 539.353 672.2 477.133 671.69 414.857C598.11 406.187 524.473 397.517 450.892 388.847C438.138 392.02 425.44 395.193 412.685 398.423C484.678 409.587 556.671 420.693 628.721 431.857C628.551 493.057 628.381 554.2 628.154 615.4Z" fill="#161616" stroke="#161616" stroke-width="2" stroke-miterlimit="10"/>
<path d="M631.952 308.153C637.167 310.307 638.018 323.793 635.183 334.333C624.299 374.737 553.837 391.113 550.492 384.937C549.075 382.273 561.206 377.23 586.715 351.957C614.832 324.077 625.093 305.377 631.952 308.153Z" fill="white" stroke="#161616" stroke-width="2" stroke-miterlimit="10"/>
<path d="M486.946 334.73C488.306 341.133 491.651 348.557 513.135 369.183C527.534 383.01 534.79 389.923 536.831 388.563C540.969 385.73 527.251 358.473 514.212 339.037C507.523 329.063 495.789 311.667 489.837 313.933C485.585 315.52 485.245 326.74 486.946 334.73Z" fill="white" stroke="#161616" stroke-width="2" stroke-miterlimit="10"/>
<path d="M541.025 412.25C549.353 412.25 556.104 405.121 556.104 396.327C556.104 387.532 549.353 380.403 541.025 380.403C532.697 380.403 525.946 387.532 525.946 396.327C525.946 405.121 532.697 412.25 541.025 412.25Z" fill="#161616" stroke="#161616" stroke-width="2" stroke-miterlimit="10"/>
<path d="M541.309 389.867C549.868 381.537 558.542 372.697 567.215 363.46C586.375 343.06 603.438 322.943 618.574 303.45C621.861 303.053 628.324 302.657 631.045 306.34C635.013 311.61 628.721 322.037 625.773 326.967C610.751 351.957 562.963 378.533 541.309 389.867Z" fill="#161616" stroke="#161616" stroke-width="2" stroke-miterlimit="10"/>
<path d="M490.404 313.083C492.501 311.157 499.02 315.067 502.875 317.39C534.847 336.6 538.758 382.047 539.382 390.32C513.305 356.66 485.132 318.013 490.404 313.083Z" fill="#161616" stroke="#161616" stroke-width="2" stroke-miterlimit="10"/>
<path d="M355.657 447.95C381.507 448.403 407.47 448.29 433.263 449.48C459.339 450.67 485.188 454.297 510.924 458.773C525.436 461.323 539.948 464.1 554.46 466.933C555.537 467.16 555.991 465.517 554.914 465.29C529.518 460.36 504.065 455.487 478.386 452.03C452.423 448.573 426.46 447.44 400.27 446.987C385.418 446.76 370.51 446.477 355.657 446.25C354.58 446.25 354.58 447.95 355.657 447.95Z" fill="#161616"/>
<path d="M575.888 466.083C619.311 453.05 663.584 442.907 708.423 435.767C709.5 435.597 709.047 433.953 707.97 434.123C663.187 441.263 618.914 451.407 575.435 464.44C574.414 464.723 574.868 466.367 575.888 466.083Z" fill="#161616"/>
<path d="M497.886 544.113C497.886 561.283 497.886 578.397 497.886 595.567C497.886 596.643 499.587 596.643 499.587 595.567C499.587 578.397 499.587 561.283 499.587 544.113C499.587 543.037 497.886 543.037 497.886 544.113Z" fill="#161616"/>
<path d="M503.498 585.31C503.498 593.867 503.498 602.48 503.498 611.037C503.498 612.113 505.199 612.113 505.199 611.037C505.199 602.48 505.199 593.867 505.199 585.31C505.199 584.177 503.498 584.177 503.498 585.31Z" fill="#161616"/>
<path d="M620.841 500.423C620.841 514.137 620.841 527.85 620.841 541.563C620.841 542.64 622.542 542.64 622.542 541.563C622.542 527.85 622.542 514.137 622.542 500.423C622.542 499.347 620.841 499.347 620.841 500.423Z" fill="#161616"/>
<path d="M623.902 557.487C623.902 566.723 623.902 576.017 623.902 585.253C623.902 586.33 625.603 586.33 625.603 585.253C625.603 576.017 625.603 566.723 625.603 557.487C625.603 556.41 623.902 556.41 623.902 557.487Z" fill="#161616"/>
<path d="M416.709 498.213C416.709 505.637 416.709 513.06 416.709 520.483C416.709 521.56 418.41 521.56 418.41 520.483C418.41 513.06 418.41 505.637 418.41 498.213C418.41 497.137 416.709 497.137 416.709 498.213Z" fill="#161616"/>
<path d="M411.891 526.49C411.891 532.497 411.891 538.503 411.891 544.51C411.891 545.587 413.592 545.587 413.592 544.51C413.592 538.503 413.592 532.497 413.592 526.49C413.592 525.413 411.891 525.413 411.891 526.49Z" fill="#161616"/>
<path opacity="0.21" d="M716.02 589.22C664.774 604.803 613.529 620.443 562.283 636.027C562.283 570.973 562.283 505.92 562.283 440.867C613.812 429.08 665.341 417.293 716.87 405.563C716.643 466.763 716.36 527.963 716.02 589.22Z" fill="#666666"/>
<path opacity="0.21" d="M719.421 589.957C667.212 604.237 615.059 618.517 562.85 632.797C562.51 575.847 562.17 518.953 561.773 462.003C584.845 483.14 607.973 504.277 631.045 525.47C660.296 515.78 689.603 506.09 718.854 496.4C719.081 527.567 719.251 558.79 719.421 589.957Z" fill="#666666"/>
<path opacity="0.14" d="M634.503 311.1C631.725 310.533 628.778 329.63 619.084 345.327C610.297 359.55 592.781 376.21 554.177 385.843C559.165 385.39 566.761 384.37 575.661 381.763C584.901 379.1 623.902 367.767 634.163 337.337C638.358 324.757 636.77 311.553 634.503 311.1Z" fill="#666666"/>
<path opacity="0.2" d="M494.542 432.48C510.924 443.587 527.364 454.693 543.746 465.8C528.667 463.193 513.645 460.643 498.566 458.037C499.19 488.297 501.684 522.24 507.466 559.073C511.264 583.27 515.969 605.767 521.185 626.393C513.192 624.183 505.142 621.973 497.149 619.707C496.299 557.317 495.449 494.87 494.542 432.48Z" fill="#666666"/>
<path opacity="0.13" d="M498.51 432.99C522.602 429.533 546.751 426.077 570.843 422.62C560.242 421.203 549.642 419.787 539.041 418.427C531.729 421.147 525.72 423.017 521.525 424.263C517.217 425.51 513.985 426.303 509.167 428.173C504.575 429.93 500.891 431.743 498.51 432.99Z" fill="#666666"/>
<path d="M694.762 576.697C693.175 578.17 691.644 579.7 690.057 581.173C692.778 591.657 695.499 602.14 698.22 612.623C700.374 611.547 702.585 610.527 704.739 609.45C701.451 598.513 698.107 587.577 694.762 576.697Z" fill="#161616" stroke="#161616" stroke-width="3" stroke-miterlimit="10"/>
<path d="M697.88 571.767C696.293 571.313 694.762 570.86 693.175 570.407C692.892 564.967 692.552 559.527 692.268 554.087C701.508 550.743 710.805 547.4 720.045 544C720.839 544.227 721.689 544.453 722.483 544.68C714.32 553.69 706.1 562.757 697.88 571.767Z" fill="#161616" stroke="#161616" stroke-width="3" stroke-miterlimit="10"/>
<path d="M697.597 554.087C697.823 560.093 698.107 566.043 698.334 572.05C706.213 569.783 714.036 567.573 721.916 565.307C722.029 558.563 722.142 551.877 722.312 545.133C714.036 548.137 705.816 551.083 697.597 554.087Z" fill="white" stroke="#161616" stroke-width="3" stroke-miterlimit="10"/>
<path d="M694.989 576.527C704.739 574.033 714.433 571.54 724.183 569.047C723.843 571.937 723.673 575.223 723.786 578.793C724.183 588.2 726.677 595.907 729.001 601.233C720.895 603.953 712.789 606.73 704.682 609.45C701.451 598.457 698.22 587.52 694.989 576.527Z" fill="white" stroke="#161616" stroke-width="3" stroke-miterlimit="10"/>
<path d="M705.022 570.01C704.966 571.03 705.136 572.05 705.533 573.013C705.929 574.033 707.573 573.58 707.176 572.56C706.836 571.71 706.723 570.86 706.723 570.01C706.78 568.933 705.079 568.933 705.022 570.01Z" fill="#161616"/>
<path d="M710.238 569.103C710.124 570.01 710.294 570.917 710.634 571.71C710.804 572.107 711.201 572.447 711.655 572.277C712.052 572.163 712.448 571.653 712.222 571.257C711.938 570.52 711.825 569.84 711.882 569.103C711.938 568.65 711.485 568.253 711.031 568.253C710.578 568.253 710.238 568.65 710.238 569.103Z" fill="#161616"/>
<path d="M703.039 610.81C704.229 616.363 709.558 621.407 713.923 624.807C718.741 628.547 724.41 630.757 730.419 631.437C731.496 631.55 731.496 629.85 730.419 629.737C724.58 629.057 718.968 626.79 714.376 622.993C710.521 619.82 705.76 615.287 704.682 610.357C704.456 609.28 702.812 609.733 703.039 610.81Z" fill="#161616"/>
<path d="M707.006 609.337C712.562 617.78 719.931 625.6 730.362 627.3C731.439 627.47 731.892 625.827 730.815 625.657C720.781 624.013 713.809 616.59 708.424 608.487C707.857 607.523 706.383 608.373 707.006 609.337Z" fill="#161616"/>
<path d="M731.269 626.28C731.666 624.523 732.233 622.823 733.083 621.18C733.423 620.557 733.933 619.933 734.16 619.31C733.65 618.29 733.48 618.347 733.763 619.423C733.877 619.99 733.933 620.557 733.99 621.18C734.103 622.767 733.99 624.297 733.82 625.883C733.763 626.563 733.82 628.887 733.366 629.397C732.913 629.907 731.892 629.85 731.326 629.907C730.249 629.963 730.249 631.663 731.326 631.607C732.459 631.55 733.65 632.06 734.557 631.097C735.464 630.077 735.294 628.093 735.464 626.847C735.747 624.693 735.861 622.483 735.634 620.273C735.52 619.253 735.577 617.837 734.614 617.327C734.387 617.213 733.99 617.157 733.763 617.327C731.439 619.14 730.249 623.22 729.625 625.883C729.342 626.903 730.986 627.357 731.269 626.28Z" fill="#161616"/>
<path d="M720.102 604.803C725.373 611.207 733.536 614.267 741.699 613.19C742.777 613.02 742.323 611.433 741.246 611.547C733.65 612.567 726.11 609.507 721.292 603.613C720.612 602.763 719.421 603.953 720.102 604.803Z" fill="#161616"/>
<path d="M715.566 606.957C721.915 613.813 730.929 617.61 740.282 617.327C741.359 617.27 741.359 615.57 740.282 615.627C731.325 615.91 722.822 612.34 716.757 605.767C716.077 604.917 714.829 606.163 715.566 606.957Z" fill="#161616"/>
<path d="M742.946 612.113C743.23 611.037 743.57 609.96 743.967 608.94C744.08 608.6 745.1 605.37 745.497 605.37C745.214 605.143 744.93 604.973 744.704 604.747C745.27 606.447 744.874 608.827 744.704 610.527C744.477 612.623 744.023 614.663 743.457 616.703C743.173 617.78 744.817 618.233 745.1 617.157C745.724 615.003 746.177 612.793 746.404 610.527C746.574 608.657 746.971 606.107 746.348 604.293C746.234 603.953 745.894 603.67 745.554 603.67C743.003 603.84 741.869 609.733 741.359 611.66C741.019 612.737 742.663 613.19 742.946 612.113Z" fill="#161616"/>
<path d="M739.659 617.213C741.019 617.78 742.436 618.007 743.91 617.723C744.987 617.553 744.534 615.91 743.457 616.08C742.493 616.25 741.473 616.137 740.509 615.74C739.545 615.287 738.638 616.76 739.659 617.213Z" fill="#161616"/>
<path d="M708.651 617.78C708.877 616.42 710.068 615.57 711.428 615.74C712.505 615.853 712.505 614.153 711.428 614.04C709.388 613.813 707.347 615.287 707.007 617.327C706.78 618.403 708.424 618.857 708.651 617.78Z" fill="#161616"/>
<path d="M713.639 622.823C713.866 621.69 714.716 620.897 715.793 620.67C716.87 620.443 716.417 618.8 715.34 619.027C713.696 619.367 712.335 620.67 711.995 622.313C711.768 623.447 713.356 623.9 713.639 622.823Z" fill="#161616"/>
<path d="M718.911 626.847C719.308 625.657 720.272 624.807 721.519 624.58C722.596 624.353 722.142 622.71 721.065 622.937C719.251 623.277 717.834 624.637 717.267 626.393C716.927 627.413 718.571 627.867 718.911 626.847Z" fill="#161616"/>
<path d="M724.466 624.863C723.162 625.77 722.539 627.243 722.822 628.83C722.992 629.907 724.636 629.453 724.466 628.377C724.353 627.583 724.693 626.79 725.316 626.337C726.223 625.713 725.373 624.24 724.466 624.863Z" fill="#161616"/>
<path d="M733.253 619.99C732.176 622.88 732.743 626.62 732.743 629.68C732.743 630.757 734.443 630.757 734.443 629.68C734.443 626.79 733.877 623.163 734.897 620.443C735.237 619.423 733.593 618.97 733.253 619.99Z" fill="#161616"/>
<path d="M724.126 611.49C724.126 610.583 724.693 609.79 725.6 609.563C726.677 609.28 726.224 607.637 725.147 607.92C723.559 608.317 722.426 609.847 722.426 611.49C722.426 612.567 724.126 612.567 724.126 611.49Z" fill="#161616"/>
<path d="M719.535 608.487C719.988 607.58 720.838 607.013 721.859 606.843C722.312 606.787 722.539 606.22 722.426 605.823C722.312 605.313 721.859 605.143 721.405 605.257C719.988 605.483 718.741 606.39 718.061 607.693C717.607 608.6 719.081 609.45 719.535 608.487Z" fill="#161616"/>
<path d="M733.253 614.833C733.253 614.38 733.48 613.983 733.933 613.757C734.897 613.247 734.046 611.773 733.083 612.283C732.119 612.793 731.552 613.813 731.609 614.833C731.552 615.91 733.253 615.91 733.253 614.833Z" fill="#161616"/>
<path d="M701.735 561.623C702.868 561.623 704.002 561.623 705.136 561.623C706.213 561.623 706.213 559.923 705.136 559.923C704.002 559.923 702.868 559.923 701.735 559.923C700.657 559.923 700.657 561.623 701.735 561.623Z" fill="#161616"/>
<path d="M715.283 557.997C716.134 557.147 716.984 556.297 717.834 555.447C718.628 554.653 717.381 553.463 716.644 554.257C715.793 555.107 714.943 555.957 714.093 556.807C713.356 557.543 714.546 558.733 715.283 557.997Z" fill="#161616"/>
<path d="M708.878 564.117C710.465 564.627 712.165 563.89 713.016 562.53C713.583 561.567 712.109 560.717 711.542 561.68C711.088 562.473 710.181 562.757 709.331 562.53C708.254 562.19 707.857 563.833 708.878 564.117Z" fill="#161616"/>
<path d="M720.442 581.797C717.494 582.647 714.546 583.497 711.598 584.347C711.202 583.553 710.691 582.42 710.465 580.947C710.181 579.303 710.295 577.943 710.465 577.037C713.639 576.413 716.814 575.79 719.988 575.167C719.705 576.017 719.421 577.49 719.705 579.247C719.875 580.323 720.158 581.173 720.442 581.797Z" fill="#EC615B"/>
<path opacity="0.24" d="M703.492 552.217C703.662 557.883 703.889 563.607 704.059 569.273C709.898 567.743 715.737 566.27 721.576 564.74C721.632 558.507 721.689 552.33 721.689 546.097C715.68 548.193 709.558 550.177 703.492 552.217Z" fill="#666666"/>
<path opacity="0.24" d="M703.492 575.507C704.286 579.36 705.306 583.44 706.44 587.633C708.311 594.377 710.465 600.553 712.676 606.107C717.777 604.35 722.823 602.65 727.924 600.893C726.677 598.23 725.487 595.057 724.523 591.43C722.312 582.817 722.596 575.28 723.276 570.123C716.7 571.937 710.125 573.75 703.492 575.507Z" fill="#666666"/>
<path d="M406.109 124.553C406.336 129.143 406.733 135.83 407.47 143.82C409.284 163.71 410.361 180.88 414.953 194.48C418.411 204.737 426.574 223.947 446.981 243.27C445.791 247.18 443.863 252.11 440.632 257.437C436.664 263.953 432.129 268.6 428.728 271.603C411.948 255.227 403.162 238.907 398.513 228.367C387.119 202.413 386.836 178.783 386.609 161.273C386.439 147.05 387.629 135.093 388.876 126.537C386.836 124.61 383.718 121.607 379.806 118.037C372.664 111.577 369.943 109.48 370.396 108.573C370.793 107.78 373.741 107.837 385.985 112.2C375.441 98.6567 370.736 91.4034 371.87 90.3267C372.891 89.3634 378.559 93.4434 388.933 102.567C381.224 83.4134 379.976 77.69 380.997 77.18C382.017 76.67 385.985 81.26 397.096 99.6767C395.339 84.83 395.906 81.4867 396.813 81.26C398.4 80.92 401.915 90.1567 402.935 92.9334C405.316 99.28 406.62 104.72 407.3 108.403C416.88 100.867 418.807 101.547 419.261 102C420.905 103.473 416.54 110.953 415.463 112.823C412.345 118.263 408.774 122.117 406.109 124.553Z" fill="white" stroke="#161616" stroke-width="2" stroke-miterlimit="10"/>
<path opacity="0.15" d="M381.507 78.0867C380.543 78.5967 384.115 88.1167 388.763 96.22C390.067 98.43 390.861 99.5067 397.72 109.82C400.497 114.013 402.765 117.413 404.296 119.68C402.311 127.84 400.157 139.06 399.59 152.547C399.194 161.953 398.57 180.597 405.146 202.923C412.288 227.177 424.703 244.687 433.773 255.283C438.138 251.373 442.503 247.463 446.868 243.553C428.104 225.533 419.828 207.457 416.03 197.2C410.645 182.58 409.171 168.527 407.867 156.287C406.45 143.537 406.28 132.77 406.393 124.893C409.284 122.627 413.592 118.66 416.767 112.483C417.447 111.123 421.188 103.927 419.318 102.34C417.334 100.64 410.134 106.08 407.13 108.403C400.497 86.4733 397.833 81.5433 396.756 81.77C396.133 81.8833 395.962 83.6967 395.736 86.5867C395.282 92.48 396.303 97.2967 397.266 100.3C397.21 100.413 397.21 100.413 381.507 78.0867Z" fill="#666666"/>
<path opacity="0.2" d="M417.787 107.497C415.463 108.573 410.531 111.237 406.619 116.903C403.048 122.06 402.084 127.047 401.801 129.597C401.007 137.53 400.837 146.597 401.858 156.4C405.429 191.307 421.812 216.92 432.412 230.577C425.1 218.507 415.689 199.977 410.304 175.78C405.656 155.04 405.486 137.02 406.336 124.043C408.547 121.72 411.041 118.773 413.422 115.147C415.236 112.427 416.653 109.82 417.787 107.497Z" fill="#666666"/>
<path d="M502.762 240.38C498.85 242.193 495.562 243.44 493.635 247.01C489.837 253.98 494.882 263.273 496.129 265.597C499.304 271.49 503.839 275.117 507.297 277.27C518.294 272.51 534.733 263.443 549.302 246.727C568.122 225.137 573.564 202.243 576.399 189.947C580.197 173.173 580.367 158.837 579.857 149.09C582.634 144.273 586.659 137.473 591.818 129.313C596.353 122.06 598.847 118.263 597.883 117.243C597.146 116.507 594.312 117.13 584.278 124.327C587.906 110.217 589.097 102.907 587.793 102.397C586.546 101.943 583.031 107.667 577.249 119.623C578.099 103.303 577.702 95.0301 576.058 94.8034C574.358 94.5201 571.24 103.417 566.705 121.38C564.041 108.97 562.113 102.85 560.866 102.963C559.392 103.133 558.939 111.917 559.392 129.257C550.833 124.553 545.957 122.853 544.767 124.27C543.123 126.253 548.622 134.073 561.263 147.843C561.546 153.17 561.49 161.67 559.449 171.7C558.429 176.743 551.173 212.217 526.457 226.27C518.464 230.86 511.038 236.527 502.762 240.38Z" fill="white" stroke="#161616" stroke-width="2" stroke-miterlimit="10"/>
<path opacity="0.16" d="M587.793 102.283C586.886 102 585.355 107.213 579.12 116.167C577.646 118.32 576.966 119.113 576.399 120.813C574.868 125.743 577.589 128.86 577.476 132.997C577.362 135.943 575.832 140.08 568.803 145.067C569.993 149.317 571.297 155.38 571.694 162.69C573.224 191.873 557.919 213.237 552.59 222.133C547.545 230.577 532.466 252.45 495.789 265.88C496.072 267.297 497.093 271.207 500.607 274.323C502.762 276.25 505.029 277.1 506.39 277.44C513.986 274.323 524.53 268.997 535.414 260.043C552.59 245.877 560.923 230.407 564.891 222.813C580.934 192.327 580.934 162.577 579.857 147.73C583.088 142.63 585.922 138.153 588.133 134.64C596.069 122.06 598.563 118.037 597.6 117.073C597.09 116.563 595.389 116.79 589.89 120.53C588.02 121.663 586.149 122.853 584.278 123.987C588.303 107.043 588.587 102.51 587.793 102.283Z" fill="#666666"/>
<path opacity="0.28" d="M590.117 131.41C577.079 139.4 574.018 146.2 573.734 151.073C573.621 153 573.961 153.51 574.358 158.1C574.358 158.1 574.018 166.487 574.131 176.97C574.301 191.93 568.122 205.473 560.583 221.907C556.615 230.52 550.719 241.853 541.989 254.263C548.282 248.03 555.027 240.04 561.093 230.123C580.48 198.107 580.48 165.467 579.346 149.77C582.918 143.593 586.489 137.473 590.117 131.41Z" fill="#666666"/>
<path opacity="0.11" d="M544.597 125.233C557.238 131.693 560.809 132.77 561.206 132.203C561.546 131.637 559.449 129.427 557.521 128.18C556.728 127.67 555.651 127.16 553.497 126.253C549.642 124.61 548.621 124.497 547.885 124.497C546.411 124.44 545.277 124.893 544.597 125.233Z" fill="#666666"/>
<path d="M376.008 482.46C375.555 485.293 378.162 488.636 383.264 495.38C385.985 498.95 388.479 501.67 390.123 503.426C387.572 508.016 383.094 517.876 385.305 529.663C385.985 533.46 387.176 539.75 390.577 540.543C396.472 541.96 405.259 525.923 408.717 518.33C412.628 509.773 414.329 502.01 415.179 496.513C409.284 488.58 403.332 480.646 397.436 472.713C385.702 473.733 376.745 477.473 376.008 482.46Z" fill="#161616" stroke="#161616" stroke-width="2" stroke-miterlimit="10"/>
<path d="M445.394 361.363C449.135 389.527 443.353 400.633 436.834 405.393C430.938 409.7 425.1 408.283 411.154 412.307C398.967 415.877 389.613 420.977 383.434 424.943C384.228 430.61 385.872 437.863 389.16 445.74C394.375 458.207 401.631 466.99 406.79 472.26C405.769 474.413 401.518 482.687 391.597 486.88C383.548 490.337 376.292 489.09 373.627 488.523C364.557 480.137 350.612 464.553 344.32 441.603C341.769 432.253 338.651 420.183 343.243 406.697C346.134 398.253 350.612 393.493 359.626 383.973C362.573 380.857 375.441 367.54 398.23 355.413C411.551 348.33 418.297 344.76 426.29 346.403C436.437 348.613 442.729 357.113 445.394 361.363Z" fill="#EC615B"/>
<path opacity="0.21" d="M432.129 359.663C422.945 365.217 410.191 373.32 395.452 383.917C369.942 402.277 358.265 412.08 354.07 422.28C349.988 432.197 352.88 450.33 389.726 486.313C391.71 485.917 394.828 484.953 397.946 482.8C402.991 479.343 405.315 474.697 406.166 472.6C402.028 468.35 397.096 462.343 392.674 454.41C386.382 443.077 383.888 432.48 382.811 425.283C394.375 417.18 404.522 413.837 411.891 412.307C422.889 409.983 431.789 410.89 438.591 403.863C442.049 400.293 443.409 396.213 444.657 392.473C448.171 381.99 446.867 372.697 445.79 367.88C441.255 365.217 436.664 362.44 432.129 359.663Z" fill="#666666"/>
<path opacity="0.16" d="M428.728 367.653C427.537 372.867 425.61 378.703 422.719 384.823C412.628 405.903 396.019 417.577 386.779 423.017C394.205 418.087 400.781 415.48 405.429 414.007C407.016 413.497 408.66 413.043 426.063 408.51C433.999 406.413 436.267 405.847 438.648 403.58C440.065 402.22 442.389 399.443 444.203 389.357C445.11 384.2 446.017 376.663 445.394 367.313C439.782 367.427 434.226 367.54 428.728 367.653Z" fill="#666666"/>
<path opacity="0.17" d="M382.867 423.697C381.337 430.893 379.523 444.72 384.284 460.87C387.289 471.07 391.994 478.777 395.622 483.82C397.323 482.857 399.703 481.213 402.028 478.607C404.012 476.34 405.259 474.13 406.052 472.43C401.914 468.18 396.926 462.173 392.561 454.183C385.985 442.17 383.718 430.95 382.867 423.697Z" fill="#666666"/>
<path d="M415.52 479.627C419.261 484.897 423.059 490.11 426.8 495.38C424.76 500.763 419.601 516.687 427.197 529.267C428.501 531.42 430.825 535.273 434.056 535.33C440.916 535.443 445.961 518.443 446.981 515.157C448.682 509.547 450.439 500.877 449.419 489.713C446.868 473.337 434.963 464.497 426.8 466.31C419.318 467.953 415.916 478.493 415.52 479.627Z" fill="#161616" stroke="#161616" stroke-width="2" stroke-miterlimit="10"/>
<path d="M485.642 359.493C490.46 389.867 480.653 400.407 477.082 403.523C473.737 406.413 470.506 407.547 452.423 413.553C445.677 415.82 435.757 419.107 423.626 423.073C424.419 428.74 426.063 435.993 429.351 443.87C434.566 456.337 441.822 465.12 446.981 470.39C445.961 472.543 441.709 480.817 431.789 485.01C423.739 488.467 416.483 487.22 413.819 486.653C404.749 478.267 390.804 462.683 384.511 439.733C381.96 430.383 378.843 418.313 383.434 404.827C386.325 396.383 390.804 391.623 399.817 382.103C402.765 378.987 415.633 365.67 438.421 353.543C451.743 346.46 458.488 342.89 466.481 344.533C476.742 346.687 482.977 355.243 485.642 359.493Z" fill="#EC615B"/>
<path opacity="0.21" d="M448.341 358.247C446.527 363.857 442.956 372.923 436.154 382.5C419.261 406.187 400.214 407.603 394.772 420.863C390.69 430.78 393.581 448.913 430.428 484.897C432.639 483.99 435.473 482.63 438.421 480.42C442.673 477.247 445.337 473.677 446.924 471.183C442.729 466.82 437.854 460.813 433.432 452.993C426.913 441.377 424.192 430.553 422.945 423.073C435.813 418.71 446.187 415.48 453.103 413.327C466.935 409.133 474.021 407.32 479.519 400.35C482.921 395.987 484.338 391.397 485.245 388.393C488.079 379.157 487.286 371.11 486.492 366.463C473.794 363.8 461.096 361.023 448.341 358.247Z" fill="#666666"/>
<path opacity="0.16" d="M469.429 366.18C468.239 371.45 466.368 377.287 463.42 383.35C451.743 407.207 430.938 418.88 421.188 423.47C431.052 420.353 439.952 417.52 447.718 415.027C447.718 415.027 451.743 413.723 461.606 410.21C474.191 405.677 476.345 404.543 478.499 402.39C482.297 398.537 483.317 394.23 484.848 387.94C485.982 383.123 487.229 375.53 486.038 365.897C480.54 366.01 474.984 366.123 469.429 366.18Z" fill="#666666"/>
<path opacity="0.17" d="M423.569 422.28C422.038 429.477 420.224 443.303 424.986 459.453C427.99 469.653 432.696 477.36 436.324 482.403C438.024 481.44 440.405 479.797 442.729 477.19C444.713 474.923 445.96 472.713 446.754 471.013C442.616 466.763 437.627 460.757 433.262 452.767C426.687 440.753 424.419 429.533 423.569 422.28Z" fill="#666666"/>
<path d="M445.507 239.53C434.51 247.69 429.295 260.213 428.104 263.16C427.367 264.917 425.27 270.47 424.306 278.12C423.172 286.847 424.079 294.157 424.986 298.973C425.383 305.717 425.156 316.88 420.451 329.573C417.107 338.697 412.572 345.497 409 350.087C416.256 355.64 429.918 364.65 449.362 368.843C464.951 372.243 478.216 371.223 486.549 369.863C491.424 356.093 496.186 340.397 500.097 322.943C503.782 306.51 506.22 291.21 507.75 277.383C505.313 276.193 498.17 272.453 494.542 264.18C494.315 263.67 489.1 251.373 494.882 244.007C498.34 239.643 503.215 240.153 503.215 238.793C503.215 235.167 468.636 222.417 445.507 239.53Z" fill="white" stroke="#161616" stroke-width="2" stroke-miterlimit="10"/>
<path opacity="0.13" d="M460.643 233.58C459.509 235.62 459.112 241.06 459.112 244.12C459.112 247.35 459.453 250.07 459.849 251.997C459.849 257.04 465.291 281.973 461.493 305.66C457.128 332.86 442.446 353.827 435.304 362.95C441.029 365.613 449.589 368.787 460.416 370.203C471.187 371.563 480.2 370.657 486.436 369.58C490.517 357.907 494.372 345.043 497.773 331.047C502.422 311.893 505.313 294.043 507.07 278.12C504.122 276.193 494.826 269.62 492.558 258.23C491.935 254.943 490.801 249.39 494.145 244.403C497.15 239.87 501.968 238.453 503.669 238.057C481.561 229.783 463.704 228.027 460.643 233.58Z" fill="#666666"/>
<path opacity="0.17" d="M492.671 262.027C493.408 271.944 493.238 284.184 490.517 297.84C483.431 333.71 463.25 357.68 452.366 368.787C456.901 369.977 462.967 371.11 470.166 371.11C476.628 371.167 482.127 370.317 486.379 369.354C494.258 348.387 501.231 323.964 505.142 296.424C506.049 290.077 506.786 283.9 507.296 277.837C504.802 276.364 501.401 273.927 498.113 270.187C495.562 267.24 493.805 264.35 492.671 262.027Z" fill="#666666"/>
<path opacity="0.14" d="M454.01 241.74C456.845 247.067 462.287 250.41 468.125 250.523C477.309 250.75 484.735 242.873 483.658 240.097C482.921 238.17 477.309 237.037 454.01 241.74Z" fill="#666666"/>
<path d="M438.364 168.017C436.55 167.847 434.85 177.594 430.938 192.667C424.816 216.41 421.131 222.53 424.986 230.69C425.666 232.107 428.387 237.774 434.339 240.04C440.575 242.42 449.588 240.834 453.953 235.507C463.874 223.38 444.26 198.107 440.065 172.38C439.838 171.247 439.385 168.13 438.364 168.017Z" fill="#5222D0"/>
<path d="M454.577 227.29C455.087 229.387 455.654 232.617 455.144 236.47C454.86 238.85 454.237 240.833 453.67 242.42C456.107 243.1 459.849 243.837 464.327 243.61C469.599 243.327 473.737 241.797 476.175 240.663C475.325 238.793 474.531 236.753 473.794 234.43C472.49 230.407 471.81 226.667 471.413 223.437C470.619 224.4 467.955 227.233 463.42 228.197C459.169 229.103 455.767 227.8 454.577 227.29Z" fill="white" stroke="#161616" stroke-width="2" stroke-miterlimit="10"/>
<path d="M438.874 174.533C433.262 189.267 433.659 209.27 444.883 223.55C446.641 225.817 448.341 227.46 449.475 228.48C457.298 229.217 463.307 227.97 466.935 226.893C469.486 226.157 472.093 225.363 474.871 223.493C481.05 219.357 483.601 213.123 484.565 210.063C486.379 211.537 487.796 211.763 488.759 211.707C493.861 211.367 499.133 201.903 496.015 195.557C494.315 192.1 490.687 190.683 489.213 190.23C488.079 185.753 483.941 171.927 470.903 164.163C467.558 162.18 457.525 156.23 448.965 160.31C443.296 162.973 441.085 168.753 438.874 174.533Z" fill="white" stroke="#161616" stroke-width="2" stroke-miterlimit="10"/>
<path d="M456.107 230.69C455.937 230.747 455.71 230.804 455.54 230.917C454.633 231.257 454.803 232.503 455.767 232.56C460.472 233.013 466.311 229.897 470.109 227.347C471.016 226.724 470.166 225.25 469.259 225.874C465.687 228.254 460.189 231.257 455.767 230.86C455.824 231.427 455.937 231.993 455.994 232.503C456.164 232.447 456.391 232.39 456.561 232.277C457.581 231.937 457.128 230.294 456.107 230.69Z" fill="#161616"/>
<path d="M456.277 231.484C459.905 230.974 463.477 230.01 466.878 228.65C467.898 228.254 467.445 226.61 466.424 227.007C462.966 228.367 459.452 229.33 455.824 229.84C454.747 230.01 455.2 231.654 456.277 231.484Z" fill="#161616"/>
<path d="M456.504 230.577C457.751 230.69 459.055 230.633 460.302 230.293C461.379 230.01 460.926 228.367 459.849 228.65C458.772 228.933 457.638 228.99 456.504 228.877C455.427 228.763 455.427 230.463 456.504 230.577Z" fill="#161616"/>
<path d="M466.991 201.564C468.068 201.564 468.068 199.864 466.991 199.864C465.914 199.864 465.914 201.564 466.991 201.564Z" fill="#161616"/>
<path d="M472.263 200.713C472.263 200.657 472.263 200.6 472.263 200.6C472.263 200.147 471.866 199.75 471.413 199.75C470.959 199.75 470.562 200.147 470.562 200.6C470.562 200.657 470.562 200.713 470.562 200.713C470.562 201.167 470.959 201.563 471.413 201.563C471.866 201.507 472.263 201.167 472.263 200.713Z" fill="#161616"/>
<path d="M469.599 204.85C470.676 204.85 470.676 203.15 469.599 203.15C468.522 203.15 468.522 204.85 469.599 204.85Z" fill="#161616"/>
<path d="M440.518 197.71C441.595 197.71 441.595 196.01 440.518 196.01C439.441 196.01 439.441 197.71 440.518 197.71Z" fill="#161616"/>
<path d="M444.543 196.463C445.62 196.463 445.62 194.763 444.543 194.763C443.466 194.763 443.409 196.463 444.543 196.463Z" fill="#161616"/>
<path d="M443.579 200.43C444.656 200.43 444.656 198.73 443.579 198.73C442.446 198.73 442.446 200.43 443.579 200.43Z" fill="#161616"/>
<path d="M435.984 185.243C434.85 183.713 432.072 179.52 432.185 173.797C432.242 169.83 433.603 166.94 434.34 165.41C436.891 160.197 440.745 157.363 443.92 155.153C446.868 153.057 452.366 149.203 460.189 148.467C470.563 147.447 478.442 152.547 483.884 156.117C494.372 162.973 499.133 171.87 500.154 173.797C501.911 177.197 502.818 180.143 504.235 184.563C505.766 189.437 505.766 190.797 508.317 202.017C510.811 213.067 511.151 213.463 510.924 215.9C510.244 224.23 504.859 229.84 504.009 230.747C496.412 238.453 486.549 238.057 483.204 237.943C478.669 237.773 476.742 236.527 476.005 236.017C471.527 232.787 471.243 226.723 471.243 225.477C473 224.457 475.325 222.87 477.479 220.433C481.674 215.73 482.977 210.573 483.431 208.023C487.796 209.327 492.161 207.627 493.975 204.453C496.526 199.807 492.954 193.063 488.93 192.497C488.306 192.383 486.605 192.327 484.395 194.197C482.581 190.003 479.349 183.94 473.624 177.933C466.595 170.51 459.055 166.713 454.52 164.787C451.969 165.863 448.171 167.903 444.487 171.473C439.045 176.573 436.891 182.297 435.984 185.243Z" fill="#5222D0"/>
<path opacity="0.14" d="M469.429 173.513C471.753 177.253 475.381 184.393 475.211 193.687C474.871 215.56 453.84 227.8 452.536 228.48C453.897 228.707 467.162 230.803 476.402 221.397C481.277 216.41 482.751 210.63 483.204 207.967C484.168 208.307 486.322 208.817 488.816 208.08C489.44 207.91 493.068 206.833 494.258 203.433C494.825 201.903 494.655 200.487 494.542 199.693C494.485 198.73 494.258 196.463 492.558 194.48C491.934 193.8 490.97 192.667 489.383 192.327C486.832 191.817 484.848 193.687 484.565 193.913C483.261 190.797 481.277 186.943 478.329 182.863C475.154 178.84 472.037 175.723 469.429 173.513Z" fill="#666666"/>
<path opacity="0.18" d="M467.672 242.873C465.971 238.057 464.27 233.183 462.626 228.367C465.404 227.46 468.239 226.497 471.016 225.59C472.547 230.577 474.021 235.62 475.551 240.607C472.944 241.4 470.336 242.137 467.672 242.873Z" fill="#666666"/>
<path opacity="0.21" d="M483.828 205.473C482.411 208.647 479.916 213.293 475.438 217.713C468.069 225.023 459.679 227.403 455.881 228.253C457.525 228.367 467.445 229.047 474.814 222.927C478.839 219.583 480.937 215.333 480.937 215.333C482.014 213.123 482.637 210.857 482.921 209.893C483.374 208.137 483.658 206.607 483.828 205.473Z" fill="#666666"/>
<path opacity="0.18" d="M471.413 242.193C469.769 237.207 468.182 232.163 466.538 227.177C467.955 226.723 469.372 226.213 470.79 225.76C472.32 230.747 473.907 235.733 475.438 240.72C474.134 241.173 472.774 241.683 471.413 242.193Z" fill="#666666"/>
<path d="M454.577 185.413C453.046 191.477 451.799 197.597 450.779 203.773C450.609 204.793 450.268 205.983 451.345 206.55C452.593 207.23 455.597 206.267 456.901 205.983C457.978 205.757 457.524 204.113 456.447 204.34C455.54 204.567 453.896 205.077 453.046 204.963C451.912 204.793 452.196 205.02 452.536 203.717C452.989 201.79 453.216 199.693 453.613 197.767C454.407 193.8 455.257 189.833 456.221 185.923C456.504 184.847 454.86 184.393 454.577 185.413Z" fill="#161616"/>
<path d="M440.348 191.193C442.559 188.643 446.414 188.587 448.681 191.023C449.248 191.647 450.155 190.74 449.588 190.117C446.867 187.17 442.106 187.227 439.441 190.287C438.931 190.91 439.838 191.817 440.348 191.193Z" fill="#161616"/>
<path d="M463.647 191.817C466.652 189.89 470.676 190.74 472.604 193.8C473.057 194.48 474.134 193.857 473.681 193.177C471.413 189.55 466.595 188.417 462.967 190.74C462.287 191.137 462.967 192.27 463.647 191.817Z" fill="#161616"/>
<path d="M443.863 181.39C445.904 180.313 448.171 180.37 450.155 181.503C450.892 181.9 451.516 180.823 450.779 180.427C448.398 179.067 445.62 179.01 443.182 180.313C442.502 180.653 443.126 181.787 443.863 181.39Z" fill="#161616"/>
<path d="M464.327 181.73C467.105 181.277 469.769 182.013 471.98 183.657C472.66 184.167 473.284 183.033 472.603 182.58C470.052 180.71 467.048 180.03 463.987 180.483C463.193 180.653 463.533 181.843 464.327 181.73Z" fill="#161616"/>
<path d="M446.244 213.18C452.479 215.107 459.055 213.69 463.987 209.44C464.61 208.93 463.703 208.023 463.08 208.533C458.488 212.5 452.366 213.747 446.584 211.933C445.79 211.65 445.45 212.897 446.244 213.18Z" fill="#161616"/>
</svg>
