<svg width="907" height="680" viewBox="0 0 907 680" fill="none" xmlns="http://www.w3.org/2000/svg">
<path d="M770.723 467.557C774.748 473.79 777.412 480.703 778.546 488.07C778.716 489.147 780.36 488.693 780.19 487.617C779.056 480.137 776.335 473.053 772.197 466.707C771.573 465.8 770.099 466.65 770.723 467.557Z" fill="#E8E8E8"/>
<path d="M149.428 508.867C137.07 500.083 128.51 486.767 125.619 471.863C125.449 472.203 125.222 472.543 125.052 472.883C126.413 472.487 127.66 472.827 128.68 473.847C129.417 474.583 130.381 473.677 130.041 472.827C122.501 455.827 118.533 437.41 118.477 418.823C118.25 419.107 118.08 419.39 117.853 419.617C118.42 419.9 119.043 420.24 119.61 420.523C120.007 421.203 121.254 420.977 121.198 420.07C120.801 415.14 120.404 410.21 120.007 405.28C119.667 400.917 119.157 396.327 121.991 392.643C121.594 392.757 121.198 392.87 120.801 392.927C124.769 395.76 127.093 400.35 129.417 404.487C131.685 408.567 133.839 412.76 135.88 416.953C140.131 425.793 143.759 434.917 146.764 444.267C152.716 462.513 156.287 481.44 157.478 500.593C157.534 501.67 159.235 501.67 159.178 500.593C157.931 480.647 154.133 460.87 147.784 441.887C144.666 432.593 140.981 423.527 136.673 414.743C134.462 410.21 132.138 405.79 129.644 401.427C127.49 397.63 125.279 394.003 121.651 391.397C121.254 391.113 120.744 391.34 120.461 391.68C117.91 395.023 117.853 399.217 118.08 403.297C118.477 408.85 118.987 414.403 119.44 420.013C119.95 419.843 120.517 419.73 121.027 419.56C120.177 418.087 118.987 417.633 117.343 417.86C117.003 417.917 116.719 418.313 116.719 418.653C116.833 437.58 120.857 456.223 128.51 473.507C128.964 473.167 129.417 472.827 129.871 472.487C128.397 470.957 126.583 470.503 124.599 471.07C124.145 471.183 123.919 471.637 124.032 472.09C127.036 487.447 135.88 501.047 148.578 510.113C149.485 510.963 150.335 509.49 149.428 508.867Z" fill="#E8E8E8"/>
<path d="M144.326 431.347C143.816 428.117 143.419 424.887 143.249 421.657C143.079 418.653 142.229 414.177 144.496 411.797C145.8 410.493 146.423 409.87 146.707 407.887C147.104 404.713 147.104 401.483 147.444 398.31C148.124 391.68 149.088 385.163 150.448 378.647C150.675 377.57 150.788 375.53 151.355 374.567C152.716 372.357 154.813 374.68 155.89 375.757C157.818 377.683 159.348 379.95 160.652 382.33C166.094 392.303 167.568 404.6 169.042 415.707C170.686 428.06 171.366 440.527 171.026 452.993C170.686 467.16 168.758 481.27 163.883 494.643C163.486 495.663 165.13 496.117 165.527 495.097C174.994 468.973 174.144 439.337 170.232 412.25C168.588 400.747 166.831 387.657 159.858 377.91C158.328 375.813 153.679 369.127 150.675 372.13C149.088 373.66 148.974 377.23 148.578 379.213C147.841 382.953 147.16 386.693 146.65 390.49C146.14 394.173 145.743 397.857 145.403 401.54C145.233 403.523 145.403 405.79 144.95 407.717C144.496 409.587 143.136 410.153 142.229 411.627C140.755 413.893 141.322 417.463 141.435 420.013C141.605 423.923 142.059 427.833 142.682 431.743C142.852 432.877 144.496 432.423 144.326 431.347Z" fill="#E8E8E8"/>
<path d="M151.186 373.377C160.312 408.737 162.863 445.513 158.725 481.78C158.612 482.857 160.312 482.857 160.426 481.78C164.564 445.343 161.956 408.397 152.829 372.923C152.546 371.903 150.902 372.357 151.186 373.377Z" fill="#E8E8E8"/>
<path d="M119.611 392.587C132.932 426.643 143.306 461.777 150.732 497.59C150.959 498.667 152.603 498.213 152.376 497.137C145.007 461.323 134.576 426.19 121.254 392.133C120.801 391.113 119.157 391.567 119.611 392.587Z" fill="#E8E8E8"/>
<path d="M119.894 444.72C129.19 447.327 136.9 453.447 141.605 461.89C142.115 462.853 143.589 462.003 143.079 461.04C138.147 452.257 129.984 445.853 120.347 443.133C119.27 442.793 118.817 444.437 119.894 444.72Z" fill="#E8E8E8"/>
<path d="M138.714 422.733C137.694 431.517 137.524 440.3 138.204 449.083C138.261 450.16 139.961 450.16 139.905 449.083C139.224 440.3 139.394 431.517 140.415 422.733C140.528 421.657 138.828 421.657 138.714 422.733Z" fill="#E8E8E8"/>
<path d="M144.723 411.4C152.432 421.43 157.818 432.99 160.539 445.343C160.765 446.42 162.409 445.967 162.183 444.89C159.405 432.423 154.02 420.693 146.197 410.55C145.573 409.643 144.099 410.493 144.723 411.4Z" fill="#E8E8E8"/>
<path d="M164.45 391C161.616 397.573 159.632 404.373 158.555 411.457C158.385 412.533 160.029 412.987 160.199 411.91C161.219 404.997 163.146 398.31 165.924 391.85C166.378 390.887 164.904 389.98 164.45 391Z" fill="#E8E8E8"/>
<path d="M90.0194 549.383C120.744 538.56 153.509 547.173 184.347 552.67C217.283 558.507 250.558 562.36 283.891 564.117C302.768 565.137 321.644 565.477 340.578 565.137C341.655 565.137 341.655 563.437 340.578 563.437C306.509 564.003 272.383 562.417 238.484 558.733C221.251 556.863 204.075 554.427 187.012 551.423C171.763 548.76 156.571 545.473 141.208 543.66C123.919 541.677 106.175 541.903 89.5659 547.74C88.5455 548.137 88.999 549.78 90.0194 549.383Z" fill="#E8E8E8"/>
<path d="M268.075 547.967C318.924 560.433 371.587 557.147 423.172 552.387C449.702 549.95 476.175 547.06 502.761 545.643C529.291 544.227 555.764 544.68 582.237 547.287C613.019 550.347 643.46 555.957 673.731 562.303C674.808 562.53 675.262 560.887 674.184 560.66C621.578 549.61 568.462 541.507 514.609 543.433C461.89 545.303 409.624 553.973 356.848 554.937C327.2 555.503 297.439 553.407 268.585 546.323C267.452 546.04 266.998 547.683 268.075 547.967Z" fill="#E8E8E8"/>
<path d="M660.182 359.097C658.539 364.197 656.838 369.24 655.194 374.34C654.797 375.643 654.4 376.89 654.797 378.25C655.364 380.063 657.291 381.14 657.348 383.18C657.688 382.897 658.085 382.613 658.425 382.387C651.736 380.403 651.963 391.057 652.19 394.797C652.586 402.22 654.967 409.36 658.935 415.593C659.502 416.5 660.976 415.65 660.409 414.743C657.575 410.323 655.591 405.45 654.57 400.293C654.004 397.517 652.019 382.217 657.972 383.973C658.482 384.143 659.049 383.69 659.049 383.18C659.049 381.82 658.539 380.913 657.745 379.837C656.271 377.74 656.384 376.21 657.178 373.773C658.709 369.013 660.296 364.31 661.826 359.55C662.167 358.473 660.523 358.02 660.182 359.097Z" fill="#E8E8E8"/>
<path d="M660.749 359.323C667.155 365.84 668.742 376.437 669.252 385.163C669.819 394.57 668.459 403.977 665.454 412.873C665.114 413.893 666.758 414.347 667.098 413.327C670.386 403.637 671.747 393.323 670.84 383.123C670.103 374.453 668.289 364.537 661.996 358.077C661.146 357.34 659.956 358.53 660.749 359.323Z" fill="#E8E8E8"/>
<path d="M670.896 384.54C672.03 376.947 673.957 369.58 676.622 362.383C676.225 362.553 675.771 362.723 675.375 362.893C676.565 363.687 677.755 364.537 678.946 365.33C679.513 365.727 680.193 365.217 680.25 364.593C680.76 351.957 690.624 342.267 693.288 330.253C692.721 330.253 692.211 330.253 691.644 330.253C696.179 357.567 690.453 386.013 675.715 409.473C675.148 410.38 676.622 411.23 677.189 410.323C692.154 386.467 697.88 357.567 693.288 329.8C693.174 328.95 691.814 329.007 691.644 329.8C688.923 342.04 679.059 351.73 678.549 364.593C679.003 364.367 679.399 364.083 679.853 363.857C678.663 363.063 677.472 362.213 676.282 361.42C675.771 361.08 675.205 361.477 675.035 361.93C672.37 369.127 670.443 376.493 669.309 384.087C669.082 385.163 670.726 385.617 670.896 384.54Z" fill="#E8E8E8"/>
<path d="M691.474 333.767C689.66 354.677 683.991 375.077 674.751 393.89C674.298 394.853 675.715 395.703 676.225 394.74C685.579 375.587 691.361 354.96 693.175 333.767C693.231 332.633 691.531 332.69 691.474 333.767Z" fill="#E8E8E8"/>
<path d="M659.956 360.683C662.28 377.57 664.491 394.797 660.92 411.627C660.693 412.703 662.337 413.157 662.563 412.08C666.248 394.91 663.981 377.4 661.6 360.23C661.486 359.153 659.842 359.607 659.956 360.683Z" fill="#E8E8E8"/>
<path d="M577.589 417.463C586.319 416.783 595.105 417.407 603.609 419.503C610.808 421.26 617.95 424.887 625.49 423.753C633.256 422.563 639.775 417.407 647.768 417.123C655.478 416.84 663.074 419.503 670.67 417.293C671.747 417.01 671.293 415.367 670.216 415.65C662.28 417.917 654.287 414.8 646.294 415.537C639.038 416.217 632.973 420.58 625.943 421.997C617.837 423.583 609.787 419.163 601.965 417.463C593.915 415.707 585.695 415.197 577.532 415.877C576.512 415.82 576.512 417.52 577.589 417.463Z" fill="#E8E8E8"/>
<path d="M77.5483 496.91C93.194 511.53 115.869 495.72 133.839 501.557C134.859 501.897 135.313 500.253 134.292 499.913C124.712 496.797 114.905 499.233 105.268 500.707C96.2552 502.067 85.8813 502.293 78.7387 495.663C77.9451 494.983 76.698 496.173 77.5483 496.91Z" fill="#E8E8E8"/>
<path d="M752.073 517.593C659.729 523.43 562.227 527 459.963 527.51C356.961 528.02 258.722 525.357 165.754 520.427C174.881 504.39 184.064 488.41 193.305 472.487C200.731 459.623 208.27 446.817 215.809 434.067C295.739 438.6 382.131 440.413 474.134 438.147C560.81 435.993 642.326 430.44 718.004 422.677C724.977 432.48 733.026 445.74 739.602 462.457C748.105 484.16 751.053 503.597 752.073 517.593Z" fill="white" stroke="#161616" stroke-width="3" stroke-miterlimit="10"/>
<path d="M208.553 508.867C240.752 512.323 273.177 513.4 305.602 512.097C306.679 512.04 306.679 510.34 305.602 510.397C273.234 511.7 240.809 510.623 208.553 507.167C207.476 507.053 207.476 508.753 208.553 508.867Z" fill="#161616"/>
<path d="M265.864 500.707C281.567 501.33 297.326 500.933 313.028 500.933C328.958 500.877 344.83 500.877 360.759 500.82C361.836 500.82 361.836 499.12 360.759 499.12C344.83 499.177 328.958 499.177 313.028 499.233C297.326 499.29 281.567 499.63 265.864 499.007C264.787 498.95 264.787 500.65 265.864 500.707Z" fill="#161616"/>
<path d="M475.438 496.57C523.452 493.51 571.41 489.883 619.368 485.69C620.445 485.577 620.445 483.877 619.368 483.99C571.467 488.183 523.452 491.81 475.438 494.87C474.361 494.927 474.361 496.627 475.438 496.57Z" fill="#161616"/>
<path d="M600.604 467.443C637.791 466.083 674.922 463.76 711.995 460.303C713.072 460.19 713.072 458.49 711.995 458.603C674.922 462.003 637.791 464.383 600.604 465.743C599.527 465.743 599.527 467.443 600.604 467.443Z" fill="#161616"/>
<path d="M633.143 503.823C664.378 502.463 695.612 501.103 726.847 499.687C727.924 499.63 727.924 497.93 726.847 497.987C695.612 499.347 664.378 500.707 633.143 502.123C632.066 502.18 632.066 503.88 633.143 503.823Z" fill="#161616"/>
<path d="M221.025 432.027C222.442 434.69 223.859 437.353 225.333 440.073C226.637 440.923 231.059 443.53 236.614 442.51C238.938 442.113 240.752 441.207 241.943 440.47C243.53 437.693 245.117 434.917 246.704 432.14C243.587 431.177 238.995 430.043 233.326 430.1C228.168 430.157 223.973 431.12 221.025 432.027Z" fill="white" stroke="#161616" stroke-width="3" stroke-miterlimit="10"/>
<path d="M221.988 432.99C227.09 436.163 234.403 435.427 240.128 435.087C241.205 435.03 241.205 433.33 240.128 433.387C234.743 433.67 227.657 434.52 222.839 431.517C221.932 430.95 221.081 432.423 221.988 432.99Z" fill="#161616"/>
<path d="M208.78 394.797C213.599 407.263 218.417 419.73 223.179 432.197C223.576 433.217 225.219 432.763 224.823 431.743C220.004 419.277 215.186 406.81 210.424 394.343C210.027 393.323 208.383 393.72 208.78 394.797Z" fill="#161616"/>
<path d="M216.036 395.08C218.53 407.83 221.478 420.523 224.823 433.103C225.106 434.18 226.75 433.727 226.467 432.65C223.065 420.07 220.118 407.377 217.68 394.627C217.453 393.55 215.809 394.003 216.036 395.08Z" fill="#161616"/>
<path d="M209.12 388.45C208.27 385.73 210.538 383.18 209.914 380.347C209.177 377.343 206.229 376.097 206.569 372.64C206.796 370.26 207.987 367.993 207.59 365.557C207.306 364.027 206.343 363.12 205.662 361.76C204.869 360.06 205.209 358.473 205.662 356.717C206.116 354.733 206.853 352.58 206.059 350.54C205.662 349.463 204.869 348.953 204.189 348.103C202.601 346.233 202.828 344.307 203.225 342.04C204.472 335.013 204.529 328.27 202.715 321.3C202.431 320.223 200.787 320.677 201.071 321.753C202.091 325.72 202.658 329.743 202.545 333.823C202.431 337.28 201.524 340.51 201.241 343.91C201.014 346.687 201.921 347.877 203.622 349.86C205.833 352.523 203.962 355.583 203.565 358.587C203.452 359.55 203.452 360.57 203.735 361.533C204.189 363.12 205.606 364.197 205.889 365.897C206.343 368.617 204.642 371.28 204.812 374C205.039 376.947 208.1 378.477 208.327 381.31C208.554 383.973 206.626 386.127 207.476 388.903C207.817 389.923 209.461 389.47 209.12 388.45Z" fill="#E8E8E8"/>
<path d="M217.34 387.147C215.583 385.503 217.794 383.803 217.17 381.877C216.83 380.8 215.696 380.007 215.639 378.817C215.583 377.74 216.32 376.55 216.49 375.473C216.773 373.433 215.696 372.47 215.186 370.6C214.506 368.05 216.036 365.217 216.49 362.723C216.83 360.797 216.66 359.153 215.98 357.34C215.413 355.867 214.846 354.62 214.959 353.033C215.073 351.73 215.639 350.54 215.923 349.293C217.057 344.76 213.032 339.943 214.959 335.75C215.413 334.787 213.939 333.88 213.485 334.9C211.218 339.717 215.413 344.307 214.166 349.293C213.542 351.787 212.805 353.6 213.655 356.15C214.166 357.567 214.902 358.927 214.959 360.513C215.073 362.1 214.506 363.63 214.109 365.103C213.599 367.03 213.032 369.07 213.542 371.053C213.995 372.697 215.073 373.943 214.676 375.757C214.449 376.663 214.052 377.513 213.995 378.477C213.939 379.383 214.052 380.063 214.506 380.857C214.732 381.253 215.413 381.877 215.469 382.16C215.583 382.613 215.186 383.52 215.073 383.917C214.676 385.673 214.789 386.977 216.15 388.28C216.943 389.073 218.134 387.883 217.34 387.147Z" fill="#E8E8E8"/>
<path d="M140.925 130.843C152.149 134.357 164.054 134.13 175.675 133.903C186.785 133.677 197.84 132.94 208.837 131.807C230.775 129.483 252.486 125.347 273.801 119.623C316.94 108.063 358.265 90.1567 396.869 67.83C418.751 55.1934 439.725 41.14 459.849 25.8967C460.699 25.2167 459.849 23.7434 458.999 24.4234C423.796 51.1134 385.815 74.2334 345.454 92.2534C304.979 110.33 262.01 123.363 217.964 129.03C205.889 130.617 193.701 131.637 181.514 132.033C168.249 132.487 154.247 133.223 141.435 129.2C140.358 128.917 139.905 130.503 140.925 130.843Z" fill="#E8E8E8"/>
<path d="M434.51 44.0301C449.645 57.1201 467.502 66.4701 485.869 74.2334C505.596 82.5634 526.003 89.4767 546.751 94.8034C587.793 105.457 630.365 110.217 672.711 108.913C696.859 108.177 722.085 106.533 745.157 98.8267C746.178 98.4867 745.724 96.8434 744.704 97.1834C724.183 104.097 702.018 105.853 680.533 106.93C659.729 107.95 638.868 107.497 618.177 105.57C576.285 101.717 534.96 91.9134 495.846 76.4434C474.474 68.0001 453.33 57.9701 435.813 42.8401C434.85 42.1034 433.659 43.2934 434.51 44.0301Z" fill="#E8E8E8"/>
<path d="M207.193 72.9867C227.997 85 252.77 87.9467 276.238 90.44C300.387 92.99 324.763 93.67 349.082 92.5934C397.039 90.44 444.77 81.3734 490.12 65.6767C515.686 56.8367 540.459 45.9 564.211 33.0367C565.174 32.5267 564.324 31.0534 563.36 31.5634C521.582 54.2867 476.459 70.7767 429.918 80.6367C383.264 90.4967 335.137 93.67 287.576 89.8167C274.084 88.74 260.536 87.21 247.214 84.7734C233.553 82.28 220.118 78.54 208.043 71.57C207.136 71.0034 206.286 72.4767 207.193 72.9867Z" fill="#E8E8E8"/>
<path d="M277.032 109.763C277.032 116.79 277.032 123.873 277.032 130.9C277.032 131.977 278.732 131.977 278.732 130.9C278.732 123.873 278.732 116.79 278.732 109.763C278.732 108.63 277.032 108.63 277.032 109.763Z" fill="#161616"/>
<path d="M277.542 144.84C277.542 153.113 277.542 161.33 277.542 169.603C277.542 170.68 279.243 170.68 279.243 169.603C279.243 161.33 279.243 153.113 279.243 144.84C279.243 143.763 277.542 143.707 277.542 144.84Z" fill="#161616"/>
<path d="M306.453 168.073C306.453 178.387 306.453 188.7 306.453 199.013C306.453 200.09 308.153 200.09 308.153 199.013C308.153 188.7 308.153 178.387 308.153 168.073C308.153 166.94 306.453 166.94 306.453 168.073Z" fill="#161616"/>
<path d="M305.433 223.777C305.433 228.763 305.433 233.75 305.433 238.737C305.433 239.813 307.133 239.813 307.133 238.737C307.133 233.75 307.133 228.763 307.133 223.777C307.133 222.7 305.433 222.7 305.433 223.777Z" fill="#161616"/>
<path d="M364.274 71.5701C364.274 80.6934 364.274 89.8167 364.274 98.9401C364.274 100.017 365.975 100.017 365.975 98.9401C365.975 89.8167 365.975 80.6934 365.975 71.5701C365.975 70.4934 364.274 70.4934 364.274 71.5701Z" fill="#161616"/>
<path d="M364.274 108.687C364.274 115.543 364.274 122.457 364.274 129.313C364.274 130.39 365.975 130.39 365.975 129.313C365.975 122.457 365.975 115.543 365.975 108.687C365.975 107.61 364.274 107.61 364.274 108.687Z" fill="#161616"/>
<path d="M607.86 81.8834C607.86 93.7268 607.86 105.627 607.86 117.47C607.86 118.547 609.561 118.547 609.561 117.47C609.561 105.627 609.561 93.7268 609.561 81.8834C609.561 80.8068 607.86 80.8068 607.86 81.8834Z" fill="#161616"/>
<path d="M607.35 131.41C607.35 137.587 607.35 143.82 607.35 149.997C607.35 151.073 609.051 151.073 609.051 149.997C609.051 143.82 609.051 137.587 609.051 131.41C609.051 130.333 607.35 130.333 607.35 131.41Z" fill="#161616"/>
<path d="M506.163 61.2567C506.163 68.8501 506.163 76.3867 506.163 83.9801C506.163 85.0567 507.863 85.0567 507.863 83.9801C507.863 76.3867 507.863 68.8501 507.863 61.2567C507.863 60.1801 506.163 60.1234 506.163 61.2567Z" fill="#161616"/>
<path d="M506.729 105.627C506.729 112.483 506.729 119.397 506.729 126.253C506.729 127.33 508.43 127.33 508.43 126.253C508.43 119.397 508.43 112.483 508.43 105.627C508.43 104.55 506.729 104.55 506.729 105.627Z" fill="#161616"/>
<path d="M664.661 142.743C664.661 149.43 664.661 156.173 664.661 162.86C664.661 163.937 666.362 163.937 666.362 162.86C666.362 156.173 666.362 149.43 666.362 142.743C666.362 141.667 664.661 141.667 664.661 142.743Z" fill="#161616"/>
<path d="M665.171 176.8C665.171 182.127 665.171 187.453 665.171 192.78C665.171 193.857 666.872 193.857 666.872 192.78C666.872 187.453 666.872 182.127 666.872 176.8C666.872 175.723 665.171 175.723 665.171 176.8Z" fill="#161616"/>
<path d="M278.336 148.127C283.533 148.127 287.746 143.915 287.746 138.72C287.746 133.525 283.533 129.313 278.336 129.313C273.139 129.313 268.926 133.525 268.926 138.72C268.926 143.915 273.139 148.127 278.336 148.127Z" fill="#5222D0"/>
<path d="M306.736 249.73C310.305 249.73 313.199 246.838 313.199 243.27C313.199 239.702 310.305 236.81 306.736 236.81C303.167 236.81 300.274 239.702 300.274 243.27C300.274 246.838 303.167 249.73 306.736 249.73Z" fill="#5222D0"/>
<path d="M365.861 141.383C367.552 141.383 368.923 140.013 368.923 138.323C368.923 136.633 367.552 135.263 365.861 135.263C364.171 135.263 362.8 136.633 362.8 138.323C362.8 140.013 364.171 141.383 365.861 141.383Z" fill="#5222D0"/>
<path d="M509.167 149.997C511.547 149.997 513.475 148.069 513.475 145.69C513.475 143.312 511.547 141.383 509.167 141.383C506.788 141.383 504.859 143.312 504.859 145.69C504.859 148.069 506.788 149.997 509.167 149.997Z" fill="#5222D0"/>
<path d="M508.884 96.56C511.075 96.56 512.852 94.7841 512.852 92.5934C512.852 90.4026 511.075 88.6267 508.884 88.6267C506.692 88.6267 504.916 90.4026 504.916 92.5934C504.916 94.7841 506.692 96.56 508.884 96.56Z" fill="#5222D0"/>
<path d="M306.169 219.527C308.611 219.527 310.591 217.548 310.591 215.107C310.591 212.666 308.611 210.687 306.169 210.687C303.727 210.687 301.748 212.666 301.748 215.107C301.748 217.548 303.727 219.527 306.169 219.527Z" fill="#EC615B"/>
<path d="M364.557 73.4401C366.968 73.4401 368.922 71.4865 368.922 69.0767C368.922 66.6669 366.968 64.7134 364.557 64.7134C362.147 64.7134 360.192 66.6669 360.192 69.0767C360.192 71.4865 362.147 73.4401 364.557 73.4401Z" fill="#EC615B"/>
<path d="M364.557 112.03C366.968 112.03 368.922 110.076 368.922 107.667C368.922 105.257 366.968 103.303 364.557 103.303C362.147 103.303 360.192 105.257 360.192 107.667C360.192 110.076 362.147 112.03 364.557 112.03Z" fill="#EC615B"/>
<path d="M507.013 133.677C508.203 133.677 509.167 132.713 509.167 131.523C509.167 130.334 508.203 129.37 507.013 129.37C505.823 129.37 504.859 130.334 504.859 131.523C504.859 132.713 505.823 133.677 507.013 133.677Z" fill="#EC615B"/>
<path d="M608.767 168.017C613.745 168.017 617.781 163.983 617.781 159.007C617.781 154.031 613.745 149.997 608.767 149.997C603.789 149.997 599.754 154.031 599.754 159.007C599.754 163.983 603.789 168.017 608.767 168.017Z" fill="#EC615B"/>
<path d="M666.985 210.29C669.364 210.29 671.293 208.362 671.293 205.983C671.293 203.605 669.364 201.677 666.985 201.677C664.606 201.677 662.677 203.605 662.677 205.983C662.677 208.362 664.606 210.29 666.985 210.29Z" fill="#EC615B"/>
<path d="M608.71 96.56C610.902 96.56 612.678 94.7841 612.678 92.5934C612.678 90.4026 610.902 88.6267 608.71 88.6267C606.519 88.6267 604.742 90.4026 604.742 92.5934C604.742 94.7841 606.519 96.56 608.71 96.56Z" fill="#EC615B"/>
<path d="M608.767 112.823C610.458 112.823 611.828 111.453 611.828 109.763C611.828 108.073 610.458 106.703 608.767 106.703C607.077 106.703 605.706 108.073 605.706 109.763C605.706 111.453 607.077 112.823 608.767 112.823Z" fill="#5222D0"/>
<path d="M666.022 171.473C667.712 171.473 669.083 170.103 669.083 168.413C669.083 166.723 667.712 165.353 666.022 165.353C664.331 165.353 662.96 166.723 662.96 168.413C662.96 170.103 664.331 171.473 666.022 171.473Z" fill="#5222D0"/>
<path d="M236.104 212.443C233.439 216.637 230.775 220.773 228.111 224.967C226.013 228.253 223.916 231.71 223.179 235.62C221.988 242.363 226.523 246.897 230.378 251.77C232.589 254.547 234.63 257.72 233.666 261.347C232.816 264.633 230.095 267.467 230.492 271.093C230.662 272.623 231.455 273.813 232.136 275.117C233.269 277.383 234.063 279.82 234.346 282.313C234.857 286.96 233.779 291.607 231.342 295.573C230.775 296.537 232.249 297.387 232.816 296.423C236.557 290.247 237.294 282.483 234.403 275.797C233.383 273.417 231.682 271.49 232.419 268.657C232.929 266.787 234.006 265.143 234.743 263.387C235.82 260.723 235.934 258.06 234.8 255.397C232.249 249.39 225.163 245.48 224.709 238.51C224.426 233.807 227.204 229.5 229.585 225.703C232.249 221.51 234.913 217.317 237.578 213.18C238.144 212.387 236.671 211.537 236.104 212.443Z" fill="#E8E8E8"/>
<path d="M340.805 276.647C336.61 280.897 334.513 286.847 335.193 292.797C335.533 295.913 336.78 298.52 338.254 301.297C340.465 305.49 340.975 308.663 339.275 313.083C338.254 315.69 336.95 318.353 337.291 321.187C337.631 324.417 340.125 326.117 341.656 328.78C344.887 334.56 338.368 340.623 339.898 346.8C340.182 347.877 341.826 347.423 341.542 346.347C340.125 340.793 345.454 335.863 344.093 330.253C343.413 327.533 341.202 325.833 339.841 323.51C337.914 320.223 339.728 316.767 340.919 313.537C341.882 310.987 342.562 308.437 341.996 305.717C341.259 302.373 338.991 299.653 337.801 296.48C335.42 290.077 337.234 282.653 341.996 277.837C342.789 277.043 341.599 275.853 340.805 276.647Z" fill="#E8E8E8"/>
<path d="M708.821 289C703.152 295.63 697.653 304.187 698.22 313.31C698.503 317.673 700.431 321.187 702.812 324.757C705.589 328.893 707.97 332.803 706.61 337.96C704.796 344.703 698.107 351.447 700.431 358.87C701.848 363.403 706.383 365.897 707.46 370.657C708.707 376.323 706.1 382.273 703.775 387.317C703.322 388.28 704.796 389.187 705.249 388.167C707.177 383.973 709.047 379.61 709.388 374.963C709.728 370.543 708.254 367.03 705.533 363.63C702.302 359.72 700.828 356.377 702.528 351.447C703.832 347.65 706.156 344.25 707.573 340.51C708.934 336.997 709.274 333.37 707.8 329.8C706.27 326.06 703.435 323.17 701.621 319.6C696.519 309.4 703.379 297.953 710.011 290.247C710.748 289.397 709.558 288.207 708.821 289Z" fill="#E8E8E8"/>
<path d="M724.75 349.35C721.802 352.127 719.931 355.753 719.421 359.777C718.797 364.593 720.611 367.937 722.539 372.13C724.92 377.287 720.271 381.933 721.518 387.147C722.199 389.98 723.729 392.133 723.672 395.137C723.559 398.253 722.312 401.087 720.158 403.297C719.421 404.09 720.611 405.28 721.348 404.487C724.239 401.54 725.77 397.517 725.26 393.38C724.976 391 723.672 388.96 723.162 386.637C722.425 383.52 724.126 380.687 724.75 377.74C725.827 372.753 722.425 369.807 721.348 365.273C720.044 359.89 721.915 354.223 725.94 350.483C726.79 349.803 725.6 348.613 724.75 349.35Z" fill="#E8E8E8"/>
<path d="M567.102 191.307C563.871 196.293 560.299 202.187 562.17 208.363C563.077 211.367 565.571 212.613 566.932 215.22C568.235 217.827 566.988 220.887 566.081 223.38C564.778 226.95 562.964 231.313 566.251 234.373C567.555 235.563 569.142 236.243 569.709 238.113C570.163 239.643 569.766 241.457 569.483 242.93C568.916 245.65 568.122 248.37 568.462 251.147C568.576 252.223 570.276 252.223 570.163 251.147C569.653 246.5 573.054 241.287 571.07 236.81C569.936 234.203 566.421 233.467 566.081 230.52C565.798 228.31 566.988 225.873 567.725 223.833C569.142 219.923 570.163 216.013 567.102 212.613C564.267 209.497 562.793 206.493 563.7 202.187C564.437 198.503 566.592 195.217 568.632 192.1C569.199 191.193 567.725 190.343 567.102 191.307Z" fill="#E8E8E8"/>
<path d="M334.06 131.467C330.715 133.79 330.148 137.927 332.472 141.157C334.57 143.99 331.339 145.293 331.962 147.957C332.189 148.92 332.982 149.487 333.436 150.337C334.57 152.433 333.266 154.643 332.189 156.513C331.622 157.477 333.096 158.327 333.663 157.363C334.683 155.607 335.817 153.567 335.647 151.47C335.59 150.507 335.193 149.883 334.796 149.033C334.513 148.523 334.173 148.353 333.946 147.73C333.663 146.653 334.06 146.427 334.57 145.407C335.307 143.99 335.59 142.8 334.796 141.327C334.06 139.967 332.869 139.173 332.756 137.473C332.642 135.66 333.493 133.903 334.967 132.883C335.817 132.317 334.967 130.843 334.06 131.467Z" fill="#5222D0"/>
<path d="M252.94 173.967C251.863 175.157 251.182 176.46 251.069 178.047C250.956 179.86 252.429 181.73 251.636 183.373C251.069 184.563 250.445 185.017 250.559 186.49C250.672 188.02 253.223 192.213 250.899 193.12C249.879 193.517 250.332 195.16 251.352 194.763C254.187 193.687 253.62 190.683 252.826 188.36C252.203 186.547 252.713 185.64 253.507 183.94C253.677 183.543 253.96 183.26 254.017 182.807C254.13 181.9 253.62 181.39 253.28 180.653C252.373 178.67 252.6 176.743 254.073 175.157C254.867 174.363 253.62 173.117 252.94 173.967Z" fill="#5222D0"/>
<path d="M686.713 191.59C684.445 191.42 682.801 193.12 682.461 195.33C681.951 198.56 684.615 200.827 685.976 203.433C686.883 205.247 686.542 206.663 685.976 208.42C685.692 209.327 685.352 209.043 685.295 210.063C685.239 210.913 685.579 211.537 686.146 212.16C687.676 213.917 688.923 214.71 688.753 217.317C688.583 219.64 687.506 221.85 686.486 223.833C685.976 224.797 687.449 225.647 687.96 224.683C689.15 222.417 690.341 219.923 690.454 217.317C690.624 214.767 689.604 213.633 688.243 211.707C687.79 211.423 687.62 210.97 687.676 210.347C687.223 209.667 687.336 209.1 687.903 208.59C688.016 208.08 688.3 207.683 688.413 207.117C688.64 205.927 688.413 204.737 687.96 203.547C687.506 202.3 686.713 201.28 685.976 200.203C685.352 199.297 684.615 198.277 684.332 197.2C683.878 195.557 684.332 193.063 686.769 193.233C687.79 193.403 687.79 191.703 686.713 191.59Z" fill="#5222D0"/>
<path d="M511.264 499.8C500.097 501.5 490.687 501.897 484.168 501.897C480.596 553.86 481.106 580.21 485.755 580.947C489.666 581.57 496.525 564.003 506.276 528.247C519.711 524.903 533.202 521.56 546.637 518.217C547.998 505.07 544.937 499.97 541.875 497.647C536.207 493.397 528.27 497.137 511.264 499.8Z" fill="#161616" stroke="#161616" stroke-width="3" stroke-miterlimit="10"/>
<path d="M456.448 407.717C447.037 416.273 450.269 439.507 464.27 463.817C467.558 463.42 472.717 463.08 478.896 463.59C481.447 463.817 489.44 464.61 509.847 472.033C514.099 473.62 519.994 475.83 527.024 478.833C521.525 480.307 516.026 481.78 510.471 483.253C511.094 489.883 512.228 497.42 514.269 505.467C518.01 520.37 523.566 532.553 528.667 541.677C541.422 537.937 551.853 534.253 559.392 531.533C577.475 524.903 587.056 520.143 596.239 513.74C606.046 506.883 611.204 501.103 612.792 493.85C613.699 489.657 613.189 486.03 613.018 484.727C611.885 477.7 607.973 472.94 603.892 468.407C594.935 458.377 590.457 453.39 583.144 447.837C566.421 435.2 551.172 428.57 534.223 421.373C521.128 415.82 512.398 412.137 499.7 409.077C479.406 404.373 464.157 400.69 456.448 407.717Z" fill="#EC615B"/>
<path d="M495.619 408.793C512.682 413.78 529.291 420.127 545.39 427.777C559.506 434.463 573.677 441.887 585.922 451.69C591.591 456.223 596.863 461.267 601.454 466.933C606.443 473.11 612.905 481.44 612.792 489.77C612.678 497.533 605.309 504.617 599.924 509.49C594.198 514.647 587.679 518.727 580.763 522.07C563.871 530.23 545.164 533.573 528.044 541.223C527.024 541.677 527.931 543.15 528.894 542.697C545.334 535.33 563.247 531.987 579.63 524.45C586.546 521.277 593.178 517.367 599.074 512.437C604.572 507.847 610.808 501.783 613.472 494.983C616.363 487.617 612.452 480.023 608.54 473.903C604.289 467.217 599.13 461.153 593.291 455.77C581.727 445.06 567.952 437.127 553.95 430.1C535.413 420.75 516.026 413.043 496.072 407.207C494.995 406.867 494.542 408.453 495.619 408.793Z" fill="#EC615B"/>
<path d="M555.537 470.277C547.998 472.43 540.402 474.583 532.862 476.737C525.436 478.833 517.84 480.703 510.584 483.31C509.564 483.707 510.017 485.35 511.037 484.953C518.293 482.29 525.89 480.477 533.316 478.38C540.855 476.227 548.451 474.073 555.991 471.92C557.011 471.637 556.558 469.993 555.537 470.277Z" fill="#EC615B"/>
<path d="M509.904 483.423C511.774 503.993 517.5 524.11 527.363 542.3C527.874 543.263 529.348 542.413 528.837 541.45C519.144 523.543 513.475 503.71 511.604 483.48C511.548 482.347 509.847 482.347 509.904 483.423Z" fill="#EC615B"/>
<path d="M527.25 478.833C507.58 467.557 485.245 461.663 462.513 462.57C461.436 462.627 461.436 464.327 462.513 464.27C484.905 463.307 506.956 469.143 526.343 480.307C527.364 480.817 528.214 479.343 527.25 478.833Z" fill="#EC615B"/>
<path opacity="0.11" d="M461.379 428.06C466.651 429.25 474.361 431.233 483.488 434.237C490.233 436.447 502.988 440.923 532.295 455.713C542.159 460.7 555.141 467.443 570.163 475.887C551.059 484.33 531.955 492.773 512.852 501.16C511.831 495.323 510.754 489.543 509.734 483.707C514.666 482.12 519.597 480.59 524.529 479.003C516.99 474.867 506.333 469.993 492.954 466.933C481.9 464.383 472.15 463.76 464.497 463.817C463.42 451.86 462.4 439.96 461.379 428.06Z" fill="#3D3D3D"/>
<path opacity="0.11" d="M464.44 463.59C473.454 462.003 488.079 460.53 505.425 464.043C520.391 467.047 531.842 472.657 539.268 477.02C529.914 482.347 520.618 487.617 511.264 492.943C510.641 489.827 510.074 486.653 509.45 483.537C514.439 481.95 519.427 480.42 524.473 478.833C517.84 475.263 509.394 471.467 499.19 468.52C485.528 464.61 473.454 463.59 464.44 463.59Z" fill="#3D3D3D"/>
<path d="M390.804 518.103C399.25 521.05 407.697 523.997 416.086 526.943C417.844 563.38 420.395 581.683 423.682 581.797C427.707 581.967 432.866 555.673 439.215 502.86C425.78 499.63 412.402 496.343 398.967 493.113C396.302 501.443 393.581 509.773 390.804 518.103Z" fill="#161616" stroke="#161616" stroke-width="3" stroke-miterlimit="10"/>
<path d="M464.384 463.647C463.874 447.383 462.003 433.897 460.189 424.037C456.391 403.24 453.103 399.953 450.212 398.593C443.92 395.703 437.514 401.257 421.528 408.567C408.434 414.573 410.134 412.023 387.686 420.467C371.247 426.643 351.406 435.143 330.318 447.497C325.783 450.16 315.126 456.563 304.865 468.123C295.229 478.947 294.548 484.67 294.548 487.447C294.548 490.28 295.229 496.627 304.525 506.147C315.466 517.31 327.824 522.127 363.48 533.517C373.287 536.633 382.244 539.467 390.237 541.903C394.545 533.687 397.833 526.547 400.214 520.993C406.903 505.353 408.32 497.987 408.887 494.247C409.511 490.11 409.794 486.653 409.851 484.273C404.069 482.743 398.23 481.27 392.448 479.74C399.023 476 407.186 472.147 416.937 469.087C436.097 463.137 452.933 462.797 464.384 463.647Z" fill="#EC615B"/>
<path d="M394.148 480.193C396.642 480.76 399.193 481.327 401.688 481.893C404.182 482.46 407.016 482.743 409.114 484.33C409.964 485.01 410.814 483.537 409.964 482.857C407.98 481.327 405.542 480.987 403.161 480.477C400.327 479.853 397.436 479.173 394.602 478.55C393.525 478.323 393.071 479.967 394.148 480.193Z" fill="#EC615B"/>
<path d="M426.063 407.32C401.234 413.837 377.085 422.677 353.843 433.613C341.599 439.393 329.751 446.42 319.037 454.693C307.133 463.873 285.818 482.857 297.269 499.517C302.541 507.167 310.534 512.833 318.47 517.423C324.933 521.22 331.792 524.393 338.765 527.057C342.846 528.587 347.098 529.72 351.292 531.023C364.047 534.877 376.802 538.9 389.5 542.98C390.52 543.32 390.974 541.677 389.953 541.337C379.466 537.937 368.979 534.593 358.435 531.42C352.936 529.72 347.324 528.303 341.882 526.377C328.504 521.787 314.729 514.873 304.469 505.127C301.124 501.953 297.666 498.213 296.419 493.737C294.832 488.183 296.816 482.63 299.593 477.87C304.072 470.163 310.704 463.76 317.563 458.15C328.561 449.197 340.975 441.773 353.787 435.653C377.142 424.49 401.574 415.593 426.63 409.077C427.594 408.68 427.14 407.037 426.063 407.32Z" fill="#EC615B"/>
<path d="M358.832 472.09C367.278 474.243 375.781 476.397 384.228 478.493C392.561 480.59 401.064 482.403 409.227 485.123C410.247 485.463 410.701 483.82 409.68 483.48C401.517 480.817 393.014 479.003 384.681 476.85C376.235 474.697 367.732 472.543 359.285 470.447C358.208 470.22 357.755 471.863 358.832 472.09Z" fill="#EC615B"/>
<path d="M408.717 483.65C406.619 504.163 400.1 524.053 389.386 541.62C388.819 542.583 390.293 543.433 390.86 542.47C401.744 524.563 408.32 504.39 410.417 483.593C410.531 482.517 408.83 482.573 408.717 483.65Z" fill="#EC615B"/>
<path d="M391.937 480.477C414.102 469.143 438.761 463.533 463.647 464.44C464.724 464.497 464.724 462.797 463.647 462.74C438.478 461.777 413.479 467.5 391.087 479.003C390.123 479.513 390.974 480.987 391.937 480.477Z" fill="#EC615B"/>
<path opacity="0.13" d="M452.536 432.707C428.161 444.55 412.118 452.88 404.919 456.337C385.985 465.29 367.505 473.507 349.535 481.1C363.254 479.57 376.632 485.917 383.604 497.363C391.484 510.283 389.84 527.397 379.353 539.183C382.981 540.487 386.609 541.79 390.18 543.037C393.241 538.163 396.302 532.61 399.08 526.377C406.449 510 409.454 494.813 410.701 483.027C405.542 481.327 400.384 479.683 395.225 477.983C399.874 475.943 404.919 473.96 410.304 472.203C430.712 465.517 449.475 463.93 464.441 464.157C464.271 460.077 464.044 455.94 463.76 451.69C463.194 443.587 462.343 435.823 461.38 428.457C459.339 429.42 456.278 430.95 452.536 432.707Z" fill="#3D3D3D"/>
<path opacity="0.15" d="M462.457 462.683C462.4 461.947 447.831 460.643 430.201 463.137C410.247 465.97 394.658 472.487 384.511 477.7C389.67 481.553 394.828 485.463 399.987 489.317C397.209 506.26 394.488 523.203 391.711 540.147C397.436 530.74 403.898 517.593 407.64 500.99C409.114 494.36 409.907 488.24 410.304 482.63C408.773 482.177 407.186 481.723 405.599 481.27C401.914 480.25 398.343 479.343 394.828 478.607C397.606 477.36 401.517 475.66 406.279 473.903C437.061 462.457 462.457 463.59 462.457 462.683Z" fill="#3D3D3D"/>
<path d="M505.766 275.683C508.657 274.72 513.022 279.197 515.63 281.803C519.824 286.053 521.922 290.36 522.545 291.663C530.255 307.643 528.894 301.297 535.414 316.143C543.406 334.447 548.848 351.73 548.848 351.73C551.513 360.173 553.157 366.463 558.315 374.227C564.154 382.953 568.973 385.277 570.957 386.07C577.532 388.79 583.768 387.6 586.546 386.863C589.55 383.917 591.874 381.367 593.462 379.553C596.693 375.87 598.053 373.887 600.604 373.603C601.171 373.547 603.779 373.263 605.139 374.793C605.763 375.473 605.876 376.21 606.5 376.38C607.293 376.607 608.087 375.7 609.051 374.793C609.447 374.397 612.055 371.96 614.776 370.827C616.193 370.203 618.914 369.41 619.708 370.43C620.501 371.45 618.744 373.603 619.538 374.397C620.331 375.19 622.259 373.377 624.3 374.227C625.433 374.737 626.397 375.983 626.454 377.173C626.567 378.647 625.32 378.987 625.093 380.913C624.866 382.5 625.603 382.783 625.49 384.087C625.263 386.07 623.449 386.353 620.955 389.243C619.538 390.887 619.935 391 617.384 394.797C616.42 396.213 615.173 398.083 614.209 399.16C610.468 403.353 604.119 403.693 600.774 403.92C594.312 404.26 589.21 402.333 586.319 400.973C584.392 402.333 581.444 404.033 577.646 405.337C567.839 408.567 559.222 406.3 555.708 405.337C541.706 401.427 533.486 390.83 528.044 383.577C519.938 372.81 516.99 363.46 511.661 346.46C510.018 341.303 505.086 324.927 503.158 302.997C502.365 293.023 501.061 277.27 505.766 275.683Z" fill="white"/>
<path d="M507.353 277.723C512.341 279.367 515.799 283.39 518.69 287.64C521.695 292.003 524.359 296.593 526.91 301.297C532.069 310.93 536.377 320.96 540.402 331.103C544.483 341.303 548.225 351.617 552.023 361.873C555.084 370.033 558.769 378.703 565.855 384.143C572.43 389.187 581.784 391.283 589.153 386.693C590.06 386.127 589.21 384.653 588.303 385.22C580.48 390.093 570.389 386.693 564.324 380.517C557.408 373.377 554.46 363.46 551.116 354.393C544.03 335.013 536.774 315.293 526.627 297.217C522.205 289.34 516.99 279.14 507.806 276.08C506.786 275.74 506.333 277.383 507.353 277.723Z" fill="#161616"/>
<path d="M506.787 332.633C511.832 350.087 516.083 368.333 526.457 383.52C535.017 396.1 547.715 406.13 563.304 407.377C571.75 408.057 580.31 406.017 587.113 400.917C587.963 400.293 587.113 398.763 586.262 399.443C578.326 405.45 568.066 406.98 558.429 404.997C548.905 403.013 540.686 397.517 534.167 390.49C519.371 374.453 514.439 352.58 508.544 332.237C508.147 331.16 506.503 331.613 506.787 332.633Z" fill="#161616"/>
<path d="M589.323 386.92C591.704 383.577 593.915 379.723 596.806 376.833C598.507 375.133 601.284 373.433 603.722 374.793C605.819 375.983 605.989 378.703 604.742 380.517C604.119 381.423 605.592 382.273 606.216 381.367C608.88 377.57 606.103 372.47 601.454 372.697C598.677 372.867 596.409 374.623 594.708 376.72C592.271 379.667 590.173 382.953 587.906 386.07C587.226 386.92 588.7 387.77 589.323 386.92Z" fill="#161616"/>
<path d="M597.203 379.497C595.956 381.99 597.486 384.88 600.264 385.333C603.608 385.843 606.046 383.01 606.613 380.007C606.84 378.93 605.196 378.477 604.969 379.553C604.629 381.367 603.665 383.237 601.681 383.633C599.81 384.03 597.713 382.387 598.677 380.403C599.13 379.383 597.656 378.533 597.203 379.497Z" fill="#161616"/>
<path d="M585.979 401.427C592.498 402.73 598.677 405.733 605.423 404.317C610.865 403.183 615.513 399.84 618.518 395.25C619.141 394.343 617.667 393.493 617.044 394.4C614.096 398.877 609.447 401.993 604.119 402.843C597.997 403.807 592.271 400.973 586.376 399.783C585.355 399.613 584.902 401.257 585.979 401.427Z" fill="#161616"/>
<path d="M602.021 383.633C600.207 384.71 600.434 387.203 601.964 388.507C603.268 389.583 605.026 389.413 606.613 389.413C609.334 389.357 611.601 389.81 613.982 391.17C614.946 391.68 615.796 390.263 614.833 389.697C613.075 388.677 611.205 387.997 609.164 387.77C608.2 387.657 607.236 387.713 606.216 387.713C605.592 387.713 604.969 387.77 604.402 387.657C603.722 387.487 601.511 385.957 602.871 385.163C603.778 384.54 602.928 383.067 602.021 383.633Z" fill="#161616"/>
<path d="M603.155 384.37C607.407 381.933 612.622 382.443 616.25 385.787C617.044 386.523 618.234 385.333 617.44 384.597C613.245 380.743 607.237 380.063 602.305 382.897C601.341 383.463 602.191 384.937 603.155 384.37Z" fill="#161616"/>
<path d="M606.84 377.457C608.711 376.097 610.525 374.793 612.395 373.433C613.189 372.867 613.926 372.3 614.776 371.79C615.343 371.45 615.91 371.11 616.533 370.883C619.198 369.977 619.821 371.28 618.347 374.793C617.327 375.133 617.781 376.777 618.801 376.437C621.862 375.36 622.939 371.223 619.765 369.467C618.007 368.447 615.91 369.183 614.323 370.09C611.432 371.733 608.767 374.057 606.046 375.983C605.083 376.663 605.933 378.137 606.84 377.457Z" fill="#161616"/>
<path d="M610.468 381.99C612.735 380.573 615.003 379.1 617.27 377.683C618.29 377.06 619.311 376.323 620.445 375.813C621.295 375.36 622.202 375.19 623.166 375.19C625.15 375.19 625.887 376.38 625.376 378.703C624.696 379.553 625.887 380.743 626.567 379.893C628.721 377.173 626.794 373.83 623.506 373.547C621.352 373.32 619.424 374.397 617.667 375.473C614.946 377.117 612.282 378.873 609.617 380.573C608.654 381.083 609.504 382.557 610.468 381.99Z" fill="#161616"/>
<path d="M617.1 384.653C618.631 383.803 620.161 383.01 621.692 382.273C622.202 381.99 623.903 380.97 624.413 381.083C625.83 381.367 624.866 382.783 624.526 383.35C623.959 384.257 625.433 385.163 626 384.2C626.907 382.727 627.701 379.837 625.263 379.383C623.959 379.1 622.542 380.007 621.408 380.573C619.651 381.423 617.894 382.273 616.193 383.237C615.286 383.747 616.193 385.22 617.1 384.653Z" fill="#161616"/>
<path d="M614.719 384.257C618.801 386.523 619.595 391.567 616.363 394.967C615.626 395.76 616.817 396.95 617.554 396.157C621.522 392.02 620.615 385.56 615.57 382.783C614.663 382.273 613.756 383.747 614.719 384.257Z" fill="#161616"/>
<path d="M625.15 383.633C623.336 385.957 621.239 387.997 618.915 389.697C618.064 390.32 618.858 391.793 619.765 391.17C622.259 389.357 624.47 387.26 626.397 384.823C627.021 383.973 625.83 382.783 625.15 383.633Z" fill="#161616"/>
<path d="M597.6 390.263C601.171 390.547 604.516 391.68 607.52 393.663C608.427 394.287 609.277 392.813 608.37 392.19C605.083 390.093 601.511 388.903 597.6 388.563C596.523 388.507 596.523 390.207 597.6 390.263Z" fill="#161616"/>
<path opacity="0.09" d="M500.041 289.397C501.061 296.65 502.705 306.85 505.142 319.09C506.73 327.023 507.863 332.86 509.961 340.623C513.135 352.41 515.743 362.327 521.865 373.83C525.89 381.367 528.611 386.523 534.28 392.077C538.305 395.987 548.848 406.3 564.721 406.527C574.415 406.64 582.067 402.957 586.546 400.18C589.21 401.653 593.802 403.637 599.754 403.75C602.532 403.807 607.747 403.863 612.679 400.463C614.379 399.273 618.914 396.213 619.254 391.057C619.311 390.263 619.538 385.957 616.477 383.69C613.075 381.197 607.52 382.67 607.067 384.427C606.67 386.07 610.751 387.43 610.638 389.753C610.468 392.7 603.779 394.513 602.532 394.853C562.624 405.62 541.139 387.77 541.139 387.77C534.62 382.33 531.162 376.437 523.112 356.32C516.48 339.773 508.147 317.163 500.041 289.397Z" fill="#3D3D3D"/>
<path d="M338.084 398.083C340.692 400.01 347.608 404.487 357.075 404.43C365.918 404.373 372.153 400.35 375.668 398.083C381.507 394.343 384.851 390.207 387.913 386.24C397.436 374.17 401.234 361.59 403.955 352.467C406.393 344.307 405.429 344.76 407.753 337.677C412.118 324.417 415.86 321.413 419.601 311.95C425.78 296.31 426.177 277.667 421.302 275.627C419.034 274.72 415.689 277.383 409.057 282.823C407.073 284.467 403.558 287.357 399.874 291.833C396.926 295.46 391.767 302.6 386.042 319.657C381.393 333.597 382.414 335.863 376.915 351.277C373.514 360.853 371.36 364.763 368.752 368.333C365.804 372.3 360.929 378.76 352.086 382.16C345.34 384.767 339.275 384.427 335.93 383.973C335.477 381.707 333.946 375.473 328.674 372.413C327.37 371.62 324.196 369.807 321.928 371.167C320.625 371.96 320.171 373.433 320.001 374.227C317.507 370.713 314.786 369.183 313.255 368.503C311.781 367.88 308.777 366.52 307.53 367.767C306.396 368.9 307.416 371.507 307.53 371.847C305.942 370.997 304.128 371.11 302.825 372.073C301.861 372.81 300.784 374.283 301.181 375.87C301.464 376.947 302.314 377.627 302.598 377.797C302.258 378.76 301.974 380.233 302.484 381.763C302.768 382.557 303.108 383.067 305.149 385.333C307.756 388.28 307.813 388.167 308.323 388.903C309.741 391 309.457 392.133 310.364 394.003C311.951 397.46 315.353 399.103 316.486 399.613C320.114 401.37 323.459 400.917 328.958 400.123C332.472 399.727 335.533 398.933 338.084 398.083Z" fill="white"/>
<path d="M421.131 274.097C412.458 278.46 404.635 284.467 398.57 292.117C392.504 299.767 388.309 308.607 385.135 317.787C381.96 327.08 379.693 336.657 377.255 346.12C374.931 355.3 371.02 364.82 364.897 372.13C357.755 380.687 346.644 383.973 335.817 382.727C334.74 382.613 334.74 384.313 335.817 384.427C344.376 385.39 353.276 383.747 360.362 378.703C367.845 373.377 372.55 364.48 375.895 356.093C379.466 347.197 381.053 337.507 383.661 328.327C386.439 318.41 389.84 308.55 395.282 299.767C401.744 289.283 410.984 281.123 421.982 275.627C423.002 275.06 422.095 273.587 421.131 274.097Z" fill="#161616"/>
<path d="M408.944 329.743C403.785 349.35 399.59 370.487 386.665 386.75C381.053 393.777 373.741 399.783 364.897 402.163C355.714 404.657 345.794 403.24 338.368 397.12C337.517 396.44 336.327 397.63 337.177 398.31C348.458 407.603 364.557 406.64 376.348 398.707C389.273 390.037 396.926 375.417 401.914 361.08C405.429 350.993 407.867 340.51 410.588 330.197C410.871 329.12 409.227 328.667 408.944 329.743Z" fill="#161616"/>
<path d="M336.724 383.577C334.74 380.517 332.869 377.287 330.658 374.397C329.128 372.357 327.087 370.43 324.366 370.203C319.661 369.92 317.62 375.303 319.887 378.873C320.454 379.78 321.928 378.93 321.361 378.023C320.284 376.323 320.341 373.49 322.268 372.3C324.989 370.6 327.767 373.377 329.241 375.303C331.452 378.193 333.266 381.367 335.25 384.427C335.817 385.333 337.291 384.483 336.724 383.577Z" fill="#161616"/>
<path d="M326.747 377.91C327.654 379.837 325.783 381.763 323.799 381.083C322.155 380.517 321.418 378.647 321.135 377.06C320.965 375.983 319.321 376.437 319.491 377.513C320.001 380.347 322.042 383.293 325.273 382.897C328.051 382.557 329.298 379.44 328.221 377.06C327.767 376.04 326.293 376.89 326.747 377.91Z" fill="#161616"/>
<path d="M337.914 397.347C332.699 398.48 327.597 401.257 322.155 400.407C316.996 399.613 312.688 396.327 310.08 391.963C309.513 391 308.04 391.907 308.607 392.813C311.271 397.29 315.466 400.69 320.624 401.88C326.86 403.297 332.415 400.293 338.367 398.99C339.445 398.763 338.991 397.12 337.914 397.347Z" fill="#161616"/>
<path d="M322.949 382.613C323.345 382.897 323.402 383.463 323.232 383.86C322.892 384.993 321.645 385.107 320.624 385.22C319.547 385.277 318.47 385.107 317.336 385.22C315.409 385.447 313.652 386.127 312.008 387.147C311.101 387.713 311.951 389.187 312.858 388.62C314.956 387.317 317.053 386.807 319.547 386.863C321.021 386.92 322.552 387.033 323.742 386.013C325.273 384.767 325.443 382.217 323.742 381.14C322.892 380.573 322.042 382.047 322.949 382.613Z" fill="#161616"/>
<path d="M323.572 380.46C319.094 377.57 313.425 378.363 309.684 382.16C308.89 382.953 310.137 384.143 310.874 383.35C314.105 380.12 318.81 379.44 322.722 381.933C323.629 382.5 324.479 381.027 323.572 380.46Z" fill="#161616"/>
<path d="M320.398 373.66C318.073 371.79 315.806 369.807 313.368 368.107C311.894 367.087 310.024 366.067 308.21 366.747C304.638 368.05 305.375 372.81 308.493 374C309.514 374.397 309.967 372.753 308.947 372.357C306.849 369.863 307.019 368.73 309.457 368.957C310.364 368.503 311.158 368.56 311.838 369.127C312.801 369.58 313.708 370.543 314.559 371.167C316.089 372.413 317.677 373.66 319.207 374.907C320.001 375.53 321.248 374.34 320.398 373.66Z" fill="#161616"/>
<path d="M316.883 378.08C314.445 376.38 312.008 374.623 309.57 372.98C307.983 371.903 306.226 370.883 304.298 371.053C301.237 371.337 299.367 374.68 301.237 377.287C301.861 378.137 303.335 377.287 302.711 376.437C301.464 374.17 302.484 372.98 305.659 372.867C306.396 373.093 307.076 373.377 307.7 373.773C308.493 374.227 309.23 374.793 309.967 375.303C312.008 376.72 314.049 378.137 316.089 379.553C316.94 380.177 317.79 378.703 316.883 378.08Z" fill="#161616"/>
<path d="M310.818 380.743C309.287 379.78 307.7 378.873 306.056 378.08C304.979 377.513 303.505 376.493 302.201 376.947C300.16 377.683 300.954 380.403 301.748 381.763C302.258 382.727 303.732 381.877 303.222 380.913C303.051 380.573 302.428 379.553 302.598 379.157C302.825 378.59 303.732 378.93 304.128 379.043C304.582 379.157 305.036 379.497 305.489 379.723C307.02 380.517 308.493 381.367 309.967 382.273C310.874 382.783 311.781 381.31 310.818 380.743Z" fill="#161616"/>
<path d="M311.384 380.347C306.623 383.293 305.999 389.583 309.57 393.72C310.307 394.57 311.498 393.323 310.761 392.53C307.926 389.243 308.437 384.143 312.235 381.82C313.142 381.253 312.291 379.78 311.384 380.347Z" fill="#161616"/>
<path d="M301.408 382.217C303.108 384.597 305.092 386.75 307.416 388.62C308.267 389.3 309.457 388.11 308.607 387.43C306.396 385.673 304.525 383.69 302.881 381.367C302.201 380.46 300.727 381.31 301.408 382.217Z" fill="#161616"/>
<path d="M327.767 386.127C324.196 386.467 320.851 387.657 317.903 389.753C316.996 390.377 317.847 391.85 318.754 391.227C321.475 389.3 324.422 388.11 327.767 387.827C328.901 387.713 328.901 386.013 327.767 386.127Z" fill="#161616"/>
<path opacity="0.17" d="M418.297 296.65C411.211 313.877 405.769 327.76 402.311 336.827C394.205 357.907 391.937 365.273 384.285 374.963C377.765 383.18 370.056 393.437 357.018 395.42C348.855 396.667 341.939 394.173 337.914 392.36C336.894 393.153 329.128 398.707 321.588 395.76C317.393 394.117 313.255 389.867 314.105 387.26C314.956 384.597 320.624 384.767 320.568 383.52C320.511 382.5 316.6 381.083 313.085 382.16C312.575 382.33 309.117 383.463 307.983 386.58C306.509 390.717 310.364 394.967 311.384 396.1C316.6 401.88 324.593 401.597 326.01 401.54C331.735 401.37 335.93 398.82 337.914 397.46C340.465 399.613 344.943 402.787 351.179 403.92C362.687 406.073 371.983 399.613 377.085 396.44C391.654 387.203 397.153 372.47 401.631 361.363C403.785 355.98 404.749 352.467 410.021 330.99C413.308 317.39 416.143 305.717 418.297 296.65Z" fill="#3D3D3D"/>
<path opacity="0.17" d="M303.845 372.243C305.772 371.903 308.266 377.003 309.967 381.083C309.117 385.447 308.04 386.41 307.246 386.523C304.978 386.92 301.124 381.367 301.804 376.323C301.861 375.927 302.314 372.527 303.845 372.243Z" fill="#3D3D3D"/>
<path d="M420.508 274.493C409.794 286.79 409.567 301.977 409.511 328.61C409.454 360.853 415.236 387.997 421.415 408.227C430.712 411.003 444.203 413.95 460.586 413.95C476.742 413.95 490.064 411.003 499.304 408.227C501.401 399.557 504.179 386.807 506.333 371.28C513.759 318.637 518.634 284.013 499.304 267.013C479.803 249.9 438.818 253.47 420.508 274.493Z" fill="white" stroke="#161616" stroke-width="3" stroke-miterlimit="10"/>
<path opacity="0.1" d="M473.624 257.21C476.062 262.197 479.293 269.903 481.334 279.707C483.204 288.66 486.095 308.55 469.713 358.077C465.064 372.187 458.035 391.113 447.548 412.873C452.026 413.327 456.845 413.61 461.946 413.553C476.515 413.497 489.156 411.117 499.19 408.283C503.498 387.203 506.56 369.24 508.657 355.583C511.265 338.81 513.079 324.643 512.512 306.737C511.831 284.07 507.977 277.497 505.823 274.437C496.583 260.95 479.916 258.003 473.624 257.21Z" fill="#3D3D3D"/>
<path opacity="0.13" d="M511.605 290.927C509.054 298.633 505.369 310.533 501.741 325.38C497.206 343.91 496.526 351.673 494.032 361.59C490.687 374.51 483.715 392.757 467.332 413.61C472.717 413.78 479.917 413.383 488.08 411.173C492.388 409.983 496.186 408.453 499.304 406.98C502.195 391.227 504.746 376.437 507.013 362.723C511.038 338.697 512.455 328.78 512.625 315.633C512.795 305.263 512.172 296.763 511.605 290.927Z" fill="#3D3D3D"/>
<path d="M448.455 243.837C446.584 246.387 447.491 248.71 447.094 258.23C446.811 264.463 446.187 269.45 445.734 272.623C447.661 273.983 453.103 277.44 460.813 277.44C469.883 277.44 475.948 272.68 477.592 271.263C476.855 269.223 475.948 266.163 475.211 262.367C473.114 251.543 475.268 248.2 472.831 244.517C468.466 238 452.933 237.717 448.455 243.837Z" fill="white" stroke="#161616" stroke-width="3" stroke-miterlimit="10"/>
<path d="M425.496 213.293C425.27 221.34 427.084 227.347 428.558 232.163C430.768 239.247 433.206 247.18 440.235 254.433C446.357 260.78 453.5 264.067 459.112 265.767C463.42 264.01 470.506 260.44 476.969 253.413C483.998 245.763 486.662 238 488.646 232.163C490.347 227.12 493.238 217.997 492.048 206.097C491.197 197.767 490.29 188.757 483.148 181.787C472.604 171.53 457.185 174.193 455.031 174.59C440.065 177.367 432.526 189.21 430.712 192.44C425.837 200.713 425.61 208.817 425.496 213.293Z" fill="white" stroke="#161616" stroke-width="3" stroke-miterlimit="10"/>
<path d="M455.257 219.47C454.917 226.723 455.597 233.92 457.355 240.947C457.525 241.513 458.375 241.797 458.772 241.343C460.076 239.813 460.926 238.17 461.323 236.187C461.549 235.11 459.906 234.657 459.679 235.733C459.339 237.49 458.715 238.793 457.581 240.153C458.035 240.267 458.545 240.38 458.999 240.55C457.298 233.637 456.674 226.61 456.958 219.527C456.958 218.393 455.257 218.393 455.257 219.47Z" fill="#161616"/>
<path d="M467.161 221.963C471.186 226.213 479.293 227.403 481.447 220.547C481.787 219.527 480.143 219.073 479.803 220.093C478.045 225.703 471.47 223.947 468.409 220.717C467.558 219.98 466.368 221.17 467.161 221.963Z" fill="#161616"/>
<path d="M438.761 232.957C438.761 232.787 438.705 233.013 438.648 233.013C438.591 233.07 438.478 233.07 438.365 233.07C438.195 232.73 437.968 232.39 437.798 232.05C437.854 231.993 437.854 231.937 437.911 231.88C437.458 231.993 437.174 232.447 437.344 232.9C437.458 233.353 437.968 233.637 438.365 233.467C438.875 233.297 439.215 232.957 439.442 232.447C439.612 232.05 439.272 231.483 438.875 231.427C438.138 231.257 437.288 231.653 437.117 232.447C437.061 232.9 437.231 233.41 437.684 233.467C438.138 233.693 438.705 233.467 438.761 232.957Z" fill="#161616"/>
<path d="M447.151 230.747C447.038 231.597 446.811 231.653 446.471 230.917C445.847 230.407 445.961 230.18 446.811 230.293C446.414 230.067 445.904 230.18 445.62 230.577C445.394 230.973 445.507 231.54 445.904 231.767C446.867 232.333 448.058 231.087 447.321 230.18C446.584 229.273 445.11 230.067 445.394 231.143C445.507 231.597 446.017 231.88 446.414 231.71C447.038 231.71 447.264 231.2 447.151 230.747Z" fill="#161616"/>
<path d="M444.09 236.64C444.09 236.753 444.033 236.867 443.92 236.98C444.033 236.867 443.806 237.037 443.863 236.98C443.92 236.923 443.693 237.037 443.863 236.98C443.75 236.98 443.693 236.98 443.75 236.98C443.806 236.98 443.806 236.98 443.636 236.98C443.58 236.98 443.58 236.923 443.523 236.923C443.58 236.98 443.58 236.923 443.466 236.867C443.24 236.64 443.24 236.3 443.41 236.073C443.636 235.847 444.033 235.96 444.147 236.187C443.92 235.79 443.41 235.677 442.956 235.903C442.559 236.13 442.389 236.697 442.673 237.093C443.013 237.66 443.75 237.83 444.317 237.49C444.883 237.207 445.11 236.47 444.77 235.903C444.09 234.827 442.276 235.45 442.276 236.64C442.276 237.093 442.673 237.49 443.126 237.49C443.693 237.49 444.09 237.15 444.09 236.64Z" fill="#161616"/>
<path d="M472.944 229.443C473.34 229.5 473.567 229.727 473.624 230.01C473.68 230.35 473.454 230.577 472.944 230.747C472.773 230.69 472.66 230.69 472.49 230.633C472.207 230.463 472.15 230.237 472.32 229.953C472.603 229.5 473.454 229.67 473.284 230.293C473.397 229.84 473.17 229.33 472.717 229.273C472.263 229.16 471.81 229.387 471.696 229.84C471.47 230.633 472.15 231.483 473 231.37C473.737 231.257 474.191 230.52 473.964 229.783C473.851 229.387 473.454 229.047 473 229.047C472.66 229.047 472.32 229.273 472.15 229.557C471.81 230.18 472.263 231.2 473.057 231.143C473.51 231.087 473.907 230.803 473.907 230.293C473.794 229.897 473.454 229.387 472.944 229.443Z" fill="#161616"/>
<path d="M479.349 230.067C479.406 230.067 479.406 230.01 479.349 230.067C479.293 230.123 479.179 230.237 479.066 230.35C478.726 230.237 478.442 230.123 478.102 229.953C478.102 229.783 478.102 229.67 478.102 229.5C478.102 229.443 478.159 229.443 478.159 229.387C478.272 229.273 478.386 229.16 478.442 229.103C478.782 229.217 479.066 229.33 479.406 229.5C479.406 229.67 479.406 229.783 479.406 229.953V229.897C479.519 229.443 479.293 228.933 478.839 228.877C478.386 228.763 477.932 228.99 477.819 229.443C477.535 230.577 479.236 231.257 479.746 230.123C479.973 229.67 479.746 229.103 479.293 228.877C478.782 228.593 478.216 228.763 477.932 229.217C477.649 229.613 477.875 230.18 478.216 230.407C478.612 230.633 479.123 230.407 479.349 230.067Z" fill="#161616"/>
<path d="M476.232 235.677C476.175 235.507 476.232 235.677 476.175 235.733C476.175 235.79 476.005 235.903 476.175 235.79C475.722 235.733 475.268 235.677 474.815 235.62C474.475 235.11 475.098 234.657 475.552 234.883C475.155 234.657 474.645 234.77 474.361 235.167C474.134 235.563 474.248 236.13 474.645 236.357C475.098 236.583 475.665 236.527 476.005 236.13C476.345 235.79 476.459 235.167 476.175 234.713C475.892 234.26 475.211 234.147 474.815 234.543C474.418 234.94 474.248 235.563 474.418 236.073C474.588 236.527 474.985 236.81 475.438 236.64C476.062 236.64 476.402 236.13 476.232 235.677Z" fill="#161616"/>
<path d="M451.516 245.65C455.541 249.843 461.947 249.73 465.745 245.253C466.425 244.403 465.234 243.213 464.554 244.063C461.38 247.803 456.164 248.03 452.706 244.46C451.97 243.667 450.779 244.857 451.516 245.65Z" fill="#161616"/>
<path d="M441.085 211.31C442.786 209.44 445.167 208.647 447.661 209.157C448.738 209.383 449.192 207.74 448.115 207.513C445.054 206.89 441.992 207.797 439.895 210.12C439.158 210.913 440.348 212.103 441.085 211.31Z" fill="#161616"/>
<path d="M467.729 207.853C470.336 207.57 472.717 208.193 474.815 209.723C475.722 210.347 476.572 208.873 475.665 208.25C473.341 206.55 470.563 205.813 467.729 206.153C466.652 206.267 466.652 207.967 467.729 207.853Z" fill="#161616"/>
<path d="M438.024 222.473C442.049 226.723 450.155 227.913 452.309 221.057C452.65 220.037 451.006 219.583 450.665 220.603C448.908 226.213 442.332 224.457 439.271 221.227C438.478 220.433 437.231 221.68 438.024 222.473Z" fill="#161616"/>
<path d="M456.731 186.887C460.416 191.307 464.838 196.067 470.166 200.883C477.422 207.457 484.508 212.557 490.687 216.41C490.347 221.51 489.27 229.33 485.415 238.113C481.617 246.84 476.572 252.903 473.114 256.587C472.774 259.307 472.66 263.953 474.871 268.6C480.03 279.423 494.882 284.297 506.276 280.613C507.637 280.16 517.217 276.93 520.335 268.317C521.185 265.937 521.638 263.047 520.335 255.397C518.464 244.347 515.176 236.243 514.212 233.75C511.491 226.837 507.977 216.863 504.802 203.83C503.782 199.297 499.587 183.033 484.848 173.627C480.993 171.133 472.717 165.863 462.287 167.45C457.752 168.13 454.237 169.887 452.026 171.247C447.264 171.643 438.761 173.003 430.598 178.897C412.118 192.157 412.628 216.07 412.685 218.507C412.118 221.51 411.154 226.043 409.454 231.427C405.259 244.573 401.744 246.217 400.951 254.32C400.724 256.36 399.704 266.673 406.506 275.117C407.923 276.873 412.288 282.143 419.714 283.617C429.578 285.6 440.178 280.047 444.543 271.32C446.981 266.447 446.924 261.743 446.698 259.25C445.054 257.777 429.918 244.063 431.732 222.7C433.773 198.39 455.711 187.397 456.731 186.887Z" fill="#5222D0"/>
<path opacity="0.11" d="M477.706 207.457C478.726 211.31 479.86 217.147 479.236 224.173C478.442 233.127 475.268 239.417 471.98 245.877C469.372 250.977 465.291 257.947 458.829 265.257C459.849 265.087 461.039 264.747 462.23 264.293C465.008 263.273 467.105 261.857 468.522 260.667C468.069 265.993 467.615 271.32 467.218 276.647C470.45 275.23 473.681 273.87 476.912 272.453C476.232 266.787 475.495 261.177 474.814 255.51C476.175 253.81 478.102 251.317 480.143 248.087C482.977 243.61 487.002 237.15 489.1 228.14C489.78 225.25 490.46 221 490.404 215.787C486.209 213.067 481.957 210.233 477.706 207.457Z" fill="#3D3D3D"/>
<path opacity="0.16" d="M490.46 216.807C490.007 216.693 488.76 222.53 484.962 231.257C484.962 231.257 482.127 237.717 478.896 243.213C475.892 248.313 469.939 256.87 458.715 265.823C459.962 266.39 461.266 266.957 462.513 267.523C466.198 267.127 469.883 266.787 473.567 266.39C473.397 263.273 473.171 260.157 473.001 257.097C477.422 252.563 483.488 245.14 487.286 234.487C490.347 225.59 491.027 216.92 490.46 216.807Z" fill="#3D3D3D"/>
<path opacity="0.29" d="M405.599 241.91C405.486 243.78 405.599 247.01 407.13 250.467C409.34 255.397 414.499 260.78 420.054 260.723C426.8 260.667 434.283 252.507 433.943 240.947C435.02 243.667 436.664 246.953 439.101 250.467C441.879 254.49 444.883 257.493 447.264 259.59C447.321 261.46 447.151 264.35 446.131 267.58C445.564 269.393 444.147 273.077 440.972 276.533C439.612 278.007 435.19 282.767 428.047 283.957C417.673 285.657 409.851 278.46 408.433 277.1C399.137 268.203 400.724 255.623 401.007 253.697C401.801 248.2 404.068 244.177 405.599 241.91Z" fill="#3D3D3D"/>
<path opacity="0.12" d="M490.857 216.58C491.311 219.357 491.934 223.777 492.388 229.33C493.351 241.23 492.388 244.403 494.315 250.467C494.599 251.43 498.963 264.803 505.369 264.917C510.358 265.03 515.913 257.21 518.124 245.707C519.881 251.43 520.618 256.303 520.958 259.76C521.525 265.37 521.015 267.24 520.788 268.147C519.201 273.303 515.006 276.137 512.795 277.667C504.972 282.993 496.526 282.2 495.279 282.03C493.295 281.803 484.111 280.613 477.989 272.907C477.025 271.717 473.964 267.693 473.057 261.687C472.774 259.703 472.774 257.947 472.887 256.757C476.345 253.357 480.937 247.973 484.678 240.38C489.327 230.747 490.517 221.963 490.857 216.58Z" fill="#3D3D3D"/>
</svg>
