<svg width="907" height="680" viewBox="0 0 907 680" fill="none" xmlns="http://www.w3.org/2000/svg">
<path d="M265.241 547.457C318.64 548.533 370.339 533.743 422.549 524.96C437.798 522.41 453.16 520.37 468.636 519.35C469.713 519.293 469.713 517.593 468.636 517.65C415.179 521.163 363.65 537.143 310.591 543.377C295.569 545.133 280.433 546.097 265.298 545.813C264.107 545.757 264.107 547.457 265.241 547.457Z" fill="#E8E8E8"/>
<path d="M514.836 528.417C533.826 524.337 553.496 523.657 572.714 526.603C590.4 529.323 607.35 535.16 624.072 541.393C640.569 547.513 656.951 554.03 674.071 558.393C691.757 562.87 709.727 564.003 727.981 564.003C749.522 564.003 771.233 563.153 792.378 567.913C793.455 568.14 793.908 566.497 792.831 566.27C755.474 557.883 716.757 566.383 679.399 557.883C644.537 549.95 612.678 532.1 577.419 525.697C556.558 521.9 535.13 522.353 514.439 526.773C513.305 527 513.759 528.643 514.836 528.417Z" fill="#E8E8E8"/>
<path d="M205.209 310.533C200.333 309.06 190.753 305.037 194.325 298.237C196.875 293.363 204.472 292.967 209.177 293.137C225.049 293.59 240.922 294.95 256.794 293.647C271.703 292.4 285.932 288.15 300.444 284.75C315.182 281.237 330.771 278.687 345.623 282.993C352.143 284.863 358.208 287.98 364.614 290.133C367.675 291.153 370.849 291.947 374.081 292.287C377.935 292.683 381.79 292.117 385.588 291.947C389.5 291.777 393.524 291.89 396.869 294.213C399.93 296.31 402.481 300.277 400.497 303.96C397.663 309.287 389.386 307.813 384.624 306.793C370.509 303.847 356.281 302.94 341.939 304.867C334.343 305.887 326.917 307.757 319.661 310.08C311.838 312.573 304.242 314.783 295.909 313.65C288.142 312.573 280.716 310.08 272.837 309.797C264.957 309.457 257.134 310.477 249.368 311.497C234.289 313.537 218.19 316.143 204.075 308.833C203.111 308.323 202.261 309.797 203.224 310.307C216.433 317.163 231.341 315.577 245.627 313.707C253.109 312.687 260.649 311.61 268.245 311.44C276.578 311.27 284.344 313.197 292.451 314.783C300.727 316.37 308.21 315.52 316.259 313.027C324.252 310.533 332.132 308.097 340.408 306.85C348.968 305.547 357.641 305.207 366.258 305.83C373.911 306.34 381.223 308.38 388.763 309.23C393.241 309.74 398.966 309.57 401.744 305.377C404.919 300.56 401.517 294.95 397.152 292.287C390.52 288.263 382.3 291.097 375.101 290.643C367.165 290.133 359.852 286.45 352.539 283.617C337.347 277.723 321.815 278.46 306.112 281.803C289.503 285.317 273.347 290.7 256.341 292.06C246.534 292.853 236.613 292.683 226.806 292.287C221.705 292.06 216.546 291.833 211.444 291.607C208.27 291.493 205.152 291.437 202.034 292.06C197.216 293.023 191.717 295.857 192.057 301.58C192.454 307.87 199.71 310.76 204.812 312.29C205.775 312.517 206.229 310.873 205.209 310.533Z" fill="#E8E8E8"/>
<path d="M623.562 101.49C618.687 100.81 610.694 99.0534 609.277 93.5C607.236 85.7934 618.234 83.3567 623.562 82.3934C639.151 79.73 655.137 82.1667 670.84 82.1667C701.961 82.11 732.629 76.2167 763.58 74.0067C779.056 72.8734 794.645 72.7034 810.064 74.6867C813.579 75.14 817.263 75.48 820.665 76.5C822.082 76.8967 823.669 77.5767 824.746 78.5967C827.354 81.1467 824.803 83.47 822.422 84.7167C816.3 87.9467 809.327 89.25 802.468 89.5334C788.75 90.1567 775.088 87.3234 761.37 87.8334C754.964 88.06 748.672 89.1367 742.606 91.3467C735.52 93.9534 728.944 97.6367 721.802 100.073C713.525 102.907 704.795 104.323 696.009 104.323C687.109 104.323 678.322 102.963 669.536 101.943C651.736 99.9034 633.879 99.96 616.136 102.34C615.059 102.51 615.059 104.21 616.136 104.04C633.483 101.717 651.056 101.547 668.459 103.53C677.075 104.493 685.692 105.853 694.422 106.023C702.471 106.193 710.578 105.173 718.344 102.963C726.28 100.697 733.536 96.7867 741.189 93.7267C748.615 90.78 756.268 89.4767 764.204 89.4767C778.829 89.3634 793.511 92.65 808.137 90.7234C811.708 90.27 815.166 89.4767 818.567 88.23C821.175 87.2667 824.689 86.0767 826.56 83.8667C830.075 79.6167 824.973 75.8767 821.175 74.8C813.692 72.59 805.246 72.1934 797.48 71.74C789.033 71.23 780.587 71.2867 772.14 71.6834C737.958 73.3267 704.172 80.4667 669.876 80.3534C660.126 80.3534 650.375 79.4467 640.625 79.39C632.349 79.3334 622.882 79.5034 615.116 82.7334C610.241 84.7734 605.479 89.5334 608.2 95.1434C610.751 100.413 617.95 102.227 623.165 102.963C624.186 103.303 624.639 101.66 623.562 101.49Z" fill="#E8E8E8"/>
<path d="M269.322 158.553C324.706 189.437 390.634 191.76 452.083 183.147C521.638 173.4 588.643 150.45 658.312 141.497C697.086 136.51 736.654 135.887 775.031 144.387C776.109 144.613 776.562 142.97 775.485 142.743C707.63 127.783 638.018 140.987 571.58 156.457C506.106 171.7 439.895 189.493 372.04 185.13C336.61 182.863 301.351 174.42 270.173 157.08C269.266 156.513 268.415 157.987 269.322 158.553Z" fill="#E8E8E8"/>
<path d="M586.942 396.213C581.954 395.193 573.791 392.643 573.394 386.467C573.167 382.67 576.342 379.893 579.686 378.873C583.711 377.57 587.963 378.76 591.874 379.893C599.017 381.99 606.216 383.69 613.699 383.973C620.671 384.257 627.587 383.237 634.333 381.423C641.589 379.497 648.675 376.89 655.874 374.85C663.47 372.697 671.237 371.563 679.173 371.45C694.308 371.223 709.274 373.943 724.353 374.567C731.892 374.85 739.318 374.453 746.744 373.32C754.794 372.073 763.014 370.203 771.233 371.167C777.129 371.847 786.596 375.813 784.668 383.407C782.968 390.037 773.558 393.777 767.775 395.647C738.751 405.053 708.82 389.413 679.4 393.55C662.45 395.93 646.464 403.07 629.344 404.43C621.522 405.053 613.472 404.543 606.046 401.767C599.243 399.16 593.121 393.493 585.355 394.853C584.278 395.023 584.731 396.667 585.809 396.497C590.457 395.703 594.538 397.913 598.45 400.067C601.624 401.767 604.799 403.353 608.257 404.373C615.343 406.527 622.939 406.81 630.308 406.13C646.521 404.6 661.77 398.197 677.812 395.59C695.499 392.757 712.902 396.837 730.362 399.16C744.59 401.03 759.839 401.483 773.217 395.533C778.319 393.267 785.122 389.64 786.426 383.633C787.616 378.25 783.478 373.943 778.999 371.733C772.367 368.503 764.374 369.127 757.345 370.09C748.785 371.223 740.452 373.037 731.779 373.15C714.886 373.433 698.22 369.977 681.384 369.92C673.334 369.92 665.341 370.827 657.518 372.867C649.752 374.907 642.213 377.74 634.503 379.837C624.98 382.387 615.399 383.18 605.649 381.65C600.774 380.857 596.182 379.497 591.477 378.137C587.963 377.117 584.165 376.267 580.48 377.06C574.981 378.25 569.993 383.463 572.43 389.3C574.641 394.627 581.387 396.95 586.602 398.027C587.509 398.083 587.963 396.44 586.942 396.213Z" fill="#E8E8E8"/>
<path d="M332.585 619.99C353.787 614.89 374.534 607.92 394.545 599.25C404.919 594.717 415.066 589.56 426.12 586.84C436.72 584.177 447.718 583.383 458.658 583.667C471.3 583.95 483.828 585.65 496.299 587.633C497.376 587.803 497.83 586.16 496.752 585.99C475.495 582.647 453.613 579.927 432.242 583.78C421.245 585.763 411.154 589.957 401.064 594.547C390.463 599.363 379.749 603.727 368.752 607.58C356.734 611.773 344.547 615.4 332.132 618.347C331.055 618.573 331.508 620.217 332.585 619.99Z" fill="#161616"/>
<path d="M466.538 584.29C476.062 584.063 485.472 582.703 494.655 580.04C504.009 577.377 513.249 573.637 523.169 574.6C528.214 575.053 533.146 576.47 538.021 577.717C543.123 579.02 548.168 580.323 553.27 581.627C563.077 584.12 572.827 586.613 582.634 589.107C583.711 589.39 584.165 587.747 583.088 587.463C572.941 584.857 562.794 582.307 552.646 579.7C543.35 577.32 533.826 574.147 524.303 573.013C514.949 571.937 506.106 574.827 497.263 577.547C487.229 580.607 477.025 582.363 466.595 582.647C465.461 582.59 465.461 584.29 466.538 584.29Z" fill="#161616"/>
<path d="M565.798 593.073C588.076 588.143 611.488 583.893 634.106 589.107C645.33 591.713 655.874 596.7 666.361 601.29C677.359 606.163 688.413 610.98 699.41 615.853C700.431 616.307 701.281 614.833 700.261 614.38C683.028 606.787 665.965 598.57 648.391 591.827C631.385 585.31 613.699 584.007 595.672 586.047C585.468 587.237 575.321 589.22 565.288 591.487C564.267 591.657 564.721 593.3 565.798 593.073Z" fill="#161616"/>
<path d="M364.387 639.653C370.226 638.633 376.122 637.613 381.96 636.593C387.799 635.573 393.695 634.27 399.59 633.647C405.032 633.08 410.588 634.043 415.973 634.553C421.925 635.177 427.934 635.743 433.886 636.367C434.963 636.48 434.963 634.78 433.886 634.667C427.934 634.043 421.925 633.477 415.973 632.853C410.191 632.287 404.352 631.323 398.513 632.06C386.949 633.477 375.441 636.027 363.934 638.01C362.857 638.237 363.31 639.88 364.387 639.653Z" fill="#161616"/>
<path d="M207.816 384.087C211.699 384.087 214.846 380.941 214.846 377.06C214.846 373.179 211.699 370.033 207.816 370.033C203.934 370.033 200.787 373.179 200.787 377.06C200.787 380.941 203.934 384.087 207.816 384.087Z" fill="#EC615B"/>
<path d="M226.807 399.5C228.842 399.5 230.491 397.851 230.491 395.817C230.491 393.782 228.842 392.133 226.807 392.133C224.772 392.133 223.122 393.782 223.122 395.817C223.122 397.851 224.772 399.5 226.807 399.5Z" fill="#EC615B"/>
<path d="M622.145 39.7233C626.935 39.7233 630.819 35.8416 630.819 31.0533C630.819 26.265 626.935 22.3833 622.145 22.3833C617.355 22.3833 613.472 26.265 613.472 31.0533C613.472 35.8416 617.355 39.7233 622.145 39.7233Z" fill="#EC615B"/>
<path d="M642.326 49.5266C645.05 49.5266 647.258 47.3194 647.258 44.5966C647.258 41.8739 645.05 39.6666 642.326 39.6666C639.602 39.6666 637.394 41.8739 637.394 44.5966C637.394 47.3194 639.602 49.5266 642.326 49.5266Z" fill="#EC615B"/>
<path d="M639.038 47.4867C643.578 47.4867 647.258 43.808 647.258 39.27C647.258 34.7321 643.578 31.0533 639.038 31.0533C634.498 31.0533 630.818 34.7321 630.818 39.27C630.818 43.808 634.498 47.4867 639.038 47.4867Z" fill="#5222D0"/>
<path d="M619.368 470.333C625.504 470.333 630.478 465.361 630.478 459.227C630.478 453.093 625.504 448.12 619.368 448.12C613.231 448.12 608.257 453.093 608.257 459.227C608.257 465.361 613.231 470.333 619.368 470.333Z" fill="#5222D0"/>
<path d="M215.979 45.22C219.893 45.22 223.065 42.0487 223.065 38.1367C223.065 34.2247 219.893 31.0533 215.979 31.0533C212.066 31.0533 208.894 34.2247 208.894 38.1367C208.894 42.0487 212.066 45.22 215.979 45.22Z" fill="#5222D0"/>
<path d="M328.107 529.607C332.897 529.607 336.78 525.725 336.78 520.937C336.78 516.148 332.897 512.267 328.107 512.267C323.317 512.267 319.434 516.148 319.434 520.937C319.434 525.725 323.317 529.607 328.107 529.607Z" fill="#5222D0"/>
<path d="M390.69 366.52C389.5 366.01 390.86 363.913 391.484 363.63C392.221 363.29 393.695 363.743 394.488 363.97C395.735 364.367 396.812 365.047 398.06 365.387C399.42 365.783 401.064 365.897 402.368 365.273C406.903 362.95 401.517 355.13 408.15 355.13C411.778 355.13 414.839 360.513 417.843 356.49C418.921 355.073 419.374 353.26 419.941 351.56C420.394 350.087 420.791 348.557 421.812 347.367C423.002 346.007 426.63 344.647 427.027 347.593C427.14 348.67 428.898 348.67 428.727 347.593C428.444 345.553 426.97 344.193 424.873 344.08C422.378 343.91 420.564 345.78 419.544 347.82C418.807 349.237 418.467 350.823 417.957 352.353C417.617 353.43 417.163 355.3 416.2 355.98C415.179 356.66 414.386 355.923 413.535 355.413C411.324 353.94 408.66 352.807 405.996 353.77C403.558 354.677 402.595 356.773 402.708 359.267C402.708 360.003 402.935 360.91 402.878 361.647C402.481 364.253 400.724 364.367 398.91 363.97C397.096 363.573 395.565 362.44 393.695 362.1C391.711 361.703 389.726 362.213 388.819 364.197C388.083 365.897 388.536 367.597 390.237 368.277C391.257 368.56 391.711 366.917 390.69 366.52Z" fill="#5222D0"/>
<path d="M419.941 369.24C419.091 367.937 419.091 366.293 419.998 364.99C421.302 363.12 423.116 363.403 425.1 363.687C426.574 363.913 428.388 364.197 429.465 362.893C430.202 362.043 430.088 361.023 430.372 360.06C430.768 358.643 431.675 357.397 432.866 356.547C435.36 354.733 438.875 354.45 441.369 356.377C441.993 356.83 442.73 356.547 442.843 355.753C443.523 350.257 448.965 346.177 454.407 347.14C455.484 347.31 455.938 345.667 454.861 345.497C448.228 344.363 441.936 349.123 441.142 355.753C441.652 355.527 442.106 355.357 442.616 355.13C440.292 353.317 437.344 352.863 434.566 353.827C431.392 354.903 429.918 357 428.728 359.947C428.161 361.42 427.481 362.327 425.837 362.1C424.93 361.987 424.079 361.76 423.172 361.703C421.868 361.647 420.735 361.987 419.714 362.837C417.56 364.65 416.993 367.767 418.524 370.147C419.091 371.053 420.565 370.203 419.941 369.24Z" fill="#5222D0"/>
<path d="M448.625 59.1033C447.661 58.1966 447.945 57.63 449.419 57.3466C450.042 56.4966 450.722 56.3266 451.459 56.8933C452.48 57.12 453.16 58.0266 453.897 58.7066C454.804 59.5 455.598 60.4066 456.618 61.03C458.035 61.8233 459.792 62.1633 461.266 61.4266C463.08 60.52 463.137 58.7066 463.76 57.0066C465.461 52.4733 471.243 52.02 473.964 55.8733C474.304 56.3266 475.155 56.4966 475.438 55.8733C476.515 53.3233 477.876 50.4333 480.313 48.9033C482.751 47.3733 486.832 47.5433 487.909 50.7166C488.25 51.7366 489.893 51.2833 489.553 50.2633C488.476 47.2033 485.358 45.8433 482.241 46.3533C477.932 47.09 475.551 51.3966 473.964 55.0233C474.474 55.0233 474.928 55.0233 475.438 55.0233C473.454 52.19 470.053 50.66 466.652 51.9066C465.234 52.4166 463.931 53.4366 463.08 54.74C462.627 55.42 462.343 56.1566 462.06 56.95C461.89 57.46 461.89 58.0833 461.606 58.5366C460.869 59.7833 458.829 60.2933 457.525 59.5566C454.747 58.0266 452.026 53.1533 448.171 55.1366C446.017 56.2133 445.734 59.2733 447.775 60.5766C448.738 61.1433 449.589 59.67 448.625 59.1033Z" fill="#EC615B"/>
<path d="M485.018 58.65C484.621 52.9833 491.877 54.8533 494.768 56.27C496.242 57.0067 498.056 58.3667 499.644 57.12C500.154 56.7233 500.38 56.1567 500.607 55.59C501.458 53.72 502.024 52.36 504.292 51.68C507.807 50.66 511.208 52.87 514.042 54.6833C514.949 55.25 515.799 53.7767 514.892 53.21C511.888 51.34 508.487 49.2433 504.802 49.8667C503.612 50.0367 502.421 50.49 501.458 51.2267C499.984 52.3033 499.7 54.1733 498.226 55.08C496.809 55.93 496.242 55.08 494.825 54.4C494.088 54.06 493.351 53.72 492.558 53.4367C491.084 52.9267 489.496 52.7 487.966 53.04C485.302 53.6633 483.147 55.8167 483.318 58.65C483.374 59.7267 485.075 59.7267 485.018 58.65Z" fill="#EC615B"/>
<path d="M649.072 293.363C645.331 285.147 659.503 281.52 660.466 290.133C660.806 293.023 659.219 296.083 656.271 296.877C652.983 297.727 649.469 295.517 648.562 292.343C648.278 291.267 646.634 291.72 646.918 292.797C648.052 296.877 652.53 299.597 656.725 298.52C660.863 297.443 662.904 292.853 661.94 288.887C660.92 284.693 656.555 282.653 652.53 283.73C647.825 284.977 645.614 289.907 647.598 294.327C648.052 295.233 649.526 294.327 649.072 293.363Z" fill="#EC615B"/>
<path d="M659.616 299.88C656.555 299.597 655.421 295.517 657.518 293.477C659.276 291.72 662.28 291.833 664.151 293.307C666.078 294.837 667.949 299.313 665.795 301.467C662.96 304.3 659.503 299.71 658.142 297.67C657.518 296.763 656.045 297.613 656.668 298.52C658.652 301.58 663.187 306.397 666.985 302.657C669.99 299.71 667.836 293.76 664.888 291.663C661.883 289.51 656.952 290.247 655.251 293.76C653.55 297.16 656.045 301.24 659.673 301.58C660.693 301.693 660.693 299.993 659.616 299.88Z" fill="#EC615B"/>
<path d="M184.291 216.977C186.672 219.81 190.923 223.607 194.665 220.49C195.572 219.697 196.082 218.563 197.046 217.77C198.463 216.693 200.334 216.467 201.978 216.977C205.549 217.94 207.646 221.34 209.517 224.23C209.857 224.74 210.707 224.853 210.991 224.23C213.428 218.903 219.947 217.6 225.049 219.64C226.07 220.037 226.523 218.393 225.503 217.997C219.777 215.673 212.238 217.373 209.517 223.323C210.027 223.323 210.481 223.323 210.991 223.323C208.44 219.357 205.209 214.823 199.88 214.993C198.009 215.05 196.309 215.843 195.062 217.203C193.588 218.903 192.341 220.263 189.903 219.527C188.032 218.96 186.672 217.203 185.425 215.73C184.801 214.937 183.611 216.127 184.291 216.977Z" fill="#EC615B"/>
<path d="M286.385 276.25C285.648 274.777 284.798 273.247 284.118 271.717C283.381 270.13 283.721 269.507 284.685 268.147C285.932 266.39 287.859 264.803 290.07 265.993C291.657 266.843 292.677 268.77 293.131 270.413C293.925 273.19 293.244 277.157 290.013 278.063C287.349 278.8 283.891 277.157 284.004 274.097C284.004 273.02 282.304 273.02 282.304 274.097C282.19 277.893 285.988 280.273 289.503 279.877C293.811 279.367 295.625 274.833 295.002 270.98C294.378 267.24 290.92 262.48 286.612 264.237C284.514 265.087 282.927 267.297 281.964 269.28C281.397 270.47 281.51 270.527 282.077 271.717C282.984 273.53 283.891 275.343 284.798 277.1C285.421 278.063 286.895 277.213 286.385 276.25Z" fill="#5222D0"/>
<path d="M292.678 287.357C290.523 284.807 286.839 279.82 290.013 276.647C292.281 274.38 296.362 275.23 298.233 277.497C300.16 279.82 300.557 284.353 297.553 286.053C295.002 287.527 291.317 286.11 290.864 283.163C290.693 282.087 289.05 282.54 289.22 283.617C289.9 287.47 294.605 289.283 298.006 287.753C302.144 285.827 302.314 280.103 299.877 276.76C297.553 273.53 292.451 272.397 289.276 275.06C284.685 278.857 288.653 285.09 291.544 288.49C292.167 289.397 293.358 288.207 292.678 287.357Z" fill="#EC615B"/>
<path d="M627.871 172.663C627.928 167.677 634.787 169.15 637.735 169.49C640.286 169.773 642.61 169.433 644.877 168.187C647.371 166.883 649.412 164.843 651.85 163.427C653.437 162.463 655.364 161.613 657.235 161.613C659.219 161.67 660.466 162.86 662.224 163.597C666.305 165.24 668.913 161.443 671.464 158.95C676.509 154.02 683.708 156.06 689.604 158.1C690.624 158.44 691.078 156.797 690.057 156.457C684.785 154.643 678.096 152.66 672.881 155.663C670.387 157.08 668.913 159.687 666.645 161.33C663.414 163.653 660.693 159.97 657.292 159.913C649.979 159.8 646.124 168.243 638.755 167.847C635.58 167.677 632.519 166.487 629.458 167.903C627.474 168.81 626.227 170.397 626.17 172.607C626.114 173.74 627.814 173.74 627.871 172.663Z" fill="#5222D0"/>
<path d="M670.273 170.737C673.901 165.58 680.704 163.087 686.826 164.843C689.49 165.637 691.984 167.79 694.932 167.62C697.37 167.45 698.674 165.467 700.317 163.937C702.982 161.5 706.44 159.517 710.181 159.63C712.449 159.687 714.206 160.537 715.963 162.01C716.53 162.52 716.984 162.973 717.777 163.2C718.911 163.483 719.931 162.973 720.952 162.52C722.709 161.727 724.523 161.047 726.394 160.537C730.248 159.573 734.16 159.403 738.071 159.913C739.148 160.027 739.148 158.327 738.071 158.213C734.33 157.703 730.589 157.817 726.904 158.667C725.26 159.063 723.616 159.573 722.029 160.197C720.782 160.707 720.158 161.047 718.741 161.047C717.21 161.047 717.324 160.82 716.303 160.027C711.485 156.343 705.023 158.043 700.658 161.5C699.467 162.407 698.503 163.653 697.37 164.56C694.649 166.713 692.495 165.353 689.717 164.107C687.336 163.03 684.842 162.52 682.234 162.633C676.849 162.86 671.974 165.523 668.913 169.887C668.176 170.793 669.65 171.643 670.273 170.737Z" fill="#5222D0"/>
<path d="M546.978 550.8C548.055 557.6 549.132 564.457 550.152 571.257C527.76 578.51 516.763 583.1 517.217 585.027C517.783 587.407 535.697 585.65 570.956 579.927C568.916 569.16 566.932 558.393 564.891 547.627C558.882 548.647 552.93 549.723 546.978 550.8Z" fill="black"/>
<path d="M498.793 323.113C498.396 330.82 497.829 341.813 497.319 355.13C496.809 369.24 496.526 376.607 496.582 385.673C496.582 389.583 496.752 405.507 498.793 426.02C500.494 443.303 503.158 469.143 512.625 500.933C516.366 513.513 522.148 530.4 531.162 549.667C535.3 550.29 540.175 550.63 545.73 550.403C556.161 549.893 564.607 547.343 570.446 544.963C568.746 539.41 566.365 531.533 563.87 522.07C560.526 509.263 550.889 470.673 547.148 418.823C545.277 392.757 544.597 360.23 547.885 322.83C531.559 322.887 515.176 323 498.793 323.113Z" fill="white"/>
<path opacity="0.09" d="M546.467 327.477C545.39 331.557 543.973 337.45 542.442 344.59C538.474 363.46 534.393 390.377 534.789 435.88C535.016 463.873 537 502.577 544.256 549.327C547.091 549.043 549.982 548.703 552.986 548.25C559.278 547.287 565.117 546.04 570.446 544.623C568.065 536.917 564.777 525.47 561.376 511.53C549.301 461.833 545.9 419.673 544.993 391.85C544.483 375.303 544.483 353.373 546.467 327.477Z" fill="#606060"/>
<path d="M546.637 324.587C540.969 381.933 544.483 440.13 557.011 496.4C560.582 512.38 564.834 528.133 569.822 543.717C570.163 544.737 571.807 544.283 571.466 543.263C554.007 488.467 545.277 431.007 545.73 373.49C545.844 357.17 546.751 340.793 548.338 324.53C548.451 323.51 546.751 323.51 546.637 324.587Z" fill="#161616"/>
<path d="M496.469 375.417C494.371 421.883 500.89 468.633 515.516 512.777C519.597 525.13 524.359 537.257 529.744 549.1C530.198 550.12 531.672 549.213 531.218 548.25C512.228 506.033 501.061 460.417 498.396 414.233C497.659 401.313 497.603 388.393 498.169 375.417C498.226 374.283 496.525 374.34 496.469 375.417Z" fill="#161616"/>
<path d="M530.425 549.61C532.352 551.763 536.774 551.253 539.381 551.31C543.349 551.367 547.374 550.97 551.286 550.403C555.537 549.78 559.789 548.873 563.984 547.853C566.081 547.343 570.446 547.23 571.523 544.907C571.977 543.943 570.503 543.037 570.049 544.057C569.539 545.247 566.705 545.473 565.628 545.7C564.04 546.097 562.51 546.437 560.922 546.833C557.918 547.513 554.97 548.137 551.966 548.59C548.848 549.1 545.73 549.44 542.612 549.553C540.232 549.667 533.429 550.403 531.672 548.42C530.878 547.57 529.688 548.817 530.425 549.61Z" fill="#161616"/>
<path d="M482.07 322.773C480.426 326.343 478.216 333.143 476.628 339.15C474.644 346.8 474.134 351.39 473 358.077C470.903 370.43 469.486 372.527 466.425 386.07C463.193 400.577 461.72 411.74 460.586 420.637C459.679 427.55 458.035 441.66 457.298 459.907C456.958 467.783 456.788 472.43 456.958 478.833C457.411 498.95 460.643 514.533 462.06 520.653C465.858 537.483 471.413 551.877 476.969 563.55C479.519 564.853 483.374 566.497 488.249 567.573C494.258 568.877 501.968 570.577 509.337 566.837C511.378 565.817 516.026 562.983 519.541 556.297C516.82 548.873 513.475 538.333 510.811 525.413C504.235 493.34 506.616 467.953 508.26 451.973C511.321 421.77 518.35 399.103 530.425 360.003C534.506 346.857 538.134 336.203 540.629 329.12C541.479 323.51 543.463 306.68 534.45 299.653C521.241 289.227 490.46 304.697 482.07 322.773Z" fill="white"/>
<path opacity="0.08" d="M532.636 352.92C528.951 358.757 523.849 367.427 518.804 378.363C512.568 391.85 503.385 415.537 498.453 462.74C495.732 488.523 493.918 524.62 498.113 568.197C499.87 568.367 507.353 568.99 513.759 563.833C517.047 561.17 518.747 558.11 519.598 556.183C516.82 548.533 513.249 537.313 510.528 523.43C502.478 482.97 507.523 450.443 511.264 427.777C514.326 408.85 520.278 382.727 532.636 352.92Z" fill="#606060"/>
<path d="M490.97 567.46C492.898 574.373 494.825 581.343 496.752 588.257C466.368 597.493 451.459 603.273 451.969 605.54C452.536 608.147 473.227 606.22 514.042 599.76C512.965 588.653 511.888 577.603 510.868 566.497C504.178 566.78 497.546 567.12 490.97 567.46Z" fill="black"/>
<path d="M481.447 323.453C475.438 338.64 472.377 354.733 469.146 370.713C465.744 387.43 462.457 404.147 460.076 421.033C455.654 452.313 454.294 484.33 460.359 515.497C463.59 532.27 469.032 548.59 477.025 563.663C477.535 564.627 479.009 563.777 478.499 562.813C448.171 505.183 457.355 437.75 469.713 376.607C473.284 358.87 476.458 340.793 483.148 323.907C483.488 322.887 481.844 322.433 481.447 323.453Z" fill="#161616"/>
<path d="M531.899 352.807C512.908 403.41 500.21 457.81 507.58 512.04C509.621 527 513.192 541.677 518.407 555.843C518.804 556.863 520.448 556.41 520.051 555.39C501.174 504.447 505.029 448.573 519.201 396.95C523.282 382.16 528.157 367.597 533.543 353.203C533.939 352.183 532.296 351.787 531.899 352.807Z" fill="#161616"/>
<path d="M477.195 563.607C485.188 568.027 494.371 569.897 503.441 568.707C510.868 567.687 519.484 564.287 520.221 555.73C520.334 554.653 518.634 554.653 518.52 555.73C517.727 564.627 506.956 567.007 499.643 567.347C492.104 567.687 484.678 565.817 478.102 562.133C477.082 561.623 476.231 563.097 477.195 563.607Z" fill="#161616"/>
<path d="M493.748 175.1C492.218 176.913 490.063 179.69 488.023 183.373C481.05 195.613 480.597 207.627 480.483 218.167C480.37 233.523 480.256 241.23 481.9 257.947C483.431 273.587 483.828 296.027 478.329 324.643C483.261 328.27 490.46 332.463 499.87 334.673C526.967 341.02 549.415 325.21 553.667 322.15C548.281 290.587 545.334 265.313 543.633 247.577C542.556 236.357 538.588 220.037 530.708 187.34C528.327 177.367 525.89 167.847 518.521 165.127C508.317 161.273 495.789 173.117 493.748 175.1Z" fill="#EC615B"/>
<path opacity="0.1" d="M518.237 165.92C519.144 169.603 520.448 175.157 521.752 182.013C523.453 190.853 525.72 204.227 527.307 224.117C528.951 244.63 530.822 283.107 531.389 332.86C535.244 331.727 539.892 330.027 544.824 327.307C548.112 325.493 550.946 323.567 553.327 321.753C552.93 317.39 552.193 310.76 551.003 302.77C549.472 292.74 547.942 285.77 547.205 282.313C545.391 273.36 543.35 259.987 543.123 241.4C540.799 231.54 539.042 223.607 537.851 218.337C534.563 203.377 533.6 197.88 531.105 188.813C528.611 179.69 526.003 172.437 524.36 168.073C522.319 167.28 520.278 166.6 518.237 165.92Z" fill="#606060"/>
<path d="M493.691 180.54C494.202 181.56 495.052 181.9 496.923 182.807C498.51 183.6 500.04 184.563 501.628 185.243C506.503 187.34 512.228 196.633 513.135 198.107C516.593 203.717 520.618 210.29 522.942 219.81C523.566 222.303 524.983 228.763 523.339 250.58C521.582 272.963 519.314 276.08 521.071 287.243C522.375 295.347 524.019 305.037 532.012 310.307C539.438 315.18 547.998 313.48 549.755 313.14C560.526 311.043 566.648 302.713 572.6 294.61C581.67 282.313 585.128 270.017 586.602 262.877C587.282 259.533 587.169 249.73 586.999 230.18C586.772 210.007 586.432 203.037 581.16 197.143C577.589 193.177 573.224 191.307 570.22 190.343C570.446 189.097 570.503 187.227 569.483 185.64C567.555 182.693 562.964 182.75 560.016 182.807C547.374 183.147 537.964 191.647 537.511 192.043C529.631 199.353 527.307 208.307 526.57 212.047C524.983 205.02 522.375 199.637 520.335 196.18C518.577 193.177 515.97 190.117 510.698 183.883C506.559 179.01 504.575 177.14 501.458 176.12C500.777 175.893 495.619 174.363 493.918 176.687C493.125 177.763 493.125 179.407 493.691 180.54Z" fill="white"/>
<path opacity="0.11" d="M493.295 178.443C493.635 177.82 497.433 179.237 497.83 179.407C503.442 181.56 508.43 186.037 514.836 196.407C518.124 201.733 522.262 209.27 525.776 219.073C528.271 216.523 530.368 214.427 532.012 212.84C532.012 212.84 538.078 207.003 547.885 201.337C548.848 200.77 550.039 200.09 550.889 200.6C552.646 201.563 550.776 206.267 551.286 210.63C551.683 213.917 553.61 218.45 560.923 223.493C561.093 224.457 561.149 225.817 560.356 226.723C558.769 228.48 554.687 227.063 552.59 226.327C549.188 225.137 542.613 222.02 534.846 212.897C534.11 215.843 533.146 220.037 532.409 225.193C531.729 229.67 529.858 244.573 532.976 263.727C534.223 271.32 536.547 281.463 541.309 293.023C543.406 293.93 546.071 294.78 549.245 295.29C555.878 296.31 561.376 295.007 564.551 293.987C562.68 294.893 560.129 296.423 557.918 299.087C555.254 302.317 555.197 304.753 552.986 307.757C551.513 309.797 548.848 312.347 543.916 314.16C542.386 313.99 540.062 313.593 537.511 312.46C529.745 309.003 526.23 301.693 524.643 298.293C522.545 293.703 519.314 284.41 522.375 252.96C524.133 234.997 526.06 229.387 523.112 219.13C520.845 211.253 516.933 204.737 515.573 202.527C513.135 198.56 508.77 191.477 500.834 184.96C497.093 181.787 492.954 179.18 493.295 178.443Z" fill="#606060"/>
<path d="M556.501 191.137C555.481 192.497 554.177 194.48 553.157 197.087C552.59 198.617 551.229 202.187 551.569 206.72C552.193 215.73 558.655 221.227 559.846 222.19C560.639 222.813 561.32 223.323 561.773 223.607C561.093 225.93 560.299 229.387 560.016 233.637C559.562 239.643 559.109 246.387 562.624 248.37C564.891 249.617 568.292 248.767 570.163 246.953C570.616 246.5 571.92 245.083 572.26 238.68C572.657 231.087 571.07 227.913 573.337 225.703C574.301 224.683 575.945 224.06 577.362 223.437C578.95 222.757 580.367 222.417 581.387 222.19C580.764 226.837 580.31 230.973 579.97 234.317C579.573 238.453 579.403 240.55 580.82 241.853C582.124 243.043 584.278 243.27 585.922 242.533C588.076 241.57 588.756 238.907 589.947 233.58C590.911 229.387 591.704 225.873 591.194 221.113C590.911 218.677 590.4 216.693 589.947 215.333C589.833 214.37 589.55 212.953 589.097 211.31C588.133 208.023 587.226 207.06 586.659 204.963C585.809 201.96 586.772 200.487 586.999 197.087C587.226 194.423 586.999 190.627 585.072 185.867C584.335 185.923 582.804 186.037 581.217 187.113C579.29 188.36 578.496 190.173 578.213 190.797C576.739 190.457 574.074 190.117 571.013 190.967C565.741 192.383 562.964 196.293 562.227 197.483C563.701 194.253 562.453 191.08 560.469 190.287C558.769 189.55 556.728 191.023 556.501 191.137Z" fill="black"/>
<path d="M562.907 208.703C563.474 207.627 566.308 205.247 567.272 207.23C567.725 208.193 569.199 207.343 568.746 206.38C568.122 205.077 566.591 204.68 565.231 204.963C563.587 205.247 562.227 206.38 561.433 207.853C560.923 208.817 562.397 209.667 562.907 208.703Z" fill="white"/>
<path d="M579.516 204.34C579.856 203.603 580.196 202.753 580.763 202.187C581.33 201.62 583.031 200.997 583.087 202.3C583.144 203.377 584.845 203.377 584.788 202.3C584.675 200.657 583.257 199.58 581.613 199.807C579.743 200.147 578.779 201.847 578.042 203.433C577.589 204.453 579.063 205.36 579.516 204.34Z" fill="white"/>
<path d="M579.97 209.723C579.97 209.78 579.97 209.837 579.97 209.893C579.856 210.007 579.743 210.12 579.686 210.177C579.403 210.347 578.949 210.177 579.006 209.837C579.006 209.837 579.006 209.667 579.063 209.723L578.893 209.893C579.29 209.893 579.686 209.893 580.083 209.893C580.026 209.837 580.026 209.837 579.97 209.78C580.026 209.837 580.027 209.837 580.027 209.837C579.97 209.78 580.027 209.78 580.027 209.893C580.083 210.233 579.913 210.46 579.46 210.63C579.29 210.573 579.176 210.573 579.006 210.517C578.779 210.403 578.836 210.063 578.893 209.893C578.949 209.837 578.893 209.837 578.836 209.95C578.893 209.893 578.893 209.893 578.836 209.95C578.439 210.233 578.269 210.687 578.553 211.14C578.779 211.48 579.346 211.707 579.743 211.423C580.14 211.14 580.537 210.743 580.593 210.177C580.593 209.553 580.14 208.987 579.516 208.987C578.893 208.987 578.439 209.383 578.383 210.007C578.326 210.46 578.609 210.857 578.893 211.14C579.233 211.48 579.743 211.423 580.083 211.14C580.82 210.573 580.99 209.383 580.14 208.817C579.743 208.59 579.233 208.533 578.836 208.76C578.326 209.043 578.269 209.723 578.383 210.233C578.439 210.687 579.006 210.913 579.403 210.8C579.856 210.63 580.026 210.177 579.97 209.723Z" fill="white"/>
<path d="M570.9 211.48C569.256 212.443 567.045 211.99 565.968 210.403C565.344 209.497 563.87 210.347 564.494 211.253C566.138 213.577 569.256 214.37 571.807 212.953C572.714 212.387 571.863 210.913 570.9 211.48Z" fill="white"/>
<path d="M569.653 215.163C568.406 216.127 567.329 217.373 566.592 218.79C566.081 219.753 567.555 220.603 568.065 219.64C568.746 218.337 569.709 217.26 570.9 216.353C571.24 216.07 571.183 215.447 570.9 215.163C570.503 214.823 569.993 214.88 569.653 215.163Z" fill="white"/>
<path d="M583.428 208.93C584.561 207.627 585.412 206.153 585.979 204.51C586.319 203.49 584.675 203.037 584.335 204.057C583.881 205.417 583.144 206.663 582.237 207.74C581.557 208.59 582.747 209.78 583.428 208.93Z" fill="white"/>
<path d="M583.541 211.083C584.901 210.8 586.489 210.46 587.566 211.593C588.303 212.387 589.493 211.197 588.756 210.403C587.226 208.76 585.015 209.043 583.031 209.497C582.01 209.667 582.464 211.31 583.541 211.083Z" fill="white"/>
<path d="M493.011 179.237C495.619 175.157 501.798 177.593 504.915 179.633C508.657 182.013 511.491 185.583 514.042 189.153C519.201 196.35 523.792 204.17 525.493 212.953C525.72 214.03 527.364 213.577 527.137 212.5C525.153 202.017 519.031 191.93 512.115 183.883C508.09 179.237 496.696 170.453 491.537 178.443C490.97 179.293 492.444 180.2 493.011 179.237Z" fill="#161616"/>
<path d="M496.525 183.09C510.13 190.74 517.783 205.077 521.638 219.697C521.921 220.773 523.565 220.32 523.282 219.243C519.314 204.227 511.321 189.437 497.376 181.617C496.412 181.05 495.562 182.523 496.525 183.09Z" fill="#161616"/>
<path d="M527.137 212.217C528.554 202.187 534.96 193.8 543.746 188.983C548.281 186.49 553.327 184.96 558.485 184.223C560.923 183.883 563.757 183.543 566.138 184.45C568.746 185.413 571.24 189.55 567.952 191.42C566.988 191.93 567.839 193.403 568.802 192.893C572.43 190.853 571.523 185.64 568.349 183.657C563.417 180.54 555.254 182.75 550.209 184.45C537.738 188.473 527.42 198.56 525.55 211.877C525.323 212.84 526.967 213.293 527.137 212.217Z" fill="#161616"/>
<path d="M530.935 214.767C533.713 211.537 537.227 208.817 540.629 206.267C543.916 203.773 547.431 201.733 551.513 200.827C552.59 200.6 552.136 198.957 551.059 199.183C546.864 200.147 543.18 202.243 539.778 204.793C536.264 207.457 532.636 210.233 529.745 213.577C529.008 214.37 530.198 215.617 530.935 214.767Z" fill="#161616"/>
<path d="M551.739 200.997C552.93 198.277 554.46 195.67 556.331 193.347C556.671 192.95 557.068 192.27 557.521 191.987C557.918 191.25 558.428 191.193 559.165 191.873C560.072 191.873 560.469 192.213 560.469 193.007C561.093 194.197 561.149 196.237 561.376 197.597C561.603 198.673 563.247 198.22 563.02 197.143C562.567 194.99 562 187.283 557.918 189.38C556.331 190.173 555.14 192.157 554.12 193.517C552.589 195.613 551.342 197.823 550.265 200.147C549.812 201.11 551.286 202.017 551.739 200.997Z" fill="#161616"/>
<path d="M562.68 198.107C565.571 194.367 571.467 189.21 576.512 191.987C577.475 192.497 578.326 191.023 577.362 190.513C571.523 187.397 564.948 192.497 561.433 196.917C560.809 197.767 562 198.957 562.68 198.107Z" fill="#161616"/>
<path d="M578.156 191.703C578.949 190.457 582.634 185.98 584.221 187.17C585.071 187.793 585.241 190.003 585.468 191.023C585.808 192.61 585.922 194.197 585.978 195.84C586.035 196.917 587.736 196.917 587.679 195.84C587.622 193.573 587.339 191.363 586.772 189.153C586.432 187.907 586.148 185.527 584.675 185.13C583.314 184.79 581.443 186.093 580.423 186.83C578.892 187.907 577.702 189.267 576.738 190.853C576.115 191.76 577.589 192.61 578.156 191.703Z" fill="#161616"/>
<path d="M533.146 211.99C537.057 215.787 541.195 219.3 545.617 222.473C549.982 225.59 554.234 227.8 559.732 227.517C560.809 227.46 560.809 225.76 559.732 225.817C554.12 226.1 549.982 223.607 545.617 220.433C541.592 217.487 537.851 214.257 534.279 210.8C533.543 210.063 532.352 211.253 533.146 211.99Z" fill="#161616"/>
<path d="M521.695 217.827C527.874 245.253 511.775 275.23 525.096 301.467C527.591 306.397 531.389 310.873 536.604 313.083C541.706 315.237 547.601 315.067 552.873 313.367C564.551 309.627 572.09 298.803 577.872 288.603C581.557 282.2 584.618 275.343 586.432 268.147C587.339 264.577 587.906 260.837 588.076 257.153C588.246 252.903 587.679 248.653 587.849 244.403C587.906 243.327 586.205 243.327 586.149 244.403C585.922 251.317 586.829 257.89 585.468 264.747C584.278 270.867 582.067 276.817 579.29 282.37C574.131 292.797 567.158 304.527 556.444 310.023C550.889 312.857 544.03 313.933 538.078 311.723C532.239 309.57 528.384 304.413 525.89 298.917C520.561 286.96 521.185 273.36 522.602 260.667C524.189 246.273 526.684 231.71 523.452 217.317C523.056 216.353 521.412 216.75 521.695 217.827Z" fill="#161616"/>
<path d="M546.921 274.55C543.746 280.103 541.649 286.11 540.742 292.457C540.572 293.533 542.216 293.987 542.386 292.91C543.293 286.677 545.277 280.84 548.395 275.4C548.961 274.493 547.488 273.643 546.921 274.55Z" fill="#161616"/>
<path d="M547.998 275.173C556.387 274.437 565.231 272.85 573.62 273.757C574.698 273.87 574.698 272.17 573.62 272.057C565.231 271.093 556.387 272.737 547.998 273.473C546.921 273.587 546.921 275.287 547.998 275.173Z" fill="#161616"/>
<path d="M541.592 293.987C545.731 296.423 550.549 296.197 555.197 296.083C560.072 295.913 564.948 295.347 569.199 292.797C570.163 292.23 569.256 290.757 568.349 291.323C564.324 293.76 559.789 294.213 555.197 294.383C550.889 294.553 546.354 294.837 542.443 292.57C541.536 292.003 540.685 293.477 541.592 293.987Z" fill="#161616"/>
<path d="M572.827 273.36C571.75 279.593 570.106 285.6 567.895 291.493C567.498 292.513 569.142 292.967 569.539 291.947C571.807 286.053 573.451 279.99 574.471 273.813C574.641 272.737 572.997 272.283 572.827 273.36Z" fill="#161616"/>
<path d="M546.467 277.497C549.245 283.617 557.125 285.147 563.19 285.203C564.267 285.203 564.267 283.503 563.19 283.503C557.748 283.39 550.436 282.143 547.941 276.59C547.488 275.627 546.014 276.533 546.467 277.497Z" fill="#161616"/>
<path d="M558.712 282.993C558.542 284.41 558.372 285.827 558.202 287.187C558.088 288.263 559.789 288.263 559.902 287.187C560.072 285.77 560.242 284.353 560.413 282.993C560.526 281.917 558.825 281.917 558.712 282.993Z" fill="#161616"/>
<path d="M561.943 282.993C561.773 284.41 561.603 285.827 561.489 287.243C561.376 288.32 563.077 288.32 563.19 287.243C563.36 285.827 563.53 284.41 563.643 282.993C563.757 281.917 562.056 281.917 561.943 282.993Z" fill="#161616"/>
<path d="M563.417 285.373C567.442 284.467 570.786 281.973 572.884 278.46C573.451 277.497 571.977 276.647 571.41 277.61C569.483 280.783 566.535 282.88 562.964 283.73C561.886 284.013 562.34 285.657 563.417 285.373Z" fill="#161616"/>
<path d="M551.003 197.937C549.302 207.967 551.173 219.923 561.433 224.513C562.397 224.967 563.304 223.493 562.283 223.04C552.703 218.733 551.059 207.683 552.647 198.39C552.817 197.313 551.173 196.86 551.003 197.937Z" fill="#161616"/>
<path d="M585.865 195.217C585.979 198.447 585.922 201.733 586.375 204.907C586.829 208.363 589.947 212.217 588.303 215.673C587.849 216.637 589.323 217.543 589.777 216.523C591.25 213.407 589.947 210.8 588.87 207.74C587.452 203.83 587.793 199.297 587.622 195.16C587.509 194.083 585.808 194.083 585.865 195.217Z" fill="#161616"/>
<path d="M566.081 223.323C568.576 222.02 571.41 223.38 571.977 226.1C572.034 226.383 572.43 226.27 572.374 225.987C571.693 222.983 568.576 221.51 565.855 222.927C565.628 223.097 565.855 223.493 566.081 223.323Z" fill="white"/>
<path d="M570.389 226.213C570.786 226.667 571.07 227.177 571.24 227.743C571.353 228.027 571.75 227.913 571.637 227.63C571.41 227.007 571.07 226.44 570.673 225.93C570.503 225.703 570.163 226.043 570.389 226.213Z" fill="white"/>
<path d="M581.784 222.247C582.294 219.923 583.768 217.997 585.922 216.92C586.149 216.807 585.979 216.41 585.695 216.58C583.428 217.657 581.897 219.697 581.387 222.133C581.33 222.417 581.727 222.53 581.784 222.247Z" fill="white"/>
<path d="M481.957 102.113C478.046 104.097 474.758 107.837 473.284 109.48C469.656 113.617 467.785 117.47 465.745 121.777C464.044 125.29 462.06 130.277 460.473 136.51C462.683 136.907 464.894 137.247 467.105 137.643C466.992 139.797 466.992 142.97 467.842 146.71C468.636 150.11 469.939 155.55 474.474 159.347C480.71 164.673 488.986 163.37 490.517 163.143C490.63 165.807 491.197 169.603 493.351 173.513C493.918 174.477 494.485 175.383 495.052 176.177C498.17 175.27 502.988 173.4 507.693 169.547C519.711 159.857 521.355 145.407 521.865 141.213C522.602 134.753 524.019 122.57 516.026 112.483C507.693 102.057 491.878 97.1266 481.957 102.113Z" fill="white"/>
<path d="M470.336 113.9C471.923 111.52 474.984 108.007 478.442 105.57C483.998 101.66 486.492 103.303 489.326 99.8467C491.367 97.3534 492.671 93.2734 491.14 91.3467C488.703 88.2867 480.029 91.97 478.896 92.48C476.401 93.5567 468.182 97.0134 464.894 105.74C462.173 113.05 463.987 121.04 465.234 121.21C465.574 121.267 465.801 120.7 467.615 117.923C468.465 116.507 469.429 115.203 470.336 113.9Z" fill="#5222D0"/>
<path d="M482.694 96.8433C482.24 98.3166 481.56 101.263 483.827 107.043C487.852 117.413 497.262 126.707 501.967 125.007C502.988 124.61 504.065 123.59 506.106 123.477C506.616 123.477 508.657 123.363 510.244 124.61C512.738 126.593 512.851 130.9 511.208 133.677C510.924 134.187 509.394 136.51 507.069 136.68C505.029 136.85 504.348 135.263 502.704 135.15C498.68 134.923 495.222 143.763 494.768 144.953C493.861 147.22 491.65 153.113 493.238 160.65C493.578 162.293 494.371 165.75 496.809 169.32C502.081 176.97 510.924 178.84 514.212 179.52C517.443 180.2 529.744 182.75 539.325 174.817C540.855 173.57 545.9 169.263 547.261 161.953C549.585 149.6 539.211 140.363 538.588 139.853C538.134 133.45 536.604 123.25 531.218 112.087C527.817 105.003 524.642 98.4867 517.443 93.5567C507.976 87.1533 494.201 85.34 487.002 90.8933C486.265 91.5733 483.827 93.5 482.694 96.8433Z" fill="#5222D0"/>
<path d="M471.924 157.647C471.073 158.497 468.579 161.103 468.125 165.183C467.502 170.85 471.3 174.76 472.094 175.553C476.232 179.803 483.148 181.503 488.136 178.953C488.533 178.783 492.898 176.46 493.068 173.117C493.125 171.643 492.331 170.907 491.197 167.62C490.46 165.467 490.007 163.71 489.667 162.52C488.136 163.03 485.529 163.71 482.297 163.257C476.515 162.52 472.944 158.78 471.924 157.647Z" fill="#5222D0"/>
<path opacity="0.12" d="M483.261 101.83C483.317 103.587 483.544 106.193 484.735 108.97C485.528 110.84 486.322 111.973 486.945 112.88C489.326 116.507 490.12 119.907 491.367 123.703C493.351 129.597 493.011 134.527 492.614 140.647C492.274 145.747 491.14 153.51 487.456 162.52C488.986 162.973 491.197 163.88 493.578 165.467C497.943 168.413 499.927 171.927 501.174 173.57C503.725 176.913 509.394 180.427 523.055 180.2C521.695 178.84 519.767 176.8 517.67 174.307C512.738 168.527 508.43 163.483 505.879 157.363C504.405 153.85 502.138 146.653 503.895 136.227C505.482 137.02 507.353 136.963 508.827 136C510.357 134.98 511.321 132.94 510.811 131.07C510.187 128.917 507.58 127.443 504.915 128.123C504.348 126.707 503.441 124.667 501.968 122.457C499.643 119 497.206 116.847 496.299 116.053C493.408 113.56 489.213 109.31 483.261 101.83Z" fill="#606060"/>
<path opacity="0.14" d="M461.096 135.49C461.153 134.583 464.044 133.847 466.482 134.017C468.636 134.187 471.187 135.15 471.13 136C471.073 136.793 468.692 137.417 466.935 137.473C464.214 137.587 461.096 136.397 461.096 135.49Z" fill="#606060"/>
<path d="M468.125 114.41C464.894 121.493 462.003 128.69 459.509 136.057C459.339 136.51 459.679 136.963 460.076 137.077C462.286 137.927 464.497 138.323 466.821 138.267C467.899 138.267 467.899 136.567 466.821 136.567C464.611 136.567 462.57 136.17 460.529 135.433C460.699 135.773 460.926 136.113 461.096 136.453C463.534 129.2 466.311 122.117 469.542 115.203C470.053 114.297 468.579 113.39 468.125 114.41Z" fill="#161616"/>
<path d="M466.595 138.607C467.048 145.917 467.728 154.02 473.17 159.517C478.386 164.843 485.925 164.39 492.784 163.597C493.861 163.483 493.861 161.783 492.784 161.897C486.435 162.633 479.236 163.257 474.361 158.327C469.259 153.17 468.749 145.463 468.295 138.607C468.239 137.53 466.538 137.53 466.595 138.607Z" fill="#161616"/>
<path d="M489.44 163.767C490.177 167.733 491.537 171.53 493.464 175.043C493.975 176.007 495.448 175.157 494.938 174.193C493.068 170.737 491.82 167.167 491.083 163.313C490.913 162.237 489.27 162.69 489.44 163.767Z" fill="#161616"/>
<path d="M467.728 147.277C470.506 149.713 474.644 148.58 475.721 145.01C476.061 143.933 474.417 143.537 474.077 144.557C473.397 146.823 470.733 147.673 468.975 146.03C468.125 145.35 466.935 146.54 467.728 147.277Z" fill="#161616"/>
<path d="M472.944 144.953C473.851 145.18 474.531 145.69 475.098 146.37C475.381 146.71 476.005 146.653 476.288 146.37C476.629 146.03 476.572 145.52 476.288 145.18C475.551 144.273 474.531 143.593 473.397 143.31C472.377 143.027 471.923 144.67 472.944 144.953Z" fill="#161616"/>
<path d="M475.494 123.76C475.948 121.38 478.896 121.833 480.483 122.683C481.843 123.42 482.807 124.61 483.374 126.027C483.771 127.047 485.415 126.593 485.018 125.573C484.111 123.137 482.24 121.21 479.633 120.53C477.252 119.907 474.417 120.643 473.907 123.307C473.68 124.383 475.324 124.837 475.494 123.76Z" fill="#161616"/>
<path d="M475.438 113.73C477.989 109.48 482.977 112.767 483.998 116.337C484.281 117.413 485.925 116.96 485.642 115.883C484.905 113.277 483.091 110.84 480.313 110.16C477.819 109.593 475.268 110.67 473.964 112.823C473.397 113.843 474.871 114.693 475.438 113.73Z" fill="#161616"/>
<path d="M477.139 133.393C478.216 133.393 478.216 131.693 477.139 131.693C476.062 131.693 476.005 133.393 477.139 133.393Z" fill="#161616"/>
<path d="M480.37 130.843C480.427 130.843 480.54 130.843 480.597 130.843C481.05 130.843 481.447 130.447 481.447 129.993C481.447 129.54 481.05 129.143 480.597 129.143C480.54 129.143 480.427 129.143 480.37 129.143C479.916 129.143 479.52 129.54 479.52 129.993C479.52 130.503 479.916 130.843 480.37 130.843Z" fill="#161616"/>
<path d="M480.426 133.733C480.426 133.79 480.426 133.847 480.426 133.903C480.426 134.98 482.127 134.98 482.127 133.903C482.127 133.847 482.127 133.79 482.127 133.733C482.127 132.657 480.426 132.657 480.426 133.733C480.426 133.79 480.426 133.847 480.426 133.903C480.426 134.98 482.127 134.98 482.127 133.903C482.127 133.847 482.127 133.79 482.127 133.733C482.127 132.657 480.426 132.657 480.426 133.733Z" fill="#161616"/>
<path d="M505.142 125.063C506.673 122.853 509.28 124.27 510.187 126.083C510.924 127.5 510.924 129.2 510.868 130.73C510.641 134.583 507.41 137.303 503.668 134.923C502.761 134.3 501.911 135.773 502.818 136.397C505.029 137.87 507.863 138.04 510.074 136.34C512.341 134.583 512.738 131.693 512.568 128.973C512.398 126.367 511.378 123.477 508.657 122.513C506.729 121.833 504.802 122.57 503.668 124.213C503.101 125.063 504.575 125.913 505.142 125.063Z" fill="#161616"/>
<path d="M352.653 92.7066C351.462 92.7066 350.272 92.7632 349.138 92.7632C347.211 96.5032 346.134 99.9032 345.51 102.397C343.696 109.707 344.149 115.77 344.49 118.717C344.716 120.7 345.056 122.343 345.34 123.477C346.36 123.477 347.381 123.477 348.401 123.477C348.798 124.837 349.195 126.197 349.591 127.557C359.172 127.5 367.051 127.5 372.55 127.557C405.882 127.84 429.124 129.143 434.509 129.427C441.255 129.823 446.754 130.22 450.155 130.447C450.268 128.35 450.835 127.613 451.346 127.387C452.253 126.99 453.046 127.953 454.237 127.727C455.484 127.5 456.277 126.197 456.788 125.007C457.808 125.517 459.679 126.197 461.889 125.857C462.4 125.8 462.853 125.63 463.25 125.517C464.214 123.59 465.177 121.663 466.141 119.737C464.78 119.283 462.853 118.887 460.529 118.887C459.225 118.887 458.091 119.057 457.128 119.227C457.014 118.943 456.107 116.393 453.726 115.827C452.989 115.657 452.366 115.713 451.856 115.827C451.516 115.203 451.175 114.58 450.835 113.957C449.475 113.73 447.377 113.39 444.883 112.937C424.646 109.253 410.531 104.777 399.76 101.547C389.443 98.4299 374.421 94.1799 355.147 89.4766C354.353 90.5532 353.503 91.6299 352.653 92.7066Z" fill="white"/>
<path opacity="0.07" d="M344.66 114.693C345.17 114.58 345.737 115.883 346.36 115.713C347.381 115.487 347.154 111.917 347.381 109.253C347.551 106.703 348.288 103.02 350.782 98.5432C352.426 99.2232 354.92 100.3 357.925 101.603C368.752 106.307 376.235 109.933 378.502 110.953C393.468 117.923 409.907 121.04 414.045 121.833C423.455 123.647 436.494 125.233 452.139 124.553C451.459 126.423 450.779 128.293 450.099 130.163C447.491 130.107 443.693 130.107 439.044 129.993C419.09 129.597 405.145 128.973 397.152 128.633C385.872 128.18 369.716 127.727 349.308 127.783C349.081 126.253 348.855 124.723 348.628 123.193C347.324 123.42 346.02 123.647 344.716 123.873C343.866 116.79 344.093 114.807 344.66 114.693Z" fill="#606060"/>
<path d="M353.843 89.5333C346.757 100.47 344.773 114.07 348.401 126.593C348.685 127.67 350.329 127.217 350.045 126.14C346.53 114.013 348.458 100.98 355.317 90.3833C355.941 89.4199 354.467 88.5699 353.843 89.5333Z" fill="#161616"/>
<path d="M355.317 91.1766C387.232 99.2233 419.09 107.27 451.005 115.26C452.082 115.543 452.536 113.9 451.459 113.617C419.544 105.57 387.685 97.5233 355.77 89.5333C354.75 89.25 354.296 90.8933 355.317 91.1766Z" fill="#161616"/>
<path d="M349.591 128.463C382.867 128.18 416.143 128.973 449.361 130.787C450.439 130.843 450.439 129.143 449.361 129.087C416.143 127.273 382.867 126.48 349.591 126.763C348.514 126.763 348.514 128.463 349.591 128.463Z" fill="#161616"/>
<path d="M450.496 114.637C452.763 119.68 452.253 125.403 449.135 129.993C448.511 130.9 449.985 131.75 450.609 130.843C454.067 125.743 454.52 119.397 451.969 113.787C451.516 112.823 450.042 113.673 450.496 114.637Z" fill="#161616"/>
<path d="M452.196 116.847C452.82 117.3 453.273 117.13 454.01 117.3C455.427 117.697 455.994 119 456.277 120.36C456.731 122.853 456.107 128.123 452.423 126.65C451.402 126.253 450.949 127.897 451.969 128.293C455.711 129.767 458.148 125.857 458.148 122.57C458.148 120.757 457.921 118.717 456.901 117.187C456.561 116.677 456.107 116.167 455.541 115.883C454.804 115.543 453.783 115.77 453.16 115.317C452.139 114.75 451.289 116.223 452.196 116.847Z" fill="#161616"/>
<path d="M457.185 119.963C460.076 119.793 462.967 119.85 465.801 120.247C466.878 120.36 466.878 118.66 465.801 118.547C462.91 118.207 460.076 118.093 457.185 118.263C456.108 118.377 456.108 120.077 457.185 119.963Z" fill="#161616"/>
<path d="M456.958 126.197C459.282 126.593 461.606 126.763 463.93 126.537C465.007 126.423 465.007 124.723 463.93 124.837C461.719 125.007 459.565 124.95 457.411 124.553C456.334 124.383 455.881 125.97 456.958 126.197Z" fill="#161616"/>
<path d="M352.88 92.2532C347.381 89.0799 345.85 98.9965 345.113 102.113C343.413 109.31 342.619 116.733 344.716 123.93C344.83 124.27 345.17 124.553 345.51 124.553C346.247 124.553 347.041 124.553 347.778 124.553C348.855 124.553 348.855 122.853 347.778 122.853C347.041 122.853 346.247 122.853 345.51 122.853C345.794 123.08 346.077 123.25 346.304 123.477C344.83 118.263 344.83 112.993 345.68 107.667C346.077 105.287 346.587 102.907 347.211 100.583C347.608 99.0532 348.855 91.8565 351.973 93.7265C352.993 94.2932 353.843 92.8199 352.88 92.2532Z" fill="#161616"/>
<path d="M414.159 104.437C413.139 103.19 411.438 103.36 411.211 103.36C409.341 103.473 407.527 105.173 405.542 109.31C401.688 117.187 401.518 125.063 401.518 126.31C401.461 131.75 401.971 140.59 405.826 151.13C406.166 155.55 406.903 161.727 408.547 168.923C411.438 181.843 414.499 195.443 425.043 207.513C429.011 212.103 436.834 221 450.439 224.23C464.667 227.63 476.232 222.587 479.066 221.283C481.56 220.093 488.533 216.58 494.428 209.157C498 204.68 502.138 199.807 501.458 193.8C501.174 191.193 500.04 188.983 498.34 185.47C496.639 181.957 495.732 180.2 493.918 179.52C491.424 178.557 488.76 180.257 485.812 181.957C480.823 184.79 480.37 187.51 474.985 190.343C473.567 191.08 472.15 191.59 469.316 192.497C464.838 193.97 460.416 195.443 456.334 195.727C447.435 196.35 440.292 191.25 438.251 189.777C430.712 184.393 427.764 177.197 425.837 172.493C421.528 161.953 421.868 152.263 422.605 146.597C425.27 146.143 426.914 145.067 427.707 144.443C430.712 142.12 431.449 138.89 432.582 133.903C433.319 130.787 433.659 129.143 432.866 128.52C431.222 127.273 426.177 131.353 425.043 132.317C425.27 128.463 425.837 125.347 426.403 123.137C427.14 120.19 427.537 118.66 428.558 117.47C430.542 115.147 432.866 115.373 433.659 113.163C434.113 111.973 434.056 110.33 433.093 109.367C431.959 108.233 429.521 108.29 427.424 109.933C426.744 108.46 425.383 107.553 423.909 107.497C422.435 107.44 421.472 108.347 421.188 108.573C421.358 107.043 420.678 105.627 419.544 105.06C418.014 104.267 415.576 105.173 414.669 107.497C414.726 107.213 415.123 105.627 414.159 104.437Z" fill="white"/>
<path opacity="0.12" d="M411.211 103.36C409.85 105.74 408.15 109.253 407.016 113.843C404.522 123.817 406.563 132.147 407.47 136.17C417.22 177.707 412.968 178.727 419.771 188.473C422.265 191.987 439.385 215.56 464.894 212.443C486.265 209.837 497.603 190.4 499.077 187.793C499.927 190.06 500.947 193.913 500.267 198.503C499.247 205.247 495.052 209.497 493.521 211.083C492.047 212.557 490.233 213.86 486.549 216.41C483.261 218.733 480.03 220.773 478.612 221.51C471.867 225.307 461.436 226.213 454.18 225.25C434.453 222.643 422.605 203.943 417.673 196.18C406.393 178.443 405.259 160.48 405.372 151.527C404.295 147.9 403.218 144.217 402.141 140.59C401.404 134.98 401.347 130.333 401.461 127.103C401.744 119 401.971 112.937 406.109 107.78C407.923 105.513 409.907 104.153 411.211 103.36Z" fill="#606060"/>
<path d="M487.966 215.56C496.923 211.31 502.932 202.413 501.458 192.327C500.607 186.207 495.676 175.667 487.796 179.407C484.281 181.107 481.39 184.223 478.159 186.433C473.681 189.493 468.522 191.873 463.364 193.517C456.788 195.613 449.475 196.067 443.126 192.893C438.478 190.57 434.85 186.773 432.072 182.467C425.95 173.003 422.775 161.84 423.512 150.563C423.569 149.487 421.868 149.487 421.812 150.563C421.188 160.083 423.286 169.15 427.48 177.65C431.165 185.243 436.551 192.383 444.714 195.443C454.634 199.127 465.461 195.387 474.418 190.683C478.443 188.53 481.901 185.753 485.529 182.977C488.816 180.427 492.104 179.18 495.449 182.58C499.587 186.773 500.834 194.083 499.587 199.637C498.056 206.267 493.125 211.253 487.116 214.087C486.152 214.54 487.002 216.013 487.966 215.56Z" fill="#161616"/>
<path d="M423.399 151.3C422.662 148.183 424.873 147.39 426.914 145.917C428.104 145.067 429.011 143.877 429.862 142.687C432.016 139.57 433.716 135.943 434.17 132.147C434.397 130.277 434.793 127.33 432.242 127.217C429.238 127.103 427.991 130.9 425.156 131.183C424.079 131.297 424.079 132.997 425.156 132.883C427.311 132.657 428.388 131.297 430.032 130.05C430.995 129.313 432.072 128.463 432.583 130.107C432.866 131.013 432.412 132.713 432.186 133.62C431.789 135.547 430.939 137.417 430.032 139.173C429.181 140.76 428.218 142.403 426.914 143.707C425.723 144.953 424.079 145.237 422.776 146.257C421.018 147.617 421.302 149.94 421.755 151.81C422.039 152.83 423.683 152.377 423.399 151.3Z" fill="#161616"/>
<path d="M403.615 142.347C402.481 135.037 402.368 127.557 403.502 120.247C403.955 117.3 404.522 114.297 405.542 111.463C406.166 109.707 407.016 107.667 408.263 106.25C409.964 104.38 413.309 103.417 414.216 106.59C414.499 107.667 416.143 107.213 415.86 106.137C415.066 103.417 412.458 101.943 409.737 103.02C406.279 104.437 404.635 108.687 403.558 111.917C400.384 121.72 400.384 132.713 401.914 142.8C402.141 143.877 403.785 143.423 403.615 142.347Z" fill="#161616"/>
<path d="M411.835 113.107C413.195 109.763 417.05 103.02 421.245 107.61C421.982 108.403 423.172 107.213 422.435 106.42C420.508 104.323 417.73 103.983 415.293 105.4C412.572 106.93 411.324 109.933 410.191 112.71C409.794 113.673 411.438 114.127 411.835 113.107Z" fill="#161616"/>
<path d="M418.977 114.523C419.034 112.37 419.884 109.99 421.982 108.97C423.739 108.12 425.837 108.517 427.027 110.047C427.707 110.897 428.898 109.707 428.217 108.857C426.574 106.817 423.626 106.307 421.302 107.383C418.581 108.687 417.333 111.633 417.277 114.523C417.22 115.6 418.921 115.6 418.977 114.523Z" fill="#161616"/>
<path d="M423.909 115.09C424.929 111.293 429.181 107.837 432.866 110.897C433.716 111.577 434.906 110.387 434.056 109.707C429.351 105.853 423.682 109.48 422.265 114.637C421.982 115.713 423.626 116.167 423.909 115.09Z" fill="#161616"/>
<path d="M432.526 110.613C434.34 113.163 430.315 114.75 428.897 115.94C427.707 116.903 427.027 118.15 426.517 119.567C425.156 123.477 424.533 127.727 424.192 131.807C424.079 132.883 425.78 132.883 425.893 131.807C426.176 128.803 426.63 125.8 427.367 122.853C427.594 121.89 427.82 120.927 428.161 119.963C428.897 117.98 429.975 117.243 431.619 116.053C433.659 114.58 435.813 112.2 433.999 109.65C433.376 108.857 431.902 109.707 432.526 110.613Z" fill="#161616"/>
<path d="M401.518 140.647C402.425 144.5 403.558 148.297 404.975 152.037C405.372 153.057 407.016 152.603 406.619 151.583C405.202 147.843 404.068 144.047 403.161 140.193C402.935 139.117 401.291 139.57 401.518 140.647Z" fill="#161616"/>
<path d="M404.692 153.113C406.846 172.607 411.664 192.61 424.759 207.797C435.19 219.867 451.743 229.047 468.069 226.043C475.778 224.627 482.807 220.773 488.419 215.39C489.213 214.653 488.023 213.407 487.229 214.2C476.005 224.967 460.019 227.8 445.79 221.397C430.485 214.427 419.771 201.337 413.705 185.867C409.624 175.383 407.583 164.277 406.336 153.17C406.279 152.037 404.579 152.037 404.692 153.113Z" fill="#161616"/>
</svg>
