<svg width="978" height="733" viewBox="0 0 978 733" fill="none" xmlns="http://www.w3.org/2000/svg">
<path d="M166.076 673.505H305.014C307.397 673.505 307.397 669.84 305.014 669.84C258.681 669.84 212.348 669.84 166.076 669.84C163.693 669.84 163.693 673.505 166.076 673.505Z" fill="#E8E8E8"/>
<path d="M211.37 659.15H350.796H390.344C392.728 659.15 392.728 655.485 390.344 655.485C343.889 655.485 297.434 655.485 250.918 655.485C237.715 655.485 224.512 655.485 211.37 655.485C209.047 655.485 209.047 659.15 211.37 659.15Z" fill="#E8E8E8"/>
<path d="M387.349 636.549H481.726C484.11 636.549 484.11 632.884 481.726 632.884C450.247 632.884 418.767 632.884 387.349 632.884C384.965 632.884 384.965 636.549 387.349 636.549Z" fill="#E8E8E8"/>
<path d="M468.157 687.859H664.673H719.625C722.009 687.859 722.009 684.194 719.625 684.194C654.099 684.194 588.573 684.194 523.108 684.194C504.77 684.194 486.494 684.194 468.157 684.194C465.773 684.194 465.773 687.859 468.157 687.859V687.859Z" fill="#E8E8E8"/>
<path d="M622.986 673.505H752.877C755.261 673.505 755.261 669.84 752.877 669.84C709.6 669.84 666.263 669.84 622.986 669.84C620.602 669.84 620.602 673.505 622.986 673.505Z" fill="#E8E8E8"/>
<path d="M280.747 228.818C277.569 229.368 272.556 230.651 267.3 233.888C263.999 235.904 257.275 240.791 253.057 249.77C251.529 252.946 248.106 260.337 249.818 269.5C252.324 283.06 264.243 289.84 266.138 290.879C272.19 281.655 278.18 272.371 284.231 263.147C283.009 251.724 281.847 240.302 280.747 228.818V228.818Z" fill="#EC615B"/>
<path d="M285.271 262.047C294.195 257.222 303.058 252.396 311.982 247.51C313.938 249.953 317.606 255.389 317.545 262.719C317.545 264.369 317.361 265.896 317.056 267.301C306.42 265.529 295.845 263.758 285.271 262.047V262.047Z" fill="#5222D0"/>
<path d="M189.549 304.195C190.649 318.55 191.688 332.965 192.788 347.32C196.7 347.075 200.612 346.77 204.463 346.526C203.18 331.927 201.896 317.389 200.612 302.79C196.884 303.279 193.216 303.706 189.549 304.195V304.195Z" fill="#5222D0"/>
<path d="M211.37 319.16C211.981 328.018 212.593 336.814 213.265 345.671C217.177 345.304 221.089 344.999 224.94 344.632C224.084 335.775 223.289 326.979 222.434 318.122C218.705 318.427 215.038 318.794 211.37 319.16Z" fill="#EC615B"/>
<path d="M350.43 373.891C289.794 379.45 229.219 384.947 168.583 390.506C163.02 301.813 157.397 213.12 151.834 124.366C212.287 122.228 272.801 120.09 333.253 117.952C338.999 203.285 344.745 288.619 350.43 373.891V373.891Z" stroke="#161616" stroke-width="2" stroke-miterlimit="10"/>
<path d="M214.365 107.568C215.038 112.393 215.771 117.219 216.444 122.044C216.627 123.205 218.4 122.716 218.216 121.556C217.544 116.73 216.81 111.905 216.138 107.079C215.955 105.918 214.182 106.407 214.365 107.568Z" fill="#E8E8E8"/>
<path d="M215.649 107.446C229.402 106.529 243.216 105.98 256.969 105.674C258.131 105.674 258.131 103.842 256.969 103.842C243.155 104.147 229.402 104.758 215.649 105.613C214.487 105.674 214.487 107.507 215.649 107.446V107.446Z" fill="#E8E8E8"/>
<path d="M256.419 104.941C257.03 110.133 257.519 115.264 257.825 120.456C257.886 121.617 259.72 121.617 259.659 120.456C259.353 115.264 258.864 110.072 258.253 104.941C258.069 103.781 256.236 103.781 256.419 104.941Z" fill="#E8E8E8"/>
<path d="M215.71 107.385C216.138 111.905 216.566 116.486 216.994 121.006C217.055 121.495 217.36 121.922 217.91 121.922C231.052 122.045 244.133 119.968 257.336 120.395C258.497 120.456 258.497 118.624 257.336 118.563C244.194 118.135 231.113 120.151 217.91 120.09L218.827 121.006C218.399 116.486 217.972 111.905 217.544 107.385C217.421 106.224 215.588 106.224 215.71 107.385Z" fill="#E8E8E8"/>
<path d="M216.688 107.995C218.705 109.217 221.334 108.606 223.534 108.484C227.202 108.301 230.869 108.117 234.537 107.934C241.872 107.568 249.146 107.14 256.481 106.774C256.175 106.468 255.869 106.163 255.564 105.857C255.747 109.828 255.93 113.798 256.114 117.83C256.175 118.99 258.009 118.99 257.948 117.83C257.764 113.859 257.581 109.889 257.397 105.857C257.397 105.369 256.97 104.941 256.481 104.941C250.001 105.308 243.461 105.613 236.982 105.98C233.742 106.163 230.502 106.346 227.202 106.468C224.634 106.59 219.867 107.812 217.605 106.407C216.627 105.796 215.71 107.384 216.688 107.995Z" fill="#E8E8E8"/>
<path d="M216.627 108.362C217.544 112.088 218.155 115.875 218.522 119.723C219.133 119.662 219.744 119.54 220.294 119.479C219.622 116.181 219.805 112.943 220.417 109.584C219.805 109.522 219.194 109.4 218.644 109.339C218.766 113.004 219.011 116.486 220.417 119.846C220.844 120.823 222.373 120.09 222.067 119.113C221.028 115.203 220.05 111.355 221.089 107.323C220.478 107.323 219.928 107.323 219.316 107.323C219.866 110.988 220.417 114.653 220.967 118.318C221.15 119.479 222.923 118.99 222.739 117.83C222.189 114.165 221.639 110.5 221.089 106.835C220.967 105.919 219.5 106.041 219.316 106.835C218.216 111.172 219.194 115.386 220.294 119.601C220.844 119.357 221.395 119.113 221.945 118.868C220.661 115.814 220.539 112.516 220.417 109.278C220.417 108.301 218.827 107.995 218.644 109.034C217.972 112.699 217.727 116.242 218.522 119.907C218.705 120.884 220.417 120.701 220.294 119.662C219.928 115.692 219.255 111.721 218.338 107.812C218.094 106.713 216.382 107.201 216.627 108.362Z" fill="#E8E8E8"/>
<path d="M221.333 111.599C222.006 110.5 222.678 109.4 223.351 108.301C222.8 107.995 222.311 107.69 221.761 107.384C220.967 109.156 220.233 110.927 219.439 112.699C219.072 113.554 220.172 114.714 220.906 113.798C222.128 112.271 223.289 110.683 224.512 109.156C224.023 108.85 223.473 108.545 222.984 108.24C222.495 109.706 221.884 111.049 221.028 112.393C220.478 113.248 221.822 114.348 222.495 113.493C223.412 112.332 224.329 111.172 225.307 110.011C224.818 109.645 224.329 109.278 223.84 108.912C222.617 111.782 221.395 114.592 220.172 117.463C219.805 118.318 220.906 119.479 221.639 118.563C223.84 115.814 226.101 113.004 228.302 110.255C227.813 109.889 227.324 109.522 226.835 109.156C225.184 111.844 223.534 114.592 221.884 117.28C221.456 117.952 222.128 118.868 222.923 118.624C223.901 118.318 224.023 118.196 224.756 117.585C224.267 117.28 223.717 116.975 223.228 116.669C222.862 117.708 222.25 118.502 221.333 119.174C220.417 119.845 221.211 121.373 222.25 120.762C223.228 120.212 224.145 119.845 225.245 119.723C224.879 119.357 224.512 118.99 224.145 118.624C222.556 117.83 222.067 116.73 222.678 115.264C222.862 114.47 223.167 113.737 223.534 113.065C224.023 112.21 224.94 110.133 225.857 111.966C226.529 113.31 223.717 120.823 223.351 116.18C223.289 114.959 223.412 113.737 223.778 112.638C224.023 111.782 224.39 110.988 224.818 110.194C225.429 108.973 225.734 108.973 225.796 110.194C226.957 112.638 225.551 116.486 224.39 118.624C224.94 118.685 225.49 118.746 226.04 118.868C225.551 117.158 225.368 115.509 225.734 113.798C225.857 113.126 226.468 109.889 227.14 110.927C228.546 112.943 226.223 117.524 225.245 119.296C225.796 119.479 226.407 119.601 226.957 119.784C226.774 118.135 226.712 116.547 227.018 114.898C227.201 113.798 227.874 110.255 229.035 110.133C230.686 109.95 227.507 117.463 226.774 118.563C227.324 118.624 227.874 118.685 228.424 118.807C227.874 116.058 227.874 110.194 231.602 109.278C231.236 109.095 230.869 108.85 230.502 108.667C231.175 112.393 230.135 115.997 227.568 118.746C228.057 118.868 228.607 118.99 229.096 119.174C228.668 117.463 228.607 115.814 229.035 114.104C229.28 113.187 230.563 109.339 231.786 109.645C232.642 109.828 231.541 113.371 231.297 114.165C230.624 116.119 229.585 117.83 228.057 119.296C228.546 119.418 229.096 119.54 229.585 119.723C228.607 115.631 230.319 111.538 233.925 109.339C233.497 109.156 233.008 108.973 232.58 108.789C233.986 112.515 230.38 117.341 227.996 119.845C228.485 119.968 229.035 120.09 229.524 120.273C229.096 118.502 229.096 116.791 229.646 115.02C229.83 114.47 231.664 110.316 232.519 110.622C233.742 111.049 231.664 114.776 231.297 115.325C230.869 116.119 230.074 117.524 229.28 118.013C228.363 118.624 228.424 118.746 228.363 117.402C228.302 115.57 229.524 113.493 230.563 112.149C231.113 111.416 232.03 110.255 232.886 109.95C233.864 109.522 233.742 109.4 233.62 110.683C233.192 114.47 231.052 117.891 228.363 120.517C228.852 120.64 229.402 120.762 229.891 120.945C229.341 117.341 230.563 113.615 233.253 111.111C234.047 110.378 234.964 109.889 235.27 111.416C235.392 112.027 234.659 113.493 234.414 114.043C233.558 116.058 232.336 117.769 230.808 119.296H232.091C230.991 118.013 232.397 115.203 233.069 113.981C233.375 113.432 236.003 109.4 236.737 109.767C237.593 110.194 235.698 114.287 235.453 114.714C234.598 116.364 233.497 117.83 232.214 119.174C232.764 119.418 233.253 119.601 233.803 119.845C233.864 115.386 235.942 111.599 239.732 109.217C239.243 108.973 238.815 108.667 238.326 108.423C238.387 112.515 236.92 116.119 233.986 118.99C234.536 119.235 235.025 119.418 235.576 119.662C235.942 115.203 238.021 111.355 241.444 108.484C240.955 108.423 240.466 108.362 239.977 108.301C241.933 111.233 237.654 116.73 235.942 118.929C236.492 119.174 236.981 119.357 237.532 119.601C237.593 117.891 237.898 116.303 238.571 114.714C238.937 113.737 240.466 110.378 241.566 110.133C243.033 109.828 241.505 112.638 241.016 113.676C240.16 115.447 238.999 116.975 237.654 118.379C238.143 118.685 238.693 118.99 239.182 119.296C239.732 115.509 241.26 110.5 245.233 109.095C244.867 108.789 244.439 108.484 244.072 108.24C243.583 112.393 241.749 115.936 238.693 118.746C239.243 118.99 239.732 119.174 240.282 119.418C240.466 117.463 240.893 115.57 241.749 113.737C242.299 112.577 243.766 109.522 245.111 109.278C245.783 109.156 245.111 110.194 244.867 110.866C244.5 111.844 244.011 112.76 243.522 113.615C242.544 115.325 241.321 116.852 239.915 118.257C240.466 118.502 240.955 118.685 241.505 118.929C241.749 115.02 243.583 111.66 246.639 109.278C246.211 108.912 245.722 108.606 245.294 108.24C244.805 111.111 243.338 113.371 241.382 115.509C240.221 116.791 239.854 116.486 239.732 114.776C239.61 112.454 241.016 110.133 243.338 109.522C242.972 109.217 242.544 108.912 242.177 108.667C241.994 112.332 240.893 115.631 238.937 118.685C239.488 118.868 240.099 118.99 240.649 119.174C240.832 117.341 241.321 115.57 242.177 113.92C242.727 112.821 244.133 110.072 245.356 109.767C247.128 109.278 245.356 112.76 244.928 113.615C244.072 115.325 242.911 116.791 241.566 118.196C242.116 118.441 242.605 118.624 243.155 118.868C242.911 114.409 245.6 110.5 249.818 109.156C249.451 108.85 249.023 108.545 248.656 108.301C248.167 112.638 246.089 116.303 242.727 119.112C243.277 119.357 243.766 119.54 244.316 119.784C244.805 115.57 246.945 111.966 250.429 109.522C250.001 109.339 249.512 109.156 249.084 108.973C250.062 112.149 246.7 116.303 244.867 118.563C245.417 118.807 245.906 118.99 246.456 119.235C246.7 116.119 248.473 110.439 252.202 109.889C251.835 109.522 251.468 109.156 251.101 108.789C250.429 112.271 249.023 115.386 246.761 118.135C247.312 118.379 247.801 118.563 248.351 118.807C248.534 115.081 250.001 111.844 252.568 109.217C252.079 109.156 251.59 109.095 251.101 109.034C252.507 111.599 249.634 116.119 248.351 118.379L250.001 119.112C250.612 116.18 251.101 111.233 253.852 109.461C253.485 109.4 253.118 109.339 252.752 109.339C254.28 111.049 251.346 116.791 250.673 118.502C251.285 118.685 251.835 118.807 252.446 118.99C253.302 115.875 254.096 112.821 254.952 109.706C254.341 109.645 253.73 109.522 253.18 109.461C253.302 112.393 252.874 115.142 251.896 117.952C252.507 118.013 253.118 118.135 253.669 118.196C253.974 115.447 253.669 111.172 255.258 108.85C254.708 108.789 254.158 108.728 253.607 108.606C254.463 111.599 254.158 114.47 253.73 117.585C254.341 117.646 254.952 117.769 255.502 117.83C255.258 114.409 255.013 110.927 254.769 107.507C254.219 107.751 253.73 107.934 253.18 108.179C255.502 110.561 254.585 113.676 253.546 116.425C254.096 116.364 254.647 116.303 255.197 116.18C254.524 114.898 253.18 112.76 253.241 111.233C252.629 110.255 252.874 109.767 254.035 109.828C254.585 110.805 254.769 111.844 254.524 112.882C255.074 112.638 255.563 112.454 256.114 112.21C255.136 111.049 254.647 109.95 254.341 108.545C253.913 108.912 253.424 109.217 252.996 109.583C253.241 110.255 253.485 110.988 253.73 111.66C254.28 111.721 254.83 111.782 255.38 111.905C254.952 110.683 254.769 109.583 254.83 108.301C254.463 108.606 254.035 108.912 253.669 109.156C256.052 110.133 254.402 116.486 254.096 118.135C254.402 117.891 254.708 117.708 254.952 117.463C250.307 117.585 245.661 117.708 241.016 117.83C239.854 117.891 239.854 119.601 241.016 119.662C245.111 119.784 249.145 119.174 253.18 118.563C252.996 117.952 252.874 117.402 252.691 116.791C247.923 118.074 243.155 118.929 238.265 119.296C237.104 119.357 237.104 121.067 238.265 121.128C243.033 121.311 247.678 119.662 252.446 119.845C252.385 119.235 252.263 118.624 252.202 118.074C248.534 119.296 244.867 119.662 241.016 119.235V121.067C245.417 120.64 249.818 120.212 254.219 119.784C254.158 119.174 254.035 118.563 253.974 118.013C251.04 118.868 248.167 119.174 245.111 119.051V120.884C248.106 120.884 250.979 120.517 253.852 119.784C255.013 119.479 254.524 117.769 253.363 118.013C249.94 118.746 246.517 119.112 243.033 119.112V120.945C247.189 120.395 251.346 119.723 255.502 118.868C256.48 118.685 256.297 116.975 255.258 117.097C251.285 117.585 247.373 117.524 243.461 116.913C242.299 116.73 241.81 118.502 242.972 118.685C247.067 119.296 251.162 119.418 255.258 118.929C255.197 118.318 255.074 117.708 255.013 117.158C251.04 117.952 247.067 118.685 243.033 119.174C241.871 119.296 241.81 121.006 243.033 121.006C246.7 121.006 250.246 120.64 253.852 119.845C253.669 119.235 253.546 118.685 253.363 118.074C250.612 118.746 247.923 119.112 245.111 119.112C243.95 119.112 243.95 120.884 245.111 120.945C248.29 121.067 251.346 120.701 254.463 119.845C255.441 119.54 255.258 117.952 254.219 118.074C249.818 118.502 245.417 118.929 241.016 119.357C239.854 119.479 239.854 121.067 241.016 121.189C245.05 121.617 248.901 121.189 252.691 119.968C253.669 119.662 253.485 118.196 252.446 118.196C247.678 118.013 243.033 119.662 238.265 119.479V121.311C243.338 120.945 248.29 120.09 253.18 118.746C254.341 118.441 253.852 116.791 252.691 116.975C248.779 117.585 244.928 118.135 241.016 118.013V119.845C245.661 119.723 250.307 119.601 254.952 119.479C255.319 119.479 255.747 119.174 255.808 118.807C256.419 115.386 258.314 109.339 254.096 107.568C253.485 107.323 252.996 107.934 252.935 108.423C252.813 109.95 252.996 111.111 253.546 112.515C253.791 113.187 254.83 113.493 255.197 112.76C256.052 110.988 255.563 109.217 253.791 108.179C253.057 107.751 252.263 108.423 252.446 109.217C252.813 110.988 253.546 112.332 254.708 113.737C255.258 114.409 256.236 113.798 256.297 113.065C256.48 111.111 254.769 105.308 251.651 107.079C248.84 108.728 252.568 115.386 253.485 117.28C253.852 118.074 254.891 117.708 255.136 117.036C256.48 113.554 257.092 109.889 254.28 107.018C253.73 106.468 252.629 106.835 252.691 107.69C252.935 111.111 253.18 114.592 253.424 118.013C253.485 118.99 255.074 119.357 255.197 118.257C255.686 114.898 256.052 111.66 255.074 108.301C254.83 107.507 253.852 107.446 253.424 108.056C251.529 110.744 251.896 115.203 251.59 118.318C251.468 119.418 253.057 119.479 253.363 118.563C254.402 115.631 254.83 112.699 254.708 109.583C254.647 108.545 253.18 108.301 252.935 109.339C252.079 112.454 251.285 115.509 250.429 118.624C250.123 119.784 251.774 120.212 252.202 119.112C253.302 116.303 256.236 110.927 253.791 108.117C253.546 107.812 252.996 107.751 252.691 107.995C249.329 110.194 248.717 115.142 247.984 118.746C247.801 119.723 249.145 120.395 249.634 119.479C251.285 116.486 254.219 111.66 252.385 108.24C252.079 107.751 251.346 107.629 250.918 108.056C247.984 111.111 246.395 114.714 246.15 118.929C246.089 119.662 247.189 120.212 247.739 119.601C250.246 116.608 251.835 113.248 252.568 109.461C252.691 108.728 252.14 108.24 251.468 108.362C246.884 109.034 244.683 115.509 244.378 119.479C244.316 120.273 245.417 120.701 245.967 120.151C248.351 117.28 251.896 112.76 250.673 108.789C250.49 108.24 249.818 107.873 249.329 108.24C245.294 111.049 242.849 115.142 242.299 120.029C242.177 120.884 243.338 121.128 243.889 120.701C247.617 117.585 249.757 113.371 250.307 108.606C250.368 107.995 249.695 107.568 249.145 107.751C244.133 109.339 240.832 113.981 241.138 119.235C241.199 120.029 242.116 120.456 242.727 119.907C244.133 118.502 251.468 108.545 246.884 107.446C244.989 106.957 242.849 109.889 241.933 111.111C240.038 113.615 239.06 116.486 238.693 119.601C238.571 120.578 239.977 120.762 240.404 120.09C242.605 116.791 243.766 113.126 243.95 109.156C243.95 108.545 243.338 108.117 242.788 108.301C240.282 108.973 238.754 110.805 238.143 113.31C237.715 114.898 237.287 117.891 238.999 118.929C240.649 119.968 241.994 118.135 242.911 117.036C244.867 114.776 246.456 112.332 246.945 109.339C247.067 108.667 246.334 107.751 245.6 108.301C241.933 111.111 239.854 114.959 239.549 119.54C239.488 120.334 240.588 120.701 241.138 120.212C242.605 118.746 250.429 109.095 246.211 107.507C244.316 106.774 242.299 109.828 241.444 111.049C239.549 113.737 238.632 116.73 238.326 119.968C238.265 120.823 239.365 121.128 239.915 120.64C243.338 117.463 245.356 113.493 245.845 108.85C245.906 108.301 245.233 107.812 244.683 107.995C240.038 109.645 238.021 114.959 237.348 119.479C237.226 120.334 238.204 121.128 238.876 120.395C240.343 118.868 247.312 109.278 243.033 108.056C241.077 107.507 238.937 110.866 238.082 112.21C236.492 114.653 235.759 117.463 235.637 120.334C235.576 121.067 236.676 121.617 237.226 121.006C239.549 118.135 244.072 112.027 241.566 108.179C241.199 107.629 240.588 107.629 240.099 107.995C236.309 111.172 234.109 115.57 233.681 120.517C233.62 121.311 234.72 121.678 235.27 121.189C238.51 117.952 240.16 113.859 240.099 109.339C240.099 108.667 239.304 108.179 238.693 108.545C234.353 111.233 231.908 115.692 231.847 120.762C231.847 121.556 232.886 121.983 233.436 121.434C235.759 118.99 237.654 116.058 238.448 112.76C238.815 111.355 239.06 108.606 236.798 108.728C234.414 108.85 231.908 113.004 231.052 114.837C230.135 116.913 229.157 119.601 230.808 121.495C231.113 121.861 231.786 121.8 232.091 121.495C234.536 119.112 236.37 116.119 237.043 112.76C237.348 111.233 237.47 108.667 235.27 108.667C232.947 108.667 230.441 112.088 229.524 113.859C228.057 116.486 227.69 119.357 228.179 122.289C228.302 123.022 229.28 123.144 229.708 122.716C232.458 120.029 234.475 116.669 235.331 112.882C235.698 111.233 236.187 108.423 233.742 108.484C229.524 108.606 223.717 119.174 227.69 121.922C227.996 122.106 228.363 122.044 228.607 121.922C230.747 120.884 238.326 110.622 233.681 109.278C231.725 108.667 229.524 111.966 228.791 113.371C227.385 115.997 227.079 118.868 227.752 121.678C227.874 122.35 228.852 122.594 229.28 122.106C232.153 119.051 236.003 113.615 234.353 109.278C234.17 108.728 233.558 108.423 233.008 108.728C228.668 111.355 226.651 116.303 227.813 121.189C227.996 121.861 228.852 122.044 229.341 121.617C231.786 119.235 233.131 116.242 233.742 112.882C233.986 111.416 234.536 108.728 232.642 108.117C230.624 107.507 228.73 110.927 228.057 112.393C226.835 115.02 226.651 117.891 227.324 120.762C227.507 121.434 228.363 121.678 228.852 121.189C231.908 117.891 233.131 113.737 232.275 109.339C232.153 108.85 231.602 108.606 231.175 108.728C226.407 109.889 225.918 116.608 226.712 120.517C226.896 121.373 227.996 121.311 228.363 120.762C229.952 118.502 230.991 115.997 231.236 113.187C231.358 111.844 231.725 109.034 229.891 108.545C228.057 108.056 226.957 110.744 226.407 112.027C225.123 114.898 224.818 117.952 225.184 121.067C225.307 121.922 226.407 122.411 226.896 121.556C228.791 118.257 230.38 113.31 228.668 109.645C228.546 109.339 228.179 109.156 227.874 109.217C223.351 109.278 223.595 117.891 224.39 120.762C224.573 121.495 225.673 121.678 226.04 121.006C227.752 118.013 228.852 113.615 227.385 110.255C226.346 107.873 224.451 108.973 223.289 110.744C221.639 113.31 220.6 118.135 222.25 120.945C223.534 123.144 225.184 121.495 226.101 119.845C227.201 117.83 228.974 112.882 227.14 110.744C225.49 108.85 223.351 111.477 222.434 112.821C221.028 114.959 219.683 118.868 221.456 121.189C222.8 122.961 225.245 122.594 225.979 120.578C226.285 119.845 225.49 119.357 224.879 119.479C223.595 119.662 222.556 120.029 221.456 120.701C221.761 121.25 222.067 121.739 222.373 122.289C223.656 121.311 224.512 120.212 225.123 118.685C225.49 117.769 224.206 117.28 223.595 117.769C223.228 117.952 222.923 118.135 222.556 118.318C222.923 118.746 223.228 119.235 223.595 119.662C225.245 116.975 226.896 114.226 228.546 111.538C229.096 110.683 227.752 109.583 227.079 110.439C224.879 113.187 222.617 115.997 220.417 118.746C220.906 119.112 221.395 119.479 221.884 119.845C223.106 116.975 224.329 114.165 225.551 111.294C225.918 110.439 224.818 109.278 224.084 110.194C223.167 111.355 222.25 112.515 221.272 113.676C221.761 114.043 222.25 114.409 222.739 114.776C223.656 113.31 224.329 111.844 224.879 110.194C225.123 109.339 223.901 108.545 223.351 109.278C222.128 110.805 220.967 112.393 219.744 113.92C220.233 114.287 220.722 114.653 221.211 115.02C222.006 113.248 222.739 111.477 223.534 109.706C224.023 108.667 222.556 107.751 221.945 108.789C221.272 109.889 220.6 110.988 219.928 112.088C219.133 111.721 220.722 112.638 221.333 111.599V111.599Z" fill="#E8E8E8"/>
<path d="M254.524 106.407C254.524 108.484 254.585 110.622 254.646 112.699C254.708 114.226 255.38 117.463 254.402 118.624C253.791 119.357 254.585 120.64 255.502 120.09C255.93 119.784 256.052 119.723 256.419 119.357C256.786 118.868 256.725 118.013 255.991 117.83C254.891 117.585 254.096 117.585 252.996 117.952C251.896 118.318 252.324 120.09 253.485 119.723C254.157 119.662 254.83 119.662 255.502 119.601C255.38 119.113 255.258 118.563 255.074 118.074C254.891 118.257 254.708 118.38 254.585 118.563C254.952 119.051 255.319 119.54 255.686 120.029C257.03 118.441 256.664 117.341 256.541 115.203C256.419 112.332 256.358 109.4 256.358 106.529C256.358 105.186 254.524 105.186 254.524 106.407V106.407Z" fill="#E8E8E8"/>
<path d="M164.121 159.611C189.243 158.206 214.426 157.656 239.61 157.961C240.771 157.961 240.771 156.129 239.61 156.129C214.426 155.824 189.243 156.373 164.121 157.778C162.959 157.839 162.959 159.672 164.121 159.611Z" fill="#E8E8E8"/>
<path d="M167.36 176.348C185.392 174.454 203.485 173.477 221.578 173.477C222.739 173.477 222.739 171.644 221.578 171.644C203.485 171.644 185.392 172.56 167.36 174.515C166.199 174.637 166.137 176.47 167.36 176.348Z" fill="#E8E8E8"/>
<path d="M169.011 207.561C193.094 205.057 217.238 203.652 241.444 203.469C242.605 203.469 242.605 201.636 241.444 201.636C217.238 201.819 193.094 203.224 169.011 205.729C167.849 205.851 167.849 207.683 169.011 207.561Z" fill="#E8E8E8"/>
<path d="M267.911 291.123C256.053 286.542 249.023 273.409 250.185 260.948C251.407 248.304 260.82 237.492 272.128 232.422C279.891 228.94 288.449 228.207 296.089 232.3C302.08 235.476 307.214 240.363 310.821 246.105C318.339 258.077 317.789 272.554 309.843 284.282C305.075 291.306 296.089 293.322 288.204 294.544C280.38 295.766 272.128 295.338 265.527 290.512C264.549 289.84 263.632 291.429 264.61 292.101C270.723 296.56 278.241 297.476 285.576 296.743C292.85 296.01 301.468 294.422 307.336 289.779C313.143 285.198 316.627 276.524 317.85 269.439C319.011 262.658 317.728 255.817 314.855 249.587C308.437 235.721 293.644 224.603 277.935 228.452C264.366 231.75 252.385 242.684 249.084 256.428C245.539 271.027 253.18 287.336 267.361 292.834C268.522 293.322 269.011 291.551 267.911 291.123V291.123Z" fill="#E8E8E8"/>
<path d="M280.808 228.757C281.542 240.058 282.275 251.358 283.07 262.658C283.131 263.819 284.965 263.819 284.904 262.658C284.17 251.358 283.437 240.058 282.642 228.757C282.581 227.597 280.747 227.597 280.808 228.757Z" fill="#E8E8E8"/>
<path d="M284.781 263.758C294.072 258.688 303.241 253.374 312.287 247.754C313.265 247.143 312.349 245.555 311.371 246.166C302.385 251.785 293.216 257.1 283.864 262.17C282.825 262.781 283.742 264.369 284.781 263.758Z" fill="#E8E8E8"/>
<path d="M285.148 264.063C295.661 264.063 306.053 266.568 316.383 268.339C317.544 268.522 318.033 266.751 316.872 266.568C306.419 264.796 295.845 262.231 285.148 262.231C283.987 262.231 283.987 264.063 285.148 264.063Z" fill="#E8E8E8"/>
<path d="M283.559 262.842C277.691 272.554 271.823 282.205 265.894 291.917C265.283 292.956 266.872 293.872 267.483 292.834C273.351 283.121 279.219 273.47 285.148 263.758C285.759 262.781 284.17 261.803 283.559 262.842Z" fill="#E8E8E8"/>
<path d="M179.463 349.397C206.052 347.381 232.58 345.06 259.048 342.311C260.209 342.189 260.209 340.356 259.048 340.478C232.519 343.166 205.991 345.548 179.463 347.564C178.301 347.686 178.301 349.519 179.463 349.397Z" fill="#E8E8E8"/>
<path d="M188.509 304.378C189.487 318.427 190.526 332.538 191.504 346.587C191.566 347.747 193.399 347.747 193.338 346.587C192.36 332.538 191.321 318.427 190.343 304.378C190.221 303.218 188.387 303.218 188.509 304.378V304.378Z" fill="#E8E8E8"/>
<path d="M190.282 304.562C193.766 303.951 197.25 303.767 200.796 303.951C200.49 303.645 200.184 303.34 199.879 303.034C200.796 317.328 202.14 331.56 203.791 345.732C203.913 346.892 205.747 346.892 205.625 345.732C203.913 331.56 202.629 317.267 201.713 303.034C201.651 302.546 201.346 302.118 200.796 302.118C197.067 301.935 193.461 302.179 189.793 302.79C188.632 303.034 189.182 304.806 190.282 304.562Z" fill="#E8E8E8"/>
<path d="M209.536 318.855C210.942 327.346 211.798 335.958 212.103 344.571C212.165 345.732 213.998 345.732 213.937 344.571C213.632 335.775 212.776 327.04 211.309 318.366C211.125 317.206 209.353 317.694 209.536 318.855Z" fill="#E8E8E8"/>
<path d="M211.737 319.771C215.282 319.771 218.766 319.588 222.25 319.099C221.945 318.794 221.639 318.489 221.333 318.183C222.189 326.674 223.106 335.103 223.962 343.594C224.084 344.754 225.918 344.754 225.796 343.594C224.94 335.103 224.023 326.674 223.167 318.183C223.106 317.756 222.8 317.206 222.25 317.267C218.766 317.694 215.221 317.939 211.737 317.939C210.575 317.939 210.575 319.771 211.737 319.771Z" fill="#E8E8E8"/>
<path d="M231.297 304.256C232.764 317.45 233.681 330.644 234.047 343.96C234.109 345.121 235.942 345.121 235.881 343.96C235.453 330.705 234.536 317.45 233.131 304.256C233.008 303.096 231.175 303.096 231.297 304.256Z" fill="#E8E8E8"/>
<path d="M232.214 304.989C234.17 305.111 236.187 305.172 238.143 305.295C240.894 305.417 240.955 305.478 241.016 308.227C241.199 312.197 241.383 316.106 241.627 320.077C242.177 327.651 243.033 335.164 244.439 342.616C244.683 343.777 246.395 343.288 246.211 342.128C244.439 332.721 243.583 323.131 243.094 313.541C242.972 311.342 242.911 309.204 242.788 307.005C242.727 306.15 242.85 304.867 242.177 304.134C241.444 303.401 240.16 303.523 239.243 303.462C236.859 303.34 234.537 303.218 232.153 303.096C231.052 303.096 231.052 304.928 232.214 304.989V304.989Z" fill="#E8E8E8"/>
<path d="M255.992 362.407C279.586 360.758 303.119 357.765 326.346 353.428C327.508 353.184 327.019 351.474 325.857 351.657C302.752 355.994 279.402 358.926 255.992 360.575C254.769 360.636 254.769 362.469 255.992 362.407Z" fill="#E8E8E8"/>
<path d="M291.933 350.74C301.958 349.702 312.043 348.664 322.068 347.625C323.229 347.503 323.229 345.671 322.068 345.793C312.043 346.831 301.958 347.87 291.933 348.908C290.772 349.03 290.772 350.863 291.933 350.74V350.74Z" fill="#E8E8E8"/>
<path d="M309.048 338.524C313.632 338.341 318.278 338.157 322.862 337.974C324.023 337.913 324.023 336.08 322.862 336.142C318.278 336.325 313.632 336.508 309.048 336.691C307.825 336.752 307.825 338.585 309.048 338.524Z" fill="#E8E8E8"/>
<path d="M260.637 133.101C261.798 136.46 262.287 139.881 262.104 143.424C262.043 144.584 263.877 144.584 263.938 143.424C264.121 139.698 263.632 136.155 262.41 132.612C261.982 131.512 260.209 132.001 260.637 133.101V133.101Z" fill="#E8E8E8"/>
<path d="M262.165 133.284C278.974 131.574 295.784 130.474 312.654 129.924C313.816 129.863 313.816 128.031 312.654 128.092C295.784 128.642 278.913 129.741 262.165 131.451C261.004 131.574 261.004 133.406 262.165 133.284Z" fill="#E8E8E8"/>
<path d="M263.937 144.401C280.686 143.179 297.373 141.958 314.121 140.736C315.282 140.675 315.282 138.842 314.121 138.904C297.373 140.125 280.686 141.347 263.937 142.569C262.776 142.63 262.776 144.462 263.937 144.401V144.401Z" fill="#E8E8E8"/>
<path d="M312.899 130.23C313.449 134.017 313.999 137.743 314.549 141.53C314.733 142.691 316.505 142.202 316.322 141.041C315.772 137.254 315.222 133.528 314.672 129.741C314.488 128.58 312.716 129.069 312.899 130.23Z" fill="#E8E8E8"/>
<path d="M608.5 179.951C608.561 182.273 608.683 184.533 608.989 186.854C609.172 188.014 611.006 188.014 610.822 186.854C610.517 184.594 610.333 182.273 610.333 179.951C610.333 178.791 608.5 178.791 608.5 179.951Z" fill="#E8E8E8"/>
<path d="M609.844 180.868H728.488C729.649 180.868 729.649 179.035 728.488 179.035C688.94 179.035 649.392 179.035 609.844 179.035C608.683 179.035 608.683 180.868 609.844 180.868V180.868Z" fill="#E8E8E8"/>
<path d="M727.387 180.684V184.716C727.387 185.877 729.221 185.877 729.221 184.716C729.221 183.372 729.221 182.028 729.221 180.684C729.221 179.463 727.387 179.463 727.387 180.684Z" fill="#E8E8E8"/>
<path d="M610.944 187.526H728.06C729.221 187.526 729.221 185.693 728.06 185.693C689.001 185.693 649.942 185.693 610.944 185.693C609.722 185.693 609.722 187.526 610.944 187.526V187.526Z" fill="#E8E8E8"/>
<path d="M610.761 158.878C612.289 165.78 613.573 172.744 614.612 179.707C614.795 180.868 616.568 180.379 616.385 179.218C615.284 172.255 614.001 165.291 612.534 158.389C612.228 157.228 610.517 157.717 610.761 158.878Z" fill="#E8E8E8"/>
<path d="M611.861 158.756C619.869 159 628.243 159.977 636.25 159C637.412 158.878 637.412 157.045 636.25 157.167C628.243 158.145 619.869 157.167 611.861 156.923C610.7 156.862 610.7 158.694 611.861 158.756V158.756Z" fill="#E8E8E8"/>
<path d="M635.333 159.366C634.477 165.963 633.683 172.56 632.827 179.218C632.705 180.379 634.539 180.379 634.661 179.218C635.517 172.621 636.311 166.024 637.167 159.366C637.289 158.206 635.455 158.206 635.333 159.366Z" fill="#E8E8E8"/>
<path d="M620.969 156.74C619.746 156.19 618.279 155.64 617.362 154.663C615.773 153.075 615.895 150.937 615.651 148.86C615.284 146.111 613.756 143.668 613.573 140.858C613.084 141.103 612.656 141.408 612.167 141.652C617.851 145.317 622.864 150.509 622.68 157.717C622.619 158.878 624.453 158.878 624.514 157.717C624.758 149.837 619.318 144.096 613.084 140.064C612.533 139.698 611.678 140.186 611.678 140.858C611.8 142.507 612.289 143.973 612.839 145.562C613.634 147.761 613.634 149.899 614.062 152.159C614.734 155.518 617.057 156.984 619.991 158.328C621.091 158.756 622.008 157.229 620.969 156.74V156.74Z" fill="#E8E8E8"/>
<path d="M622.742 148.921C622.069 144.279 625.126 139.82 626.837 135.727C628.182 132.49 629.16 129.191 628.976 125.648C628.365 125.709 627.754 125.832 627.204 125.893C629.465 136.46 632.277 146.478 627.448 156.862C626.959 157.9 628.548 158.878 629.037 157.778C631.238 153.014 632.399 147.883 632.155 142.63C631.849 136.827 630.199 131.085 628.976 125.404C628.793 124.366 627.143 124.61 627.204 125.648C627.57 134.139 619.747 140.98 621.03 149.41C621.152 150.57 622.925 150.082 622.742 148.921V148.921Z" fill="#E8E8E8"/>
<path d="M652.631 113.554C653.365 135.788 653.609 157.962 653.181 180.196C653.181 181.356 655.015 181.356 655.015 180.196C655.382 157.962 655.199 135.727 654.465 113.554C654.465 112.332 652.631 112.332 652.631 113.554Z" fill="#E8E8E8"/>
<path d="M654.038 113.859C656.666 111.66 661.128 112.638 664.062 113.554C665.162 113.92 665.651 112.149 664.551 111.783C660.822 110.622 655.932 109.889 652.754 112.577C651.837 113.31 653.121 114.592 654.038 113.859Z" fill="#E8E8E8"/>
<path d="M663.329 113.554C663.451 135.483 663.573 157.351 663.695 179.28C663.695 180.44 665.529 180.44 665.529 179.28C665.407 157.351 665.285 135.483 665.162 113.554C665.162 112.332 663.329 112.332 663.329 113.554Z" fill="#E8E8E8"/>
<path d="M655.382 128.336C657.827 126.32 661.434 126.504 663.695 128.642C664.551 129.436 665.835 128.153 664.979 127.359C661.923 124.488 657.277 124.427 654.099 127.053C653.182 127.786 654.465 129.069 655.382 128.336V128.336Z" fill="#E8E8E8"/>
<path d="M654.588 121.312C657.277 118.99 661.128 118.929 663.94 121.067C664.918 121.8 665.773 120.151 664.857 119.479C661.311 116.852 656.544 117.219 653.243 120.029C652.387 120.823 653.732 122.106 654.588 121.312Z" fill="#E8E8E8"/>
<path d="M665.224 129.252C667.974 129.252 670.664 129.558 673.353 130.23C673.109 129.924 672.925 129.619 672.681 129.375C673.047 145.867 672.864 162.298 672.008 178.791C671.947 179.952 673.781 179.952 673.842 178.791C674.698 162.36 674.881 145.867 674.514 129.375C674.514 129.008 674.209 128.58 673.842 128.519C670.969 127.786 668.158 127.481 665.224 127.481C664.001 127.42 664.001 129.252 665.224 129.252V129.252Z" fill="#E8E8E8"/>
<path d="M665.651 146.6C668.096 145.012 671.03 144.951 673.537 146.417C674.576 147.028 675.493 145.439 674.453 144.829C671.397 142.996 667.669 143.057 664.735 145.012C663.757 145.623 664.673 147.211 665.651 146.6Z" fill="#E8E8E8"/>
<path d="M665.346 137.865C667.485 136.827 669.93 136.766 672.131 137.682C673.231 138.109 674.148 136.582 673.047 136.094C670.175 134.872 667.241 134.933 664.429 136.277C663.39 136.827 664.307 138.415 665.346 137.865Z" fill="#E8E8E8"/>
<path d="M678.549 178.974C678.549 177.936 677.876 174.149 678.488 173.416C679.343 172.377 684.05 172.744 685.272 172.683C689.49 172.438 693.769 172.255 697.986 172.194C706.483 172.072 714.979 172.377 723.414 173.049C723.109 172.744 722.803 172.438 722.498 172.133C722.864 174.882 723.048 177.63 722.987 180.44C722.987 181.601 724.82 181.601 724.82 180.44C724.82 177.63 724.698 174.882 724.331 172.133C724.27 171.583 723.965 171.278 723.414 171.217C712.962 170.422 702.387 170.178 691.935 170.545C689.49 170.606 687.106 170.728 684.661 170.911C682.889 171.033 679.588 170.667 677.937 171.461C675.554 172.56 676.654 177.019 676.715 179.035C676.715 180.135 678.549 180.196 678.549 178.974V178.974Z" fill="#E8E8E8"/>
<path d="M684.844 170.606C684.722 169.934 684.111 167.918 684.233 167.246C684.661 165.414 686.433 165.841 687.778 165.841C689.979 165.78 692.24 165.78 694.441 165.719C699.086 165.658 703.732 165.536 708.439 165.475C712.901 165.414 717.363 165.291 721.825 165.23C724.27 165.169 726.715 165.169 729.099 165.108C730.81 165.108 731.788 164.497 732.338 166.696C732.583 167.674 732.4 168.956 732.338 169.934C732.277 171.094 734.111 171.094 734.172 169.934C734.233 168.346 734.722 165.23 733.439 163.887C732.277 162.726 729.893 163.276 728.488 163.337C721.58 163.459 714.734 163.581 707.827 163.703C701.165 163.825 694.441 163.948 687.778 164.07C686.433 164.07 683.561 163.52 682.583 164.742C681.421 166.147 682.827 169.628 683.072 171.155C683.316 172.255 685.089 171.766 684.844 170.606V170.606Z" fill="#E8E8E8"/>
<path d="M723.047 172.988C725.798 173.049 728.61 173.11 731.36 172.927C732.705 172.805 734.05 172.316 733.928 170.728C733.805 169.567 731.972 169.567 732.094 170.728C732.155 171.4 723.842 171.217 723.047 171.156C721.886 171.094 721.886 172.927 723.047 172.988V172.988Z" fill="#E8E8E8"/>
<path d="M690.224 164.436C690.163 163.398 689.857 161.993 689.979 160.955C690.101 159.733 689.796 159.55 691.202 159.366C693.158 159.122 695.664 159.794 697.62 159.916C701.715 160.222 705.872 160.405 709.967 160.466C714.062 160.527 718.219 160.527 722.314 160.344C724.148 160.283 726.349 159.794 728.182 160.038C729.038 159.672 729.71 159.916 730.138 160.71C730.811 161.016 731.055 161.565 730.994 162.237C731.177 162.726 731.239 163.337 731.422 163.887C731.85 164.986 733.622 164.497 733.195 163.398C732.644 162.054 733.011 160.038 731.911 158.878C730.933 157.839 729.527 158.084 728.182 158.145C722.131 158.45 716.018 158.633 709.967 158.572C704.099 158.45 698.231 158.145 692.363 157.595C691.141 157.473 689.246 156.984 688.39 158.206C687.412 159.672 688.268 162.787 688.39 164.375C688.512 165.597 690.346 165.597 690.224 164.436V164.436Z" fill="#E8E8E8"/>
<path d="M737.106 224.909V252.091C737.106 253.251 738.94 253.251 738.94 252.091C738.94 243.051 738.94 233.949 738.94 224.909C738.94 223.748 737.106 223.748 737.106 224.909Z" fill="#E8E8E8"/>
<path d="M738.634 224.909H786.312C787.473 224.909 787.473 223.076 786.312 223.076C770.419 223.076 754.527 223.076 738.634 223.076C737.473 223.076 737.473 224.909 738.634 224.909Z" fill="#E8E8E8"/>
<path d="M785.456 224.298V251.48C785.456 252.641 787.29 252.641 787.29 251.48C787.29 242.44 787.29 233.338 787.29 224.298C787.29 223.137 785.456 223.137 785.456 224.298Z" fill="#E8E8E8"/>
<path d="M738.023 253.618H785.701C786.862 253.618 786.862 251.786 785.701 251.786C769.808 251.786 753.916 251.786 738.023 251.786C736.862 251.786 736.862 253.618 738.023 253.618Z" fill="#E8E8E8"/>
<path d="M758.806 223.076C758.806 221.488 758.928 220.022 759.356 218.495C759.539 217.823 759.783 216.785 760.211 216.296C760.395 215.685 760.823 215.502 761.556 215.746C762.534 215.319 763.023 215.624 763.084 216.724C763.818 219.289 763.94 222.221 764.307 224.909C764.49 226.069 766.263 225.581 766.079 224.42C765.713 221.733 765.59 218.862 764.857 216.235C764.49 214.769 763.39 213.242 761.739 213.12C757.644 212.875 756.911 220.328 756.911 223.076C757.033 224.237 758.867 224.237 758.806 223.076V223.076Z" fill="#E8E8E8"/>
<path d="M740.102 228.879V249.037C740.102 250.197 741.935 250.197 741.935 249.037C741.935 242.318 741.935 235.598 741.935 228.879C741.935 227.719 740.102 227.719 740.102 228.879Z" fill="#E8E8E8"/>
<path d="M741.996 228.879H783.561C784.722 228.879 784.722 227.047 783.561 227.047C769.686 227.047 755.81 227.047 741.996 227.047C740.835 227.047 740.835 228.879 741.996 228.879Z" fill="#E8E8E8"/>
<path d="M782.4 228.268V249.648C782.4 250.808 784.234 250.808 784.234 249.648C784.234 242.501 784.234 235.415 784.234 228.268C784.234 227.108 782.4 227.108 782.4 228.268Z" fill="#E8E8E8"/>
<path d="M741.385 249.953H781.116C782.278 249.953 782.278 248.12 781.116 248.12C767.852 248.12 754.588 248.12 741.385 248.12C740.224 248.12 740.224 249.953 741.385 249.953Z" fill="#E8E8E8"/>
<path d="M743.096 241.829C744.441 239.874 745.664 239.447 746.703 240.424C746.886 240.546 747.008 240.668 747.192 240.791C747.62 240.974 747.925 241.279 748.353 241.401C749.087 241.646 749.942 241.585 750.676 241.279C751.226 241.035 751.715 240.607 751.898 239.996C752.204 239.019 751.471 238.836 751.409 237.981C751.104 237.614 751.226 237.248 751.776 236.759C751.898 235.354 752.754 235.049 754.221 235.904C754.588 235.904 754.955 236.026 755.26 235.965C756.36 235.782 756.483 235.415 757.277 234.743C759.845 232.666 762.718 233.705 763.39 237.003C763.451 237.431 763.757 240.241 763.268 240.546C762.779 239.935 762.29 239.386 761.801 238.775C763.39 239.019 764.551 239.874 765.224 241.218C765.59 241.829 766.385 241.768 766.813 241.218C768.035 239.935 769.258 239.874 770.48 241.096C770.908 240.668 771.336 240.241 771.764 239.813C771.275 239.386 770.847 238.958 770.358 238.53C768.769 237.187 768.891 235.659 770.786 233.888C773.353 234.01 774.698 236.515 773.598 238.775C772.192 241.523 768.83 241.89 766.079 241.646V243.478C770.053 243.723 774.087 243.967 778.06 244.211C779.221 244.272 779.221 242.44 778.06 242.379C774.087 242.134 770.053 241.89 766.079 241.646C764.918 241.585 764.918 243.356 766.079 243.478C769.258 243.784 772.742 243.173 774.759 240.363C776.348 238.103 776.226 234.682 773.903 232.911C772.131 231.567 769.441 231.811 767.974 233.583C765.774 236.331 768.341 239.324 770.419 241.157C771.275 241.951 772.559 240.729 771.703 239.874C769.747 237.797 766.752 238.164 765.163 240.363H766.752C765.224 237.859 762.351 236.026 759.478 237.553C757.277 238.775 756.483 241.951 758.5 243.784C760.578 245.677 763.573 244.211 764.674 242.073C765.896 239.63 765.651 235.782 763.879 233.583C762.106 231.384 758.989 231.139 756.788 232.789C755.26 233.949 756.177 234.132 753.61 233.949C752.754 233.888 752.021 233.705 751.165 233.949C750.248 234.194 749.392 234.743 748.964 235.659C748.659 236.331 748.536 236.942 748.842 237.675C748.903 237.92 749.576 238.469 749.514 238.653C749.27 239.996 745.725 237.553 745.114 237.431C742.363 237.003 740.529 239.935 741.324 242.318C741.691 243.417 743.463 242.989 743.096 241.829V241.829Z" fill="#E8E8E8"/>
<path d="M460.393 551.827C456.298 548.528 450.736 547.856 446.212 550.117C440.894 552.804 438.022 559.096 439.366 565.387C440.467 573.756 441.567 582.185 442.667 590.554C420.356 600.755 409.721 607.413 410.638 610.467C411.738 614.193 429.831 612.605 464.978 605.825C463.45 587.805 461.921 569.846 460.393 551.827V551.827Z" fill="#191919"/>
<path d="M445.479 353.55C444.623 365.828 443.217 385.741 440.834 410.419C437.9 441.388 436.677 472.602 432.521 503.449C428.242 535.457 423.535 557.385 434.354 565.021C438.266 567.77 442.973 567.77 446.335 567.342C449.88 566.426 453.425 565.448 456.971 564.532C460.455 566.243 465.161 567.892 468.951 565.937C480.076 560.256 469.562 531.12 470.357 489.339C470.907 461.79 476.225 434.303 483.315 398.202C488.694 370.654 492.79 356.36 485.149 349.336C475.858 340.723 455.259 348.969 445.479 353.55V353.55Z" fill="white" stroke="#161616" stroke-width="2" stroke-miterlimit="10"/>
<path opacity="0.14" d="M463.022 347.809C465.345 358.62 467.973 374.991 467.79 394.904C467.484 427.034 459.966 447.313 454.526 471.441C449.575 493.309 444.807 525.195 446.946 566.304C450.186 565.693 453.487 565.021 456.726 564.41C457.46 564.96 460.455 566.976 464.611 566.609C465.223 566.548 469.257 566.12 471.885 563.127C475.125 559.462 474.452 554.026 474.086 551.399C472.68 539.977 472.374 528.432 471.213 516.948C469.99 504.854 470.174 495.447 470.235 489.766C470.296 485.49 470.602 477.488 472.13 464.478C474.819 441.816 477.264 437.968 482.582 405.044C486.616 380.244 484.844 384.764 486.372 379.144C487.778 374.135 490.162 366.867 488.878 357.643C488.267 353.306 487.166 350.863 485.394 349.091C481.726 345.487 476.286 345.548 473.047 345.61C468.707 345.671 465.161 346.892 463.022 347.809V347.809Z" fill="#6D6C6C"/>
<path opacity="0.1" d="M480.442 410.114C475.858 420.253 471.029 433.569 468.095 449.634C462.961 477.977 468.034 492.393 463.694 522.69C462.105 533.868 459.11 547.918 453.242 563.799C455.442 564.105 457.643 564.41 459.904 564.776C463.205 565.937 467.362 566.792 470.357 564.776C475.736 561.173 473.902 550.605 472.557 538.205C472.557 538.205 470.907 522.934 470.662 493.92C470.54 477.855 472.007 466.005 474.146 448.718C476.041 433.203 478.364 420.07 480.442 410.114V410.114Z" fill="#6D6C6C"/>
<path d="M537.533 547.185C533.438 543.886 527.875 543.214 523.352 545.474C518.034 548.162 515.161 554.453 516.506 560.745C517.606 569.113 518.706 577.543 519.807 585.911C497.496 596.112 486.86 602.77 487.777 605.825C488.877 609.551 506.97 607.962 542.117 601.182C540.528 583.163 539 565.204 537.533 547.185V547.185Z" fill="#191919"/>
<path d="M514.733 351.657C518.279 380.671 522.068 410.602 526.103 441.694C528.853 463.073 529.526 468.143 531.665 476.45C535.332 490.866 540.284 503.143 544.562 525.439C546.58 535.823 547.619 544.253 542.79 550.605C539.183 555.37 532.154 559.157 530.565 557.691C529.892 557.019 530.32 555.309 530.931 553.782C529.464 555.186 520.174 563.921 512.777 560.867C508.438 559.096 506.665 554.026 505.809 551.277C497.129 524.706 495.724 498.074 495.724 498.074C495.173 487.812 493.829 477.305 491.2 456.231C489.244 440.777 485.577 418.421 477.692 391.239C476.53 390.506 465.161 382.931 464.427 368.943C464.366 367.905 463.939 357.338 470.601 350.191C479.403 340.723 498.23 340.051 514.733 351.657V351.657Z" fill="white" stroke="#161616" stroke-width="2" stroke-miterlimit="10"/>
<path d="M465.406 358.987C463.205 365.339 462.594 372.486 466.078 378.533C469.073 383.725 473.902 389.406 479.77 391.239C480.871 391.605 481.36 389.834 480.259 389.467C474.88 387.818 470.357 382.382 467.668 377.617C464.428 371.997 465.161 365.4 467.179 359.475C467.606 358.376 465.834 357.887 465.406 358.987Z" fill="white"/>
<path d="M463.572 370.348C464.122 379.877 470.234 387.818 479.525 390.445C480.687 390.75 481.176 388.979 480.014 388.673C471.579 386.291 465.956 379.083 465.406 370.348C465.344 369.188 463.511 369.188 463.572 370.348Z" fill="white"/>
<path opacity="0.14" d="M490.65 343.716C492.24 348.48 494.685 356.177 497.374 365.706C505.198 393.316 518.707 441.144 519.563 498.684C519.685 508.274 520.052 557.08 524.453 557.324C525.492 557.385 527.203 554.698 529.526 555.309C531.115 555.736 531.176 557.202 532.582 557.752C535.638 558.913 540.712 553.659 543.157 549.811C544.012 548.467 545.969 545.413 546.396 541.076C546.641 539.122 546.458 537.717 545.785 533.563C544.807 527.149 544.318 523.973 543.951 522.385C541.323 509.985 536.616 498.074 532.765 481.276C531.115 474.19 530.015 467.837 528.67 460.507C528.242 458.186 527.081 451.406 525.797 442.976C522.924 423.674 522.008 410.419 520.113 393.499C519.074 384.275 517.484 371.265 515.039 355.444C514.428 354.1 513.328 352.023 511.372 350.13C510.699 349.519 508.621 347.625 502.998 345.854C500.247 344.877 496.029 343.838 490.65 343.716V343.716Z" fill="#6D6C6C"/>
<path opacity="0.2" d="M530.382 472.174C533.744 487.812 536.005 501.189 537.533 511.695C539.978 528.798 540.101 535.029 536.922 541.626C532.154 551.583 522.252 557.508 522.863 558.302C523.108 558.607 524.697 557.996 530.198 554.453C530.382 555.919 530.81 557.569 532.032 558.118C535.15 559.462 542.057 552.743 545.052 546.329C549.147 537.472 546.152 528.371 543.401 519.636C539.978 508.58 535.394 492.82 530.382 472.174Z" fill="#6D6C6C"/>
<path d="M449.085 247.815C443.095 247.021 437.594 254.84 426.897 270.416C419.562 281.044 414.428 290.39 411.066 296.865C403.792 296.499 396.518 296.132 389.244 295.704C382.459 295.338 375.674 294.971 368.889 294.544C366.2 293.628 362.166 292.284 357.215 291.123C349.207 289.169 332.642 285.931 331.603 288.802C331.298 289.718 332.398 291.612 339.488 296.071C338.999 297.293 337.227 302.424 339.488 308.349C339.855 309.265 341.872 314.213 346.64 316.778C352.752 320.016 361.188 318.244 367.361 312.197C372.129 315.068 397.985 330.155 422.313 319.832C430.259 316.473 435.821 311.342 440.772 306.822C449.758 298.575 461.555 287.764 461.861 272.737C462.105 261.864 456.359 248.792 449.085 247.815V247.815Z" fill="white" stroke="#161616" stroke-width="2" stroke-miterlimit="10"/>
<path d="M331.114 289.535C333.498 291.917 335.821 294.483 338.51 296.498C341.138 298.453 344.134 299.553 347.19 300.591C348.046 300.896 348.412 299.553 347.557 299.247C344.317 298.148 341.2 296.926 338.51 294.727C336.187 292.833 334.17 290.634 332.092 288.558C331.481 287.947 330.503 288.924 331.114 289.535V289.535Z" fill="#161616"/>
<path d="M360.026 295.827C357.703 296.682 355.564 298.026 353.914 299.858C352.752 301.141 351.041 303.157 351.469 304.989C351.896 307.066 354.464 307.066 356.175 307.066C358.926 307.005 361.554 306.211 363.938 304.806C364.672 304.378 363.999 303.157 363.266 303.645C361.738 304.562 360.087 305.233 358.315 305.539C356.786 305.783 352.324 306.333 353.119 303.462C353.914 300.53 357.826 298.148 360.454 297.17C361.187 296.865 360.821 295.521 360.026 295.827V295.827Z" fill="#161616"/>
<path d="M338.694 297.17C337.41 301.263 337.41 305.233 341.811 307.188C345.051 308.654 349.757 307.921 351.408 304.439C351.774 303.645 350.613 302.973 350.246 303.767C348.901 306.638 345.051 307.127 342.361 305.905C338.632 304.256 338.999 300.897 340.038 297.537C340.283 296.682 338.999 296.315 338.694 297.17V297.17Z" fill="#161616"/>
<path d="M338.388 306.211C338.633 309.692 340.772 313.113 344.44 313.785C347.679 314.396 350.674 312.441 351.836 309.509C352.141 308.715 350.858 308.349 350.491 309.143C349.513 311.586 346.762 313.052 344.134 312.319C341.444 311.525 339.916 308.837 339.733 306.211C339.733 305.356 338.327 305.356 338.388 306.211V306.211Z" fill="#161616"/>
<path d="M351.591 310.181C356.359 309.326 354.769 317.817 351.285 317.511C350.43 317.45 350.43 318.794 351.285 318.916C354.219 319.16 355.809 315.556 355.992 313.113C356.175 310.425 353.853 308.471 351.224 308.96C350.368 309.021 350.735 310.303 351.591 310.181V310.181Z" fill="#161616"/>
<path d="M351.224 305.233C351.224 305.172 351.286 305.172 351.286 305.111C351.041 305.172 350.858 305.233 350.613 305.294C351.102 305.417 351.163 307.005 351.102 307.31C351.041 308.104 350.735 308.837 350.124 309.448C349.513 310.059 350.491 311.036 351.102 310.425C352.019 309.509 352.508 308.226 352.447 306.883C352.386 305.905 352.08 304.195 350.919 303.951C350.674 303.89 350.43 303.951 350.246 304.134C350.246 304.195 350.185 304.195 350.185 304.256C349.696 304.928 350.613 305.905 351.224 305.233V305.233Z" fill="#161616"/>
<path d="M347.923 300.713C349.39 300.774 350.307 302.179 349.94 303.584C349.696 304.439 351.041 304.806 351.285 303.951C351.896 301.691 350.368 299.431 347.984 299.369C347.006 299.308 347.006 300.713 347.923 300.713Z" fill="#161616"/>
<path opacity="0.12" d="M458.132 257.65C456.359 262.842 453.425 269.866 448.78 277.563C444.012 285.442 438.694 294.177 428.364 301.507C424.574 304.195 413.144 312.136 396.212 312.747C380.259 313.296 368.522 307.066 363.877 304.256C360.209 307.005 357.703 307.188 356.053 306.822C354.586 306.455 354.036 305.722 351.469 304.928C349.268 304.256 347.496 304.134 346.518 304.073C342.972 303.829 339.305 303.584 338.327 305.233C337.043 307.494 341.2 312.319 344.439 314.946C345.906 316.106 348.473 318.122 352.08 318.672C360.576 320.016 366.872 312.625 367.239 312.197C369.317 313.48 372.312 315.251 376.102 316.961C382.276 319.832 391.017 323.803 402.63 323.742C415.833 323.742 425.369 318.55 427.325 317.45C429.647 316.106 433.987 312.319 442.606 304.684C450.613 297.598 453.547 294.483 456.237 290.207C457.826 287.703 459.843 284.465 461.005 280.006C463.511 270.477 460.149 261.803 458.132 257.65V257.65Z" fill="#6D6C6C"/>
<path opacity="0.15" d="M461.371 264.979C460.21 269.011 458.193 274.692 454.709 280.983C451.469 286.847 442.912 301.935 424.757 311.22C419.378 313.968 410.087 318.611 397.19 318.366C382.887 318.061 372.618 311.953 368.278 309.021C365.833 310.548 362.165 312.502 357.398 313.785C351.041 315.434 346.456 314.885 346.334 315.801C346.212 316.717 350.613 318.672 355.197 318.55C361.615 318.366 366.139 314.152 367.789 312.441C372.007 315.495 387.777 326.246 408.437 323.497C424.391 321.359 434.476 312.38 443.339 304.439C449.941 298.514 457.582 291.49 460.516 279.762C462.044 273.775 461.799 268.522 461.371 264.979V264.979Z" fill="#6D6C6C"/>
<path d="M442.606 248.059C441.384 249.464 439.244 252.457 437.41 266.751C434.965 286.175 436.249 301.568 437.41 313.052C438.755 326.674 440.65 343.105 443.401 361.797C454.036 365.095 471.702 368.821 492.912 365.462C502.509 363.934 510.699 361.308 517.301 358.559C515.895 343.288 516.078 330.949 516.506 322.825C518.584 280.861 520.479 269.194 520.479 269.194C521.885 260.826 523.169 255.634 520.051 250.93C516.934 246.105 511.005 244.455 492.117 243.234C463.45 241.279 449.024 240.485 442.606 248.059V248.059Z" fill="#EC615B"/>
<path opacity="0.14" d="M483.865 243.356C485.76 250.075 487.349 257.222 488.694 264.796C495.662 304.623 490.772 339.929 483.865 366.256C487.41 366.011 491.139 365.584 495.112 364.912C503.547 363.507 510.944 361.308 517.056 359.048C516.2 346.892 515.956 336.508 515.956 328.262C516.017 305.233 518.034 287.641 518.89 280.617C519.99 272.065 521.152 264.918 522.13 259.726C522.374 258.26 522.619 255.573 521.335 252.763C519.868 249.525 517.117 247.815 515.956 247.143C511.983 244.761 507.949 244.761 505.748 244.761C500.491 244.578 493.523 244.272 483.865 243.356V243.356Z" fill="#6D6C6C"/>
<path opacity="0.16" d="M521.641 257.772C510.821 285.809 508.56 305.844 508.804 319.344C508.865 324.414 509.416 336.569 502.936 349.336C498.963 357.093 493.768 362.53 489.794 365.95C493.462 365.462 497.496 364.729 501.836 363.568C507.398 362.102 512.227 360.27 516.323 358.498C515.773 342.739 515.834 325.635 516.873 307.371C517.79 289.535 519.501 272.981 521.641 257.772V257.772Z" fill="#6D6C6C"/>
<path d="M513.328 248.243C520.846 244.944 531.054 254.595 537.656 260.765C544.868 267.545 559.477 281.289 560.211 303.767C560.822 322.52 551.47 336.08 546.824 341.761C539.551 350.618 531.299 355.261 526.409 357.521C526.348 359.598 526.042 362.896 524.636 366.5C523.841 368.455 519.807 378.717 512.105 379.144C511.066 379.205 507.521 379.205 503.426 375.357C503.181 375.357 501.959 375.174 501.164 374.074C500.431 373.036 500.369 371.509 501.103 370.287C500.92 370.165 499.33 369.371 498.964 367.477C498.536 365.4 499.942 363.873 500.064 363.812C500.125 362.774 500.369 361.43 501.347 360.758C502.448 360.025 503.609 360.636 505.382 360.514C506.543 360.392 508.193 359.964 510.149 358.254C507.949 357.643 502.998 356.055 503.12 354.283C503.181 352.206 510.333 350.985 511.922 350.679C515.834 350.007 519.196 350.13 521.458 350.313C522.802 347.87 524.758 344.266 527.081 339.929C530.993 332.599 532.949 328.934 534.11 326.307C536.311 321.42 538.756 314.029 539.428 303.706C536.678 301.019 532.46 297.17 527.081 292.956C515.467 283.915 511.555 283.732 508.377 278.601C502.387 269.011 505.259 251.785 513.328 248.243V248.243Z" fill="white" stroke="#161616" stroke-width="2" stroke-miterlimit="10"/>
<path d="M499.452 363.079C500.43 367.844 507.765 366.744 510.699 365.034C511.433 364.606 510.76 363.385 510.027 363.873C507.887 365.156 501.53 366.561 500.797 362.774C500.614 361.858 499.269 362.224 499.452 363.079V363.079Z" fill="#161616"/>
<path d="M500.186 370.715C503.853 373.341 509.232 372.12 513.083 370.348C513.878 369.982 513.205 368.821 512.411 369.188C508.988 370.715 504.159 371.814 500.919 369.554C500.186 369.004 499.513 370.226 500.186 370.715Z" fill="#161616"/>
<path d="M502.936 376.09C506.726 377.923 511.127 377.678 514.611 375.235C515.345 374.746 514.672 373.525 513.939 374.074C510.883 376.212 507.032 376.579 503.67 374.93C502.875 374.502 502.142 375.663 502.936 376.09Z" fill="#161616"/>
<path opacity="0.18" d="M510.699 250.564C509.477 254.718 523.78 258.688 536.311 272.126C540.651 276.769 549.514 286.237 551.592 300.286C554.22 317.694 545.113 331.621 541.751 336.63C535.271 346.465 527.386 352.268 522.619 355.261C522.619 356.971 522.374 363.202 517.606 368.455C516.628 369.554 512.778 373.769 507.154 374.38C503.914 374.746 500.98 373.83 500.858 374.197C500.797 374.563 503.059 375.052 505.993 377.067C507.887 378.35 507.949 378.9 508.866 379.328C512.655 381.099 518.645 375.724 519.318 375.174C525.553 369.493 526.286 361.064 526.408 357.948C527.814 357.154 529.709 356.055 531.91 354.589C534.171 353.062 540.834 348.664 546.091 342.861C547.497 341.334 554.648 333.21 558.132 320.199C559.355 315.618 562.717 302.363 557.338 287.886C554.954 281.594 551.898 277.502 546.396 270.355C541.506 263.941 537.9 260.765 530.932 254.595C525.919 250.136 522.924 248.059 518.89 247.815C516.139 247.632 511.372 248.304 510.699 250.564V250.564Z" fill="#6D6C6C"/>
<path opacity="0.18" d="M552.57 278.54C554.648 283.671 557.643 293.017 557.216 304.928C556.788 317.878 552.57 327.285 550.92 330.522C543.34 345.793 531.36 353.978 525.492 357.399C530.259 355.627 537.167 352.268 543.707 345.976C562.839 327.529 560.027 301.507 559.783 299.675C558.683 290.512 555.382 283.366 552.57 278.54V278.54Z" fill="#6D6C6C"/>
<path d="M482.521 201.209C486.188 213.486 487.533 220.633 492.729 231.872C495.174 237.126 497.497 241.279 499.147 244.028C493.829 246.532 485.21 249.77 474.147 250.197C467.606 250.442 461.983 249.587 457.643 248.609C458.071 245.25 458.315 241.035 458.01 236.27C457.582 230.284 456.298 225.214 455.076 221.488C449.208 220.755 443.279 219.961 437.411 219.228C436.249 216.663 435.088 214.036 433.927 211.471C432.337 211.409 430.687 211.348 429.098 211.287C430.32 207.744 432.154 202.186 434.293 195.283C438.266 182.273 438.205 180.44 440.345 177.508C446.274 169.506 459.538 164.375 468.279 168.712C473.474 171.217 476.531 181.234 482.521 201.209V201.209Z" fill="white" stroke="#161616" stroke-width="2" stroke-miterlimit="10"/>
<path d="M429.22 212.265C432.276 212.326 435.271 212.081 438.266 211.654C439.428 211.471 438.939 209.699 437.777 209.882C434.904 210.31 432.093 210.493 429.22 210.432C428.058 210.432 428.058 212.265 429.22 212.265Z" fill="#161616"/>
<path d="M428.059 188.931C429.77 188.015 432.032 188.503 433.132 190.091C433.804 191.069 435.394 190.152 434.721 189.175C433.01 186.732 429.77 185.938 427.142 187.343C426.103 187.892 427.019 189.481 428.059 188.931Z" fill="#161616"/>
<path d="M442.484 191.069C444.685 190.397 447.068 191.13 448.352 193.084C449.024 194.062 450.614 193.146 449.941 192.168C448.169 189.603 444.99 188.381 441.995 189.358C440.895 189.664 441.323 191.435 442.484 191.069Z" fill="#161616"/>
<path d="M442.912 197.91C442.851 197.238 442.973 196.566 443.34 195.955C443.401 195.833 443.523 195.65 443.645 195.528C443.401 195.222 443.278 195.161 443.34 195.467C443.217 195.589 443.278 196.2 443.217 196.383C443.156 196.688 443.034 196.994 442.912 197.299C442.851 197.421 442.789 197.544 442.728 197.605C443.034 198.154 443.217 198.215 443.34 197.788C443.584 197.544 443.706 196.994 443.89 196.688C444.073 196.322 444.256 195.955 444.44 195.589C444.929 194.673 443.767 193.756 442.973 194.489C442.545 194.917 442.3 195.345 442.117 195.894C441.811 197.055 443.584 197.544 443.89 196.383C443.951 196.078 444.073 195.955 444.256 195.772C443.767 195.406 443.278 195.039 442.789 194.673C442.362 195.528 441.873 196.383 441.506 197.299C441.2 197.971 441.261 198.765 441.934 199.193C443.584 200.231 444.623 198.093 444.929 196.811C445.173 195.589 445.173 193.023 443.156 193.573C441.567 194.062 440.956 196.383 441.017 197.788C441.139 199.071 442.973 199.071 442.912 197.91V197.91Z" fill="#161616"/>
<path d="M438.205 180.684C438.633 178.058 439.672 173.66 442.545 169.14C443.584 167.552 445.723 164.192 449.208 161.932C455.87 157.595 466.078 157.961 473.474 163.276C480.748 168.468 484.354 177.752 482.765 187.037C467.973 184.96 453.058 182.822 438.205 180.684V180.684Z" fill="#5222D0"/>
<path d="M413.877 180.868C436.799 183.739 459.66 186.61 482.582 189.48C486.066 189.908 486.066 184.411 482.582 183.983C459.66 181.112 436.799 178.241 413.877 175.37C410.332 174.943 410.393 180.44 413.877 180.868Z" fill="#161616"/>
<path d="M467.973 186.426C463.939 187.892 461.555 190.702 458.865 193.94C453.12 200.903 454.831 203.469 450.797 207.805C444.379 214.708 437.838 210.615 432.093 217.396C427.203 223.137 427.875 230.895 428.058 232.666C428.242 234.377 429.097 241.279 434.782 246.044C439.733 250.136 446.335 251.052 446.763 250.136C446.885 249.831 446.396 248.976 442.728 246.532C443.767 247.265 445.479 248.182 447.618 248.609C450.124 249.037 452.508 248.609 452.508 248.243C452.508 247.937 451.164 247.998 450.124 246.899C449.513 246.227 449.269 245.494 449.085 244.822C451.102 246.105 453.609 247.265 455.992 246.532C462.533 244.578 463.694 230.101 464.061 225.275C465.283 209.76 460.821 201.27 466.261 195.772C466.689 195.283 468.89 193.084 471.335 193.573C474.391 194.123 476.714 198.826 475.736 201.941C474.88 204.629 471.824 205.362 472.007 205.912C472.313 206.523 477.447 205.545 481.787 202.125C483.376 200.903 484.66 199.865 485.332 198.032C486.494 194.795 485.149 191.13 483.315 188.931C479.526 184.533 472.374 184.838 467.973 186.426V186.426Z" fill="#161616" stroke="#161616" stroke-width="2" stroke-miterlimit="10"/>
<path opacity="0.22" d="M474.024 206.462C473.046 206.584 471.64 206.584 471.579 206.278C471.518 206.095 471.885 205.851 471.885 205.851C471.885 205.851 470.723 207.317 469.256 207.5C468.584 207.561 467.973 207.378 467.545 207.134C470.112 212.57 472.741 219.106 475.002 226.68C477.447 234.988 478.853 242.501 479.648 248.976C482.276 248.976 486.005 248.67 490.283 247.326C493.768 246.227 496.518 244.761 498.596 243.478C493.095 234.865 490.283 227.963 488.694 223.26C487.961 221.061 486.371 215.869 485.638 213.303C484.232 208.661 483.071 204.812 482.337 202.247C481.97 202.613 481.298 203.163 480.503 203.713C479.342 204.568 477.08 206.156 474.024 206.462V206.462Z" fill="#6D6C6C"/>
<path d="M457.582 159.244C463.511 160.405 467.973 165.169 468.706 170.728C469.501 177.386 464.611 181.967 464.122 182.334C470.479 183.128 476.775 183.861 483.132 184.655C483.254 183.189 483.315 181.173 482.887 178.852C481.665 171.4 477.264 166.758 476.347 165.841C474.88 164.375 469.684 159.428 461.921 159C460.149 158.939 458.621 159.122 457.582 159.244Z" fill="#321693"/>
<path d="M323.045 426.606C323.351 429.904 323.596 433.264 323.901 436.563L635.089 437.112C636.005 433.814 636.922 430.454 637.839 427.156C532.949 426.972 427.997 426.789 323.045 426.606Z" fill="white"/>
<path d="M327.202 427.034H330.503C331.664 427.034 331.664 425.201 330.503 425.201C329.403 425.201 328.302 425.201 327.202 425.201C325.98 425.201 325.98 427.034 327.202 427.034Z" fill="#161616"/>
<path d="M323.84 428.805H446.518C446.518 428.805 528.303 428.805 569.196 428.805H638.756C641.14 428.805 641.14 425.14 638.756 425.14C597.864 425.14 556.971 425.14 516.078 425.14C475.186 425.14 434.293 425.14 393.4 425.14C370.234 425.14 347.007 425.14 323.84 425.14C321.517 425.14 321.517 428.805 323.84 428.805Z" fill="#161616"/>
<path d="M324.696 437.845H566.262H634.6C636.984 437.845 636.984 434.18 634.6 434.18C554.098 434.18 473.535 434.18 393.034 434.18C370.234 434.18 347.496 434.18 324.696 434.18C322.312 434.18 322.312 437.845 324.696 437.845Z" fill="#161616"/>
<path d="M334.415 446.764V600.266V644.124C334.415 646.506 338.083 646.506 338.083 644.124C338.083 592.936 338.083 541.748 338.083 490.621C338.083 476.022 338.083 461.362 338.083 446.764C338.083 444.442 334.415 444.442 334.415 446.764V446.764Z" fill="#161616"/>
<path d="M589.795 444.32V583.285V622.745C589.795 625.127 593.462 625.127 593.462 622.745C593.462 576.443 593.462 530.081 593.462 483.78C593.462 470.647 593.462 457.514 593.462 444.32C593.462 441.938 589.795 441.938 589.795 444.32Z" fill="#161616"/>
<path d="M212.301 601H314.102H416.347H473.699C475.434 601 475.434 598 473.699 598C439.75 598 405.847 598 371.898 598C337.817 598 303.735 598 269.653 598C250.521 598 231.433 598 212.301 598C210.566 598 210.566 601 212.301 601V601Z" fill="#161616"/>
<path d="M510.432 603H609.649H708.376H764.568C766.477 603 766.477 599 764.568 599C731.48 599 698.44 599 665.351 599C632.458 599 599.517 599 566.624 599C547.877 599 529.179 599 510.432 599C508.523 599 508.523 603 510.432 603Z" fill="#161616"/>
<path d="M335.148 446.702V596.845V639.604C335.148 641.986 338.816 641.986 338.816 639.604C338.816 589.576 338.816 539.488 338.816 489.461C338.816 475.228 338.816 460.996 338.816 446.702C338.816 444.32 335.148 444.32 335.148 446.702Z" fill="#161616"/>
<path d="M335.943 447.496V597.029V639.604C335.943 641.986 339.61 641.986 339.61 639.604C339.61 589.76 339.61 539.916 339.61 490.072C339.61 475.9 339.61 461.729 339.61 447.496C339.61 445.175 335.943 445.175 335.943 447.496V447.496Z" fill="#161616"/>
<path d="M589.489 443.404V579.437V618.286C589.489 620.668 593.157 620.668 593.157 618.286C593.157 572.962 593.157 527.577 593.157 482.253C593.157 469.303 593.157 456.354 593.157 443.404C593.157 441.083 589.489 441.083 589.489 443.404Z" fill="#161616"/>
<path d="M590.345 444.259V579.131V617.553C590.345 619.935 594.013 619.935 594.013 617.553C594.013 572.595 594.013 527.638 594.013 482.681C594.013 469.853 594.013 457.026 594.013 444.259C594.013 441.877 590.345 441.877 590.345 444.259V444.259Z" fill="#161616"/>
<path d="M326.713 438.151C329.891 441.999 332.703 446.031 335.209 450.306C336.432 452.322 339.61 450.49 338.388 448.474C335.698 443.954 332.642 439.678 329.28 435.585C327.752 433.753 325.185 436.318 326.713 438.151Z" fill="#161616"/>
<path d="M339.122 449.024C343.645 445.236 348.107 441.388 352.63 437.601C354.403 436.074 351.836 433.508 350.063 435.036C345.54 438.823 341.078 442.671 336.554 446.458C334.721 447.985 337.349 450.551 339.122 449.024Z" fill="#161616"/>
<path d="M579.282 440.044C583.072 442.427 586.861 444.809 590.651 447.191C592.668 448.474 594.502 445.298 592.485 444.015C588.695 441.633 584.905 439.25 581.116 436.868C579.098 435.646 577.265 438.823 579.282 440.044Z" fill="#161616"/>
<path d="M601.348 435.707C598.169 438.273 595.113 441.022 592.24 443.893C590.59 445.542 593.157 448.168 594.807 446.458C597.68 443.587 600.736 440.838 603.915 438.273C605.749 436.807 603.181 434.241 601.348 435.707Z" fill="#161616"/>
<path d="M582.154 440.228C587.044 440.961 591.812 441.144 596.702 440.655C596.396 439.495 596.091 438.395 595.785 437.235C593.768 438.517 591.69 438.884 589.306 439.128C587.961 439.311 586.616 441.144 588.022 442.243C589.917 443.77 591.812 444.259 594.196 443.648C596.458 443.099 595.541 439.556 593.218 440.105C592.301 440.472 591.384 440.289 590.59 439.617C590.162 440.655 589.734 441.694 589.306 442.732C592.24 442.427 595.113 441.999 597.619 440.289C599.025 439.372 598.658 436.685 596.702 436.868C592.179 437.296 587.594 437.235 583.071 436.563C580.81 436.318 579.832 439.861 582.154 440.228V440.228Z" fill="#161616"/>
<path d="M599.881 436.746C598.169 436.379 596.458 436.624 594.991 437.601C594.196 438.151 593.829 439.189 594.318 440.105C594.807 440.9 596.03 441.327 596.825 440.777C597.497 440.289 598.169 440.105 598.842 440.289C599.82 440.472 600.798 439.983 601.103 439.006C601.409 438.09 600.859 436.929 599.881 436.746Z" fill="#161616"/>
<path d="M330.87 439.861C331.97 440.594 336.065 442.488 335.882 444.076L337.716 442.243C337.471 442.243 336.738 439.434 336.554 438.945C336.004 439.861 335.515 440.777 334.965 441.694C338.632 441.51 342.117 440.777 345.478 439.434C344.867 438.395 344.317 437.418 343.706 436.379C341.628 438.517 339.427 440.533 337.043 442.366L339.549 444.87C341.75 441.144 338.632 438.09 335.454 436.502C335.148 437.662 334.843 438.762 334.537 439.922C337.043 439.8 339.549 439.739 342.055 439.861C344.439 439.983 344.378 436.318 342.055 436.196C339.549 436.074 337.043 436.074 334.537 436.257C332.826 436.379 331.909 438.823 333.62 439.678C334.72 440.228 337.41 441.388 336.432 443.037C335.576 444.503 337.41 446.702 338.938 445.542C341.566 443.526 344.073 441.388 346.334 439.006C347.496 437.784 346.334 435.219 344.562 435.952C341.444 437.173 338.327 437.906 335.026 438.09C333.559 438.151 332.887 439.556 333.437 440.838C334.476 443.16 334.415 445.969 337.777 445.908C338.877 445.908 339.488 445.053 339.61 444.076C340.099 440.411 335.271 438.334 332.826 436.746C330.747 435.402 328.914 438.578 330.87 439.861V439.861Z" fill="#161616"/>
<path d="M350.919 424.712C350.919 421.719 350.919 418.726 350.919 415.672C350.919 414.511 349.085 414.511 349.085 415.672V424.712C349.085 425.934 350.919 425.934 350.919 424.712Z" fill="#E8E8E8"/>
<path d="M350.002 416.466H400.736C401.897 416.466 401.897 414.634 400.736 414.634C383.804 414.634 366.934 414.634 350.002 414.634C348.841 414.634 348.841 416.466 350.002 416.466Z" fill="#E8E8E8"/>
<path d="M399.818 415.55V424.163C399.818 425.323 401.652 425.323 401.652 424.163C401.652 421.292 401.652 418.421 401.652 415.55C401.652 414.328 399.818 414.328 399.818 415.55Z" fill="#E8E8E8"/>
<path d="M352.325 419.887H391.139C392.3 419.887 392.3 418.054 391.139 418.054C378.181 418.054 365.283 418.054 352.325 418.054C351.163 418.054 351.163 419.887 352.325 419.887Z" fill="#E8E8E8"/>
<path d="M360.943 423.369H390.711C391.873 423.369 391.873 421.536 390.711 421.536C380.809 421.536 370.846 421.536 360.943 421.536C359.782 421.536 359.782 423.369 360.943 423.369Z" fill="#E8E8E8"/>
<path d="M363.021 415.367C363.021 413.29 363.021 411.274 363.021 409.197C363.021 408.037 361.188 408.037 361.188 409.197V415.367C361.188 416.527 363.021 416.527 363.021 415.367Z" fill="#E8E8E8"/>
<path d="M363.266 409.747H407.459C408.621 409.747 408.621 407.915 407.459 407.915C392.728 407.915 377.997 407.915 363.266 407.915C362.105 407.915 362.105 409.747 363.266 409.747Z" fill="#E8E8E8"/>
<path d="M401.286 416.039H407.031C408.193 416.039 408.193 414.206 407.031 414.206C405.136 414.206 403.18 414.206 401.286 414.206C400.124 414.206 400.124 416.039 401.286 416.039Z" fill="#E8E8E8"/>
<path d="M406.542 409.014V414.939C406.542 416.1 408.376 416.1 408.376 414.939C408.376 412.984 408.376 410.969 408.376 409.014C408.376 407.792 406.542 407.792 406.542 409.014Z" fill="#E8E8E8"/>
<path d="M372.129 412.801H382.703C383.865 412.801 383.865 410.969 382.703 410.969C379.158 410.969 375.674 410.969 372.129 410.969C370.906 410.969 370.906 412.801 372.129 412.801Z" fill="#E8E8E8"/>
<path d="M390.344 414.328H399.757C400.919 414.328 400.919 412.496 399.757 412.496C396.64 412.496 393.462 412.496 390.344 412.496C389.183 412.496 389.183 414.328 390.344 414.328Z" fill="#E8E8E8"/>
<path d="M373.29 407.059C371.823 405.654 371.518 403.517 371.64 401.562C371.885 398.324 374.819 398.202 377.264 399.18C378.364 399.607 378.853 397.836 377.753 397.408C375.002 396.309 371.396 396.37 370.173 399.607C369.134 402.356 369.867 406.326 372.007 408.342C372.863 409.197 374.146 407.853 373.29 407.059Z" fill="#E8E8E8"/>
<path d="M376.958 398.263C382.703 395.698 385.087 405.349 380.136 407.792C379.097 408.342 380.014 409.869 381.053 409.38C388.144 405.838 383.987 393.132 376.041 396.675C374.941 397.164 375.919 398.752 376.958 398.263V398.263Z" fill="#E8E8E8"/>
<path d="M377.141 397.775C376.836 395.82 376.102 394.049 374.941 392.46C374.268 391.483 372.679 392.399 373.351 393.377C374.391 394.843 375.063 396.431 375.369 398.263C375.552 399.424 377.325 398.935 377.141 397.775V397.775Z" fill="#E8E8E8"/>
<path d="M376.285 394.659C376.469 394.171 376.713 393.743 377.019 393.316C377.141 393.132 377.324 392.888 377.508 392.705C377.569 392.583 377.691 392.522 377.813 392.399C377.508 391.789 377.324 391.666 377.202 391.972C376.897 392.277 376.591 393.071 376.408 393.499C376.102 394.049 375.735 394.537 375.368 395.026C374.696 396.003 376.285 396.92 376.958 395.942C377.63 395.026 378.241 394.049 378.73 393.01C379.158 392.155 379.403 391.056 378.302 390.628C376.469 389.956 375.063 392.827 374.574 394.11C374.085 395.27 375.857 395.759 376.285 394.659V394.659Z" fill="#E8E8E8"/>
<path d="M676.654 517.62C676.898 520.491 677.143 523.423 677.387 526.294C705.566 526.05 733.745 525.805 761.923 525.561C761.618 522.812 761.312 520.063 761.006 517.376C732.828 517.498 704.771 517.559 676.654 517.62Z" fill="white"/>
<path d="M677.204 527.271H761.679C764.063 527.271 764.063 523.606 761.679 523.606C733.5 523.606 705.383 523.606 677.204 523.606C674.881 523.606 674.82 527.271 677.204 527.271Z" fill="#161616"/>
<path d="M677.754 518.903H760.639C763.023 518.903 763.023 515.238 760.639 515.238C733.011 515.238 705.382 515.238 677.754 515.238C675.37 515.238 675.37 518.903 677.754 518.903Z" fill="#161616"/>
<path d="M674.881 517.62V523.851C674.881 526.233 678.548 526.233 678.548 523.851C678.548 521.774 678.548 519.697 678.548 517.62C678.548 515.238 674.881 515.238 674.881 517.62Z" fill="#161616"/>
<path d="M759.845 517.62V525.928C759.845 528.31 763.512 528.31 763.512 525.928C763.512 523.179 763.512 520.369 763.512 517.62C763.512 515.238 759.845 515.238 759.845 517.62Z" fill="#161616"/>
<path d="M718.646 526.477V631.724C718.646 634.106 722.314 634.106 722.314 631.724C722.314 596.662 722.314 561.6 722.314 526.477C722.314 524.095 718.646 524.095 718.646 526.477V526.477Z" fill="#161616"/>
<path d="M718.525 631.174C712.229 634.9 705.933 638.626 699.576 642.352C697.559 643.574 699.392 646.75 701.41 645.529C707.705 641.803 714.001 638.076 720.358 634.35C722.437 633.129 720.542 629.952 718.525 631.174Z" fill="#161616"/>
<path d="M719.564 633.801C726.715 637.771 733.806 641.802 740.957 645.773C743.036 646.933 744.869 643.757 742.791 642.597C735.639 638.626 728.549 634.595 721.397 630.624C719.319 629.464 717.485 632.64 719.564 633.801Z" fill="#161616"/>
<path d="M700.676 646.873C714.245 646.75 727.754 646.323 741.324 645.651C743.646 645.529 743.708 641.864 741.324 641.986C727.815 642.658 714.245 643.085 700.676 643.208C698.292 643.208 698.292 646.873 700.676 646.873Z" fill="#161616"/>
<path d="M702.693 527.821C708.194 535.64 713.207 543.825 717.73 552.254C718.83 554.331 722.009 552.499 720.908 550.422C716.385 541.992 711.373 533.807 705.872 525.988C704.527 524.034 701.348 525.866 702.693 527.821Z" fill="#161616"/>
<path d="M739.429 525.194C731.422 532.83 724.576 541.504 719.013 551.033C717.791 553.048 720.969 554.942 722.192 552.865C727.632 543.581 734.294 535.212 742.057 527.821C743.769 526.172 741.14 523.545 739.429 525.194Z" fill="#161616"/>
<path d="M590.039 597.029C589.55 605.763 589.123 614.498 588.634 623.233C565.284 633.373 554.037 640.031 554.954 643.085C555.993 646.75 573.964 645.468 608.744 639.359C608.988 624.394 609.233 609.428 609.416 594.463C602.998 595.318 596.519 596.173 590.039 597.029V597.029Z" fill="#161616"/>
<path d="M662.534 455.498C657.338 460.141 649.942 466.86 641.323 475.167C620.785 495.08 605.687 509.679 595.48 524.767C587.044 537.289 574.514 561.112 573.536 600.083C581.971 602.404 592.607 604.359 604.954 604.236C609.11 604.175 613.084 603.931 616.69 603.503C615.101 594.646 613.817 580.78 617.057 564.532C619.318 553.11 623.108 543.947 626.531 537.289C654.037 525.072 672.619 510.107 684.478 498.684C696.458 487.14 710.089 473.946 706.421 464.6C703.059 455.743 685.15 452.322 662.534 455.498Z" fill="#EC615B"/>
<path opacity="0.18" d="M691.446 455.56C682.216 467.837 671.152 481.154 657.888 494.714C641.262 511.756 624.82 525.5 610.089 536.434C604.954 558.974 599.82 581.513 594.685 603.992C596.886 604.359 599.392 604.664 602.142 604.664C607.705 604.786 612.472 603.992 616.14 603.015C614.979 595.318 614.184 584.751 615.651 572.473C617.485 557.324 622.13 545.413 625.92 537.533C639.734 531.181 650.676 524.706 658.561 519.575C658.561 519.575 683.255 503.571 702.387 479.016C702.815 478.466 704.282 476.572 705.444 473.64C706.36 471.258 707.522 468.326 706.605 465.272C705.749 462.523 703.671 460.996 701.47 459.469C699.759 458.308 696.397 456.293 691.446 455.56V455.56Z" fill="#6D6C6C"/>
<path opacity="0.16" d="M625.431 537.839C622.803 542.725 620.235 547.856 617.729 553.232C609.294 571.374 603.426 588.721 599.331 604.481C604.954 604.236 610.516 603.992 616.14 603.809C614.856 596.418 613.878 586.461 614.979 574.916C616.507 558.607 621.458 545.902 625.431 537.839Z" fill="#6D6C6C"/>
<path d="M627.754 605.458C630.565 614.193 633.377 622.928 636.189 631.663C615.407 644.124 605.565 651.637 606.727 654.141C608.133 657.196 626.042 652.675 660.517 640.581C655.749 626.715 650.981 612.849 646.213 598.983C640.04 601.06 633.866 603.259 627.754 605.458V605.458Z" fill="#161616"/>
<path d="M728.549 467.349C732.889 489.4 726.348 501.8 723.231 506.564C716.996 516.093 708.683 519.025 684.416 531.059C674.942 535.762 660.517 543.092 642.851 552.804C644.074 560.562 646.03 569.48 649.147 579.192C652.081 588.355 655.504 596.357 658.805 603.076C655.565 606.191 649.025 611.689 639.062 614.865C628.304 618.347 619.074 617.308 614.551 616.514C604.954 597.578 602.509 580.964 601.837 570.824C601.042 558.607 600.125 544.741 607.277 531.059C612.778 520.552 618.096 519.575 640.345 502.594C673.781 477.122 677.143 467.593 694.38 464.05C708.5 461.179 721.03 464.539 728.549 467.349V467.349Z" fill="#EC615B"/>
<path opacity="0.22" d="M705.688 463.256C705.994 470.342 705.444 481.459 699.759 492.82C694.991 502.41 688.634 509.252 667.668 523.423C649.025 536.006 634.172 545.718 624.575 551.949C630.688 572.412 636.8 592.875 642.913 613.338C644.746 612.727 646.947 611.811 649.209 610.528C653.365 608.146 656.299 605.275 658.194 603.076C655.504 597.334 652.815 590.92 650.431 583.896C646.519 572.656 644.074 562.15 642.546 553.048C657.705 544.619 668.341 539.121 674.575 536.006C683.866 531.364 688.451 529.043 693.157 526.783C694.747 526.05 698.292 524.4 702.937 521.957C708.133 519.269 710.7 517.987 713.023 516.398C714.918 515.116 719.686 511.756 723.537 506.198C729.038 498.257 729.527 489.949 729.894 483.902C730.138 479.993 730.077 474.312 728.61 467.654C725.431 466.31 721.153 464.844 716.018 463.989C712.045 463.256 708.561 463.134 705.688 463.256V463.256Z" fill="#6D6C6C"/>
<path opacity="0.11" d="M729.833 479.565C728.855 482.803 727.082 487.506 723.965 492.576C714.368 507.969 699.698 514.077 689.429 519.208C677.265 525.317 660.884 535.395 642.668 552.804C647.803 549.933 654.099 546.513 661.434 542.603C674.392 535.701 680.81 532.28 687.473 529.104C692.669 526.66 698.598 524.034 707.461 519.33C713.818 515.971 717.302 513.894 720.603 510.046C724.331 505.709 725.982 501.372 727.082 498.44C728.427 494.775 730.322 488.239 729.833 479.565V479.565Z" fill="#6D6C6C"/>
<path opacity="0.17" d="M642.424 553.415C642.485 558.546 642.852 564.044 643.524 569.846C645.236 584.69 648.842 597.456 652.693 607.779C653.793 607.168 655.077 606.313 656.421 605.153C657.277 604.42 658.011 603.687 658.561 603.015C655.994 597.7 653.487 591.775 651.104 585.362C646.886 573.756 644.196 562.944 642.424 553.415V553.415Z" fill="#6D6C6C"/>
<path d="M688.267 347.747C680.627 350.313 679.282 359.414 674.147 369.799C674.147 369.799 666.079 386.291 648.414 399.851C641.996 404.799 628.12 413.534 604.954 415.061C602.692 414.145 599.208 412.923 594.807 412.19C588.511 411.152 579.709 409.625 573.78 414.695C571.091 417.016 568.096 421.414 569.44 424.102C571.091 427.4 578.426 426.117 590.467 425.568C607.154 424.835 606.36 426.667 617.974 425.934C628.365 425.262 644.746 424.285 661.8 414.328C678.121 404.86 686.556 392.216 688.573 388.979C692.485 382.87 694.258 377.923 697.864 367.966C702.632 354.894 701.837 351.962 700.492 350.252C698.17 347.076 692.546 346.281 688.267 347.747Z" fill="white" stroke="#161616" stroke-width="2" stroke-miterlimit="10"/>
<path d="M597.68 416.955C593.829 417.688 588.267 417.871 585.455 421.047C583.866 422.88 584.11 426.117 587.044 426.117C587.9 426.117 587.961 424.712 587.044 424.712C585.577 423.185 585.7 421.964 587.533 421.109C588.145 420.681 588.817 420.376 589.55 420.07C590.345 419.765 591.14 419.581 591.934 419.398C593.952 418.971 595.969 418.604 598.047 418.238C598.903 418.115 598.536 416.833 597.68 416.955V416.955Z" fill="#161616"/>
<path d="M568.829 422.636C572.435 427.156 578.059 421.903 582.399 423.063C583.255 423.307 583.621 421.964 582.766 421.719C580.871 421.231 579.22 421.475 577.325 422.086C574.819 422.88 571.763 424.224 569.746 421.658C569.257 420.986 568.279 421.964 568.829 422.636V422.636Z" fill="#161616"/>
<path d="M571.03 417.077C571.152 418.909 572.375 419.642 574.147 419.642C578.12 419.642 581.604 418.054 585.578 419.337C586.433 419.581 586.8 418.299 585.944 417.993C583.927 417.321 581.971 417.26 579.893 417.443C578.426 417.566 572.558 419.215 572.436 417.016C572.313 416.222 570.969 416.222 571.03 417.077V417.077Z" fill="#161616"/>
<path d="M577.02 413.29C577.631 414.756 578.67 415.428 580.26 415.672C583.377 416.1 586.066 416.222 588.939 417.505C589.734 417.871 590.467 416.649 589.612 416.344C588.022 415.672 586.433 415.061 584.722 414.756C582.766 414.389 579.159 415 578.303 412.923C577.998 412.129 576.653 412.496 577.02 413.29Z" fill="#161616"/>
<path opacity="0.16" d="M695.663 347.931C692.179 348.786 693.218 358.132 691.385 366.805C688.328 380.794 678.365 389.528 667.363 399.18C659.905 405.716 651.164 413.412 637.839 416.833C633.255 417.993 625.675 419.276 617.546 419.704C606.543 420.253 601.103 420.559 600.736 420.498C598.903 420.314 594.441 419.826 589.673 421.903C588.695 422.33 586.005 423.491 586.189 424.346C586.433 425.629 592.79 425.262 607.093 425.14C617.668 425.079 616.568 425.262 619.807 425.14C625.92 424.896 636.556 424.529 648.536 420.192C665.59 414.084 676.103 403.272 680.932 398.263C685.578 393.377 688.145 389.59 688.94 388.429C692.729 382.748 694.502 377.678 697.986 367.722C702.021 356.116 702.021 353.062 700.431 350.679C699.331 349.274 697.314 347.503 695.663 347.931V347.931Z" fill="#6D6C6C"/>
<path opacity="0.13" d="M570.479 424.59C570.907 423.491 572.741 418.971 577.631 416.588C584.966 413.107 592.118 417.81 592.423 417.993C590.834 418.848 589.489 419.459 588.511 419.826C586.983 420.498 586.372 420.62 585.822 421.231C584.905 422.391 585.15 424.102 585.394 425.14C583.438 425.568 580.871 425.873 577.814 425.751C574.88 425.69 572.374 425.14 570.479 424.59V424.59Z" fill="#6D6C6C"/>
<path opacity="0.14" d="M700.37 357.948C697.803 366.5 692.179 380.916 679.832 394.843C663.023 413.84 643.279 421.231 634.294 423.979C641.201 422.758 666.874 417.321 684.967 393.865C695.663 379.938 699.087 365.767 700.37 357.948V357.948Z" fill="#6D6C6C"/>
<path d="M686.189 348.236C682.339 352.451 679.588 358.009 677.815 378.533C675.187 408.525 679.343 415.428 674.698 430.271C672.559 437.051 668.158 446.886 657.95 457.453C665.162 462.095 676.837 468.448 692.485 472.113C707.95 475.717 721.092 475.167 729.649 474.19C740.652 440.411 739.735 413.107 737.473 396.309C735.334 380.305 730.505 343.472 711.312 338.829C702.204 336.569 691.874 342.067 686.189 348.236Z" fill="white" stroke="#161616" stroke-width="2" stroke-miterlimit="10"/>
<path opacity="0.12" d="M706.422 338.951C706.116 341.456 705.688 345.182 705.26 349.641C702.387 379.511 705.749 384.947 703.549 402.539C702.326 412.557 699.759 431.309 686.556 448.779C681.055 456.048 675.248 461.118 671.091 464.233C677.754 467.593 687.901 471.808 700.859 473.762C712.473 475.473 722.314 474.801 729.282 473.762C731.238 468.143 733.561 460.507 735.395 451.345C738.818 434.364 739.062 419.887 738.634 409.869C737.84 390.506 736.067 348.969 714.796 340.478C711.495 339.196 708.5 338.951 706.422 338.951Z" fill="#6D6C6C"/>
<path opacity="0.24" d="M738.206 426.667C737.473 426.545 735.761 434.119 733.255 440.961C730.077 449.818 724.087 461.729 711.678 474.618C717.668 474.312 723.72 474.068 729.71 473.762C731.727 467.288 734.294 457.636 736.373 445.725C737.717 437.723 739.123 426.85 738.206 426.667V426.667Z" fill="#6D6C6C"/>
<path d="M722.498 347.442C729.405 348.786 732.339 359.72 734.784 369.31C737.229 378.961 741.935 398.63 735.334 424.529C732.583 435.219 730.138 445.175 721.642 455.254C710.578 468.448 696.458 473.579 689.857 475.473C682.522 480.543 678.732 483.108 676.593 484.452C675.065 485.429 674.148 485.979 672.497 487.14C670.114 488.85 669.686 489.4 668.524 489.888C667.302 490.377 665.346 490.744 662.412 489.827C662.167 489.888 660.273 490.133 658.867 488.728C658.011 487.873 657.827 486.895 657.827 486.468C657.644 486.468 656.483 486.345 655.688 485.368C654.955 484.452 654.894 483.169 655.444 482.07C655.199 481.581 654.955 480.909 654.955 480.054C654.649 475.778 659.722 472.357 662.534 470.403C665.529 468.326 671.458 465.027 680.627 464.172C685.578 461.546 692.974 456.842 699.515 448.963C701.593 446.519 715.468 429.294 714.368 406.143C713.94 396.431 710.456 378.35 708.5 361.491C708.378 360.27 708.011 356.971 709.784 353.795C712.351 349.458 718.219 346.648 722.498 347.442V347.442Z" fill="white" stroke="#161616" stroke-width="2" stroke-miterlimit="10"/>
<path d="M655.627 482.497C656.482 482.497 656.544 481.092 655.627 481.092C654.771 481.092 654.771 482.497 655.627 482.497Z" fill="#161616"/>
<path d="M654.955 481.764V482.192C655.016 482.925 655.81 483.108 656.238 482.558C658.683 479.321 661.984 476.939 665.835 475.717C666.691 475.473 666.324 474.129 665.468 474.373C661.25 475.717 657.705 478.283 655.016 481.825C655.444 481.948 655.871 482.07 656.299 482.192C656.299 482.07 656.299 481.948 656.299 481.764C656.299 480.909 654.893 480.909 654.955 481.764Z" fill="#161616"/>
<path d="M658.377 486.712C661.495 483.169 665.346 480.482 669.747 478.71C670.541 478.405 670.236 477.061 669.38 477.366C664.734 479.199 660.7 481.947 657.399 485.674C656.849 486.407 657.827 487.384 658.377 486.712Z" fill="#161616"/>
<path d="M662.962 490.01C666.14 486.407 669.808 483.413 673.964 480.97C674.698 480.543 674.025 479.321 673.292 479.81C669.074 482.314 665.284 485.368 662.045 489.094C661.434 489.705 662.412 490.682 662.962 490.01V490.01Z" fill="#161616"/>
<path opacity="0.13" d="M719.808 349.763C717.485 353.123 721.275 359.048 723.415 363.446C726.532 369.921 727.021 376.945 727.999 390.994C729.772 416.466 717.913 438.273 717.058 439.8C706.238 459.041 689.429 470.586 684.172 474.129C675.248 480.115 662.595 486.651 663.634 489.155C664.001 490.072 666.018 490.194 666.874 490.133C669.808 490.01 671.031 487.75 675.126 484.879C677.265 483.352 677.204 483.841 680.872 481.642C683.011 480.359 686.067 478.405 689.674 475.656C697.864 473.457 703.916 470.097 707.706 467.654C713.207 464.111 723.781 455.987 730.261 441.816C732.461 436.99 733.317 433.142 735.028 425.506C736.801 417.505 739.613 404.372 738.024 387.635C737.29 380.06 736.006 374.991 734.234 368.332C731.483 357.643 728.977 348.419 724.209 347.808C722.62 347.564 720.725 348.48 719.808 349.763V349.763Z" fill="#6D6C6C"/>
<path opacity="0.16" d="M737.229 383.176C736.678 383.176 736.801 389.59 734.172 406.632C731.788 421.903 730.566 429.721 727.204 436.868C722.314 447.252 715.652 453.788 712.412 456.903C703.182 465.822 697.62 466.432 683.5 476.817C676.104 482.253 670.602 487.201 667.363 490.255C674.698 485.368 681.972 480.482 689.307 475.656C696.03 473.701 709.845 468.57 720.969 455.437C728.61 446.397 731.605 437.54 733.928 430.638C741.874 406.021 738.207 383.176 737.229 383.176V383.176Z" fill="#6D6C6C"/>
<path d="M695.052 320.81C692.302 322.703 691.813 326.368 691.385 330.4C690.957 334.492 690.896 341.639 694.624 350.496C696.947 350.496 699.82 350.313 702.999 349.702C705.505 349.213 707.705 348.541 709.539 347.87C709.294 339.745 709.111 331.621 708.867 323.497C703.732 319.71 698.353 318.55 695.052 320.81V320.81Z" fill="white" stroke="#161616" stroke-width="2" stroke-miterlimit="10"/>
<path d="M680.505 280.067C676.226 282.51 674.392 286.603 670.786 294.544C666.751 303.584 663.94 311.403 662.839 317.145C662.656 318 663.084 318.855 663.879 319.221C664.918 319.71 666.751 319.893 667.729 320.138C667.729 322.52 668.035 326.613 670.174 331.011C674.086 339.013 681.299 342.25 683.439 343.105C690.223 341.945 695.236 339.623 698.231 337.852C700.982 336.325 704.527 334.248 708.011 330.216C711.128 326.551 712.779 322.886 713.634 320.443C714.918 320.443 716.874 320.321 718.891 319.221C723.048 316.961 726.593 311.036 724.392 307.432C722.742 304.806 718.219 303.706 713.573 305.417C713.634 303.462 713.573 300.774 712.901 297.598C712.718 296.804 711.434 291.001 708.5 286.908C702.876 279.029 689.184 275.119 680.505 280.067V280.067Z" fill="white" stroke="#161616" stroke-width="2" stroke-miterlimit="10"/>
<path d="M665.101 307.738C663.573 305.356 660.211 299.369 660.7 291.429C660.883 288.741 661.25 283.61 664.979 278.784C669.502 272.92 675.798 271.393 677.632 271.027C678.487 269.622 679.954 267.545 682.399 265.835C683.377 265.163 686.067 263.513 692.668 263.147C696.152 262.964 701.47 263.086 707.827 264.918C712.778 266.384 716.079 268.461 718.096 270.111C725.859 276.219 725.248 281.044 735.089 290.94C737.351 293.2 738.94 293.994 742.363 297.354C745.969 300.835 748.842 304.195 750.431 306.211C754.038 310.792 760.823 319.466 762.106 331.194C762.534 335.164 763.757 346.343 756.788 354.894C747.314 366.561 725.92 367.477 712.901 358.193C710.456 356.482 700.309 349.152 700.859 337.363C701.348 326.735 710.211 320.382 711.434 319.466C712.473 319.893 714.612 320.565 716.69 319.832C721.03 318.244 722.864 311.586 720.602 308.227C719.686 306.883 718.219 306.333 717.791 306.211C714.246 304.989 710.945 307.616 710.7 307.799C705.932 304.317 702.326 300.958 699.82 298.331C696.397 294.849 694.685 292.528 694.074 291.673C692.179 288.985 690.773 286.542 689.857 284.709C687.045 285.381 683.377 286.664 679.526 289.168C678.61 289.718 675.553 291.795 672.375 295.399C672.008 295.827 670.235 297.842 668.341 300.897C666.935 303.523 665.834 305.844 665.101 307.738V307.738Z" fill="#5222D0"/>
<path d="M677.571 313.174C677.571 313.113 677.571 313.113 677.571 313.174C677.571 313.235 677.632 313.358 677.632 313.48V313.541C677.571 313.663 677.51 313.724 677.448 313.846C677.571 313.724 677.448 313.785 677.204 313.968C677.082 313.907 676.959 313.907 676.837 313.846C676.776 313.785 676.715 313.785 676.715 313.724C676.654 313.602 676.654 313.48 676.593 313.358V313.296C676.654 313.174 676.715 313.113 676.776 312.991C676.898 312.991 677.021 312.93 677.143 312.93L677.632 313.419V313.602C677.326 313.663 677.021 313.785 676.715 313.846L676.654 313.785C676.593 313.663 676.532 313.602 676.47 313.48C676.532 313.296 676.654 313.113 676.715 312.991C676.837 312.93 676.959 312.93 677.082 312.869H677.021C676.654 312.93 676.348 313.174 676.348 313.541C676.348 313.907 676.654 314.274 677.021 314.213C677.387 314.152 677.754 313.968 677.815 313.541C677.937 313.174 677.754 312.747 677.387 312.563C677.021 312.38 676.654 312.502 676.47 312.808C676.104 313.296 676.348 314.091 676.959 314.152C677.51 314.213 677.999 313.785 677.999 313.235C677.999 312.686 677.448 312.319 676.898 312.441C676.348 312.625 676.104 313.174 676.348 313.724C676.532 314.091 677.021 314.152 677.265 313.968C677.693 313.907 677.693 313.48 677.571 313.174V313.174Z" fill="#161616"/>
<path d="M682.95 311.708C683.072 312.319 682.828 312.258 682.277 311.525C682.4 311.464 682.461 311.403 682.583 311.342C682.828 311.342 683.011 311.464 683.133 311.769C683.194 311.403 682.766 311.097 682.461 311.097C682.033 311.097 681.788 311.403 681.788 311.769C681.727 312.319 682.277 312.747 682.766 312.686C683.378 312.686 683.744 312.075 683.561 311.525C683.378 310.975 682.766 310.67 682.216 310.975C681.666 311.281 681.605 311.83 681.85 312.38C681.972 312.747 682.522 312.808 682.766 312.625C683.072 312.441 683.133 312.075 682.95 311.708V311.708Z" fill="#161616"/>
<path d="M681.238 315.74C681.605 315.74 681.666 315.862 681.422 316.167C681.422 316.412 681.361 316.534 681.177 316.534C681.116 316.29 681.116 315.984 681.055 315.74C681.238 315.679 681.36 315.679 681.544 315.801C680.933 315.129 679.955 316.106 680.566 316.778C680.994 317.267 681.788 317.145 682.094 316.595C682.4 316.045 682.094 315.373 681.544 315.19C680.933 315.007 680.321 315.434 680.26 316.045C680.26 316.717 680.933 317.206 681.544 317.084C682.461 316.839 682.094 315.495 681.238 315.74V315.74Z" fill="#161616"/>
<path d="M669.93 329.056C673.72 328.384 677.021 326.185 679.16 322.948C679.649 322.215 678.488 321.543 677.999 322.276C676.043 325.208 673.109 327.101 669.625 327.773C668.708 327.895 669.074 329.178 669.93 329.056V329.056Z" fill="#161616"/>
<path opacity="0.1" d="M690.713 286.725C691.813 288.924 693.219 291.856 694.808 295.338C699.698 305.966 700.248 308.898 700.431 311.464C700.676 315.312 700.004 318.244 699.453 320.321C696.642 331.683 688.39 339.257 684.294 342.555C686.312 342.311 688.757 341.883 691.446 340.967C695.603 339.562 698.842 337.669 701.043 336.081C700.859 337.974 700.859 340.906 701.96 344.205C703.182 348.114 705.383 350.557 707.216 352.878C708.622 354.65 711.128 357.46 715.101 359.72C718.952 361.98 722.559 362.774 724.759 363.14C729.894 364.301 734.172 364.179 737.045 363.935C741.018 363.568 747.314 363.018 753.182 358.498C754.649 357.338 758.011 354.711 760.028 350.069C760.517 348.969 761.251 346.892 761.618 341.395C762.045 334.92 762.351 330.4 760.823 324.658C759.234 318.733 756.361 314.152 753.549 310.792C748.659 323.925 736.862 331.499 726.226 329.911C717.913 328.628 712.901 322.092 711.434 320.077C714.674 320.81 717.974 319.832 719.869 317.45C722.131 314.762 722.803 309.937 719.869 307.371C717.546 305.356 713.696 305.295 710.823 307.555C707.339 305.05 703.365 301.752 699.331 297.476C695.725 293.75 692.913 290.024 690.713 286.725V286.725Z" fill="#6D6C6C"/>
<path d="M676.593 306.577C676.226 305.966 676.165 305.05 676.776 304.561C676.593 304.623 676.47 304.684 676.287 304.745H676.47C676.287 304.684 676.165 304.623 675.981 304.561C676.593 305.05 676.104 306.944 675.859 307.493C675.981 307.371 676.104 307.31 676.287 307.188C676.226 307.188 676.165 307.249 676.165 307.249C676.348 307.249 676.532 307.31 676.715 307.31C676.348 307.127 676.409 306.15 676.47 305.905C676.532 305.356 676.654 304.867 676.898 304.439C676.593 304.5 676.287 304.623 675.981 304.684C676.287 304.928 676.348 305.417 676.287 305.783C676.287 305.966 676.226 306.15 676.165 306.272C676.104 306.577 675.981 306.577 676.287 306.638C676.409 306.76 676.532 306.822 676.715 306.944C676.715 306.883 676.654 306.883 676.654 306.822C676.104 306.15 674.942 306.822 675.492 307.493C675.798 307.86 676.226 308.104 676.715 307.921C677.265 307.738 677.448 307.188 677.571 306.699C677.876 305.478 677.876 304.256 676.776 303.462C676.47 303.218 675.981 303.401 675.859 303.706C675.248 304.928 674.881 306.822 675.676 308.043C675.981 308.532 676.654 308.776 677.143 308.41C677.693 307.982 677.754 306.883 677.815 306.272C677.937 305.356 677.754 302.729 676.165 303.523C674.881 304.195 675.003 306.272 675.615 307.31C675.859 308.043 677.082 307.31 676.593 306.577V306.577Z" fill="#161616"/>
<path d="M673.781 300.347C677.021 299.797 679.771 301.568 682.277 303.462C683.011 304.012 683.683 302.79 682.95 302.301C680.138 300.164 677.082 298.514 673.414 299.064C672.559 299.125 672.925 300.469 673.781 300.347V300.347Z" fill="#161616"/>
<path d="M677.448 322.337C678.121 322.764 678.732 323.314 679.282 323.925C679.893 324.597 680.871 323.619 680.26 322.948C679.649 322.276 678.915 321.665 678.121 321.115C677.387 320.626 676.715 321.848 677.448 322.337Z" fill="#161616"/>
</svg>
