<svg width="925" height="694" viewBox="0 0 925 694" fill="none" xmlns="http://www.w3.org/2000/svg">
<path d="M563.081 176.759C568.286 176.759 572.505 172.538 572.505 167.332C572.505 162.126 568.286 157.905 563.081 157.905C557.877 157.905 553.658 162.126 553.658 167.332C553.658 172.538 557.877 176.759 563.081 176.759Z" fill="#EC615B"/>
<path d="M573.083 150.618C575.509 150.618 577.477 148.65 577.477 146.223C577.477 143.795 575.509 141.828 573.083 141.828C570.656 141.828 568.689 143.795 568.689 146.223C568.689 148.65 570.656 150.618 573.083 150.618Z" fill="#EC615B"/>
<path d="M285.003 93.4212C287.493 93.4212 289.512 91.4015 289.512 88.9102C289.512 86.4188 287.493 84.3992 285.003 84.3992C282.513 84.3992 280.494 86.4188 280.494 88.9102C280.494 91.4015 282.513 93.4212 285.003 93.4212Z" fill="#EC615B"/>
<path d="M580.078 621.382C584.293 621.382 587.709 617.964 587.709 613.748C587.709 609.531 584.293 606.114 580.078 606.114C575.863 606.114 572.447 609.531 572.447 613.748C572.447 617.964 575.863 621.382 580.078 621.382Z" fill="#EC615B"/>
<path d="M232.798 647.522C234.746 647.522 236.325 645.943 236.325 643.994C236.325 642.046 234.746 640.467 232.798 640.467C230.85 640.467 229.271 642.046 229.271 643.994C229.271 645.943 230.85 647.522 232.798 647.522Z" fill="#EC615B"/>
<path d="M276.851 386.925C278.863 386.925 280.493 385.294 280.493 383.282C280.493 381.27 278.863 379.638 276.851 379.638C274.84 379.638 273.209 381.27 273.209 383.282C273.209 385.294 274.84 386.925 276.851 386.925Z" fill="#EC615B"/>
<path d="M284.02 405.49C285.968 405.49 287.547 403.91 287.547 401.962C287.547 400.014 285.968 398.434 284.02 398.434C282.073 398.434 280.494 400.014 280.494 401.962C280.494 403.91 282.073 405.49 284.02 405.49Z" fill="#5222D0"/>
<path d="M279.8 503.806C283.44 503.806 286.39 500.855 286.39 497.213C286.39 493.572 283.44 490.62 279.8 490.62C276.16 490.62 273.209 493.572 273.209 497.213C273.209 500.855 276.16 503.806 279.8 503.806Z" fill="#5222D0"/>
<path d="M557.82 129.104C560.119 129.104 561.983 127.24 561.983 124.94C561.983 122.641 560.119 120.776 557.82 120.776C555.521 120.776 553.658 122.641 553.658 124.94C553.658 127.24 555.521 129.104 557.82 129.104Z" fill="#5222D0"/>
<path d="M399.472 136.391C401.483 136.391 403.114 134.76 403.114 132.748C403.114 130.736 401.483 129.104 399.472 129.104C397.46 129.104 395.83 130.736 395.83 132.748C395.83 134.76 397.46 136.391 399.472 136.391Z" fill="#5222D0"/>
<path d="M74.7389 421.394C76.2715 421.394 77.5139 420.151 77.5139 418.618C77.5139 417.085 76.2715 415.842 74.7389 415.842C73.2063 415.842 71.9639 417.085 71.9639 418.618C71.9639 420.151 73.2063 421.394 74.7389 421.394Z" fill="#5222D0"/>
<path d="M570.423 640.467C574.255 640.467 577.361 637.36 577.361 633.527C577.361 629.694 574.255 626.587 570.423 626.587C566.592 626.587 563.486 629.694 563.486 633.527C563.486 637.36 566.592 640.467 570.423 640.467Z" fill="#5222D0"/>
<path d="M644.712 46.287C646.724 46.287 648.355 44.6557 648.355 42.6435C648.355 40.6312 646.724 39 644.712 39C642.701 39 641.07 40.6312 641.07 42.6435C641.07 44.6557 642.701 46.287 644.712 46.287Z" fill="#5222D0"/>
<path d="M290.842 206.428C290.264 202.842 289.744 195.671 295.467 196.249C297.548 196.48 298.704 198.331 301.017 197.521C305.353 196.018 304.37 190.408 306.162 187.169C309.111 181.964 314.834 189.54 319.228 187.053C320.673 186.244 321.02 184.74 320.962 183.179C320.847 177.337 325.992 177.742 330.212 178.899C331.311 179.188 331.773 177.511 330.675 177.222C326.397 176.065 319.286 175.66 319.112 181.848C319.054 183.352 319.864 184.856 317.667 185.781C316.973 186.07 315.817 185.723 315.181 185.55C313.678 185.087 312.348 184.046 310.787 183.641C308.764 183.063 306.798 183.468 305.411 185.087C303.676 187.169 303.734 190.003 302.925 192.432C302.058 195.034 300.381 196.538 297.548 195.266C296.392 194.745 295.351 194.283 294.022 194.456C288.067 195.266 288.356 202.495 289.108 206.89C289.339 207.989 291.015 207.526 290.842 206.428Z" fill="#5222D0"/>
<path d="M297.664 209.782C298.127 206.196 301.017 204.635 304.37 204.635C306.162 204.635 307.955 204.924 309.689 204.288C313.62 202.784 312.869 198.504 313.794 195.15C315.528 188.788 323.564 192.721 328.016 191.68C331.022 190.928 333.566 187.921 332.294 184.74C331.889 183.699 330.212 184.162 330.617 185.203C332.583 190.003 325.877 190.292 323.044 189.945C320.962 189.714 318.939 189.367 316.858 189.887C313.562 190.755 312.291 193.184 311.828 196.307C311.423 199.198 311.481 202.379 307.723 202.842C305.7 203.073 303.677 202.495 301.653 202.957C298.416 203.709 296.334 206.427 295.93 209.666C295.756 210.881 297.491 210.881 297.664 209.782Z" fill="#5222D0"/>
<path d="M417.104 67.7432C415.081 70.2878 412.942 73.4108 413.925 76.823C414.734 79.599 416.931 80.64 419.59 80.4665C421.151 80.3508 422.77 79.946 424.042 81.334C425.025 82.375 424.389 84.5727 424.1 85.7293C423.637 87.5222 422.77 89.2572 422.943 91.1657C423.233 93.7682 425.314 95.7923 427.973 95.214C429.072 94.9827 428.609 93.3055 427.511 93.5368C422.481 94.6935 425.95 86.3077 426.181 84.2835C426.354 82.6063 426.065 80.7557 424.794 79.5412C423.522 78.3267 421.961 78.4423 420.342 78.6158C417.798 78.905 415.428 78.0953 415.312 75.0302C415.254 72.7168 416.873 70.6348 418.261 68.8998C419.07 68.148 417.798 66.8757 417.104 67.7432Z" fill="#5222D0"/>
<path d="M430.748 66.8757C428.031 68.0324 426.297 70.8662 426.991 73.8157C427.337 75.1459 428.147 76.4182 429.303 77.2279C430.691 78.2689 432.309 78.0376 433.697 78.9051C436.298 80.4666 434.217 83.5317 434.333 85.9607C434.391 87.1752 434.68 88.2741 435.72 89.0259C437.281 90.2404 439.594 89.8356 440.23 87.8692C440.577 86.8282 438.9 86.3656 438.553 87.4066C436.356 87.1174 435.605 86.1342 436.241 84.4571C436.356 83.8787 436.472 83.3004 436.587 82.7221C436.703 82.1437 436.761 81.5654 436.761 80.9871C436.761 79.7726 436.414 78.5002 435.489 77.6327C434.102 76.3604 431.962 76.8809 430.459 75.8399C427.395 73.7001 428.494 69.6517 431.616 68.3216C432.656 67.9167 431.731 66.4709 430.748 66.8757Z" fill="#5222D0"/>
<path d="M693.679 278.314C692.928 276.984 693.043 275.538 693.853 274.266C695.125 272.415 696.628 272.82 698.594 272.994C699.923 273.109 701.137 273.399 702.409 272.647C704.664 271.259 704.317 268.367 704.722 266.169C705.647 261.022 710.098 265.707 713.104 264.087C714.203 263.509 714.608 262.41 714.839 261.254C715.243 258.998 715.359 252.289 719.695 255.008C720.62 255.586 721.545 254.082 720.562 253.504C716.689 251.133 713.567 255.065 713.22 258.709C712.989 260.791 713.22 262.815 710.445 262.526C709.462 262.41 708.479 261.89 707.497 261.774C705.936 261.601 704.548 262.063 703.681 263.451C702.698 265.071 703.045 267.095 702.64 268.83C701.773 272.762 698.42 270.565 695.703 271.027C692.061 271.664 690.384 276.059 692.118 279.124C692.697 280.165 694.2 279.298 693.679 278.314Z" fill="#EC615B"/>
<path d="M702.294 281.958C701.311 279.297 704.375 276.348 707.034 277.736C707.381 277.909 707.844 277.909 708.075 277.62C709.405 276.174 709.751 274.497 710.33 272.647C711.37 269.292 713.856 268.83 716.862 267.904C719.811 266.979 723.106 264.55 721.892 261.08C721.487 260.039 719.811 260.502 720.216 261.543C721.892 266.111 713.683 266.458 711.255 268.136C708.306 270.218 709.173 273.977 706.919 276.406C707.266 276.348 707.612 276.29 707.959 276.29C704.086 274.266 699.172 278.256 700.675 282.478C701.022 283.461 702.698 283.057 702.294 281.958Z" fill="#EC615B"/>
<path d="M468.789 297.11C468.904 297.11 470.176 300.233 470.697 300.638C471.506 301.274 472.489 301.332 473.472 301.159C475.206 300.869 476.304 299.597 477.807 298.787C481.045 296.937 481.045 300.118 482.317 301.91C483.762 304.05 485.323 303.009 487 301.968C488.098 301.274 489.139 300.812 490.122 301.795C490.642 302.315 490.989 303.183 491.393 303.819C492.029 304.744 492.723 305.496 493.764 305.959C494.747 306.421 495.672 304.918 494.631 304.455C492.261 303.414 491.972 299.481 489.139 299.077C487.809 298.903 487.231 299.655 486.19 300.233C484.918 300.985 484.167 301.506 483.357 300.06C483.011 299.481 482.953 298.672 482.548 298.093C480.698 295.028 477.807 296.705 475.495 298.209C475.09 298.498 474.686 298.787 474.223 299.019C473.24 298.73 472.2 298.44 471.217 298.151C470.812 297.746 470.812 296.763 470.465 296.243C469.887 295.433 469.309 295.202 468.384 295.375C467.228 295.607 467.69 297.284 468.789 297.11Z" fill="#EC615B"/>
<path d="M482.375 291.558C484.109 288.84 488.098 294.508 489.717 295.202C490.7 295.606 491.625 295.606 492.665 295.317C493.128 295.202 493.533 294.97 493.937 294.797C495.498 294.161 496.828 294.565 498.1 295.664C499.95 297.226 500.47 299.308 503.129 299.886C504.69 300.233 506.136 299.77 506.829 298.267C507.292 297.284 505.789 296.358 505.326 297.399C503.708 300.869 499.256 294.045 498.1 293.293C495.961 291.905 494.631 293.062 492.492 293.524C489.081 294.218 487.983 290.401 485.15 289.476C483.473 288.898 481.854 289.187 480.929 290.748C480.236 291.674 481.739 292.541 482.375 291.558Z" fill="#EC615B"/>
<path d="M723.569 392.246C723.569 401.21 723.569 410.116 723.569 419.081C723.569 420.179 725.303 420.179 725.303 419.081C725.303 410.116 725.303 401.21 725.303 392.246C725.303 391.147 723.569 391.147 723.569 392.246Z" fill="#E8E8E8"/>
<path d="M723.222 146.339C723.222 157.153 723.222 167.968 723.222 178.725C723.222 179.824 724.956 179.824 724.956 178.725C724.956 167.91 724.956 157.096 724.956 146.339C724.956 145.24 723.222 145.24 723.222 146.339Z" fill="#E8E8E8"/>
<path d="M758.198 180.981C758.198 188.152 758.198 195.324 758.198 202.495C758.198 203.594 759.933 203.594 759.933 202.495C759.933 195.324 759.933 188.152 759.933 180.981C759.933 179.882 758.198 179.882 758.198 180.981Z" fill="#E8E8E8"/>
<path d="M177.587 112.622C197.995 112.622 218.461 112.622 238.869 112.622C239.967 112.622 239.967 110.887 238.869 110.887C218.461 110.887 197.995 110.887 177.587 110.887C176.489 110.887 176.431 112.622 177.587 112.622Z" fill="#E8E8E8"/>
<path d="M236.325 112.448C236.325 118 236.325 123.552 236.325 129.104C236.325 130.203 238.059 130.203 238.059 129.104C238.059 123.552 238.059 118 238.059 112.448C238.059 111.292 236.325 111.292 236.325 112.448Z" fill="#E8E8E8"/>
<path d="M217.767 111.06C217.767 102.154 217.767 93.3055 217.767 84.3992C217.767 83.3004 216.033 83.3004 216.033 84.3992C216.033 93.3055 216.033 102.154 216.033 111.06C216.033 112.217 217.767 112.217 217.767 111.06Z" fill="#E8E8E8"/>
<path d="M56.3546 290.864C70.4608 290.864 84.5671 290.864 98.6733 290.864C99.7718 290.864 99.7718 289.129 98.6733 289.129C84.5671 289.129 70.4608 289.129 56.3546 289.129C55.2562 289.129 55.2562 290.864 56.3546 290.864Z" fill="#E8E8E8"/>
<path d="M82.1968 273.456C82.1968 278.661 82.1968 283.866 82.1968 289.071C82.1968 290.17 83.9312 290.17 83.9312 289.071C83.9312 283.866 83.9312 278.661 83.9312 273.456C83.9312 272.357 82.1968 272.357 82.1968 273.456Z" fill="#E8E8E8"/>
<path d="M72.022 274.324C79.5376 274.324 87.0532 274.324 94.5688 274.324C95.6673 274.324 95.6673 272.589 94.5688 272.589C87.0532 272.589 79.5376 272.589 72.022 272.589C70.8657 272.589 70.8657 274.324 72.022 274.324Z" fill="#E8E8E8"/>
<path d="M326.628 638.963C345.475 638.963 364.322 638.963 383.169 638.963C384.267 638.963 384.267 637.228 383.169 637.228C364.322 637.228 345.475 637.228 326.628 637.228C325.472 637.228 325.472 638.963 326.628 638.963Z" fill="#E8E8E8"/>
<path d="M361.431 637.228C361.431 633.18 361.431 629.131 361.431 625.025C361.431 623.926 359.697 623.926 359.697 625.025C359.697 629.073 359.697 633.122 359.697 637.228C359.697 638.385 361.431 638.385 361.431 637.228Z" fill="#E8E8E8"/>
<path d="M356.17 625.083C363.975 625.083 371.837 625.083 379.642 625.083C380.74 625.083 380.74 623.348 379.642 623.348C371.837 623.348 363.975 623.348 356.17 623.348C355.072 623.348 355.072 625.083 356.17 625.083Z" fill="#E8E8E8"/>
<path d="M57.6842 608.543C76.5311 608.543 95.3779 608.543 114.225 608.543C115.323 608.543 115.323 606.808 114.225 606.808C95.3779 606.808 76.5311 606.808 57.6842 606.808C56.5857 606.808 56.5857 608.543 57.6842 608.543Z" fill="#E8E8E8"/>
<path d="M83.8154 585.872C83.8154 592.523 83.8154 599.231 83.8154 605.882C83.8154 606.981 85.5498 606.981 85.5498 605.882C85.5498 599.231 85.5498 592.523 85.5498 585.872C85.5498 584.773 83.8154 584.773 83.8154 585.872Z" fill="#E8E8E8"/>
<path d="M83.8157 583.27C76.3001 583.27 68.7267 583.27 61.211 583.27C60.1126 583.27 60.1126 585.005 61.211 585.005C68.7267 585.005 76.3001 585.005 83.8157 585.005C84.9142 585.005 84.9142 583.27 83.8157 583.27Z" fill="#E8E8E8"/>
<path d="M686.164 557.649C684.256 555.741 684.719 552.04 687.667 551.403C689.228 551.056 690.731 552.04 692.234 552.213C693.39 552.387 694.605 552.271 695.356 551.23C696.512 549.726 695.587 547.991 695.529 546.314C695.414 541.051 701.658 541.398 704.779 543.249C705.473 543.654 706.225 542.96 706.051 542.266C704.548 535.037 712.815 530.063 718.481 534.863C719.348 535.557 720.562 534.343 719.695 533.649C712.7 527.75 702.467 533.764 704.375 542.786C704.78 542.439 705.242 542.15 705.647 541.803C702.987 540.184 699.576 539.374 696.744 541.167C695.703 541.803 694.778 542.786 694.315 543.943C693.969 544.753 693.795 545.504 693.853 546.372C693.911 547.933 694.431 547.818 693.275 549.321C692.003 550.999 691.887 550.247 690.095 549.842C689.459 549.668 688.881 549.553 688.187 549.611C686.742 549.668 685.412 550.362 684.487 551.403C682.464 553.659 682.984 556.84 685.008 558.864C685.759 559.674 686.973 558.459 686.164 557.649Z" fill="#E8E8E8"/>
<path d="M697.438 559.384C696.802 554.121 705.416 554.064 707.844 550.42C708.48 549.495 708.711 548.454 709.116 547.471C709.867 545.678 711.197 544.521 713.163 544.001C716.342 543.191 719.638 544.637 722.528 545.851C723.569 546.256 724.031 544.579 722.991 544.174C717.672 541.977 710.503 540.299 707.555 546.777C706.514 549.09 706.167 550.362 703.739 551.577C702.294 552.271 700.791 552.676 699.403 553.485C697.206 554.758 695.472 556.724 695.761 559.384C695.877 560.483 697.611 560.483 697.438 559.384Z" fill="#E8E8E8"/>
<path d="M448.786 391.205C449.942 394.097 451.099 397.046 452.255 399.938C452.37 399.591 452.544 399.302 452.659 398.955C452.024 399.36 451.388 399.764 450.752 400.227C449.769 397.914 450.174 397.335 452.024 398.376C453.122 399.07 453.642 400.574 453.874 401.789C454.394 404.565 453.816 407.456 452.891 410.117C452.659 410.811 453.353 411.273 453.931 411.158C457.4 410.464 458.788 414.628 458.094 417.23C457.574 419.139 456.533 420.816 455.492 422.493C454.914 423.418 456.417 424.286 456.995 423.36C458.845 420.469 460.984 416.883 459.713 413.297C458.73 410.637 456.302 408.96 453.469 409.48C453.816 409.827 454.163 410.174 454.509 410.521C455.666 407.167 456.417 402.945 454.972 399.533C453.989 397.278 451.734 395.543 449.191 396.294C447.225 396.873 446.242 398.839 447.167 400.748C448.728 403.928 451.445 401.789 453.469 400.458C453.758 400.285 453.989 399.822 453.874 399.475C452.717 396.584 451.561 393.634 450.405 390.742C450.058 389.759 448.381 390.164 448.786 391.205Z" fill="#E8E8E8"/>
<path d="M106.883 117.596C105.784 114.82 109.484 114.068 111.219 115.051C112.548 115.803 113.416 117.133 114.225 118.347C114.977 119.446 115.786 120.661 116.191 121.933C116.653 123.032 116.595 124.073 116.017 125.114C113.994 126.039 112.953 125.808 112.895 124.478C112.375 122.569 114.398 121.297 116.133 121.355C117.925 121.413 119.601 122.454 120.816 123.726C122.897 125.924 123.648 128.815 123.359 131.765C123.88 131.591 124.458 131.476 124.978 131.302C123.822 129.625 124.92 127.832 126.481 126.965C127.811 126.271 129.314 126.444 130.586 127.138C132.667 128.237 134.112 130.261 135.442 132.112C136.078 133.037 137.581 132.17 136.945 131.244C134.748 128.179 131.453 123.899 127.117 124.883C123.937 125.577 121.394 129.278 123.475 132.17C123.995 132.921 124.978 132.574 125.094 131.707C125.614 126.213 121.567 118.694 115.092 119.62C112.78 119.967 111.103 121.586 111.103 123.957C111.103 125.808 112.259 127.716 114.225 127.832C116.537 128.006 118.098 125.75 118.214 123.668C118.387 120.776 116.133 117.653 114.398 115.514C112.78 113.605 110.409 111.986 107.866 112.969C105.784 113.721 104.397 115.803 105.264 117.943C105.611 119.099 107.287 118.637 106.883 117.596Z" fill="#E8E8E8"/>
<path d="M411.439 202.437C409.011 200.991 410.745 196.711 413.462 198.504C416.064 200.239 412.595 203.189 410.919 201.165C410.225 200.297 409.011 201.512 409.705 202.379C411.034 203.998 413.578 203.883 415.081 202.553C416.815 200.991 416.353 198.446 414.561 197.174C412.769 195.902 410.167 196.133 409.069 198.215C407.97 200.181 408.722 202.842 410.63 203.941C411.497 204.461 412.364 203.015 411.439 202.437Z" fill="#E8E8E8"/>
<path d="M595.63 75.9555C594.358 74.1627 596.555 71.4445 598.578 72.2542C598.405 72.1385 598.231 71.965 598.058 71.8493C599.156 73.7578 597.537 76.3603 595.398 76.2447C595.687 76.476 595.976 76.6495 596.208 76.8808C595.861 75.8977 595.456 74.8567 595.109 73.8735C594.705 72.8325 593.028 73.2952 593.433 74.3362C593.78 75.3193 594.184 76.3603 594.531 77.3435C594.647 77.7483 594.936 77.9797 595.34 77.9797C597.19 78.0953 598.809 76.9387 599.619 75.3193C600.254 74.047 600.601 71.3867 599.04 70.577C595.629 68.8998 592.103 73.9892 594.126 76.823C594.762 77.7483 596.265 76.8808 595.63 75.9555Z" fill="#E8E8E8"/>
<path d="M642.689 161.954C642.4 160.624 643.383 159.178 644.712 158.889C645.926 158.657 647.025 159.64 647.314 160.739C648.065 163.342 644.655 164.556 643.036 162.763C642.284 161.954 641.07 163.168 641.822 163.978C644.828 167.332 650.609 164.036 648.759 159.756C647.95 157.848 645.926 156.633 643.903 157.269C641.764 157.963 640.492 160.219 640.955 162.416C641.301 163.515 642.978 163.053 642.689 161.954Z" fill="#E8E8E8"/>
<path d="M455.03 640.64C452.833 639.599 453.006 636.592 455.03 635.435C456.995 634.336 458.845 635.319 460.637 636.129C462.141 636.823 463.875 637.459 465.205 636.129C466.419 634.972 466.188 633.18 466.245 631.676C466.477 625.835 472.142 626.991 476.016 628.437C477.056 628.842 477.519 627.165 476.478 626.76C473.067 625.43 468.327 624.158 465.609 627.512C464.8 628.495 464.569 629.652 464.511 630.866C464.453 631.676 464.8 633.469 464.338 634.221C463.066 636.129 461.331 634.394 460.002 633.816C457.458 632.717 453.816 633.006 452.255 635.666C450.925 637.922 451.734 640.987 454.105 642.086C455.145 642.606 456.012 641.103 455.03 640.64Z" fill="#E8E8E8"/>
<path d="M483.011 504.327C481.277 525.552 482.202 546.835 485.786 567.828C485.959 568.927 487.636 568.464 487.463 567.365C483.936 546.545 483.011 525.378 484.745 504.327C484.861 503.228 483.127 503.228 483.011 504.327Z" fill="#E8E8E8"/>
<path d="M484.167 505.657C493.186 508.78 502.494 510.862 511.975 511.903C520.878 512.829 531.111 513.812 539.667 510.457C540.708 510.053 540.245 508.375 539.205 508.78C530.88 512.077 520.762 511.094 511.975 510.168C502.667 509.185 493.475 507.045 484.63 503.98C483.531 503.575 483.126 505.252 484.167 505.657Z" fill="#E8E8E8"/>
<path d="M497.927 508.028C494.92 503.344 492.434 498.37 490.7 493.049C489.891 490.505 489.197 487.96 488.677 485.358C488.388 483.796 488.099 482.235 487.925 480.673C487.925 480.5 487.289 476.393 488.503 476.972C489.081 477.261 490.064 476.74 489.775 475.989C486.595 467.95 484.861 459.506 484.688 450.831C484.399 451.12 484.11 451.409 483.82 451.699C484.283 451.872 484.688 452.046 485.15 452.219C485.728 452.913 486.827 452.161 486.595 451.352C485.439 447.65 484.688 443.833 484.456 439.901C484.399 438.975 484.572 428.565 485.208 428.739C485.902 428.912 486.364 428.276 486.249 427.698C485.15 421.163 484.63 414.512 484.919 407.919C485.034 404.622 485.324 401.384 485.844 398.145C486.306 395.195 486.538 391.61 488.85 389.47C488.388 389.412 487.925 389.354 487.463 389.296C492.319 398.434 495.036 408.439 497.522 418.387C499.95 428.16 502.089 438.05 503.939 447.997C507.697 468.528 510.067 489.29 511.108 510.168C511.166 511.267 512.9 511.267 512.842 510.168C511.802 489.175 509.431 468.239 505.616 447.535C503.708 437.24 501.511 427.004 498.967 416.825C496.481 407.051 493.764 397.335 488.966 388.371C488.677 387.851 487.983 387.851 487.578 388.198C485.613 389.99 485.035 392.362 484.572 394.848C483.936 398.376 483.474 402.02 483.242 405.605C482.78 413.124 483.242 420.642 484.514 428.103C484.861 427.756 485.208 427.409 485.555 427.062C482.202 426.136 482.606 433.365 482.549 434.985C482.317 440.652 483.185 446.32 484.861 451.756C485.324 451.467 485.844 451.178 486.306 450.889C485.555 450.021 484.919 449.732 483.763 449.848C483.3 449.906 482.895 450.195 482.895 450.715C483.069 459.506 484.803 468.123 488.041 476.336C488.445 475.989 488.908 475.699 489.313 475.352C483.531 472.576 486.885 485.647 487.347 487.613C489.081 495.131 492.203 502.303 496.366 508.78C497.059 509.821 498.563 508.954 497.927 508.028Z" fill="#E8E8E8"/>
<path d="M507.119 450.253C506.599 446.552 506.483 442.792 506.945 439.091C507.061 438.166 509.258 427.293 510.356 427.756C510.935 428.045 511.628 427.698 511.686 427.004C512.033 419.601 514.345 413.008 517.063 406.184C519.78 399.417 522.439 392.882 526.949 387.041C526.544 387.041 526.139 387.041 525.735 387.041C529.03 390.8 528.625 396.526 528.799 401.21C529.03 406.473 529.203 411.736 529.261 416.999C529.377 427.351 529.203 437.703 528.741 448.055C527.758 469.222 525.388 490.331 521.803 511.209C521.63 512.308 523.306 512.771 523.48 511.672C527.238 489.927 529.608 467.892 530.591 445.8C531.053 434.696 531.169 423.592 530.938 412.488C530.822 406.936 530.706 401.384 530.302 395.832C530.07 392.188 529.492 388.603 526.949 385.769C526.66 385.422 526.024 385.422 525.735 385.769C521.283 391.552 518.508 397.914 515.849 404.68C512.9 411.967 510.414 419.023 510.01 427.004C510.472 426.773 510.877 426.483 511.339 426.252C507.813 424.691 506.656 432.209 506.194 434.233C504.922 439.669 504.806 445.164 505.616 450.658C505.558 451.814 507.235 451.352 507.119 450.253Z" fill="#E8E8E8"/>
<path d="M486.595 569.274C504.691 575.115 524.289 574.826 542.211 568.464C543.252 568.117 542.789 566.44 541.748 566.787C524.116 573.033 504.864 573.322 487.058 567.597C485.959 567.25 485.497 568.927 486.595 569.274Z" fill="#E8E8E8"/>
<path d="M539.436 509.879C540.13 519.248 540.881 528.617 541.517 537.986C542.153 547.529 542.384 557.187 540.823 566.671C540.65 567.77 542.327 568.233 542.5 567.134C544.061 557.823 543.945 548.454 543.309 539.085C542.673 529.369 541.922 519.595 541.17 509.879C541.113 508.78 539.378 508.78 539.436 509.879Z" fill="#E8E8E8"/>
<path d="M265.013 579.49C276.806 573.186 288.658 566.882 300.452 560.578C306.002 561.504 313.633 562.718 322.767 563.991C341.036 566.535 370.463 570.641 407.694 571.74C444.925 572.839 472.849 570.468 483.486 569.427C509.097 566.998 524.591 563.701 537.252 560.289C548.756 557.166 558.238 553.754 565.002 551.152C570.552 553.002 576.738 555.489 583.328 558.901C587.086 560.868 590.555 562.892 593.619 564.916C582.75 568.039 568.124 572.029 550.722 576.078C514.069 584.637 485.972 588.685 480.075 589.553C446.371 594.353 398.328 601.12 337.914 594.122C319.125 591.866 294.092 587.76 265.013 579.49Z" fill="white"/>
<path d="M264.377 579.548C264.666 581.977 265.013 584.348 265.302 586.777C269.638 587.991 275.997 589.726 283.86 591.461C298.891 594.816 314.154 597.129 334.099 598.691C407.752 604.474 466.605 599.327 466.605 599.327C496.032 596.724 524.591 594.064 561.475 583.307C575.35 579.259 586.682 575.152 594.775 571.972C594.139 569.253 593.504 566.535 592.868 563.817C590.613 564.742 587.26 566.073 583.155 567.576C555.289 577.755 532.338 581.109 511.872 583.596C466.894 589.148 444.405 591.866 411.394 592.387C373.816 593.023 323.404 590.767 264.377 579.548Z" fill="#161616"/>
<path d="M263.972 580.647C263.972 582.497 263.972 584.348 263.972 586.199C263.972 587.297 265.707 587.297 265.707 586.199C265.707 584.348 265.707 582.497 265.707 580.647C265.707 579.49 263.972 579.49 263.972 580.647Z" fill="#161616"/>
<path d="M264.608 587.818C307.794 599.5 352.888 601.004 397.346 601.64C440.069 602.219 483.081 600.368 525.169 592.56C548.872 588.165 572.228 581.745 594.775 573.013C595.816 572.608 595.353 570.931 594.313 571.336C554.538 586.777 512.277 594.642 469.785 597.939C426.946 601.235 383.702 600.484 340.863 597.881C315.252 596.262 289.872 592.907 265.071 586.199C263.972 585.852 263.51 587.529 264.608 587.818Z" fill="#161616"/>
<path d="M594.775 571.798C595.122 569.369 595.238 566.882 595.006 564.453C594.891 563.354 593.156 563.354 593.272 564.453C593.445 566.767 593.445 569.08 593.099 571.335C592.925 572.376 594.602 572.897 594.775 571.798Z" fill="#161616"/>
<path d="M265.359 580.473C277.5 574.69 289.409 568.502 301.088 561.793C302.07 561.215 301.203 559.769 300.22 560.289C288.542 566.94 276.633 573.186 264.492 578.969C263.452 579.432 264.319 580.936 265.359 580.473Z" fill="#161616"/>
<path d="M300.625 560.983C369.595 574.111 441.283 576.54 510.831 566.593C529.331 563.933 547.716 559.827 564.828 552.193C565.869 551.73 564.944 550.226 563.961 550.689C548.583 557.513 532.164 561.504 515.572 564.106C498.691 566.767 481.636 568.386 464.581 569.485C429.952 571.682 395.149 571.104 360.635 567.808C340.631 565.899 320.802 563.007 301.088 559.306C299.989 559.133 299.527 560.81 300.625 560.983Z" fill="#161616"/>
<path d="M564.482 551.903C574.772 555.258 584.427 559.942 593.446 565.899C594.371 566.535 595.238 565.032 594.313 564.395C585.178 558.381 575.35 553.638 564.944 550.226C563.846 549.879 563.383 551.556 564.482 551.903Z" fill="#161616"/>
<path d="M265.475 579.548C285.883 586.43 307.158 589.669 328.549 591.404C350.228 593.139 372.081 593.659 393.819 593.659C437.005 593.659 480.306 590.71 522.856 582.96C547.022 578.565 570.956 572.608 594.255 564.8C595.296 564.453 594.833 562.776 593.792 563.123C552.803 576.772 510.196 584.753 467.183 588.686C424.402 592.618 381.158 592.849 338.261 590.305C313.749 588.801 289.178 585.736 265.822 577.871C264.897 577.524 264.435 579.201 265.475 579.548Z" fill="#161616"/>
<path d="M298.775 249.262C369.422 232.895 442.15 229.309 514.416 228.615C534.881 228.384 555.347 228.442 575.813 228.442C576.911 228.442 576.911 226.707 575.813 226.707C503.316 226.591 430.472 226.533 358.495 236.538C338.261 239.372 318.2 242.958 298.313 247.585C297.214 247.874 297.677 249.551 298.775 249.262Z" fill="#161616"/>
<path d="M579.397 226.88C580.149 253.773 580.611 284.945 580.438 319.587C580.322 339.713 580.149 330.113 578.356 413.855C577.316 462.088 577.027 480.248 573.616 508.124C571.419 526.283 568.76 541.204 566.794 551.325C581.71 555.489 595.931 559.422 608.419 562.892C627.728 568.27 632.874 569.716 640.563 570.815C652.472 572.434 666.983 572.666 683.749 569.253C689.935 518.591 693.345 475.39 695.311 442.309C702.364 326.064 695.774 272.511 693.23 253.715C689.761 228.384 685.483 207.564 682.188 193.163C669.816 195.534 659.756 198.079 652.703 199.988C628.48 206.638 609.286 214.446 593.214 221.039C587.26 223.526 582.461 225.55 579.397 226.88Z" fill="white"/>
<path d="M180.838 194.204C180.375 199.178 179.855 205.308 179.392 210.629C169.795 320.108 164.997 374.876 163.436 410.096C161.817 447.919 161.702 502.745 169.738 570.931C170.374 572.319 171.53 574.227 173.611 575.789C176.328 577.813 178.814 577.755 183.728 579.143C187.602 580.242 189.625 581.341 191.475 582.035C196.794 584.117 208.703 586.488 223.85 585.909C245.588 585.042 262.295 578.391 274.552 573.36C286.056 568.675 295.249 563.644 301.608 559.827C298.024 527.614 295.364 493.608 293.861 457.924C290.797 382.047 293.861 312.358 300.163 250.245C297.503 249.204 293.63 247.758 289.063 245.907C281.2 242.727 262.353 235.035 229.169 218.841C216.045 212.48 199.627 204.21 180.838 194.204Z" fill="white"/>
<path d="M681.841 192.932C682.535 196.749 683.46 202.012 684.5 208.316C685.945 217.28 689.183 238.505 691.553 266.38C693.981 295.413 694.56 320.397 694.617 340.291C694.791 380.659 693.288 410.27 689.356 479.323C688.142 500.837 686.35 532.356 684.096 570.815C686.466 570.642 688.778 570.526 691.149 570.352C692.305 560.752 693.866 546.467 695.08 529.002C696.005 516.394 696.41 507.198 696.814 497.309C698.838 451.968 699.185 452.488 699.878 433.981C701.266 397.489 700.977 369.439 700.745 344.224C700.572 326.816 700.052 310.334 699.011 277.369C698.26 254.929 697.508 235.035 692.42 209.183C691.091 202.59 689.819 197.096 688.894 193.337C686.524 193.221 684.211 193.106 681.841 192.932Z" fill="#161616"/>
<path d="M171.992 195.245C171.588 197.27 170.952 200.393 170.316 204.21C168.466 215.256 168.003 223.584 167.83 226.302C166.558 245.965 164.014 255.566 160.314 299.23C159.62 307.211 159.1 314.209 158.06 328.262C155.92 356.947 154.88 371.29 154.128 387.483C153.319 405.585 153.203 418.366 153.03 443.929C152.856 466.021 152.741 481.983 153.319 502.861C153.781 519.517 154.706 542.13 156.961 569.08C161.644 570.468 166.269 571.856 170.952 573.244C170.894 570.642 170.72 565.957 170.374 560.116C168.986 534.149 166.731 523.623 166.211 501.993C166.038 495.343 166.153 490.947 166.211 484.643C166.847 439.418 166.095 418.771 166.5 389.392C167.194 341.448 170.431 303.972 173.206 272.048C175.808 241.859 178.756 216.008 181.3 195.766C178.12 195.592 175.056 195.419 171.992 195.245Z" fill="#161616"/>
<path d="M578.01 227.863C580.149 270.313 579.86 312.878 579.282 355.328C578.646 396.852 578.357 438.492 575.177 479.959C573.385 503.555 570.552 527.093 566.158 550.4C565.927 551.499 567.603 551.961 567.835 550.862C575.524 510.09 578.356 468.623 579.628 427.215C580.958 384.939 581.536 342.547 581.478 300.213C581.421 276.096 581.016 251.98 579.802 227.863C579.686 226.764 577.952 226.764 578.01 227.863Z" fill="#161616"/>
<path d="M580.149 227.863C612.235 211.959 646.286 200.508 681.436 193.742C682.535 193.51 682.072 191.833 680.974 192.064C645.708 198.889 611.483 210.455 579.281 226.36C578.299 226.88 579.166 228.384 580.149 227.863Z" fill="#161616"/>
<path d="M680.858 193.221C690.397 241.281 693.287 290.381 693.23 339.308C693.114 388.235 690.223 437.046 687.853 485.916C686.466 514.08 685.078 542.187 683.691 570.352C683.633 571.451 685.367 571.451 685.425 570.352C687.911 520.5 690.513 470.648 692.767 420.737C694.964 371.81 696.352 322.768 693.056 273.899C691.206 246.659 687.911 219.535 682.592 192.816C682.303 191.66 680.627 192.122 680.858 193.221Z" fill="#161616"/>
<path d="M566.447 550.747C569.049 553.754 573.674 554.333 577.316 555.431C582.288 556.935 587.318 558.439 592.289 559.942C602.349 562.95 612.35 566.131 622.525 568.675C642.413 573.533 662.821 574.516 682.997 571.046C684.096 570.873 683.633 569.196 682.535 569.369C662.647 572.781 642.529 571.798 622.988 566.998C613.68 564.743 604.546 561.851 595.411 559.075C590.786 557.687 586.161 556.299 581.536 554.911C579.224 554.217 576.911 553.523 574.599 552.829C572.171 552.077 569.454 551.557 567.719 549.532C566.91 548.723 565.696 549.937 566.447 550.747Z" fill="#161616"/>
<path d="M682.014 193.279C684.153 193.799 686.292 194.32 688.489 194.84C689.588 195.13 690.05 193.452 688.952 193.163C686.813 192.643 684.674 192.122 682.477 191.602C681.378 191.37 680.916 193.048 682.014 193.279Z" fill="#161616"/>
<path d="M688.374 194.262C694.155 217.627 695.716 242.032 697.392 266.033C699.127 290.555 700.052 315.134 700.456 339.771C701.15 388.64 699.474 437.509 696.699 486.321C695.138 513.965 693.172 541.609 691.149 569.254C691.091 570.352 692.825 570.352 692.883 569.254C696.525 520.095 699.821 470.937 701.381 421.663C702.942 372.504 702.827 323.23 699.705 274.072C698.028 247.353 696.525 219.94 690.108 193.857C689.761 192.701 688.085 193.163 688.374 194.262Z" fill="#161616"/>
<path d="M684.616 571.335C687.16 571.104 689.646 570.873 692.189 570.641C693.288 570.526 693.288 568.791 692.189 568.906C689.646 569.138 687.16 569.369 684.616 569.6C683.517 569.716 683.517 571.451 684.616 571.335Z" fill="#161616"/>
<path d="M298.717 249.782C294.844 289.861 292.531 330.055 291.78 370.307C291.028 410.732 291.838 451.216 294.266 491.583C295.595 514.254 297.503 536.867 299.816 559.422C299.931 560.521 301.666 560.521 301.55 559.422C297.388 519.401 294.786 479.207 293.745 438.955C292.705 398.529 293.225 358.046 295.364 317.678C296.578 295.008 298.255 272.395 300.394 249.782C300.567 248.683 298.833 248.683 298.717 249.782Z" fill="#161616"/>
<path d="M181.936 195.592C219.457 216.47 258.422 234.746 298.428 250.303C299.469 250.708 299.932 249.03 298.891 248.626C259 233.126 220.208 214.909 182.803 194.089C181.821 193.51 180.953 195.014 181.936 195.592Z" fill="#161616"/>
<path d="M180.144 195.188C173.727 244.115 169.275 293.331 166.847 342.663C164.419 391.994 164.072 441.384 165.691 490.716C166.616 518.418 168.177 546.12 170.373 573.764C170.489 574.863 172.223 574.863 172.108 573.764C168.177 524.548 166.327 475.159 166.442 425.827C166.558 376.437 168.755 327.105 172.917 277.889C175.287 250.245 178.294 222.716 181.878 195.188C181.994 194.089 180.259 194.089 180.144 195.188Z" fill="#161616"/>
<path d="M170.316 574.863C202.518 592.387 241.079 588.628 273.8 574.748C283.629 570.584 293.11 565.552 302.244 560.058C303.169 559.48 302.302 557.976 301.377 558.554C270.91 577.003 235.182 589.9 199.164 583.191C189.394 581.398 179.913 578.102 171.183 573.36C170.258 572.839 169.333 574.343 170.316 574.863Z" fill="#161616"/>
<path d="M157.539 570.063C161.586 571.972 165.748 573.591 169.969 575.037C171.009 575.384 171.472 573.707 170.431 573.36C166.327 571.972 162.338 570.41 158.406 568.56C157.366 568.097 156.498 569.601 157.539 570.063Z" fill="#161616"/>
<path d="M170.836 195.592C164.592 244.057 159.389 292.637 155.978 341.39C152.625 389.912 151.006 438.55 152.047 487.188C152.625 514.717 154.013 542.245 156.383 569.658C156.499 570.757 158.233 570.757 158.117 569.658C153.955 521.021 152.741 472.209 153.897 423.398C154.996 374.76 158.349 326.18 163.147 277.716C165.864 250.303 169.044 222.89 172.571 195.535C172.744 194.494 171.01 194.494 170.836 195.592Z" fill="#161616"/>
<path d="M171.819 196.807C175.172 196.113 178.525 195.881 181.994 196.055C183.093 196.113 183.093 194.378 181.994 194.32C178.41 194.146 174.883 194.436 171.357 195.13C170.258 195.361 170.721 197.038 171.819 196.807Z" fill="#161616"/>
<path d="M600.152 231.796C602.58 298.883 602.464 366.027 599.689 433.114C598.938 451.91 597.955 470.648 596.741 489.443C596.683 490.542 598.417 490.542 598.475 489.443C602.695 422.472 604.314 355.328 603.331 288.183C603.042 269.388 602.58 250.592 601.886 231.796C601.828 230.697 600.094 230.697 600.152 231.796Z" fill="#161616"/>
<path d="M628.191 207.737C630.503 254.409 631.66 301.196 631.602 347.925C631.602 394.655 630.445 441.442 628.133 488.113C626.861 514.543 625.185 540.915 623.161 567.287C623.103 568.386 624.838 568.386 624.895 567.287C628.48 520.674 630.908 474.002 632.238 427.273C633.509 380.543 633.683 333.756 632.7 287.027C632.122 260.597 631.197 234.167 629.925 207.737C629.867 206.638 628.133 206.638 628.191 207.737Z" fill="#161616"/>
<path d="M661.838 197.443C665.075 245.965 667.041 294.603 667.561 343.299C668.081 392.168 667.272 440.979 665.075 489.791C663.861 517.146 662.184 544.501 660.045 571.798C659.988 572.897 661.722 572.897 661.78 571.798C665.48 523.276 667.908 474.638 668.891 426C669.874 377.189 669.527 328.32 667.792 279.451C666.809 252.095 665.422 224.74 663.572 197.385C663.514 196.286 661.78 196.286 661.838 197.443Z" fill="#161616"/>
<path d="M594.197 511.131C592.867 526.283 590.439 541.32 586.913 556.125C586.681 557.224 588.3 557.687 588.589 556.588C592.174 541.609 594.602 526.457 595.931 511.131C596.047 510.032 594.313 510.032 594.197 511.131Z" fill="#161616"/>
<path d="M200.898 206.87C193.961 255.392 191.012 304.435 190.55 353.419C190.145 402.693 192.169 451.91 195.175 501.068C196.852 528.886 198.817 556.646 200.783 584.464C200.841 585.563 202.575 585.563 202.517 584.464C199.048 535.479 195.58 486.494 193.672 437.451C191.764 388.524 191.475 339.482 194.308 290.555C195.927 262.737 198.586 234.919 202.517 207.333C202.748 206.292 201.072 205.771 200.898 206.87Z" fill="#161616"/>
<path d="M234.141 223.063C229.747 269.966 226.799 317.042 225.816 364.176C224.891 411.253 225.989 458.329 229.863 505.29C232.002 531.373 235.008 557.34 238.939 583.191C239.113 584.29 240.789 583.827 240.616 582.729C233.563 536.115 229.516 489.039 228.013 441.904C226.51 395.406 227.377 348.793 229.921 302.353C231.366 275.923 233.389 249.493 235.875 223.121C235.991 221.964 234.257 221.964 234.141 223.063Z" fill="#161616"/>
<path d="M267.441 236.885C261.775 280.665 258.48 324.734 257.612 368.861C256.745 412.988 258.248 457.172 262.122 501.126C264.319 525.647 267.209 550.053 270.852 574.401C271.025 575.5 272.702 575.037 272.528 573.938C265.995 530.332 261.833 486.436 260.041 442.425C258.248 398.529 258.884 354.518 261.833 310.623C263.509 285.986 265.937 261.349 269.117 236.827C269.348 235.786 267.614 235.787 267.441 236.885Z" fill="#161616"/>
<path opacity="0.12" d="M648.888 201.376C655.305 227.574 660.508 258.284 662.243 292.694C666.579 380.254 645.997 451.794 628.075 497.714C615.414 518.013 602.811 538.313 590.15 558.612C602.464 563.933 620.733 570.121 643.511 571.972C659.236 573.244 672.88 572.087 683.518 570.352C683.633 567.808 685.541 529.117 685.657 526.572C691.958 396.968 692.363 388.119 692.594 379.213C693.635 342.952 693.461 290.902 687.275 225.955C685.136 214.909 682.997 203.862 680.858 192.874C670.278 195.65 659.583 198.484 648.888 201.376Z" fill="#3F3F3F"/>
<path opacity="0.13" d="M245.414 229.656C243.911 235.96 241.657 245.387 238.997 256.896C227.203 308.252 218.532 346.017 213.907 380.775C205.697 442.02 197.777 501.357 231.539 550.053C241.368 564.222 252.121 573.765 259.289 579.432C252.352 582.15 243.738 584.637 233.678 585.852C205.697 589.148 183.266 580.068 172.282 574.632C168.119 536.288 165.228 495.227 164.303 451.794C162.222 355.675 170.027 269.272 181.936 194.956C203.038 206.523 224.197 218.09 245.414 229.656Z" fill="#3F3F3F"/>
<path d="M184.768 167.428C184.017 168.006 184.595 170.261 185.636 174.136C186.04 175.64 186.445 176.797 186.676 177.548C186.214 180.671 185.809 183.794 185.346 186.917C184.421 187.033 182.051 187.554 179.854 189.462C177.831 191.255 177.021 193.337 176.732 194.262C178.582 194.436 180.837 194.841 183.265 195.592C186.792 196.691 189.567 198.195 191.59 199.467C191.59 200.161 191.706 201.491 192.631 202.475C193.44 203.284 194.423 203.4 195.001 203.516C197.082 203.863 199.568 204.325 202.748 205.019C204.136 205.829 206.448 207.159 209.281 208.721C218.878 213.926 222.346 214.793 231.943 219.882C238.129 223.179 237.609 223.295 241.945 225.377C248.593 228.615 254.317 230.524 258.19 231.623C259.809 229.83 262.411 226.36 263.856 221.328C265.012 217.338 264.954 213.868 264.723 211.612C265.706 212.133 267.267 212.711 269.059 212.48C273.684 211.959 276.632 206.696 277.557 202.937C278.367 199.641 277.615 197.559 276.979 193.684C275.534 185.009 274.262 177.259 277.846 172.343C280.853 168.237 287.039 166.329 292.011 160.835C292.473 160.314 293.34 159.331 293.051 158.868C292.531 158.001 288.484 159.504 286.518 160.372C285.246 160.95 275.707 165.346 272.817 175.293C272.354 176.854 272.296 181.365 272.239 190.33C272.181 196.865 272.296 200.566 269.695 202.706C268.365 203.805 266.4 204.441 264.607 204.036C261.948 203.458 260.676 200.855 259.52 199.12C256.514 194.551 252.236 192.643 246.975 190.04C242.87 188.016 239.343 187.264 232.232 185.703C225.526 184.257 223.503 184.431 220.612 182.291C217.375 179.862 215.582 176.45 214.657 174.541C213.732 172.748 212.287 169.914 211.651 165.866C211.304 163.495 211.362 161.818 210.784 161.702C209.743 161.471 209.223 166.271 205.696 167.948C203.557 168.989 202.17 168.006 198.412 168.122C195.984 168.179 193.209 168.7 190.087 170.088C189.046 169.336 185.809 166.676 184.768 167.428Z" fill="black"/>
<path d="M186.503 186.455C185.289 176.912 193.961 168.237 203.558 169.22C212.634 170.146 218.647 181.192 218.358 189.462C218.3 190.561 220.034 190.561 220.092 189.462C220.381 180.324 213.559 168.295 203.558 167.485C193.036 166.618 183.439 175.929 184.769 186.455C184.942 187.496 186.677 187.554 186.503 186.455Z" fill="black"/>
<path d="M186.33 192.469C189.856 199.352 197.43 204.21 205.35 203.169C212.576 202.185 218.705 196.344 219.803 189.115C219.976 188.016 218.3 187.554 218.126 188.652C217.144 195.245 211.709 200.566 205.119 201.434C197.892 202.417 191.07 197.906 187.833 191.602C187.312 190.619 185.809 191.486 186.33 192.469Z" fill="black"/>
<path d="M192.573 200.855C192.4 198.658 198.644 197.732 200.205 197.385C203.037 196.749 205.928 196.402 208.819 196.402C214.195 196.402 219.341 197.79 223.908 200.624C224.833 201.202 225.758 199.699 224.775 199.12C218.878 195.477 211.998 194.204 205.176 194.841C201.592 195.188 198.066 195.939 194.655 197.096C192.805 197.732 190.608 198.542 190.781 200.855C190.897 201.954 192.689 201.954 192.573 200.855Z" fill="black"/>
<path d="M217.433 180.845C221.075 185.24 226.972 186.281 232.233 187.438C239.228 189.057 246.455 190.503 252.583 194.378C265.244 202.359 267.614 219.767 257.612 230.929C256.861 231.738 258.075 233.011 258.827 232.143C267.73 222.254 267.961 207.101 258.769 197.27C253.912 192.065 246.975 189.346 240.211 187.554C233.331 185.761 223.445 185.472 218.589 179.573C217.953 178.763 216.739 179.977 217.433 180.845Z" fill="black"/>
<path d="M257.901 211.092C255.011 207.275 249.923 205.945 245.472 207.795C239.98 210.051 239.691 216.817 240.326 221.964C240.442 223.063 242.176 223.063 242.061 221.964C241.541 217.916 241.483 211.67 245.645 209.646C249.23 207.853 253.912 208.778 256.341 212.017C257.034 212.885 258.537 212.017 257.901 211.092Z" fill="black"/>
<path d="M241.829 221.155C238.65 218.726 235.354 216.644 231.25 217.743C230.787 217.858 230.556 218.379 230.672 218.784C231.712 222.832 238.072 224.509 241.425 225.955C246.57 228.21 251.831 230.119 257.15 231.796C258.19 232.143 258.653 230.466 257.612 230.119C253.334 228.789 249.172 227.343 245.009 225.608C242.754 224.683 240.557 223.699 238.361 222.658C236.395 221.733 232.868 220.634 232.29 218.321C232.117 218.668 231.886 219.015 231.712 219.362C235.297 218.379 238.245 220.519 240.904 222.601C241.829 223.352 242.697 221.849 241.829 221.155Z" fill="black"/>
<path d="M191.012 200.682C193.267 204.383 197.834 205.019 201.823 205.598C207.72 206.465 213.617 206.465 219.514 205.829C220.612 205.713 220.612 203.978 219.514 204.094C214.773 204.614 210.032 204.73 205.292 204.267C201.303 203.863 194.886 203.631 192.457 199.814C191.937 198.831 190.434 199.699 191.012 200.682Z" fill="black"/>
<path d="M177.542 194.783C178.294 190.734 181.82 188.652 185.751 188.479C185.462 188.248 185.173 188.074 184.942 187.843C185.231 189.231 185.636 190.561 186.214 191.833C186.619 192.874 188.295 192.412 187.89 191.371C187.37 190.04 186.965 188.768 186.619 187.38C186.561 187.033 186.156 186.744 185.809 186.744C181.184 186.975 176.79 189.52 175.923 194.32C175.692 195.419 177.369 195.882 177.542 194.783Z" fill="black"/>
<path d="M187.601 176.854C186.734 174.368 186.098 171.765 185.867 169.105C185.867 168.873 185.809 168.642 185.809 168.411C185.751 167.89 185.809 167.948 186.04 168.584C186.561 168.931 187.081 169.336 187.601 169.741C188.469 170.493 189.278 171.302 189.972 172.17C190.723 173.037 191.937 171.765 191.186 170.955C190.203 169.799 186.098 165.056 184.364 166.907C183.497 167.832 184.133 169.972 184.306 171.013C184.595 173.153 185.173 175.293 185.867 177.317C186.329 178.358 188.006 177.953 187.601 176.854Z" fill="black"/>
<path d="M207.142 168.758C207.662 167.832 208.183 166.907 208.761 165.982C208.992 165.577 209.223 165.23 209.397 164.825C209.744 164.247 209.743 163.726 210.437 163.9C211.247 164.073 210.958 165.982 210.958 166.676C210.958 167.775 211.015 168.873 211.015 169.972C211.015 171.071 212.75 171.071 212.75 169.972C212.75 168.179 212.808 166.387 212.692 164.594C212.634 163.437 212.229 162.165 210.958 161.76C209.801 161.413 208.992 162.165 208.414 163.032C207.431 164.594 206.564 166.271 205.639 167.832C205.061 168.873 206.564 169.741 207.142 168.758Z" fill="black"/>
<path d="M262.526 206.581C262.873 210.976 267.787 212.422 271.198 210.282C276.228 207.159 277.326 200.103 276.69 194.783C275.823 187.496 274.089 180.729 276.575 173.5C278.945 166.618 284.842 161.008 292.3 160.545C293.398 160.488 293.398 158.753 292.3 158.81C282.125 159.447 275.187 168.122 273.742 177.722C272.875 183.447 274.147 188.768 274.898 194.378C275.361 198.079 275.129 201.607 273.453 205.019C272.701 206.465 271.661 207.911 270.273 208.836C268.134 210.166 264.434 209.762 264.203 206.639C264.203 205.482 262.469 205.424 262.526 206.581Z" fill="black"/>
<path d="M263.451 209.704C265.243 214.504 271.487 212.364 274.204 209.588C278.656 205.077 277.673 197.559 277.326 191.833C277.268 190.734 275.534 190.734 275.592 191.833C275.823 195.477 276.17 199.409 275.534 203.053C275.245 204.788 274.609 206.407 273.453 207.795C272.181 209.357 266.631 213.289 265.128 209.241C264.723 208.2 263.047 208.663 263.451 209.704Z" fill="black"/>
<path d="M292.357 158.752C285.767 161.297 279.118 164.883 276.459 171.823C273.395 179.804 275.592 188.479 275.418 196.749C275.418 197.848 277.153 197.848 277.153 196.749C277.326 189.52 275.592 182.117 277.326 174.946C279.234 167.08 285.767 163.148 292.82 160.43C293.86 160.025 293.398 158.348 292.357 158.752Z" fill="black"/>
<path d="M291.028 159.736C284.958 162.512 279.408 167.37 276.575 173.558C275.072 176.797 275.303 180.382 275.303 183.91C275.303 188.421 275.476 192.99 275.823 197.501C275.881 198.6 277.615 198.6 277.558 197.501C277.326 193.857 277.153 190.272 277.095 186.628C277.037 182.811 276.517 178.3 277.962 174.715C280.448 168.642 286.056 163.957 291.895 161.239C292.936 160.777 292.068 159.273 291.028 159.736Z" fill="black"/>
<path d="M189.914 180.671C191.532 183.505 195.637 182.522 196.042 179.399C196.1 178.821 195.232 178.879 195.175 179.399C194.886 181.77 191.879 182.233 190.665 180.267C190.376 179.746 189.625 180.209 189.914 180.671Z" fill="white"/>
<path d="M202.17 178.416C203.962 181.481 208.529 180.267 208.587 176.739C208.587 176.16 207.72 176.16 207.72 176.739C207.662 179.457 204.309 180.324 202.922 178.011C202.632 177.491 201.881 177.895 202.17 178.416Z" fill="white"/>
<path d="M198.702 182.233C199.106 183.91 198.759 185.587 197.719 186.975C197.372 187.438 198.123 187.843 198.47 187.438C199.627 185.876 199.973 183.91 199.569 182.002C199.395 181.481 198.528 181.712 198.702 182.233Z" fill="white"/>
<path d="M199.048 182.175C198.875 184.373 200.089 186.455 202.112 187.38C202.633 187.611 203.037 186.86 202.575 186.628C200.84 185.819 199.742 184.084 199.915 182.175C199.915 181.597 199.048 181.597 199.048 182.175Z" fill="white"/>
<path d="M184.942 187.322C190.029 186.917 193.267 191.081 196.678 194.147C197.083 194.494 197.719 193.915 197.314 193.51C193.729 190.272 190.261 186.05 184.942 186.397C184.422 186.455 184.422 187.322 184.942 187.322Z" fill="white"/>
<path d="M194.423 197.501C200.956 193.337 208.703 191.949 216.276 193.626C216.797 193.742 217.028 192.932 216.507 192.816C208.703 191.139 200.725 192.527 194.018 196.807C193.498 197.038 193.961 197.79 194.423 197.501Z" fill="white"/>
<path d="M210.842 205.424C216.218 205.771 221.306 204.094 225.411 200.566C225.815 200.219 225.237 199.583 224.775 199.93C220.843 203.284 215.987 204.904 210.842 204.557C210.322 204.557 210.322 205.424 210.842 205.424Z" fill="white"/>
<path d="M209.281 164.362C208.009 166.502 207.72 168.989 208.472 171.36C208.645 171.881 209.455 171.649 209.281 171.129C208.587 168.989 208.819 166.734 209.975 164.825C210.322 164.305 209.57 163.842 209.281 164.362Z" fill="white"/>
<path d="M186.387 169.741C187.775 170.608 188.642 171.939 188.989 173.5C189.105 174.021 189.914 173.789 189.798 173.269C189.394 171.476 188.353 169.972 186.792 168.989C186.33 168.7 185.925 169.452 186.387 169.741Z" fill="white"/>
<path d="M216.97 178.994C218.069 180.324 219.34 181.481 220.786 182.349C221.248 182.638 221.711 181.886 221.248 181.597C219.861 180.729 218.589 179.63 217.606 178.358C217.201 177.953 216.623 178.589 216.97 178.994Z" fill="white"/>
<path d="M252.64 207.39C251.426 204.325 245.587 206.407 243.679 207.622C240.268 209.877 238.765 214.099 240.037 217.974C240.211 218.494 241.02 218.263 240.846 217.743C239.864 214.677 240.673 211.381 243.101 209.125C244.142 208.142 245.529 207.448 246.917 207.101C247.9 206.812 251.253 206.176 251.773 207.564C252.004 208.142 252.814 207.911 252.64 207.39Z" fill="white"/>
<path d="M240.731 218.032C236.222 216.123 231.423 215.95 226.741 217.396C226.22 217.569 226.451 218.379 226.972 218.205C231.539 216.759 236.106 216.991 240.5 218.841C241.02 219.073 241.251 218.205 240.731 218.032Z" fill="white"/>
<path d="M399.542 458.561C397.171 464.228 397.171 468.45 396.825 479.323C396.42 492.74 395.264 506.099 395.148 519.459C395.032 530.736 394.859 547.797 394.396 570.005C412.896 571.046 433.362 571.278 455.562 570.179C476.721 569.138 496.262 566.998 513.895 564.338C505.57 536.173 500.078 515.642 496.146 499.738C494.065 491.236 491.001 478.513 482.561 463.65C477.936 455.495 473.137 449.365 469.611 445.259C468.686 444.449 448.278 427.273 424.69 435.369C423.534 435.832 406.364 442.078 399.542 458.561Z" fill="#EC615B"/>
<path d="M433.593 492.277C437.467 499.159 441.34 506.042 445.156 512.924C445.676 513.907 447.179 513.039 446.659 512.056C442.785 505.174 438.912 498.292 435.096 491.41C434.576 490.427 433.073 491.294 433.593 492.277Z" fill="#C64F4F"/>
<path d="M433.131 491.93C442.034 503.034 447.179 515.7 449.954 529.58C452.556 542.708 454.233 556.01 455.215 569.369C455.273 570.468 457.008 570.468 456.95 569.369C455.909 555.663 454.175 541.956 451.515 528.481C448.74 514.543 443.306 501.82 434.403 490.716C433.709 489.791 432.437 491.063 433.131 491.93Z" fill="#C64F4F"/>
<path opacity="0.19" d="M447.063 434.039C449.087 438.088 451.978 444.044 455.215 451.216C464.638 472.151 474.409 494.244 479.612 521.425C481.751 532.414 483.774 548.318 482.907 568.155C487.763 567.923 492.909 567.519 498.285 566.94C503.662 566.362 508.807 565.668 513.663 564.858C512.16 559.769 509.732 551.672 507.015 541.667C499.442 513.676 498.401 504.943 491.926 486.494C487.128 472.788 482.676 463.476 476.259 454.57C470.478 446.531 465.043 441.5 458.163 437.972C453.885 435.774 449.896 434.675 447.063 434.039Z" fill="#3F3F3F"/>
<path opacity="0.11" d="M433.247 492.567C435.501 501.01 437.467 511.073 438.392 522.409C440.011 542.014 437.929 558.728 435.386 571.22C442.034 570.815 448.625 570.41 455.273 570.005C454.579 556.877 453.076 545.831 451.631 537.445C447.989 516.105 444.173 508.182 441.109 503.092C438.218 498.408 435.328 494.88 433.247 492.567Z" fill="#3F3F3F"/>
<path d="M359.189 360.012C357.281 361.285 356.125 363.714 353.87 368.514C352.02 372.447 351.153 375.512 349.765 380.081C345.95 393.035 346.355 390.838 345.025 395.753C343.29 402.289 340.169 413.74 338.434 428.834C336.758 443.466 337.105 454.743 337.162 457.462C337.798 474.638 340.805 487.419 342.828 495.632C346.412 510.379 351.211 522.64 360.75 547.103C362.831 552.366 364.565 556.704 365.78 559.711C364.912 559.827 363.525 560 361.848 560.231C353.119 561.272 351.904 561.041 348.378 561.793C343.869 562.776 339.822 563.759 338.261 567.171C337.567 568.733 337.278 570.931 338.145 571.682C339.244 572.608 341.383 570.526 345.083 569.311C348.205 568.328 350.98 568.386 352.887 568.675C351.384 571.625 350.517 574.285 349.997 576.193C348.725 580.589 347.742 584.174 349.361 586.719C350.17 587.991 351.731 589.148 353.003 588.801C353.697 588.628 354.333 587.991 356.067 583.423C357.744 578.854 357.859 577.408 359.247 575.615C360.461 574.111 361.848 573.302 362.773 572.839C362.311 574.285 361.79 576.425 361.559 579.027C361.444 580.589 361.27 582.035 361.559 583.885C361.79 585.562 362.311 589.148 364.97 591.114C365.433 591.461 367.34 592.907 368.497 592.155C369.48 591.577 369.19 589.958 369.595 584.753C369.942 580.357 370.289 579.143 370.578 578.449C371.33 576.425 372.486 574.979 373.353 574.111C373.064 578.275 373.122 581.745 373.237 584.29C373.469 588.396 373.873 590.247 375.203 591.404C375.955 592.04 377.226 592.676 378.267 592.213C379.308 591.751 379.655 590.305 379.944 588.512C381.215 581.745 380.464 579.779 381.909 576.367C382.487 575.037 383.123 573.417 384.684 572.261C387.98 569.832 392.662 571.278 393.298 571.451C396.073 572.319 397.114 573.822 398.501 573.186C399.658 572.666 400.294 570.988 400.351 569.6C400.409 566.188 396.651 563.586 393.414 561.446C391.795 560.347 389.367 558.901 386.13 557.745C383.297 552.135 379.712 543.98 376.764 533.628C374.798 526.688 373.873 521.367 373.006 516.336C369.942 498.697 371.04 491.93 367.63 474.407C366.82 470.185 366.011 466.831 365.548 464.922C365.78 462.03 366.184 457.519 366.762 452.025C368.67 434.097 369.942 422.877 373.815 409.691C376.879 399.339 380.001 390.838 380.001 390.838C383.933 380.254 385.205 378.808 384.742 375.396C383.123 364.639 366.3 355.27 359.189 360.012Z" fill="white"/>
<path d="M354.737 365.507C344.447 389.276 337.972 414.665 336.584 440.574C335.139 467.004 339.706 492.856 348.262 517.84C353.118 532.125 359.015 546.004 365.028 559.884C365.49 560.925 366.936 560 366.531 559.017C356.125 534.958 345.95 510.553 341.093 484.759C336.295 459.312 337.278 432.998 342.828 407.725C345.95 393.556 350.459 379.734 356.24 366.432C356.645 365.391 355.2 364.466 354.737 365.507Z" fill="#161616"/>
<path d="M376.301 398.529C369.017 420.564 365.201 443.639 364.796 466.831C364.796 467.929 366.531 467.929 366.531 466.831C366.935 443.755 370.751 420.911 377.978 398.992C378.325 397.951 376.648 397.488 376.301 398.529Z" fill="#161616"/>
<path d="M358.726 456.305C363.872 463.476 365.953 472.036 367.167 480.595C368.439 489.328 369.017 498.176 370.289 506.909C372.833 524.664 376.995 542.361 385.378 558.265C385.898 559.248 387.401 558.381 386.881 557.398C378.151 540.857 374.047 522.408 371.619 504.017C369.48 487.882 370.115 469.202 360.23 455.437C359.594 454.57 358.09 455.437 358.726 456.305Z" fill="#161616"/>
<path d="M364.797 559.075C359.42 559.364 354.043 559.884 348.782 560.868C345.025 561.619 341.036 562.834 338.434 565.841C336.931 567.634 335.023 571.914 338.318 573.128C339.764 573.649 341.036 572.666 342.25 571.972C345.256 570.237 348.378 568.444 351.962 569.427C353.061 569.716 353.523 568.039 352.425 567.75C349.476 566.94 346.817 567.634 344.157 568.964C343.348 569.369 342.597 569.774 341.845 570.237C341.382 570.468 340.978 570.757 340.515 571.046C339.995 570.121 339.417 569.196 338.897 568.27C339.012 566.824 341.903 565.147 342.943 564.569C345.776 563.065 349.072 562.545 352.193 562.082C356.414 561.446 360.634 561.041 364.854 560.81C365.953 560.752 365.953 559.017 364.797 559.075Z" fill="#161616"/>
<path d="M360.056 564.222C355.489 564.974 351.731 568.097 349.997 572.319C348.147 576.714 346.586 583.249 348.725 587.76C350.343 591.172 354.333 592.387 355.836 588.223C356.761 585.62 356.587 582.786 357.512 580.184C358.668 576.945 360.634 574.169 363.525 572.261C364.45 571.625 363.583 570.121 362.658 570.757C359.94 572.55 357.917 574.979 356.587 577.928C355.893 579.432 355.373 580.994 355.026 582.613C354.737 583.943 354.564 590.652 351.384 588.685C349.592 587.587 349.418 584.059 349.476 582.266C349.592 579.606 350.286 576.54 351.153 573.996C352.598 569.716 356.009 566.651 360.461 565.899C361.617 565.726 361.154 564.048 360.056 564.222Z" fill="#161616"/>
<path d="M365.49 568.502C361.906 570.815 360.634 575.846 360.287 579.895C359.94 584.232 361.154 588.917 364.392 591.982C366.3 593.775 369.248 594.7 369.768 591.346C370.636 585.736 368.381 577.813 374.509 574.458C375.492 573.938 374.625 572.434 373.642 572.955C371.445 574.169 370.057 576.136 369.19 578.507C367.976 581.977 368.67 585.505 368.15 589.09C367.918 590.71 367.456 592.445 365.664 590.767C365.028 590.189 364.45 589.437 363.987 588.685C362.889 586.95 362.253 584.984 362.079 582.96C361.675 578.912 362.715 572.434 366.415 570.005C367.282 569.369 366.415 567.865 365.49 568.502Z" fill="#161616"/>
<path d="M373.7 573.128C372.601 577.292 371.56 581.63 372.254 585.967C372.543 588.049 373.757 593.139 376.417 593.659C379.423 594.237 380.637 588.917 380.926 586.95C381.562 582.671 380.753 577.524 384.106 574.227C384.915 573.417 383.701 572.203 382.892 573.013C378.845 577.003 380.232 582.786 379.018 587.876C378.614 589.726 377.457 592.502 375.55 590.363C374.509 589.264 374.22 587.124 373.989 585.678C373.41 581.63 374.393 577.581 375.434 573.649C375.665 572.55 373.989 572.087 373.7 573.128Z" fill="#161616"/>
<path d="M386.187 559.248C389.598 560.636 393.124 562.14 395.784 564.8C396.998 566.015 398.501 567.865 398.848 569.6C399.715 574.401 396.131 571.335 394.801 570.757C391.159 569.138 383.932 570.294 381.851 573.996C381.331 574.979 382.834 575.846 383.354 574.863C384.453 572.839 387.459 572.319 389.54 572.029C390.812 571.856 392.257 571.74 393.471 572.087C394.859 572.492 395.726 573.707 397.056 574.111C398.964 574.69 400.409 573.36 400.698 571.509C401.218 568.502 398.617 565.147 396.593 563.181C393.76 560.463 390.118 558.959 386.534 557.513C385.609 557.166 385.204 558.843 386.187 559.248Z" fill="#161616"/>
<path opacity="0.13" d="M374.509 379.849C367.861 380.254 363.872 397.257 361.675 406.684C359.189 417.267 356.934 431.841 357.397 453.066C357.801 472.036 360.229 486.494 361.039 491.525C364.681 513.155 370.404 531.315 376.012 545.542C377.862 550.747 379.654 555.952 381.504 561.099C380.464 565.379 379.423 569.774 378.44 574.343C377.168 580.357 376.012 586.256 375.087 591.924C376.186 592.04 377.689 591.982 378.729 590.941C380.059 589.611 379.886 587.471 379.943 585.62C380.001 583.885 380.175 575.499 383.933 572.376C386.245 570.468 389.945 570.468 392.489 571.393C395.09 572.376 396.247 574.285 397.981 573.707C399.311 573.302 400.236 571.682 400.409 570.41C400.987 566.188 392.893 561.851 391.564 561.157C388.962 559.769 387.748 559.595 386.072 557.86C383.99 555.663 383.297 553.06 383.008 551.903C378.209 533.628 375.839 534.785 372.601 513.791C370.173 497.945 371.734 498.87 369.248 486.263C367.514 477.356 366.068 473.713 365.606 466.021C365.086 457.577 366.068 450.984 367.109 445.143C371.445 421.258 379.77 392.341 381.793 385.459C379.943 382.567 377.4 379.676 374.509 379.849Z" fill="#3F3F3F"/>
<path d="M492.504 142.096C490.712 142.039 489.325 145.277 488.978 146.145C488.457 147.417 487.648 149.904 488.226 153.432C488.226 153.432 488.573 155.861 489.729 170.55C490.018 173.847 490.076 178.647 489.209 184.662C486.897 191.023 484.7 195.997 483.196 199.236C478.109 210.108 474.698 214.446 467.587 228.21C464.928 233.357 464.697 234.167 461.575 240.529C453.77 256.317 448.047 266.207 442.207 276.79C437.062 286.044 429.836 299.634 421.337 317.1C420.932 318.604 418.909 326.643 423.592 333.698C428.564 341.159 438.97 344.513 449.029 341.274C450.59 339.077 452.787 335.665 454.811 331.211C456.776 326.874 457.701 323.52 458.337 321.38C458.973 319.24 461.517 312.011 466.662 297.437C468.281 292.926 470.246 287.547 474.236 277.022C480.306 260.886 483.312 252.847 485.336 247.816C489.903 236.365 493.372 228.442 500.193 213.058C503.778 204.961 508.171 195.187 513.259 184.083C516.207 182.406 520.254 179.804 524.59 176.045C530.834 170.666 533.956 166.097 539.968 157.422C543.842 151.755 546.79 146.781 545.981 141.807C545.865 141.113 545.576 139.089 544.478 138.8C543.09 138.395 541.356 141.171 539.448 143.6C537.482 146.087 534.534 149.326 530.14 152.68C531.643 148.516 533.147 145.277 534.187 143.137C536.557 138.279 538.523 135.156 539.737 129.778C541.067 124.052 539.853 123.011 539.506 122.722C537.945 121.566 535.286 123.763 533.725 122.491C532.337 121.276 533.551 118.616 532.453 117.98C531.354 117.344 528.926 119.252 527.192 121.276C524.186 124.746 523.492 128.101 522.393 131.339C521.353 134.52 519.445 138.858 515.861 143.658C514.993 143.774 513.837 143.831 513.317 143.137C512.739 142.328 513.548 140.998 514.3 138.858C514.473 138.337 514.357 138.626 515.571 133.306C516.034 131.282 516.901 127.522 517.595 124.515C518.578 120.178 519.04 118.385 518.115 116.476C517.942 116.071 517.19 114.51 516.092 114.452C514.82 114.394 513.837 116.418 513.086 117.98C510.022 124.284 508.461 127.465 508.056 128.563C506.032 134.058 503.315 142.443 502.911 145.335C502.853 145.682 502.737 146.897 502.159 148.458C501.87 149.21 501.697 149.499 501.523 149.962C500.078 153.2 501.292 155.34 499.789 156.497C499.615 156.613 498.748 157.249 498.054 157.017C497.303 156.786 496.956 155.803 496.551 152.506C495.973 147.995 496.32 146.665 495.279 144.699C494.586 143.831 493.718 142.154 492.504 142.096Z" fill="white"/>
<path d="M489.729 168.873C490.134 164.652 489.498 160.545 489.267 156.323C489.151 154.299 489.151 152.217 489.44 150.193C489.614 149.037 489.845 147.88 490.192 146.781C490.77 145.104 490.828 143.716 492.678 143.658C494.412 143.6 494.296 144.641 494.586 146.087C494.875 147.359 494.932 148.689 494.99 149.962C495.106 151.755 495.164 153.605 495.568 155.34C495.973 157.133 497.071 158.637 499.095 158.001C500.136 157.654 499.731 155.976 498.632 156.323C496.609 156.902 496.782 150.078 496.667 148.921C496.493 147.07 496.32 145.162 495.626 143.427C494.643 140.998 492.389 139.783 490.481 142.039C487.995 144.93 487.475 150.135 487.475 153.721C487.475 158.81 488.457 163.784 487.995 168.873C487.937 169.972 489.671 169.972 489.729 168.873Z" fill="#161616"/>
<path d="M499.789 157.307C502.679 151.697 503.547 145.335 505.223 139.32C507.015 132.843 509.27 126.481 512.623 120.698C513.375 119.426 514.126 117.633 515.225 116.65C517.364 114.683 517.364 118.443 517.19 120.062C516.843 123.648 515.918 127.291 515.109 130.819C514.357 134.058 513.317 137.181 512.565 140.419C512.161 142.212 512.161 143.774 513.432 145.162C514.184 145.971 515.398 144.757 514.647 143.947C513.201 142.386 514.704 139.263 515.167 137.585C515.687 135.677 516.207 133.768 516.612 131.86C517.422 128.332 518.231 124.746 518.751 121.103C519.04 119.194 519.445 115.84 517.768 114.394C516.323 113.18 514.878 114.336 513.895 115.493C509.675 120.756 507.073 127.696 504.992 134.058C502.622 141.402 501.87 149.615 498.286 156.497C497.765 157.422 499.268 158.29 499.789 157.307Z" fill="#161616"/>
<path d="M513.837 145.335C515.572 145.509 516.208 144.236 517.017 142.848C518.289 140.651 519.445 138.337 520.544 136.082C522.683 131.686 524.186 126.886 526.787 122.78C527.365 121.855 528.059 120.698 528.984 120.004C529.736 119.137 530.719 118.847 531.99 119.252C532.164 120.062 532.279 120.872 532.279 121.681C532.337 124.515 531.412 127.349 530.429 130.009C528.464 135.272 526.267 140.477 524.128 145.74C523.723 146.781 525.4 147.244 525.804 146.203C527.018 143.195 539.506 116.823 531.354 116.65C529.736 116.592 527.886 118.616 526.961 119.715C525.342 121.623 524.186 123.821 523.145 126.077C521.931 128.795 520.833 131.513 519.561 134.173C518.809 135.793 517.942 137.47 517.133 139.031C516.612 140.072 515.34 143.658 513.895 143.542C512.739 143.484 512.739 145.219 513.837 145.335Z" fill="#161616"/>
<path d="M534.303 124.052C534.939 120.698 538.581 123.011 539.044 125.151C539.448 126.944 538.754 128.737 538.176 130.414C537.309 132.959 536.326 135.446 535.286 137.875C533.262 142.617 530.892 147.128 528.233 151.581C527.654 152.564 529.158 153.432 529.736 152.449C532.222 148.342 534.418 144.063 536.384 139.725C538.061 135.966 540.084 131.802 540.72 127.696C541.125 125.093 540.373 121.739 537.483 120.814C535.344 120.12 533.031 121.45 532.626 123.648C532.453 124.689 534.129 125.151 534.303 124.052Z" fill="#161616"/>
<path d="M530.95 153.143C533.147 150.656 535.286 148.169 537.483 145.682C538.639 144.352 539.679 142.906 540.951 141.75C541.356 141.403 541.761 141.113 542.108 140.766C543.09 141.113 544.073 141.46 545.114 141.807C545.403 142.328 544.709 143.832 544.536 144.294C542.744 149.788 540.142 154.993 537.078 159.851C530.892 169.625 522.394 177.838 512.45 183.794C511.467 184.373 512.392 185.876 513.317 185.298C525.689 177.895 535.864 167.023 542.281 154.126C543.842 151.003 545.345 147.706 546.328 144.352C546.906 142.386 547.253 139.725 544.998 138.684C542.801 137.643 540.489 139.668 539.101 141.113C535.806 144.526 532.8 148.343 529.678 151.928C528.984 152.738 530.198 153.952 530.95 153.143Z" fill="#161616"/>
<path d="M488.226 167.08C488.631 172.401 489.036 177.837 488.169 183.158C487.301 188.421 485.104 193.279 482.676 198.021C477.762 207.622 472.617 217.106 467.587 226.649C457.528 245.734 447.469 264.761 437.409 283.846C431.628 294.776 425.847 305.765 420.065 316.695C419.545 317.678 421.048 318.546 421.569 317.563C442.323 278.178 463.483 238.967 483.89 199.351C486.319 194.667 488.573 189.867 489.556 184.72C490.712 178.878 490.308 172.979 489.845 167.08C489.903 165.982 488.169 165.982 488.226 167.08Z" fill="#161616"/>
<path d="M512.334 183.39C493.834 222.485 477.704 262.506 463.483 303.336C459.32 315.192 455.158 327.048 450.128 338.556C449.665 339.597 451.168 340.465 451.631 339.424C460.245 319.818 466.547 299.288 473.947 279.277C481.52 258.689 489.729 238.273 498.459 218.147C503.431 206.754 508.518 195.477 513.837 184.257C514.3 183.274 512.797 182.406 512.334 183.39Z" fill="#161616"/>
<path opacity="0.1" d="M538.466 123.358C536.095 123.011 532.916 132.727 531.066 137.585C525.458 152.506 520.717 154.241 508.692 174.483C504.241 181.944 498.113 193.163 491.927 207.795C473.427 246.775 454.984 285.812 436.484 324.792C440.994 330.286 445.445 335.838 449.955 341.332C452.209 334.913 455.505 325.486 459.609 314.093C467.067 293.562 476.722 267.132 490.366 234.977C495.8 222.253 503.316 205.077 512.97 184.893C515.63 183.216 519.33 180.613 523.377 177.028C528.811 172.285 535.98 165.866 540.894 155.398C542.455 152.159 544.42 147.186 545.461 140.651C544.709 140.304 543.611 139.899 542.397 140.13C540.316 140.535 539.217 142.559 538.35 143.947C534.997 149.094 530.083 152.506 529.447 152.102C529.1 151.812 530.083 150.135 532.742 144.699C538.177 133.537 535.922 136.487 538.061 132.727C539.275 130.588 540.489 128.737 540.084 126.366C540.084 125.325 539.448 123.532 538.466 123.358Z" fill="#3F3F3F"/>
<path opacity="0.13" d="M534.939 162.801C532.048 164.651 527.944 167.37 523.261 170.955C517.884 175.004 512.103 179.399 507.247 184.951C500.656 192.469 497.766 199.93 496.031 204.267C480.133 244.866 461.228 288.935 455.851 301.196C452.903 307.905 448.278 318.025 442.15 330.17C444.925 333.814 447.758 337.457 450.533 341.101C458.511 316.753 467.703 291.249 478.225 264.819C489.556 236.423 501.292 209.877 513.086 185.182C516.266 183.042 519.85 180.324 523.492 176.796C528.637 171.881 532.337 166.907 534.939 162.801Z" fill="#3F3F3F"/>
<path d="M381.215 330.228C379.076 331.674 374.278 335.028 369.364 340.465C364.276 346.075 361.328 351.337 358.9 355.791C356.992 359.203 355.604 362.21 354.622 364.408C356.125 367.299 358.553 371.753 361.906 377.073C367.861 386.5 372.486 391.589 380.464 401.826C383.817 406.106 388.673 412.525 394.454 420.622C395.379 424.959 396.189 429.528 396.883 434.328C398.27 444.16 398.79 453.298 398.79 461.51C400.929 463.823 404.629 467.178 410.064 469.549C419.082 473.539 427.292 472.383 431.57 471.689C441.051 470.243 447.526 466.021 451.978 463.071C460.072 457.751 465.564 451.389 469.206 446.126C468.454 437.104 467.472 427.793 466.258 418.135C465.217 409.923 464.061 401.942 462.789 394.192C462.673 388.119 462.095 379.849 460.129 370.249C458.511 362.21 456.545 352.841 450.706 341.737C443.422 327.915 434.345 319.529 430.818 316.464C427.697 313.746 424.864 311.722 422.782 310.276C414.342 315.654 407.058 319.009 402.086 321.033C392.836 324.85 388.5 325.428 381.215 330.228Z" fill="white"/>
<path d="M355.547 364.639C357.339 357.815 362.311 351.453 366.589 345.901C371.098 340.118 376.186 334.855 382.256 330.633C383.181 329.997 382.314 328.493 381.389 329.129C375.145 333.467 369.884 338.845 365.259 344.802C360.808 350.528 355.778 357.005 353.928 364.119C353.639 365.275 355.315 365.68 355.547 364.639Z" fill="#161616"/>
<path d="M354.275 365.217C366.184 386.037 380.29 405.585 396.304 423.456C397.056 424.265 398.27 423.051 397.518 422.241C381.62 404.486 367.629 385.054 355.778 364.35C355.2 363.367 353.696 364.234 354.275 365.217Z" fill="#161616"/>
<path d="M403.184 321.842C409.659 317.274 416.77 313.861 424.343 311.664C425.442 311.375 424.979 309.697 423.881 309.987C416.134 312.242 408.907 315.712 402.317 320.339C401.392 320.975 402.259 322.479 403.184 321.842Z" fill="#161616"/>
<path d="M422.898 312.127C450.533 331.385 462.384 365.16 461.055 397.836C460.997 398.934 462.731 398.934 462.789 397.836C464.176 364.466 451.92 330.228 423.765 310.623C422.898 309.987 422.031 311.49 422.898 312.127Z" fill="#161616"/>
<path d="M392.547 420.043C395.553 426.232 395.9 433.923 396.536 440.632C397.229 447.456 397.461 454.339 397.461 461.221C397.461 462.32 399.195 462.32 399.195 461.221C399.253 453.587 398.906 445.953 398.039 438.377C397.345 431.957 396.882 425.017 394.05 419.118C393.529 418.135 392.084 419.002 392.547 420.043Z" fill="#161616"/>
<path d="M398.559 461.568C407.231 472.209 422.031 475.216 434.923 471.92C442.092 470.069 448.74 466.541 454.695 462.146C460.65 457.751 466.315 452.661 469.669 445.953C470.189 444.97 468.686 444.102 468.165 445.085C464.928 451.505 459.494 456.421 453.77 460.643C448.22 464.749 442.034 468.103 435.328 470.012C422.725 473.539 408.214 470.821 399.715 460.353C399.08 459.486 397.865 460.7 398.559 461.568Z" fill="#161616"/>
<path d="M461.69 395.233C464.523 412.178 467.298 429.123 468.281 446.242C468.339 447.341 470.073 447.341 470.015 446.242C468.975 428.95 466.2 411.831 463.367 394.77C463.193 393.671 461.517 394.134 461.69 395.233Z" fill="#161616"/>
<path opacity="0.13" d="M405.381 319.529C411.798 327.105 420.586 338.903 427.928 354.865C438.681 378.23 440.82 398.414 442.439 415.59C443.711 428.661 444.404 446.878 441.861 468.623C446.775 466.484 453.712 462.782 460.418 456.363C464.118 452.777 466.893 449.191 468.975 446.068C467.067 429.933 465.159 413.74 463.251 397.604C463.598 384.302 461.517 373.545 459.551 366.258C453.481 343.703 441.803 329.187 437.871 324.618C432.495 318.315 427.234 313.688 423.361 310.623C417.348 313.63 411.393 316.58 405.381 319.529Z" fill="#3F3F3F"/>
<path opacity="0.14" d="M448.452 339.771C447.411 340.06 449.839 349.487 452.152 363.425C452.152 363.425 455.678 384.592 456.43 405.065C456.95 418.598 456.256 438.377 450.186 462.956C452.961 461.568 456.372 459.544 459.898 456.71C464.177 453.24 467.241 449.596 469.322 446.705C468.57 423.398 466.605 411.311 464.755 404.486C464.408 403.156 463.483 400.033 462.731 395.638C461.344 387.425 462.037 383.898 461.286 377.073C460.708 371.637 459.609 368.051 457.586 361.4C454.522 351.395 449.608 339.424 448.452 339.771Z" fill="#3F3F3F"/>
<path d="M380.406 235.092C376.591 237.232 371.734 240.471 367.052 245.387C357.339 255.739 354.217 267.306 353.119 273.031C352.251 272.915 349.881 272.742 347.973 274.246C345.141 276.443 345.083 280.781 346.181 283.325C346.586 284.251 347.164 285.003 348.378 286.506C349.823 288.299 350.748 289.398 352.251 290.034C352.887 290.323 354.333 290.728 356.414 290.265C357.05 292.174 358.091 294.834 359.651 297.899C361.675 301.832 364.739 307.673 370.867 312.763C372.659 314.266 375.434 316.233 379.192 318.025C380.58 319.818 383.123 323.577 383.412 328.667C383.991 337.631 377.458 345.091 371.272 348.388C360.519 354.113 348.841 348.388 344.562 346.248C342.25 345.091 330.63 339.077 325.773 325.891C319.876 309.987 327.566 294.082 332.133 284.598C336.758 275.055 338.897 275.691 342.423 266.38C347.106 254.062 344.62 249.724 349.997 240.297C352.078 236.596 356.298 229.193 365.144 225.723C372.717 222.774 379.712 224.278 382.719 225.145C385.205 223.641 389.598 221.502 395.148 221.502C408.33 221.502 416.77 233.994 418.794 237.001C424.806 245.849 421.626 248.568 427.003 261.002C433.767 276.675 440.358 275.749 446.428 290.439C449.376 297.61 454.291 309.466 448.856 320.801C443.248 332.484 430.472 335.896 428.853 336.301C425.905 337.053 417.984 339.019 410.064 334.797C409.312 334.392 399.369 328.956 398.559 319.645C398.27 316.233 399.253 313.052 399.484 312.358C400.698 308.599 402.78 306.17 403.416 305.36C405.901 302.295 408.908 296.627 410.989 285.35C411.972 285.292 413.591 285.06 415.209 284.135C418.62 282.169 420.239 278.178 420.066 274.708C420.008 273.899 419.776 269.272 416.423 267.71C415.036 267.074 413.591 267.248 412.781 267.421C402.028 256.549 391.217 245.849 380.406 235.092Z" fill="#5222D0"/>
<path d="M380.406 235.035C373.989 238.794 369.537 242.958 366.704 246.023C357.281 256.259 354.275 266.959 353.639 269.445C353.234 271.007 352.945 272.279 352.829 273.205C352.194 272.973 350.748 272.568 349.303 273.205C347.106 274.188 346.644 276.848 346.412 278.178C345.834 281.243 346.99 283.672 347.453 284.598C348.089 285.928 349.129 288.068 351.615 289.167C353.639 290.092 355.547 289.745 356.356 289.571C357.165 291.653 358.322 294.545 360.114 297.842C362.831 303.047 365.375 307.847 370.289 312.126C372.197 313.804 375.319 316.117 379.828 317.91C380.753 319.356 382.025 321.611 382.719 324.561C383.297 326.874 383.412 328.84 383.354 330.344C384.858 331.096 387.69 332.252 391.217 332.195C397.981 332.079 402.433 327.857 403.473 326.816C402.375 323.52 401.392 319.471 400.987 314.787C400.814 312.647 400.756 310.623 400.756 308.772C402.548 306.864 404.745 304.145 406.537 300.502C409.717 294.198 410.237 288.357 410.295 284.945C411.104 285.06 412.723 285.234 414.458 284.54C416.886 283.557 417.984 281.417 418.62 280.202C418.794 279.913 421.222 274.94 419.025 270.024C418.504 268.925 417.637 266.901 415.903 266.727C414.631 266.612 413.59 267.595 413.186 268C410.815 265.166 406.364 259.903 400.12 252.674C394.744 246.37 391.333 242.437 385.609 238.389C383.528 236.885 381.678 235.786 380.406 235.035Z" fill="white"/>
<path d="M372.428 296.396C371.85 297.726 374.567 300.097 375.839 301.08C378.498 303.047 381.331 303.336 382.372 303.394C383.586 303.509 387.575 303.798 391.217 301.196C392.084 300.56 394.512 298.883 395.437 295.76C396.073 293.504 395.9 290.381 394.686 289.861C393.761 289.514 392.893 290.67 390.928 292.058C387.459 294.429 383.875 295.008 380.811 295.47C375.607 296.28 373.006 295.239 372.428 296.396Z" fill="black"/>
<path d="M354.101 283.036C356.183 291.711 359.536 300.213 365.086 307.268C370 313.572 377.284 319.645 385.783 318.835C393.645 318.083 400.062 311.953 404.225 305.707C409.139 298.42 411.509 289.687 411.278 280.896C411.22 279.798 409.486 279.798 409.543 280.896C409.775 288.935 407.693 296.801 403.473 303.625C399.484 310.044 392.893 316.811 384.858 317.158C376.359 317.505 369.364 310.565 364.854 304.088C360.345 297.61 357.57 290.15 355.72 282.516C355.489 281.475 353.812 281.937 354.101 283.036Z" fill="#161616"/>
<path d="M378.672 318.025C381.1 321.727 382.314 325.775 382.314 330.228C382.314 331.327 384.048 331.327 384.048 330.228C384.048 325.544 382.718 321.091 380.175 317.158C379.597 316.175 378.093 317.042 378.672 318.025Z" fill="#161616"/>
<path d="M383.123 330.922C390.176 334.971 399.311 333.004 404.109 326.527C404.803 325.659 403.3 324.792 402.606 325.659C398.328 331.385 390.119 333.004 383.99 329.419C383.008 328.898 382.14 330.402 383.123 330.922Z" fill="#161616"/>
<path d="M399.773 310.276C399.831 315.539 400.641 320.744 402.317 325.775C402.664 326.816 404.341 326.353 403.994 325.312C402.433 320.397 401.566 315.423 401.508 310.276C401.508 309.119 399.773 309.119 399.773 310.276Z" fill="#161616"/>
<path d="M355.836 288.53C355.084 289.34 353.234 289.051 352.367 288.588C351.673 288.241 351.037 287.721 350.517 287.2C349.361 286.101 348.436 284.771 347.858 283.325C346.702 280.607 346.181 272.8 351.327 274.188C352.425 274.477 352.887 272.8 351.789 272.511C345.43 270.833 344.447 279.277 346.066 283.499C347.337 286.911 353.177 293.967 357.108 289.745C357.802 288.935 356.587 287.721 355.836 288.53Z" fill="#161616"/>
<path d="M413.937 268.289C414.631 265.975 417.637 270.429 417.984 271.238C418.678 273.089 418.909 275.113 418.62 277.079C418.158 281.012 415.036 284.771 410.7 283.672C409.602 283.383 409.139 285.06 410.237 285.35C417.233 287.142 420.991 279.855 420.355 273.899C420.066 271.296 419.025 267.942 416.539 266.554C414.92 265.686 412.839 265.918 412.261 267.768C411.914 268.925 413.591 269.33 413.937 268.289Z" fill="#161616"/>
<path d="M362.022 256.028C363.929 252.385 367.283 250.013 371.329 249.435C372.428 249.262 371.965 247.584 370.867 247.758C366.415 248.394 362.6 251.17 360.519 255.161C359.998 256.144 361.501 257.011 362.022 256.028Z" fill="#161616"/>
<path d="M388.731 247.122C393.587 245.965 398.444 248.394 400.641 252.789C401.161 253.773 402.606 252.905 402.144 251.922C399.6 246.775 393.819 244.114 388.269 245.445C387.17 245.734 387.633 247.411 388.731 247.122Z" fill="#161616"/>
<path d="M376.128 254.235C377.226 260.366 377.515 266.669 376.879 272.915C376.648 274.824 375.723 277.542 376.59 279.451C377.515 281.533 380.001 283.325 381.562 284.945C382.314 285.754 383.586 284.54 382.776 283.73C381.736 282.631 380.695 281.59 379.654 280.492C378.036 278.814 377.862 278.294 378.209 275.865C378.498 273.667 378.787 271.412 378.903 269.156C379.134 264.009 378.729 258.862 377.804 253.83C377.631 252.674 375.954 253.136 376.128 254.235Z" fill="#161616"/>
<path d="M368.843 269.098C367.976 267.71 367.572 266.207 367.687 264.587C367.687 264.24 367.918 262.737 368.207 262.679C368.381 262.679 368.67 264.703 368.728 264.934C368.843 265.686 368.901 266.496 368.901 267.248C368.901 267.479 368.843 269.388 368.843 268.231C368.786 266.554 368.901 264.877 368.959 263.199C368.381 263.257 367.803 263.373 367.282 263.431C367.572 265.224 367.745 267.016 367.745 268.867C368.323 268.867 368.901 268.867 369.479 268.867C369.479 268.636 369.479 268.404 369.479 268.173C369.479 267.074 367.745 267.074 367.745 268.173C367.745 268.404 367.745 268.636 367.745 268.867C367.745 269.966 369.479 269.966 369.479 268.867C369.479 266.901 369.306 264.934 368.959 262.968C368.786 261.985 367.282 262.274 367.282 263.199C367.225 265.05 366.993 267.074 367.225 268.925C367.34 269.792 367.745 270.602 368.728 270.776C371.618 271.354 370.751 265.686 370.52 264.298C370.347 263.199 370.173 261.522 369.132 260.886C368.265 260.366 367.34 260.886 366.82 261.696C365.375 264.125 366.184 267.71 367.514 269.908C367.918 270.891 369.422 270.024 368.843 269.098Z" fill="#161616"/>
<path d="M395.553 266.033C394.686 264.645 394.281 263.142 394.397 261.522C394.397 261.175 394.628 259.672 394.917 259.614C395.09 259.614 395.379 261.638 395.437 261.869C395.553 262.621 395.611 263.431 395.611 264.183C395.611 264.414 395.553 266.322 395.553 265.166C395.495 263.489 395.611 261.811 395.668 260.134C395.09 260.192 394.512 260.308 393.992 260.366C394.281 262.158 394.454 263.951 394.454 265.802C395.033 265.802 395.611 265.802 396.189 265.802C396.189 265.571 396.189 265.339 396.189 265.108C396.189 264.009 394.454 264.009 394.454 265.108C394.454 265.339 394.454 265.571 394.454 265.802C394.454 266.901 396.189 266.901 396.189 265.802C396.189 263.836 396.015 261.869 395.668 259.903C395.495 258.92 393.992 259.209 393.992 260.134C393.934 261.985 393.703 264.009 393.934 265.86C394.05 266.727 394.454 267.537 395.437 267.71C398.328 268.289 397.461 262.621 397.229 261.233C397.056 260.134 396.883 258.457 395.842 257.821C394.975 257.3 394.05 257.821 393.529 258.631C392.084 261.06 392.893 264.645 394.223 266.843C394.628 267.884 396.131 267.016 395.553 266.033Z" fill="#161616"/>
<path d="M360.287 274.419C361.386 274.419 361.386 272.684 360.287 272.684C359.189 272.684 359.189 274.419 360.287 274.419Z" fill="#161616"/>
<path d="M367.109 275.691C367.167 275.691 367.225 275.691 367.341 275.691C367.803 275.691 368.208 275.287 368.208 274.824C368.208 274.361 367.803 273.956 367.341 273.956C367.283 273.956 367.225 273.956 367.109 273.956C366.647 273.956 366.242 274.361 366.242 274.824C366.242 275.287 366.589 275.691 367.109 275.691Z" fill="#161616"/>
<path d="M363.062 281.012C364.161 281.012 364.161 279.277 363.062 279.277C361.964 279.277 361.906 281.012 363.062 281.012Z" fill="#161616"/>
<path d="M395.9 273.552C395.958 273.552 396.016 273.552 396.131 273.552C396.594 273.552 396.998 273.147 396.998 272.684C396.998 272.221 396.594 271.817 396.131 271.817C396.073 271.817 396.016 271.817 395.9 271.817C395.437 271.817 395.033 272.221 395.033 272.684C395.033 273.147 395.38 273.552 395.9 273.552Z" fill="#161616"/>
<path d="M402.259 269.272C403.358 269.272 403.358 267.537 402.259 267.537C401.161 267.537 401.161 269.272 402.259 269.272Z" fill="#161616"/>
<path d="M401.392 273.956C401.45 273.956 401.508 273.956 401.623 273.956C402.086 273.956 402.491 273.552 402.491 273.089C402.491 272.626 402.086 272.221 401.623 272.221C401.566 272.221 401.508 272.221 401.392 272.221C400.93 272.221 400.525 272.626 400.525 273.089C400.583 273.552 400.93 273.956 401.392 273.956Z" fill="#161616"/>
<path d="M373.873 297.726C372.948 296.396 371.445 294.487 372.081 292.752C372.833 290.786 375.203 291.075 376.764 291.306C378.672 291.596 380.233 291.943 382.083 291.364C383.586 290.902 384.915 289.918 386.303 289.167C389.598 287.316 393.472 287.142 394.512 291.48C397.461 303.336 376.533 306.69 373.295 296.28C372.948 295.239 371.272 295.644 371.619 296.743C375.608 309.524 400.351 304.782 396.015 290.612C395.264 288.241 393.472 286.217 390.928 285.928C386.765 285.523 384.048 289.687 380.059 289.976C377.111 290.208 373.526 287.952 371.156 290.728C369.017 293.215 370.751 296.396 372.312 298.593C373.006 299.519 374.509 298.651 373.873 297.726Z" fill="#161616"/>
<path d="M370.52 294.429C371.792 297.957 378.151 296.858 380.926 296.454C386.245 295.644 391.101 293.331 395.206 289.918C396.073 289.224 394.859 287.952 393.992 288.704C390.986 291.249 387.517 293.099 383.701 294.14C382.025 294.603 373.179 296.569 372.254 294.025C371.792 292.926 370.115 293.388 370.52 294.429Z" fill="#161616"/>
<path d="M380.811 319.818C387.575 321.553 396.593 317.274 400.409 311.664C401.045 310.738 399.542 309.871 398.906 310.796C395.553 315.712 387.17 319.645 381.273 318.141C380.175 317.852 379.712 319.529 380.811 319.818Z" fill="#161616"/>
<path d="M381.446 320.339C387.459 324.098 397.345 318.777 400.236 313.052C400.756 312.069 399.253 311.201 398.732 312.184C396.304 317.042 387.459 322.074 382.314 318.893C381.331 318.257 380.464 319.76 381.446 320.339Z" fill="#161616"/>
<path opacity="0.2" d="M405.439 259.035C405.844 261.117 406.364 264.414 406.711 268.404C407.52 279.046 408.908 296.858 398.155 308.714C395.842 311.259 390.928 315.77 381.852 318.315C384.742 318.199 388.269 317.852 392.084 316.869C393.992 316.406 395.727 315.828 397.288 315.192C397.519 320.339 397.692 325.486 397.923 330.633C399.889 329.361 401.797 328.146 403.763 326.874C401.103 320.975 401.103 316.406 401.45 313.514C401.97 309.466 403.473 306.17 404.977 302.873C406.306 299.981 407.694 297.668 408.792 296.049C408.908 297.263 409.197 298.536 410.006 299.75C413.533 305.013 424.575 305.533 431.513 301.022C437.93 296.858 441.052 288.415 439.433 279.74C440.531 280.665 441.688 281.764 442.786 283.094C443.653 284.135 445.908 287.142 449.03 297.726C450.013 301.022 450.475 302.7 450.764 304.377C451.111 306.69 451.747 311.085 450.533 316.059C448.452 324.618 442.266 329.534 440.416 330.922C439.086 331.905 435.039 334.855 428.969 336.243C426.078 336.879 417.406 338.961 409.255 334.219C406.191 332.426 404.514 331.096 403.589 329.476C402.606 327.684 402.491 326.006 402.375 324.734C401.855 316.811 401.623 312.82 402.144 310.102C403.705 302.237 407.231 301.427 409.197 292.463C409.891 289.224 410.064 286.506 410.122 284.771C410.873 284.887 412.03 285.003 413.417 284.656C416.308 283.904 417.753 281.533 418.273 280.665C420.355 277.369 421.28 271.47 418.042 268.751C417.58 268.347 415.961 267.132 412.839 267.363C410.469 264.587 407.983 261.811 405.439 259.035Z" fill="#3F3F3F"/>
<path opacity="0.13" d="M378.036 277.773C380.984 278.641 383.99 279.566 386.939 280.434C386.187 281.128 385.436 281.764 384.626 282.458C383.875 283.094 383.181 283.615 382.429 284.193C381.504 283.499 380.175 282.284 379.134 280.434C378.556 279.451 378.209 278.525 378.036 277.773Z" fill="#3F3F3F"/>
<path opacity="0.16" d="M331.67 285.003C325.369 307.268 330.051 325.255 339.475 329.187C346.875 332.252 360.23 327.915 362.715 320.339C363.062 319.356 363.409 317.621 362.08 312.3C360.923 307.615 358.553 300.56 353.234 292.521C352.309 291.943 351.095 291.017 349.939 289.629C347.915 287.142 347.337 284.482 347.164 283.21C348.84 284.945 351.269 287.142 352.83 286.448C354.333 285.754 355.258 283.672 354.737 281.59C355.258 284.251 356.067 287.894 357.57 292.116C359.536 297.726 361.501 303.162 366.069 308.309C368.15 310.681 372.255 314.555 379.192 317.331C380.348 318.777 382.487 321.9 383.181 326.469C383.297 327.163 383.701 330.344 382.661 334.334C382.43 335.26 381.042 340.291 376.475 344.629C371.156 349.718 364.797 350.643 362.715 350.933C347.048 353.015 334.908 339.308 332.769 336.937C330.63 334.508 327.103 330.46 325.08 324.214C321.842 314.266 324.328 305.302 326.12 298.767C327.797 292.637 330.051 288.01 331.67 285.003Z" fill="#3F3F3F"/>
</svg>
